<COLLADA xmlns="http://www.collada.org/2005/11/COLLADASchema" version="1.4.1">
  <asset>
    <contributor/>
    <created>2026-09-16T16:52:55.472790</created>
    <modified>2026-09-16T16:52:55.472790</modified>
    <unit name="meter" meter="1.0"/>
    <up_axis>Z_UP</up_axis>
  </asset>
  <library_effects>
    <effect id="effect_BREP_WITH_VOIDS_92280_2_1_002_shape002" name="effect_BREP_WITH_VOIDS_92280_2_1_002_shape002">
      <profile_COMMON>
        <technique sid="common">
          <phong>
            <emission>
              <color>0.0 0.0 0.0 1.0</color>
            </emission>
            <ambient>
              <color>0.0 0.0 0.0 1.0</color>
            </ambient>
            <diffuse>
              <color>0.67843097448349 0.7098039984703064 0.7411760091781616 1.0</color>
            </diffuse>
            <specular>
              <color>1 1 1 1.0</color>
            </specular>
            <shininess>
              <float>0.0</float>
            </shininess>
            <reflective>
              <color>0.0 0.0 0.0 1.0</color>
            </reflective>
            <reflectivity>
              <float>0.0</float>
            </reflectivity>
            <transparent>
              <color>0.0 0.0 0.0 1.0</color>
            </transparent>
            <transparency>
              <float>1.0</float>
            </transparency>
          </phong>
        </technique>
        <extra>
          <technique profile="GOOGLEEARTH">
            <double_sided>0</double_sided>
          </technique>
        </extra>
      </profile_COMMON>
    </effect>
  </library_effects>
  <library_geometries>
    <geometry id="geometry0" name="BREP_WITH_VOIDS_92280_2_1_002_shape002">
      <mesh>
        <source id="cubeverts-array0">
          <float_array count="144" id="cubeverts-array0-array">0.0014 -0.00111 -0.001684994 0.00155 -0.00111 -0.001684994 0.00155 -0.00111 -0.001584994 0.0014 -0.00111 -0.001584994 0.00155 -0.001048874 -0.001410282 0.00155 -0.0009863346 -0.001342288 0.00155 -0.001052705 -0.001408658 0.00155 -0.0009837524 -0.001344066 0.00155 -0.0009027036 -0.001299676 0.00155 -0.000901499 -0.00130094 0.00155 -0.001090624 -0.001493242 0.00155 -0.001095317 -0.001492288 0.00155 -0.000809998 -0.001284994 0.00155 -0.001105 -0.001584996 0.00155 -0.001105 -0.001684996 0.00155 -0.001095317 -0.001777699 0.00155 -0.001090624 -0.00177675 0.00155 -0.001052705 -0.00186133 0.00155 -0.001048875 -0.00185971 0.00155 -0.0009863347 -0.001927699 0.00155 -0.0009837526 -0.001925926 0.00155 -0.0009027038 -0.001970311 0.00155 -0.0009014993 -0.001969052 0.00155 -0.0008099983 -0.001984994 0.0014 -0.0008099988 -0.001984979 0.0014 -0.0009027041 -0.001970311 0.0014 -0.000986335 -0.001927699 0.0014 -0.001052705 -0.00186133 0.0014 -0.001095317 -0.001777699 0.0014 -0.0008038419 -0.001984994 0.00155 -0.0008038419 -0.001984994 0.0014 -0.0009014998 -0.001969052 0.0014 -0.000983753 -0.001925926 0.0014 -0.001048875 -0.00185971 0.0014 -0.001090624 -0.00177675 0.0014 -0.001105 -0.001684996 0.0014 -0.001105 -0.001584996 0.0014 -0.001090624 -0.001493242 0.0014 -0.001048875 -0.001410282 0.0014 -0.0009837528 -0.001344066 0.0014 -0.0009014996 -0.00130094 0.0014 -0.0008099985 -0.00128501 0.0014 -0.0008049998 -0.001284995 0.00155 -0.0008049998 -0.001284995 0.0014 -0.001095317 -0.001492288 0.0014 -0.001052705 -0.001408658 0.0014 -0.0009863349 -0.001342288 0.0014 -0.0009027039 -0.001299676</float_array>
          <technique_common>
            <accessor count="48" source="#cubeverts-array0-array" stride="3">
              <param type="float" name="X"/>
              <param type="float" name="Y"/>
              <param type="float" name="Z"/>
            </accessor>
          </technique_common>
        </source>
        <source id="cubenormals-array0">
          <float_array count="240" id="cubenormals-array0-array">0 -1 0 0 -1 0 1 0 -0 1 0 0 1 0 0 1 0 0 1 0 -0 1 0 0 1 0 0 1 0 -0 1 0 0 1 0 0 1 0 -0 1 0 0 1 0 0 1 0 0 1 0 0 1 0 0 1 0 0 1 0 -0 1 0 0 1 0 0 1.938824e-07 -0.4539874 -0.8910081 -4.744711e-07 -0.1562763 -0.9877133 5.619528e-07 -0.7071046 -0.707109 1.348448e-08 -0.4539877 -0.891008 -1.349406e-08 -0.8910055 -0.4539925 -5.619603e-07 -0.7071058 -0.7071077 -1.243231e-07 -0.9876883 -0.1564347 -3.608005e-07 -0.8910058 -0.4539919 0 -0.9876882 -0.1564349 -9.567906e-07 0.4643496 0.8856521 1.67125e-07 0.1714859 0.9851866 -2.808714e-08 0.7129726 0.701192 1.019503e-06 0.4643523 0.8856505 4.606728e-09 0.8932649 0.4495308 5.682483e-07 0.7129732 0.7011913 -6.621345e-07 0.9879475 0.1547896 -3.509767e-07 0.8932646 0.4495312 0 0.9879476 0.1547885 0 1 -0 0 1 0 0 0.9879476 -0.1547883 -6.60169e-07 0.9879475 -0.1547894 -7.019523e-07 0.8932644 -0.4495318 -3.526476e-07 0.8932646 -0.4495312 -6.016728e-07 0.7129722 -0.7011923 -1.872579e-08 0.7129729 -0.7011916 -2.674102e-07 0.4643503 -0.8856516 3.006054e-07 0.4643511 -0.8856512 9.525207e-07 0.1715145 -0.9851816 0 -0.9876882 0.1564349 -1.243231e-07 -0.9876883 0.1564347 3.473056e-07 -0.891005 0.4539935 -3.638199e-07 -0.8910055 0.4539925 -5.04677e-12 -0.7071052 0.7071083 0 -0.7071052 0.7071084 3.742766e-07 -0.4539859 0.8910089 -6.945652e-07 -0.4539874 0.8910081 -4.13443e-07 -0.1562587 0.9877161 -1 0 0 -1 -0 0 -1 0 0 -1 0 -0 -1 0 0 -1 -0 0 -1 0 0 -1 0 0 -1 -0 0 -1 -0 0 -1 0 -0 -1 -0 -0 -1 0 0 -1 0 -0 -1 0 0 -1 0 -0 -1 0 0 -1 -0 0 -1 0 -0 -1 0 -0</float_array>
          <technique_common>
            <accessor count="80" source="#cubenormals-array0-array" stride="3">
              <param type="float" name="X"/>
              <param type="float" name="Y"/>
              <param type="float" name="Z"/>
            </accessor>
          </technique_common>
        </source>
        <vertices id="cubeverts-array0-vertices">
          <input semantic="POSITION" source="#cubeverts-array0"/>
        </vertices>
        <triangles count="80" material="ref_BREP_WITH_VOIDS_92280_2_1_002_shape002">
          <input offset="0" semantic="VERTEX" source="#cubeverts-array0-vertices"/>
          <input offset="1" semantic="NORMAL" source="#cubenormals-array0"/>
          <p>0 0 1 0 2 0 3 1 0 1 2 1 4 2 5 2 6 2 4 3 7 3 5 3 8 4 5 4 7 4 9 5 8 5 7 5 10 6 6 6 11 6 10 7 4 7 6 7 12 8 8 8 9 8 13 9 11 9 2 9 13 10 10 10 11 10 1 11 13 11 2 11 14 12 13 12 1 12 15 13 14 13 1 13 16 14 14 14 15 14 17 15 16 15 15 15 18 16 16 16 17 16 19 17 18 17 17 17 20 18 18 18 19 18 21 19 22 19 20 19 21 20 20 20 19 20 23 21 22 21 21 21 25 22 21 22 19 22 25 23 24 23 21 23 26 24 19 24 17 24 26 25 25 25 19 25 27 26 17 26 15 26 27 27 26 27 17 27 28 28 15 28 1 28 28 29 27 29 15 29 0 30 28 30 1 30 22 31 31 31 20 31 24 32 31 32 22 32 20 33 32 33 18 33 31 34 32 34 20 34 18 35 33 35 16 35 32 36 33 36 18 36 16 37 34 37 14 37 33 38 34 38 16 38 34 39 35 39 14 39 14 40 36 40 13 40 35 41 36 41 14 41 36 42 37 42 13 42 13 43 37 43 10 43 10 44 38 44 4 44 37 45 38 45 10 45 4 46 39 46 7 46 38 47 39 47 4 47 7 48 40 48 9 48 39 49 40 49 7 49 40 50 41 50 9 50 44 51 3 51 2 51 44 52 2 52 11 52 45 53 11 53 6 53 45 54 44 54 11 54 46 55 6 55 5 55 46 56 45 56 6 56 47 57 5 57 8 57 47 58 46 58 5 58 41 59 47 59 8 59 46 60 38 60 45 60 39 61 38 61 46 61 46 62 47 62 39 62 47 63 40 63 39 63 45 64 37 64 44 64 38 65 37 65 45 65 47 66 41 66 40 66 44 67 36 67 3 67 37 68 36 68 44 68 36 69 0 69 3 69 36 70 35 70 0 70 35 71 28 71 0 71 35 72 34 72 28 72 34 73 27 73 28 73 34 74 33 74 27 74 33 75 26 75 27 75 33 76 32 76 26 76 31 77 25 77 32 77 32 78 25 78 26 78 31 79 24 79 25 79</p>
        </triangles>
      </mesh>
    </geometry>
  </library_geometries>
  <library_materials>
    <material id="mat_BREP_WITH_VOIDS_92280_2_1_002_shape002" name="BREP_WITH_VOIDS_92280_2_1_002_shape002">
      <instance_effect url="#effect_BREP_WITH_VOIDS_92280_2_1_002_shape002"/>
    </material>
  </library_materials>
  <library_visual_scenes>
    <visual_scene id="myscene">
      <node id="node0" name="node0">
        <instance_geometry url="#geometry0">
          <bind_material>
            <technique_common>
              <instance_material symbol="ref_BREP_WITH_VOIDS_92280_2_1_002_shape002" target="#mat_BREP_WITH_VOIDS_92280_2_1_002_shape002"/>
            </technique_common>
          </bind_material>
        </instance_geometry>
      </node>
    </visual_scene>
  </library_visual_scenes>
  <scene>
    <instance_visual_scene url="#myscene"/>
  </scene>
</COLLADA>
