<COLLADA xmlns="http://www.collada.org/2005/11/COLLADASchema" version="1.4.1">
  <asset>
    <contributor/>
    <created>2026-09-16T16:52:39.713600</created>
    <modified>2026-09-16T16:52:39.713600</modified>
    <unit name="meter" meter="1.0"/>
    <up_axis>Z_UP</up_axis>
  </asset>
  <library_effects>
    <effect id="effect_COMPOUND004_shape002" name="effect_COMPOUND004_shape002">
      <profile_COMMON>
        <technique sid="common">
          <phong>
            <emission>
              <color>0.0 0.0 0.0 1.0</color>
            </emission>
            <ambient>
              <color>0.0 0.0 0.0 1.0</color>
            </ambient>
            <diffuse>
              <color>0.67843097448349 0.7098039984703064 0.7411760091781616 1.0</color>
            </diffuse>
            <specular>
              <color>1 1 1 1.0</color>
            </specular>
            <shininess>
              <float>0.0</float>
            </shininess>
            <reflective>
              <color>0.0 0.0 0.0 1.0</color>
            </reflective>
            <reflectivity>
              <float>0.0</float>
            </reflectivity>
            <transparent>
              <color>0.0 0.0 0.0 1.0</color>
            </transparent>
            <transparency>
              <float>1.0</float>
            </transparency>
          </phong>
        </technique>
        <extra>
          <technique profile="GOOGLEEARTH">
            <double_sided>0</double_sided>
          </technique>
        </extra>
      </profile_COMMON>
    </effect>
  </library_effects>
  <library_geometries>
    <geometry id="geometry0" name="COMPOUND004_shape002">
      <mesh>
        <source id="cubeverts-array0">
          <float_array count="978" id="cubeverts-array0-array">0.01229002 0.0318244 0.005800051 0.01229002 0.03291426 0.005800051 0.01219188 0.03291426 0.005797642 0.01219188 0.0318244 0.005797642 0.01199656 0.0318244 0.005778404 0.01180406 0.03291426 0.005740113 0.01180406 0.0318244 0.005740113 0.01170945 0.03291426 0.005713932 0.01170945 0.0318244 0.005713932 0.01161624 0.0318244 0.005683139 0.01143491 0.0318244 0.005608029 0.01134723 0.03291426 0.005563893 0.01134723 0.0318244 0.005563893 0.01126182 0.03291426 0.005515508 0.01117888 0.0318244 0.00546299 0.01109862 0.03291426 0.005406466 0.01109862 0.0318244 0.005406466 0.01102123 0.0318244 0.005346072 0.0109469 0.0318244 0.005281953 0.01087581 0.03291426 0.005214264 0.01087581 0.0318244 0.005214264 0.01080812 0.03291426 0.005143169 0.010744 0.0318244 0.005068837 0.01048204 0.03291426 0.004655161 0.01044226 0.03291426 0.004565418 0.01044226 0.0318244 0.004565418 0.01040693 0.03291426 0.004473831 0.01034996 0.03291426 0.004286011 0.01032845 0.03291426 0.004190231 0.01031167 0.03291426 0.004093512 0.01029965 0.03291426 0.003996085 0.01029243 0.03291426 0.003898186 0.01029243 0.0318244 0.003898186 0.01029002 0.0318244 0.003800051 0.01029002 0.03291426 0.003800051 0.01474381 0.03291426 0.001600051 0.01029002 0.03291426 0.001600051 0.01474381 0.03291426 0.005800051 0.01474381 0.0318244 0.005800051 0.01474381 0.03481336 0.005800051 0.01229002 0.03481336 0.005800051 0.01229002 0.03353547 0.005800051 0.01474381 0.03353547 0.005800051 0.01474381 0.03540682 0.005800051 0.01229002 0.03677963 0.005800051 0.01229002 0.03540682 0.005800051 0.01474381 0.03677963 0.005800051 0.01574381 0.04170739 0.005800051 0.01474665 0.04270739 0.005800051 0.01474381 0.04258741 0.005800051 0.06980414 0.0010127 0.005800051 0.01574381 0.0010127 0.005800051 0.01474381 1.270002e-05 0.005800051 0.07080414 1.270002e-05 0.005800051 0.07080414 0.04270739 0.005800051 0.06980414 0.04170739 0.005800051 0.01219188 0.03481336 0.005797642 0.01209399 0.03481336 0.00579042 0.01209399 0.03353547 0.00579042 0.01199656 0.03353547 0.005778404 0.01189984 0.03353547 0.005761621 0.01170945 0.03481336 0.005713932 0.01161624 0.03481336 0.005683139 0.01161624 0.03353547 0.005683139 0.01134723 0.03481336 0.005563893 0.01109862 0.03481336 0.005406466 0.0109469 0.03481336 0.005281953 0.01087581 0.03353547 0.005214264 0.01080812 0.03481336 0.005143169 0.010744 0.03481336 0.005068837 0.010744 0.03353547 0.005068837 0.01068361 0.03481336 0.004991449 0.01068361 0.03353547 0.004991449 0.01057456 0.03481336 0.004828256 0.01052618 0.03353547 0.004742844 0.01048204 0.03481336 0.004655161 0.01048204 0.03353547 0.004655161 0.01044226 0.03481336 0.004565418 0.01044226 0.03353547 0.004565418 0.01040693 0.03481336 0.004473831 0.01037614 0.03353547 0.00438062 0.01032845 0.03481336 0.004190231 0.01032845 0.03353547 0.004190231 0.01031167 0.03353547 0.004093512 0.01029002 0.03481336 0.003800051 0.01029002 0.03353547 0.003800051 0.01474381 0.03481336 0.001600051 0.01029002 0.03481336 0.001600051 0.01219188 0.03677963 0.005797642 0.01219188 0.03540682 0.005797642 0.01209399 0.03677963 0.00579042 0.01199656 0.03677963 0.005778404 0.01189984 0.03540682 0.005761621 0.01180406 0.03677963 0.005740113 0.01180406 0.03540682 0.005740113 0.01170945 0.03540682 0.005713932 0.01152465 0.03677963 0.00564781 0.01152465 0.03540682 0.00564781 0.01143491 0.03540682 0.005608029 0.01134723 0.03677963 0.005563893 0.01117888 0.03540682 0.00546299 0.01109862 0.03540682 0.005406466 0.0109469 0.03677963 0.005281953 0.0109469 0.03540682 0.005281953 0.01087581 0.03677963 0.005214264 0.010744 0.03540682 0.005068837 0.01068361 0.03540682 0.004991449 0.01062708 0.03677963 0.004911191 0.01062708 0.03540682 0.004911191 0.01057456 0.03677963 0.004828256 0.01057456 0.03540682 0.004828256 0.01052618 0.03540682 0.004742844 0.01048204 0.03677963 0.004655161 0.01044226 0.03677963 0.004565418 0.01040693 0.03677963 0.004473831 0.01037614 0.03677963 0.00438062 0.01037614 0.03540682 0.00438062 0.01034996 0.03677963 0.004286011 0.01034996 0.03540682 0.004286011 0.01032845 0.03677963 0.004190231 0.01032845 0.03540682 0.004190231 0.01029965 0.03677963 0.003996085 0.01029965 0.03540682 0.003996085 0.01029002 0.03677963 0.003800051 0.01029002 0.03540682 0.003800051 0.01474381 0.03540682 0.001600051 0.01029002 0.03540682 0.001600051 0.06980414 0.0010127 0.001600051 0.01574381 0.0010127 0.001600051 0.06980414 0.04170739 0.001600051 0.01574381 0.04170739 0.001600051 0.01474381 0.04258741 0.001600051 0.01474381 0.03677963 0.001600051 0.01474665 0.04270739 0.001600051 0.07080414 0.04270739 0.001600051 0.07080414 1.270002e-05 0.001600051 0.01474381 1.270002e-05 0.001600051 0.01474381 0.0318244 0.001600051 0.01029002 0.0318244 0.001600051 0.01474381 0.03353547 0.001600051 0.01029002 0.03353547 0.001600051 0.01029002 0.03677963 0.001600051 0.01229002 0.04270739 0.005800051 0.01219188 0.04270739 0.005797642 0.01209399 0.04270739 0.00579042 0.01199656 0.04270739 0.005778404 0.01189984 0.04270739 0.005761621 0.01189984 0.03677963 0.005761621 0.01180406 0.04270739 0.005740113 0.01170945 0.04270739 0.005713932 0.01170945 0.03677963 0.005713932 0.01161624 0.04270739 0.005683139 0.01161624 0.03677963 0.005683139 0.01152465 0.04270739 0.00564781 0.01143491 0.04270739 0.005608029 0.01143491 0.03677963 0.005608029 0.01134723 0.04270739 0.005563893 0.01126182 0.04270739 0.005515508 0.01126182 0.03677963 0.005515508 0.01117888 0.04270739 0.00546299 0.01117888 0.03677963 0.00546299 0.01109862 0.04270739 0.005406466 0.01109862 0.03677963 0.005406466 0.01102123 0.04270739 0.005346072 0.01102123 0.03677963 0.005346072 0.0109469 0.04270739 0.005281953 0.01087581 0.04270739 0.005214264 0.01080812 0.04270739 0.005143169 0.01080812 0.03677963 0.005143169 0.010744 0.04270739 0.005068837 0.010744 0.03677963 0.005068837 0.01068361 0.04270739 0.004991449 0.01068361 0.03677963 0.004991449 0.01062708 0.04270739 0.004911191 0.01057456 0.04270739 0.004828256 0.01052618 0.04270739 0.004742844 0.01052618 0.03677963 0.004742844 0.01048204 0.04270739 0.004655161 0.01044226 0.04270739 0.004565418 0.01040693 0.04270739 0.004473831 0.01037614 0.04270739 0.00438062 0.01034996 0.04270739 0.004286011 0.01032845 0.04270739 0.004190231 0.01031167 0.04270739 0.004093512 0.01031167 0.03677963 0.004093512 0.01029965 0.04270739 0.003996085 0.01029243 0.04270739 0.003898186 0.01029243 0.03677963 0.003898186 0.01029002 0.04270739 0.003800051 0.01029002 0.04270739 0.001600051 0.01209399 0.03540682 0.00579042 0.01199656 0.03540682 0.005778404 0.01199656 0.03481336 0.005778404 0.01189984 0.03481336 0.005761621 0.01180406 0.03481336 0.005740113 0.01161624 0.03540682 0.005683139 0.01152465 0.03481336 0.00564781 0.01143491 0.03481336 0.005608029 0.01134723 0.03540682 0.005563893 0.01126182 0.03540682 0.005515508 0.01126182 0.03481336 0.005515508 0.01117888 0.03481336 0.00546299 0.01102123 0.03540682 0.005346072 0.01102123 0.03481336 0.005346072 0.01087581 0.03540682 0.005214264 0.01087581 0.03481336 0.005214264 0.01080812 0.03540682 0.005143169 0.01062708 0.03481336 0.004911191 0.01052618 0.03481336 0.004742844 0.01048204 0.03540682 0.004655161 0.01044226 0.03540682 0.004565418 0.01040693 0.03540682 0.004473831 0.01037614 0.03481336 0.00438062 0.01034996 0.03481336 0.004286011 0.01031167 0.03481336 0.004093512 0.01031167 0.03540682 0.004093512 0.01029965 0.03481336 0.003996085 0.01029243 0.03540682 0.003898186 0.01029243 0.03481336 0.003898186 0.01229002 1.270002e-05 0.005800051 0.01219188 1.270002e-05 0.005797642 0.01209399 0.0318244 0.00579042 0.01209399 1.270002e-05 0.00579042 0.01199656 1.270002e-05 0.005778404 0.01189984 0.0318244 0.005761621 0.01189984 1.270002e-05 0.005761621 0.01180406 1.270002e-05 0.005740113 0.01170945 1.270002e-05 0.005713932 0.01161624 1.270002e-05 0.005683139 0.01152465 0.0318244 0.00564781 0.01152465 1.270002e-05 0.00564781 0.01143491 1.270002e-05 0.005608029 0.01134723 1.270002e-05 0.005563893 0.01126182 0.0318244 0.005515508 0.01126182 1.270002e-05 0.005515508 0.01117888 1.270002e-05 0.00546299 0.01109862 1.270002e-05 0.005406466 0.01102123 1.270002e-05 0.005346072 0.0109469 1.270002e-05 0.005281953 0.01087581 1.270002e-05 0.005214264 0.01080812 0.0318244 0.005143169 0.01080812 1.270002e-05 0.005143169 0.010744 1.270002e-05 0.005068837 0.01068361 0.0318244 0.004991449 0.01068361 1.270002e-05 0.004991449 0.01062708 0.0318244 0.004911191 0.01062708 1.270002e-05 0.004911191 0.01057456 0.0318244 0.004828256 0.01057456 1.270002e-05 0.004828256 0.01052618 0.0318244 0.004742844 0.01052618 1.270002e-05 0.004742844 0.01048204 0.0318244 0.004655161 0.01048204 1.270002e-05 0.004655161 0.01044226 1.270002e-05 0.004565418 0.01040693 0.0318244 0.004473831 0.01040693 1.270002e-05 0.004473831 0.01037614 0.0318244 0.00438062 0.01037614 1.270002e-05 0.00438062 0.01034996 1.270002e-05 0.004286011 0.01034996 0.0318244 0.004286011 0.01032845 0.0318244 0.004190231 0.01032845 1.270002e-05 0.004190231 0.01031167 0.0318244 0.004093512 0.01031167 1.270002e-05 0.004093512 0.01029965 0.0318244 0.003996085 0.01029965 1.270002e-05 0.003996085 0.01029243 1.270002e-05 0.003898186 0.01029002 1.270002e-05 0.003800051 0.01029002 1.270002e-05 0.001600051 0.01219188 0.03353547 0.005797642 0.01209399 0.03291426 0.00579042 0.01199656 0.03291426 0.005778404 0.01189984 0.03291426 0.005761621 0.01180406 0.03353547 0.005740113 0.01170945 0.03353547 0.005713932 0.01161624 0.03291426 0.005683139 0.01152465 0.03353547 0.00564781 0.01152465 0.03291426 0.00564781 0.01143491 0.03353547 0.005608029 0.01143491 0.03291426 0.005608029 0.01134723 0.03353547 0.005563893 0.01126182 0.03353547 0.005515508 0.01117888 0.03353547 0.00546299 0.01117888 0.03291426 0.00546299 0.01109862 0.03353547 0.005406466 0.01102123 0.03353547 0.005346072 0.01102123 0.03291426 0.005346072 0.0109469 0.03353547 0.005281953 0.0109469 0.03291426 0.005281953 0.01080812 0.03353547 0.005143169 0.010744 0.03291426 0.005068837 0.01068361 0.03291426 0.004991449 0.01062708 0.03353547 0.004911191 0.01062708 0.03291426 0.004911191 0.01057456 0.03353547 0.004828256 0.01057456 0.03291426 0.004828256 0.01052618 0.03291426 0.004742844 0.01040693 0.03353547 0.004473831 0.01037614 0.03291426 0.00438062 0.01034996 0.03353547 0.004286011 0.01029965 0.03353547 0.003996085 0.01029243 0.03353547 0.003898186 0.06790746 0.0030127 0.005800051 0.06790746 0.0397327 0.001600051 0.06790746 0.0030127 0.001600051 0.06790746 0.0397327 0.005800051 0.01894745 0.0397327 0.001600051 0.01894745 0.0397327 0.005800051 0.01894745 0.0030127 0.001600051 0.01894745 0.0030127 0.005800051 0.07376435 0.01621176 0.001500051 0.07376435 0.02642201 0.001600051 0.07376435 0.01621176 0.001600051 0.07376435 0.02642201 0.001500051 0.07655989 0.02642201 0.001600051 0.07655989 0.02642201 0.001500051 0.07655989 0.01621176 0.001600051 0.07655989 0.01621176 0.001500051 0.07351035 0.02667601 0.001500051 0.07351035 0.01595776 0.001600051 0.07351035 0.02667601 0.001600051 0.07351035 0.01595776 0.001500051 0.0768139 0.01595776 0.001600051 0.0768139 0.01595776 0.001500051 0.0768139 0.02667601 0.001600051 0.0768139 0.02667601 0.001500051</float_array>
          <technique_common>
            <accessor count="326" source="#cubeverts-array0-array" stride="3">
              <param type="float" name="X"/>
              <param type="float" name="Y"/>
              <param type="float" name="Z"/>
            </accessor>
          </technique_common>
        </source>
        <source id="cubenormals-array0">
          <float_array count="768" id="cubenormals-array0-array">0 1 0 0 1 0 0 1 0 0 1 0 0 1 0 0 0 1 0 0 1 0 0 1 0 0 1 0 0 1 0 0 1 0 1 0 0 1 0 0 1 0 0 1 0 0 1 0 0 -1 0 0 -1 0 0 -1 0 0 -1 0 0 -1 0 0 -1 0 0 -1 0 -0 1 0 1 0 0 1 0 0 0 -1 -0 0 -1 0 0 -1 0 0 -1 0 0 -1 0 0 -1 0 0 -1 0 0 -1 0 0 -1 0 0 -1 0 0 -1 0 0 -1 0 0 -1 0 0 -1 0 0 -1 0 0 1 0 0 1 0 0 1 0 0 1 0 0 1 0 0 -0 -1 0 0 -1 0 0 -1 0 0 -1 0 0 -1 0 0 -1 -0.02454024 0 0.9996989 -0.07356732 0 0.9972903 -0.1224084 0 0.9924799 -0.1709601 0 0.985278 -0.2191035 0 0.9757016 -0.2667108 0 0.9637766 -0.3136837 0 0.9495276 -0.3598935 0 0.9329934 -0.4052414 0 0.9142097 -0.4496135 0 0.8932232 -0.4928968 0 0.8700877 -0.5349987 0 0.8448529 -0.5758047 0 0.8175874 -0.6152331 0 0.7883452 -0.6531743 0 0.7572075 -0.6895403 0 0.7242473 -0.7242449 0 0.6895428 -0.757212 0 0.6531692 -0.7883452 0 0.6152331 -0.8175834 0 0.5758102 -0.8448551 0 0.5349952 -0.8700857 0 0.4929006 -0.8932242 0 0.4496116 -0.9142125 0 0.4052351 -0.9329901 0 0.359902 -0.9495295 0 0.3136779 -0.963775 0 0.2667165 -0.975704 0 0.2190932 -0.9852771 0 0.1709648 -0.9924797 0 0.1224096 -0.9972899 0 0.0735718 -0.9996989 0 0.02454012 0 0 1 0 -1 0 0 -1 0 0 -1 0 0 -1 0 0 -1 0 0 -1 0 0 -1 0 -1 0 0 0 1 0 -0 1 0 0 1 0 0 1 0 0 1 0 0 1 0 0 1 0 0 1 0 0 1 0 0 1 0 0 1 0 0 1 0 0 1 0 0 1 0 0 1 0 0 1 0 0 1 0 0 1 0 0 1 0 0 1 0 0 1 0 0 1 0 0 1 0 0 1 0 0 1 0 0 1 0 0 1 0 0 1 0 0 1 0 0 1 0 -0 1 0 0 1 0 0 1 0 -0 0 -1 0 -1 0 0 -1 0 0 -1 0 0 -1 0 0 -1 0 0 -1 0 0 -1 0 0 1 0 0 1 0 0 1 0 0 1 0 0 1 0 -0.02454024 0 0.9996989 -0.07356733 0 0.9972903 -0.1224084 0 0.9924798 -0.1709601 0 0.985278 -0.2191035 0 0.9757016 -0.2667108 0 0.9637766 -0.3136837 0 0.9495276 -0.3598936 0 0.9329934 -0.4052414 0 0.9142097 -0.4496136 0 0.8932232 -0.4928969 0 0.8700877 -0.5349987 0 0.8448529 -0.5758046 0 0.8175873 -0.6152331 0 0.7883452 -0.6531743 0 0.7572076 -0.6895403 0 0.7242473 -0.7242449 0 0.6895428 -0.757212 0 0.6531691 -0.7883452 0 0.6152331 -0.8175834 0 0.5758102 -0.8448551 0 0.5349953 -0.8700857 0 0.4929006 -0.8932242 0 0.4496116 -0.9142125 0 0.4052351 -0.9329901 0 0.359902 -0.9495295 0 0.3136779 -0.963775 0 0.2667165 -0.9757039 0 0.2190932 -0.9852771 0 0.1709648 -0.9924796 0 0.1224096 -0.9972899 0 0.0735718 -0.9996989 0 0.02454012 0 0 1 0 -1 0 0 -1 0 0 -1 0 0 -1 0 0 -1 0 0 -1 0 0 -1 0 0 -1 0 0 -1 0 0 -1 0 0 -1 0 0 -1 0 0 -1 0 0 -1 0 0 -1 0 0 -1 0 0 -1 0 0 -1 0 0 -1 0 0 -1 0 0 -1 0 0 -1 0 0 -1 0 0 -1 0 0 -1 0 0 -1 0 0 -1 0 0 -1 0 0 -1 0 0 -1 -0 0 -1 0 0 -1 0 0 -1 0 -1 0 0 0 1 0 0 1 0 0 1 0 0 1 0 0 1 0 0 0 -1 0 -1 0 0 -1 0 0 -1 0 0 -1 0 0 -1 0 0 -1 0 0 -1 0 0 1 0 0 1 0 0 1 0 0 1 0 0 1 0 1 0 0 1 0 0 0 -1 0 0 -1 0 -1 0 0 -1 0 0 0 1 -0 0 1 0 -1 0 0 -1 0 0 0 -1 0 0 -1 0 1 0 0 1 0 0 0 1 -0 0 1 0 -0 0 1 0 -0 1 0 0 1 0 -0 1 0 -0 1 0 0 1 0 0 1 0 0 1 0 0 -1 0 -0 -1 0 -0 -1 0 0 -1 0 0 -1 0 0 -1 0 0 -1 0 0 -1</float_array>
          <technique_common>
            <accessor count="256" source="#cubenormals-array0-array" stride="3">
              <param type="float" name="X"/>
              <param type="float" name="Y"/>
              <param type="float" name="Z"/>
            </accessor>
          </technique_common>
        </source>
        <vertices id="cubeverts-array0-vertices">
          <input semantic="POSITION" source="#cubeverts-array0"/>
        </vertices>
        <triangles count="256" material="ref_COMPOUND004_shape002">
          <input offset="0" semantic="VERTEX" source="#cubeverts-array0-vertices"/>
          <input offset="1" semantic="NORMAL" source="#cubenormals-array0"/>
          <p>11 0 5 0 1 0 21 1 27 1 296 1 19 2 34 2 27 2 19 3 11 3 1 3 19 4 15 4 11 4 47 5 46 5 43 5 53 6 50 6 52 6 54 7 50 7 53 7 38 8 47 8 37 8 42 9 47 9 39 9 54 10 48 10 55 10 64 11 194 11 40 11 68 12 213 12 208 12 205 13 84 13 213 13 205 14 64 14 40 14 205 15 65 15 64 15 210 16 120 16 122 16 106 17 110 17 210 17 106 18 210 18 124 18 202 19 206 19 106 19 94 20 199 20 202 20 94 21 195 21 199 21 45 22 202 22 106 22 48 23 54 23 134 23 54 24 135 24 134 24 54 25 53 25 135 25 53 26 136 26 135 26 25 27 260 27 264 27 243 28 247 28 25 28 243 29 25 29 33 29 17 30 240 30 243 30 6 31 233 31 17 31 6 32 9 32 233 32 0 33 17 33 243 33 78 34 82 34 300 34 72 35 294 35 78 35 72 36 78 36 85 36 285 37 289 37 72 37 273 38 281 38 285 38 273 39 63 39 281 39 41 40 285 40 72 40 99 41 93 41 44 41 168 42 117 42 176 42 104 43 123 43 117 43 104 44 99 44 44 44 104 45 162 45 99 45 134 46 135 46 129 46 129 47 133 47 134 47 130 48 125 48 132 48 128 49 137 49 35 49 128 50 139 50 86 50 135 51 136 51 127 51 44 52 142 52 143 52 88 53 143 53 144 53 90 54 144 54 145 54 91 55 145 55 146 55 147 56 146 56 148 56 93 57 148 57 149 57 150 58 149 58 151 58 152 59 151 59 153 59 96 60 153 60 154 60 155 61 154 61 156 61 99 62 156 62 157 62 158 63 157 63 159 63 160 64 159 64 161 64 162 65 161 65 163 65 164 66 163 66 165 66 102 67 165 67 166 67 104 68 166 68 167 68 168 69 167 69 169 69 170 70 169 70 171 70 172 71 171 71 173 71 107 72 173 72 174 72 109 73 174 73 175 73 176 74 175 74 177 74 112 75 177 75 178 75 113 76 178 76 179 76 114 77 179 77 180 77 115 78 180 78 181 78 117 79 181 79 182 79 119 80 182 80 183 80 184 81 183 81 185 81 121 82 185 82 186 82 187 83 186 83 188 83 49 84 142 84 44 84 113 85 119 85 121 85 172 86 109 86 113 86 172 87 113 87 123 87 164 88 168 88 172 88 93 89 158 89 164 89 93 90 152 90 158 90 44 91 164 91 172 91 123 92 188 92 189 92 188 93 133 93 189 93 188 94 142 94 133 94 144 95 143 95 142 95 185 96 188 96 186 96 183 97 188 97 185 97 182 98 188 98 183 98 148 99 145 99 144 99 148 100 146 100 145 100 148 101 144 101 142 101 180 102 182 102 181 102 151 103 149 103 148 103 151 104 148 104 142 104 179 105 188 105 182 105 179 106 182 106 180 106 154 107 153 107 151 107 177 108 179 108 178 108 156 109 151 109 142 109 156 110 154 110 151 110 175 111 179 111 177 111 174 112 188 112 179 112 174 113 179 113 175 113 173 114 188 114 174 114 161 115 159 115 157 115 171 116 188 116 173 116 163 117 161 117 157 117 165 118 163 118 157 118 166 119 165 119 157 119 166 120 157 120 156 120 166 121 169 121 167 121 166 122 171 122 169 122 166 123 142 123 188 123 166 124 156 124 142 124 166 125 188 125 171 125 131 126 141 126 189 126 77 127 81 127 216 127 71 128 73 128 77 128 71 129 77 129 84 129 203 130 68 130 71 130 194 131 200 131 203 131 194 132 62 132 200 132 40 133 203 133 71 133 198 134 94 134 45 134 101 135 198 135 45 135 206 136 118 136 111 136 204 137 124 137 118 137 204 138 101 138 45 138 220 139 219 139 3 139 222 140 220 140 221 140 223 141 222 141 4 141 225 142 223 142 224 142 226 143 225 143 6 143 227 144 226 144 8 144 228 145 227 145 9 145 230 146 228 146 229 146 231 147 230 147 10 147 232 148 231 148 12 148 234 149 232 149 233 149 235 150 234 150 14 150 236 151 235 151 16 151 237 152 236 152 17 152 238 153 237 153 18 153 239 154 238 154 20 154 241 155 239 155 240 155 242 156 241 156 22 156 244 157 242 157 243 157 246 158 244 158 245 158 248 159 246 159 247 159 250 160 248 160 249 160 252 161 250 161 251 161 253 162 252 162 25 162 255 163 253 163 254 163 257 164 255 164 256 164 258 165 257 165 256 165 261 166 258 166 260 166 263 167 261 167 262 167 265 168 263 168 264 168 266 169 265 169 32 169 267 170 266 170 33 170 0 171 219 171 52 171 265 172 266 172 267 172 261 173 263 173 265 173 261 174 265 174 267 174 257 175 258 175 261 175 253 176 255 176 257 176 252 177 253 177 257 177 250 178 252 178 257 178 248 179 250 179 257 179 246 180 248 180 257 180 241 181 242 181 244 181 238 182 244 182 246 182 238 183 239 183 241 183 238 184 241 184 244 184 136 185 267 185 268 185 236 186 237 186 238 186 236 187 238 187 246 187 235 188 236 188 246 188 234 189 257 189 261 189 234 190 246 190 257 190 234 191 235 191 246 191 230 192 232 192 234 192 230 193 231 193 232 193 226 194 227 194 228 194 222 195 223 195 225 195 219 196 222 196 225 196 219 197 228 197 230 197 219 198 225 198 226 198 219 199 220 199 222 199 219 200 261 200 267 200 219 201 267 201 136 201 219 202 234 202 261 202 219 203 230 203 234 203 219 204 226 204 228 204 267 205 138 205 268 205 12 206 6 206 0 206 16 207 12 207 0 207 240 208 259 208 249 208 20 209 33 209 259 209 20 210 16 210 0 210 136 211 268 211 138 211 24 212 28 212 30 212 291 213 295 213 24 213 291 214 24 214 34 214 286 215 21 215 291 215 5 216 13 216 286 216 5 217 275 217 13 217 1 218 286 218 291 218 280 219 273 219 41 219 284 220 280 220 41 220 289 221 299 221 74 221 67 222 85 222 299 222 67 223 284 223 41 223 310 224 311 224 312 224 310 225 313 225 311 225 313 226 314 226 311 226 313 227 315 227 314 227 315 228 316 228 314 228 315 229 317 229 316 229 317 230 312 230 316 230 317 231 310 231 312 231 318 232 319 232 320 232 318 233 321 233 319 233 321 234 322 234 319 234 321 235 323 235 322 235 323 236 324 236 322 236 323 237 325 237 324 237 325 238 320 238 324 238 325 239 318 239 320 239 320 240 314 240 324 240 311 241 314 241 320 241 316 242 324 242 314 242 322 243 324 243 316 243 312 244 311 244 320 244 319 245 316 245 312 245 319 246 312 246 320 246 319 247 322 247 316 247 321 248 317 248 323 248 310 249 317 249 321 249 325 250 323 250 317 250 315 251 325 251 317 251 318 252 315 252 313 252 318 253 313 253 310 253 318 254 310 254 321 254 318 255 325 255 315 255</p>
        </triangles>
      </mesh>
    </geometry>
  </library_geometries>
  <library_materials>
    <material id="mat_COMPOUND004_shape002" name="COMPOUND004_shape002">
      <instance_effect url="#effect_COMPOUND004_shape002"/>
    </material>
  </library_materials>
  <library_visual_scenes>
    <visual_scene id="myscene">
      <node id="node0" name="node0">
        <instance_geometry url="#geometry0">
          <bind_material>
            <technique_common>
              <instance_material symbol="ref_COMPOUND004_shape002" target="#mat_COMPOUND004_shape002"/>
            </technique_common>
          </bind_material>
        </instance_geometry>
      </node>
    </visual_scene>
  </library_visual_scenes>
  <scene>
    <instance_visual_scene url="#myscene"/>
  </scene>
</COLLADA>
