<COLLADA xmlns="http://www.collada.org/2005/11/COLLADASchema" version="1.4.1">
  <asset>
    <contributor/>
    <created>2026-09-16T16:52:40.197249</created>
    <modified>2026-09-16T16:52:40.197249</modified>
    <unit name="meter" meter="1.0"/>
    <up_axis>Z_UP</up_axis>
  </asset>
  <library_effects>
    <effect id="effect_I_on_button001_shape002" name="effect_I_on_button001_shape002">
      <profile_COMMON>
        <technique sid="common">
          <phong>
            <emission>
              <color>0.0 0.0 0.0 1.0</color>
            </emission>
            <ambient>
              <color>0.0 0.0 0.0 1.0</color>
            </ambient>
            <diffuse>
              <color>0.67843097448349 0.7098039984703064 0.7411760091781616 1.0</color>
            </diffuse>
            <specular>
              <color>1 1 1 1.0</color>
            </specular>
            <shininess>
              <float>0.0</float>
            </shininess>
            <reflective>
              <color>0.0 0.0 0.0 1.0</color>
            </reflective>
            <reflectivity>
              <float>0.0</float>
            </reflectivity>
            <transparent>
              <color>0.0 0.0 0.0 1.0</color>
            </transparent>
            <transparency>
              <float>1.0</float>
            </transparency>
          </phong>
        </technique>
        <extra>
          <technique profile="GOOGLEEARTH">
            <double_sided>0</double_sided>
          </technique>
        </extra>
      </profile_COMMON>
    </effect>
  </library_effects>
  <library_geometries>
    <geometry id="geometry0" name="I_on_button001_shape002">
      <mesh>
        <source id="cubeverts-array0">
          <float_array count="48" id="cubeverts-array0-array">-0.00310492 0.0003262498 0.003850609 -0.00310492 -0.0003262498 0.003850609 -0.00308017 0.0003262498 0.003949878 -0.00308017 -0.0003262498 0.003949878 -0.001817511 0.0003262498 0.003273628 -0.001159346 0.0003262498 0.003019547 -0.001159346 -0.0003262498 0.003019547 -0.001817511 -0.0003262498 0.003273628 -0.002466305 0.0003262498 0.003550763 -0.002466305 -0.0003262498 0.003550763 -0.002441766 -0.0003262498 0.003649358 -0.001793109 -0.0003262498 0.00337166 -0.001135016 -0.0003262498 0.003117132 -0.001135016 0.0003262498 0.003117132 -0.001793109 0.0003262498 0.00337166 -0.002441766 0.0003262498 0.003649358</float_array>
          <technique_common>
            <accessor count="16" source="#cubeverts-array0-array" stride="3">
              <param type="float" name="X"/>
              <param type="float" name="Y"/>
              <param type="float" name="Z"/>
            </accessor>
          </technique_common>
        </source>
        <source id="cubenormals-array0">
          <float_array count="84" id="cubenormals-array0-array">-0.9702958 0 0.241922 -0.9702958 0 0.241922 -0.3601395 0 -0.9328985 -0.3601395 -0 -0.9328985 -0.3928187 -0 -0.919616 -0.425009 -0 -0.9051892 -0.3928187 0 -0.919616 -0.425009 -0 -0.9051892 0 -1 0 0 -1 0 0 -1 0 0 -1 0 0 -1 0 0 -1 0 0.3607253 0 0.9326721 0.3607253 0 0.9326721 0.3935636 0 0.9192973 0.4259065 -0 0.9047672 0.3935636 0 0.9192973 0.4259065 0 0.9047672 0 1 -0 0 1 0 0 1 0 0 1 -0 0 1 0 0 1 -0 0.9702958 0 -0.2419214 0.9702958 0 -0.2419214</float_array>
          <technique_common>
            <accessor count="28" source="#cubenormals-array0-array" stride="3">
              <param type="float" name="X"/>
              <param type="float" name="Y"/>
              <param type="float" name="Z"/>
            </accessor>
          </technique_common>
        </source>
        <vertices id="cubeverts-array0-vertices">
          <input semantic="POSITION" source="#cubeverts-array0"/>
        </vertices>
        <triangles count="28" material="ref_I_on_button001_shape002">
          <input offset="0" semantic="VERTEX" source="#cubeverts-array0-vertices"/>
          <input offset="1" semantic="NORMAL" source="#cubenormals-array0"/>
          <p>0 0 1 0 2 0 2 1 1 1 3 1 4 2 5 2 6 2 4 3 6 3 7 3 8 4 7 4 9 4 8 5 9 5 1 5 8 6 4 6 7 6 0 7 8 7 1 7 1 8 10 8 3 8 1 9 9 9 10 9 9 10 11 10 10 10 9 11 7 11 11 11 7 12 12 12 11 12 7 13 6 13 12 13 13 14 14 14 12 14 12 15 14 15 11 15 11 16 15 16 10 16 10 17 15 17 3 17 14 18 15 18 11 18 15 19 2 19 3 19 5 20 4 20 13 20 13 21 4 21 14 21 14 22 8 22 15 22 4 23 8 23 14 23 15 24 0 24 2 24 8 25 0 25 15 25 6 26 5 26 12 26 12 27 5 27 13 27</p>
        </triangles>
      </mesh>
    </geometry>
  </library_geometries>
  <library_materials>
    <material id="mat_I_on_button001_shape002" name="I_on_button001_shape002">
      <instance_effect url="#effect_I_on_button001_shape002"/>
    </material>
  </library_materials>
  <library_visual_scenes>
    <visual_scene id="myscene">
      <node id="node0" name="node0">
        <instance_geometry url="#geometry0">
          <bind_material>
            <technique_common>
              <instance_material symbol="ref_I_on_button001_shape002" target="#mat_I_on_button001_shape002"/>
            </technique_common>
          </bind_material>
        </instance_geometry>
      </node>
    </visual_scene>
  </library_visual_scenes>
  <scene>
    <instance_visual_scene url="#myscene"/>
  </scene>
</COLLADA>
