<COLLADA xmlns="http://www.collada.org/2005/11/COLLADASchema" version="1.4.1">
  <asset>
    <contributor/>
    <created>2026-09-17T08:47:02.697788</created>
    <modified>2026-09-17T08:47:02.697788</modified>
    <unit name="meter" meter="1.0"/>
    <up_axis>Z_UP</up_axis>
  </asset>
  <library_effects>
    <effect id="effect_O_on_button001_shape001" name="effect_O_on_button001_shape001">
      <profile_COMMON>
        <technique sid="common">
          <phong>
            <emission>
              <color>0.0 0.0 0.0 1.0</color>
            </emission>
            <ambient>
              <color>0.0 0.0 0.0 1.0</color>
            </ambient>
            <diffuse>
              <color>0.67843097448349 0.7098039984703064 0.7411760091781616 1.0</color>
            </diffuse>
            <specular>
              <color>1 1 1 1.0</color>
            </specular>
            <shininess>
              <float>0.0</float>
            </shininess>
            <reflective>
              <color>0.0 0.0 0.0 1.0</color>
            </reflective>
            <reflectivity>
              <float>0.0</float>
            </reflectivity>
            <transparent>
              <color>0.0 0.0 0.0 1.0</color>
            </transparent>
            <transparency>
              <float>1.0</float>
            </transparency>
          </phong>
        </technique>
        <extra>
          <technique profile="GOOGLEEARTH">
            <double_sided>0</double_sided>
          </technique>
        </extra>
      </profile_COMMON>
    </effect>
  </library_effects>
  <library_geometries>
    <geometry id="geometry0" name="O_on_button001_shape001">
      <mesh>
        <source id="cubeverts-array0">
          <float_array count="690" id="cubeverts-array0-array">0.004223854 -0.000194562 0.001957468 0.004212578 0 0.001858033 0.004237123 0 0.001956476 0.004199314 -0.0001945437 0.001859036 0.004183908 -0.0003869987 0.001960506 0.004159385 -0.0003869637 0.001862107 0.004116953 -0.000574872 0.001965781 0.004092454 -0.0005748232 0.001867436 0.004063632 -0.0006842607 0.001970144 0.004039153 -0.0006842057 0.001871841 0.003986454 -0.0008110775 0.001976715 0.003962002 -0.0008110171 0.001878472 0.003874619 -0.0009550737 0.001986774 0.003850203 -0.0009550106 0.001888616 0.003804699 -0.001028991 0.001993386 0.003780304 -0.001028928 0.001895279 0.003721201 -0.001105201 0.002001609 0.00369683 -0.001105139 0.001903561 0.003621493 -0.001182298 0.002011894 0.003597148 -0.00118224 0.001913915 0.003501734 -0.001258512 0.002024919 0.003477418 -0.00125846 0.001927019 0.003358838 -0.001329964 0.002041422 0.003334554 -0.001329921 0.001943612 0.003191036 -0.001390794 0.002062138 0.003166785 -0.001390762 0.001964427 0.002997802 -0.00143363 0.002087791 0.002973584 -0.001433612 0.001990186 0.002898877 -0.001445072 0.00210167 0.002874671 -0.001445063 0.002004116 0.002799457 -0.001449639 0.00211613 0.002775262 -0.001449638 0.002018624 0.002700015 -0.001447295 0.002131106 0.002675829 -0.001447302 0.002033646 0.00260102 -0.001438037 0.002146525 0.002576843 -0.001438051 0.00204911 0.002502936 -0.00142189 0.002162307 0.002478765 -0.001421911 0.002064933 0.002406011 -0.001398856 0.002178397 0.002381846 -0.001398883 0.002081061 0.002310663 -0.00136896 0.002194705 0.002286503 -0.001368994 0.002097404 0.002217729 -0.001332428 0.00221106 0.002193572 -0.001332468 0.002113791 0.00212764 -0.001289436 0.002227348 0.002103486 -0.001289481 0.00213011 0.002040817 -0.001240189 0.002243451 0.002016664 -0.001240239 0.00214624 0.001957661 -0.001184921 0.002259248 0.001933509 -0.001184976 0.002162061 0.001878562 -0.001123895 0.002274616 0.00185441 -0.001123953 0.002177449 0.001803887 -0.001057398 0.002289428 0.001779734 -0.001057461 0.002192281 0.001733984 -0.0009857454 0.002303564 0.001709829 -0.0009858113 0.002206433 0.00166918 -0.0009092745 0.002316902 0.001645023 -0.0009093438 0.002219785 0.001609779 -0.0008283457 0.002329325 0.001585619 -0.0008284181 0.00223222 0.001556059 -0.0007433386 0.002340723 0.001531897 -0.0007434139 0.002243629 0.001508488 -0.0006550798 0.002350946 0.001484322 -0.000655157 0.00225386 0.001467124 -0.0005638289 0.002359934 0.001442954 -0.0005639079 0.002262856 0.001432073 -0.0004698936 0.002367622 0.001407898 -0.0004699741 0.00227055 0.001403489 -0.0003737315 0.002373941 0.001379309 -0.0003738132 0.002276874 0.001357312 -0.0002758934 0.00228177 0.001381496 -0.0002758108 0.002378833 0.001341999 -0.0001766906 0.002285193 0.001366188 -0.0001766074 0.002382253 0.001333431 -7.668607e-05 0.002287114 0.001357625 -7.660259e-05 0.002384172 0.001331638 2.363628e-05 0.002287517 0.001355838 2.371968e-05 0.002384573 0.001336618 0.0001237919 0.002286399 0.001360824 0.0001238749 0.002383455 0.001348336 0.0002232981 0.002283775 0.001372548 0.0002233803 0.002380831 0.001391591 0.0004180988 0.002274152 0.001415815 0.000418179 0.002371211 0.001460407 0.0006044568 0.002259049 0.001484645 0.0006045338 0.002356115 0.0015525 0.0007775785 0.002239235 0.00157675 0.0007776488 0.002336315 0.001666907 0.0009363934 0.002215251 0.001691171 0.0009364558 0.002312351 0.001801555 0.001077877 0.002187916 0.001825833 0.00107793 0.002285044 0.001953983 0.001199377 0.002158132 0.001978275 0.00119942 0.002255298 0.002121406 0.001298662 0.00212683 0.002145713 0.001298695 0.002224046 0.002300774 0.001373943 0.002094928 0.002325098 0.001373966 0.002192205 0.002490869 0.001424286 0.002062953 0.002515214 0.001424299 0.002160304 0.00258888 0.001439549 0.002047202 0.002613234 0.001439557 0.002144595 0.002687921 0.001447956 0.002031792 0.002712286 0.001447959 0.00212923 0.002787527 0.001449447 0.002016806 0.002811902 0.001449446 0.002114292 0.002887226 0.001443993 0.00200232 0.002911613 0.001443987 0.002099855 0.002986543 0.001431596 0.001988398 0.003010942 0.001431586 0.002085986 0.003085001 0.001412293 0.001975097 0.003109413 0.001412278 0.002072739 0.003182124 0.00138615 0.001962464 0.003206548 0.001386131 0.002060163 0.003277439 0.001353265 0.001950536 0.003301876 0.001353241 0.002048292 0.00337048 0.001313764 0.001939341 0.00339493 0.001313736 0.002037155 0.003460793 0.001267801 0.001928897 0.003485255 0.001267769 0.002026769 0.003547937 0.001215552 0.001919213 0.003572411 0.001215516 0.002017144 0.003631493 0.001157207 0.001910291 0.003655978 0.001157167 0.00200828 0.003710686 0.001093288 0.001902162 0.003735181 0.001093246 0.002000208 0.003784999 0.001024275 0.001894824 0.003809503 0.001024231 0.001992924 0.003854278 0.00095037 0.001888235 0.00387879 0.0009503248 0.001986387 0.003918184 0.0008719555 0.001882373 0.003942704 0.00087191 0.001980574 0.003976412 0.0007894356 0.001877211 0.004000937 0.0007893908 0.001975459 0.004028687 0.0007032297 0.001872723 0.004053218 0.0007031868 0.001971013 0.004074773 0.0006137703 0.001868881 0.004099308 0.0006137304 0.001967209 0.004114463 0.0005214998 0.001865659 0.004139001 0.0005214639 0.001964019 0.004147587 0.0004268678 0.00186303 0.004172127 0.0004268371 0.001961418 0.004174008 0.0003303297 0.001860973 0.00419855 0.000330305 0.001959383 0.004198714 0.000198876 0.001859081 0.004223258 0.0001988613 0.001957512 0.003718941 -0.0005951445 0.001901333 0.003643353 -0.0007021295 0.001909053 0.003771286 -0.0005015369 0.001896157 0.003534233 -0.000820721 0.00192071 0.003837133 -0.000338835 0.001889843 0.00337684 -0.0009448644 0.001938592 0.003876459 -0.0001706582 0.001886177 0.00327865 -0.00100234 0.001950388 0.003889521 0 0.001884976 0.003162838 -0.001054542 0.001964934 0.003028332 -0.001096888 0.001982692 0.003875667 0.0001757263 0.00188625 0.003850977 0.0002915295 0.001888543 0.00287507 -0.001123714 0.002004059 0.003791441 0.0004588949 0.001894201 0.002704578 -0.001128415 0.00202925 0.002530164 -0.001105935 0.002056578 0.003705888 0.0006156005 0.001902646 0.002359674 -0.001055427 0.002084819 0.003596195 0.000757565 0.001914017 0.002199547 -0.0009782498 0.002112724 0.003464929 0.0008809774 0.001928429 0.002053805 -0.0008763682 0.002139291 0.003314528 0.0009828578 0.001946021 0.00192595 -0.0007522563 0.002163517 0.003151651 0.00105878 0.001966376 0.001819072 -0.0006088607 0.002184431 0.002980242 0.001107673 0.001989266 0.001736458 -0.0004510274 0.002201011 0.002804516 0.001128826 0.002014302 0.001679601 -0.0002827588 0.002212633 0.002628785 0.001122098 0.002040932 0.001649437 -0.0001080638 0.002218868 0.002457368 0.001088011 0.002068451 0.001646414 6.877147e-05 0.002219496 0.002295913 0.001028476 0.00209577 0.002145575 0.0009445284 0.002122433 0.001670377 0.0002434696 0.002214535 0.002009904 0.000838127 0.002147512 0.001892106 0.0007118088 0.002170074 0.001720575 0.0004118488 0.002204241 0.001794957 0.0005686505 0.002189233 0.003743365 -0.0005951835 0.001999392 0.003667755 -0.0007021714 0.002007059 0.003795726 -0.0005015719 0.001994253 0.003558605 -0.0008207631 0.002018643 0.003861595 -0.0003388605 0.001987987 0.003401173 -0.0009449025 0.002036423 0.003900934 -0.0001706716 0.00198435 0.00330296 -0.001002374 0.00204816 0.003914001 0 0.001983159 0.003187125 -0.00105457 0.002062638 0.003052595 -0.001096907 0.002080321 0.003900146 0.0001757157 0.001984422 0.003875454 0.0002915117 0.001986696 0.002899309 -0.001123723 0.002101609 0.003815914 0.0004588689 0.001992309 0.002728794 -0.001128411 0.002126719 0.003730354 0.0006155695 0.00200069 0.002554366 -0.001105919 0.00215397 0.00362065 0.0007575329 0.002011983 0.002383865 -0.001055399 0.002182142 0.002223732 -0.000978213 0.002209989 0.003489371 0.0008809476 0.002026306 0.002077988 -0.0008763237 0.002236508 0.003338952 0.0009828335 0.002043801 0.001950133 -0.0007522056 0.002260697 0.003176054 0.001058763 0.002064058 0.001843257 -0.0006088046 0.002281582 0.003004623 0.001107663 0.002086853 0.001760648 -0.000450967 0.002298141 0.002828875 0.001128824 0.002111798 0.001703798 -0.0002826953 0.002309749 0.002653124 0.001122104 0.002138346 0.001673642 -0.0001079991 0.002315976 0.002481687 0.001088024 0.002165792 0.001670629 6.883531e-05 0.002316601 0.002320215 0.001028497 0.002193049 0.002169862 0.0009445576 0.002219661 0.001694603 0.0002435305 0.002311643 0.002034177 0.0008381638 0.002244699 0.001916366 0.0007118527 0.00226723 0.001744812 0.0004119048 0.002301358 0.001819205 0.0005687006 0.002286366</float_array>
          <technique_common>
            <accessor count="230" source="#cubeverts-array0-array" stride="3">
              <param type="float" name="X"/>
              <param type="float" name="Y"/>
              <param type="float" name="Z"/>
            </accessor>
          </technique_common>
        </source>
        <source id="cubenormals-array0">
          <float_array count="1380" id="cubenormals-array0-array">0.9680987 -0.06725345 -0.2413749 0.968102 -0.06724744 -0.2413635 0.9504822 -0.2010388 -0.2369957 0.9504948 -0.2010212 -0.2369602 0.9150741 -0.3325263 -0.2281792 0.9150976 -0.3325004 -0.2281226 0.8738461 -0.4346422 -0.2178972 0.8738721 -0.4346105 -0.2178561 0.8309005 -0.5164029 -0.207201 0.830938 -0.5163674 -0.2071392 0.7686066 -0.6103292 -0.1916826 0.7686577 -0.6102929 -0.191593 0.7071654 -0.684704 -0.1763449 0.7072147 -0.6846655 -0.1762964 0.6562091 -0.7366203 -0.1636465 0.6562667 -0.7365822 -0.1635872 0.5952862 -0.7896792 -0.1484624 0.5953494 -0.7896445 -0.1483937 0.5222 -0.842818 -0.1302493 0.5222724 -0.8427862 -0.1301652 0.4345565 -0.8940966 -0.1084065 0.4346367 -0.8940697 -0.1083065 0.3306262 -0.9401486 -0.0825037 0.3307145 -0.9401279 -0.08238626 0.2095036 -0.9764074 -0.05231429 0.2095991 -0.9763942 -0.05217893 0.1110165 -0.9934319 -0.02772091 0.111105 -0.9934236 -0.02766072 0.04427963 -0.9989578 -0.01107987 0.04436522 -0.9989545 -0.01102227 -0.02271587 -0.9997261 0.005623295 -0.02262882 -0.9997277 0.005681567 -0.08964999 -0.9957233 0.02231318 -0.08956588 -0.9957297 0.02236944 -0.1562092 -0.9869573 0.0389084 -0.1561268 -0.9869682 0.03896378 -0.2221521 -0.9734397 0.05535011 -0.2220694 -0.9734554 0.05540628 -0.2872463 -0.9551783 0.07158189 -0.287168 -0.9551978 0.07163607 -0.3510669 -0.9322536 0.08749446 -0.3509911 -0.9322771 0.08754784 -0.4131748 -0.9048102 0.1029802 -0.4131025 -0.9048374 0.1030325 -0.4732805 -0.8729774 0.1179663 -0.4732097 -0.8730086 0.1180191 -0.5310897 -0.8369102 0.1323814 -0.5310236 -0.8369442 0.1324326 -0.5863324 -0.7967767 0.146155 -0.5862688 -0.7968141 0.1462065 -0.6387394 -0.7527683 0.1592225 -0.6386785 -0.752809 0.1592742 -0.6880582 -0.7050933 0.1715206 -0.6880025 -0.7051355 0.1715707 -0.7340516 -0.6539755 0.1829874 -0.7339987 -0.6540206 0.1830381 -0.7764941 -0.5996564 0.1935695 -0.7764435 -0.5997049 0.1936216 -0.8151774 -0.542392 0.2032156 -0.8151312 -0.5424421 0.2032675 -0.849834 -0.4825958 0.2118569 -0.8497927 -0.4826465 0.2119076 -0.880284 -0.4206457 0.219448 -0.8802456 -0.4206988 0.2195 -0.9064622 -0.3567373 0.2259752 -0.9064275 -0.356792 0.2260279 -0.9282719 -0.2911344 0.2314135 -0.9282409 -0.2911904 0.231467 -0.9455974 -0.2241568 0.2357947 -0.9455988 -0.2242142 0.2357344 -0.9583896 -0.1561294 0.2389832 -0.9583948 -0.1561862 0.2389254 -0.9665772 -0.08738262 0.2410244 -0.9665863 -0.08744011 0.2409671 -0.9701272 -0.01824926 0.2419094 -0.9701401 -0.01830689 0.2418531 -0.9690461 0.05087742 0.2415804 -0.9690294 0.05093449 0.2416353 -0.9632964 0.1198372 0.2402061 -0.9633171 0.1197802 0.2401518 -0.9461551 0.2217394 0.2358436 -0.9461147 0.2217952 0.2359527 -0.9076591 0.353508 0.226246 -0.907612 0.3535607 0.2263522 -0.8524105 0.4777583 0.2124697 -0.8523569 0.4778076 0.2125738 -0.7816499 0.5925078 0.1948281 -0.7815914 0.5925517 0.1949292 -0.6964272 0.696318 0.1735811 -0.6963651 0.6963556 0.1736789 -0.5983582 0.7872275 0.1491315 -0.5982944 0.7872583 0.1492253 -0.4893003 0.8635481 0.1219421 -0.489236 0.8635718 0.122032 -0.371239 0.9239073 0.09261102 -0.3713032 0.9238902 0.09252407 -0.2458852 0.9673614 0.06125648 -0.2458226 0.967372 0.06134086 -0.1479245 0.9883099 0.0369055 -0.1479775 0.9883032 0.0368701 -0.08137672 0.9964764 0.02031443 -0.08143193 0.9964727 0.02027759 -0.01442802 0.9998895 0.003573528 -0.01437629 0.9998902 0.003608163 0.05276557 0.9985206 -0.01313215 0.05271349 0.9985229 -0.01316729 0.1197272 0.9923587 -0.02982772 0.1196764 0.9923638 -0.02986247 0.1861888 0.9814178 -0.0463992 0.1861396 0.9814255 -0.04643344 0.2518352 0.9657326 -0.06276557 0.251785 0.9657434 -0.06280123 0.3163462 0.945361 -0.07885211 0.3163002 0.9453736 -0.07888559 0.3794189 0.9203786 -0.09457552 0.3793694 0.9203952 -0.0946127 0.4407415 0.890885 -0.1098673 0.440698 0.8909025 -0.1099012 0.5000302 0.8569903 -0.1246488 0.4999847 0.8570115 -0.1246855 0.5569974 0.8188247 -0.1388522 0.5569542 0.8188479 -0.1388887 0.6112539 0.7766268 -0.1523795 0.6112124 0.7766522 -0.1524162 0.6623759 0.7307472 -0.1651263 0.662338 0.7307736 -0.1651615 0.7101192 0.681451 -0.177074 0.7101537 0.681424 -0.1770402 0.7544315 0.6288552 -0.1880804 0.7543992 0.6288838 -0.1881142 0.7949721 0.5733453 -0.1982285 0.795 0.5733175 -0.1981972 0.8316547 0.5151178 -0.207374 0.8316801 0.5150893 -0.2073433 0.8643083 0.4544671 -0.2154783 0.8642862 0.4544951 -0.2155076 0.8927426 0.391756 -0.222571 0.8927264 0.3917795 -0.2225947 0.9168705 0.327255 -0.2285883 0.9168571 0.3272773 -0.2286103 0.9365907 0.2612878 -0.2335088 0.9365819 0.2613049 -0.2335254 0.9539658 0.1827008 -0.2378435 0.9539593 0.1827134 -0.2378601 0.9679999 0.06874837 -0.2413503 0.9679973 0.06875297 -0.2413592 -0.09230117 0.00152124 -0.99573 -0.09984472 -0.001255999 -0.9950022 -0.09910392 0.0004094391 -0.995077 -0.09648791 0.001516503 -0.995333 -0.09522279 -0.001797527 -0.9954543 -0.08900484 0.002067106 -0.996029 -0.1057108 -0.0004765079 -0.9943968 -0.1037961 0.0006302336 -0.9945984 -0.09149555 -0.00161524 -0.9958041 -0.08585664 0.00170933 -0.9963061 -0.08542959 0.002174747 -0.9963418 -0.1122221 -0.000853337 -0.9936828 -0.1097325 0.001486032 -0.99396 -0.08599088 -0.001610709 -0.9962946 -0.08366386 0.001455105 -0.996493 -0.1184903 -0.001359934 -0.9929543 -0.1157549 0.0007924746 -0.9932775 -0.08311223 -0.0005420972 -0.99654 -0.08381449 -0.0005945712 -0.9964812 -0.08311224 0.0005315755 -0.9965401 -0.1231477 5.112651e-05 -0.9923884 -0.1243188 -0.0006904474 -0.9922421 -0.1320252 -0.0005942548 -0.9912462 -0.1308712 -4.102869e-05 -0.9913994 -0.08370592 -0.001392568 -0.9964895 -0.08357839 -0.001640336 -0.9964998 -0.08384854 0.0006106619 -0.9964783 -0.08479346 -0.002002334 -0.9963965 -0.0850018 -0.001761881 -0.9963792 -0.08630381 0.001332004 -0.9962679 -0.1444147 3.058037e-06 -0.9895172 -0.1394559 -3.223798e-06 -0.9902283 -0.1381498 0.0004201404 -0.9904113 -0.08770543 -0.002403266 -0.9961436 -0.08992 0.001680123 -0.9959476 -0.154318 0.0002922128 -0.9880212 -0.1493887 -0.0001626252 -0.9887785 -0.1461875 0.0005575902 -0.9892567 -0.08838313 -0.001740084 -0.996085 -0.1640096 0.0005963706 -0.9864586 -0.1593037 -0.000189516 -0.9872296 -0.1547359 0.0004688155 -0.9879557 -0.09480771 0.0018855 -0.9954938 -0.09195121 -0.002598813 -0.9957601 -0.09322122 -0.001537894 -0.9956442 -0.09531573 -0.0006009834 -0.9954469 -0.1733121 0.0009142935 -0.9848665 -0.1689906 -0.0001242528 -0.9856176 -0.1633449 0.0002506132 -0.986569 -0.1021658 0.0007380684 -0.9947671 -0.09940705 -0.001234923 -0.995046 -0.1717166 -7.154739e-05 -0.9851464 -0.1782183 4.160171e-05 -0.9839909 -0.1819783 0.001240624 -0.9833018 -0.1022978 -0.0002387623 -0.9947538 -0.1088153 0.0003433395 -0.9940619 -0.1067921 -0.0008910328 -0.9942809 -0.1796347 -0.0004505886 -0.9837332 -0.1867165 0.000297484 -0.9824137 -0.1898142 0.001548864 -0.9818188 -0.11043 2.247769e-05 -0.9938839 -0.1162032 -4.004189e-05 -0.9932255 -0.1151709 -0.0005771386 -0.9933455 -0.1869548 -0.0008386344 -0.9823682 -0.1942752 0.0006235887 -0.9809469 -0.1966463 0.001804225 -0.9804729 -0.1194019 0.0001483537 -0.992846 -0.1241628 -0.0003354781 -0.9922618 -0.1242722 -0.0002880165 -0.9922481 -0.2006835 0.0009783539 -0.9796556 -0.1935525 -0.001171931 -0.9810892 -0.2023249 0.001968984 -0.9793165 -0.1289438 0.0001539526 -0.9916518 -0.1325149 -0.000530964 -0.9911808 -0.199304 -0.001378078 -0.9799368 -0.2057456 0.001306706 -0.9786046 -0.1338836 -5.174923e-05 -0.9909971 -0.2066994 0.002003482 -0.9784024 -0.1388127 4.595546e-05 -0.9903186 -0.1411153 -0.0006035137 -0.989993 -0.2071184 0.002544248 -0.9783126 -0.2055018 -0.001846732 -0.978655 -0.1437865 0.0001120989 -0.9896087 -0.2096915 0.001838687 -0.9777658 -0.149811 -0.0005452971 -0.9887145 -0.1487744 -0.0001579675 -0.9888712 -0.2097572 0.001938362 -0.9777516 -0.20886 -0.001156895 -0.9779449 -0.1537597 0.0001883056 -0.9881082 -0.2112725 0.001408548 -0.9774262 -0.1586017 -0.0004354826 -0.9873425 -0.15844 -0.00035981 -0.9873685 -0.211126 0.001141625 -0.9774582 -0.211031 0.0006960016 -0.9774792 -0.2111104 -0.000140337 -0.9774622 -0.1659796 0.0004115767 -0.986129 -0.1668114 -5.696935e-05 -0.9859889 -0.2112377 0.0001461759 -0.9774347 -0.2111619 -0.0004065241 -0.977451 -0.175135 6.367182e-05 -0.9845445 -0.174786 0.0002961436 -0.9846064 -0.2112456 -0.0009001055 -0.9774326 -0.2102658 0.001077783 -0.9776437 -0.1835926 -0.0003248017 -0.9830024 -0.182295 0.0006845205 -0.9832436 -0.2101026 -0.001644558 -0.977678 -0.1912035 -0.0007442918 -0.9815502 -0.1892056 0.001057084 -0.9819369 -0.2101045 -0.001647596 -0.9776776 -0.2051931 0.001337764 -0.9787206 -0.1977919 -0.001149398 -0.9802433 -0.1953979 0.001347727 -0.9807231 -0.2032058 -0.001483391 -0.9791349 -0.2073281 -0.001674428 -0.9782699 -0.2007608 0.001474682 -0.9796392 0.09153627 -0.001529072 0.9958006 0.09912016 0.001262274 0.9950747 0.09837551 -0.0004113043 0.9951493 0.09574679 -0.001523476 0.9954045 0.09447361 0.001807146 0.9955257 0.08822291 -0.002077229 0.9960986 0.105018 0.0004787536 0.9944702 0.1030927 -0.0006338719 0.9946715 0.09072646 0.001623714 0.9958745 0.08505716 -0.001718295 0.9963745 0.08462746 -0.002186572 0.9964103 0.1115622 0.0008564281 0.9937571 0.1090616 -0.001492878 0.9940339 0.08519185 0.001619136 0.9963632 0.08285249 -0.001462704 0.9965608 0.117865 0.001366864 0.9930286 0.1151157 -0.0007959668 0.9933517 0.08229818 0.0005451623 0.9966076 0.08300395 0.0005976369 0.9965491 0.08229818 -0.0005340718 0.9966076 0.1225468 -5.038996e-05 0.9924627 0.1237214 0.0006931989 0.9923167 0.1314707 0.0005980155 0.9913199 0.1303092 4.13703e-05 0.9914734 0.08289533 0.001399302 0.9965572 0.082767 0.001648693 0.9965675 0.08303867 -0.0006142948 0.9965461 0.08398733 0.002012963 0.9964647 0.0841965 0.001771527 0.9964476 0.08550477 -0.001337623 0.9963369 0.1439252 -4.064682e-06 0.9895886 0.1389379 2.778376e-06 0.9903011 0.1376264 -0.0004222125 0.9904842 0.08691511 0.002415095 0.9962128 0.0891407 -0.00168933 0.9960176 0.1538784 -0.0002942042 0.9880897 0.1489247 0.0001633006 0.9888485 0.1457046 -0.0005608494 0.989328 0.08759484 0.001749816 0.9961547 0.09405341 -0.001895678 0.9955654 0.09118216 0.002612456 0.9958308 0.1636207 -0.0005999404 0.9865232 0.1588887 0.0001906794 0.9872964 0.1542961 -0.0004707871 0.9880245 0.0924585 0.001546089 0.9957153 0.09456411 0.0006040162 0.9955186 0.101449 -0.0007423278 0.9948404 0.1729683 -0.0009191713 0.984927 0.1686262 0.000124684 0.98568 0.1629512 -0.0002516238 0.9866341 0.09867445 0.001242249 0.995119 0.1713635 7.258861e-05 0.9852079 0.1778985 -4.167209e-05 0.9840489 0.1816792 -0.001247554 0.9833571 0.1015813 0.0002403281 0.9948273 0.1081332 -0.0003452607 0.9941364 0.1060996 0.0008956282 0.9943552 0.179322 0.0004535602 0.9837903 0.1864421 -0.0002990759 0.9824659 0.1895525 -0.001555838 0.9818694 0.1097556 -2.266483e-05 0.9939586 0.1155604 3.988155e-05 0.9933004 0.1145205 0.0005810454 0.9934208 0.18668 0.0008428967 0.9824204 0.1940362 -0.0006270123 0.9809941 0.196421 -0.001814611 0.980518 0.1187754 -0.0001487828 0.9929211 0.1235586 0.0003370719 0.9923372 0.1236684 0.000289402 0.9923235 0.2004762 -0.0009831248 0.9796981 0.1933102 0.00117818 0.981137 0.2021272 -0.001979666 0.9793573 0.1283644 -0.0001551157 0.9917271 0.1319551 0.0005333551 0.9912556 0.1990909 0.001384857 0.97998 0.2055635 -0.001313301 0.9786429 0.1333297 5.198238e-05 0.9910717 0.2065248 -0.00201561 0.9784393 0.1382845 -4.649827e-05 0.9903926 0.1405996 0.0006063548 0.9900663 0.2069441 -0.002556787 0.9783495 0.2053196 0.001856181 0.9786932 0.1432836 -0.000112815 0.9896817 0.2095295 -0.00184728 0.9778006 0.1482977 0.0001583714 0.9889427 0.1493414 0.0005482529 0.9887855 0.2095959 -0.001948049 0.9777862 0.2086944 0.001162319 0.9779802 0.1533072 -0.0001887468 0.9881786 0.2111181 -0.001415196 0.9774595 0.1581761 0.0004381736 0.9874108 0.1580124 0.0003615558 0.9874371 0.210971 -0.001147054 0.9774917 0.2108753 -0.0006979864 0.9775128 0.2109549 0.0001404044 0.9774958 0.16559 -0.0004142046 0.9861947 0.166428 5.774683e-05 0.9860536 0.2110825 -0.0001469254 0.9774683 0.2110063 0.0004095906 0.9774846 0.1747935 -6.401656e-05 0.9846051 0.1744438 -0.0002969663 0.9846671 0.2110902 0.0009043026 0.9774661 0.2101059 -0.001082298 0.977678 0.1832954 0.0003265519 0.9830578 0.1819905 -0.000688277 0.9833001 0.2099421 0.001652897 0.9777125 0.1909443 0.0007471398 0.9816006 0.1889374 -0.001062058 0.9819886 0.209944 0.001655999 0.977712 0.2050054 -0.001345327 0.9787599 0.197567 0.001154824 0.9802887 0.1951609 -0.001354341 0.9807703 0.2030077 0.001490185 0.979176 0.2071522 0.001682818 0.9783072 0.2005504 -0.001482152 0.9796822 -0.9675073 0.07575339 0.2412281 -0.9675108 0.07574632 0.2412163 -0.9451514 0.2261678 0.2356626 -0.9451622 0.2261518 0.2356347 -0.9002349 0.3730793 0.224475 -0.9002572 0.3730543 0.2244271 -0.8480251 0.4859429 0.2114541 -0.8480505 0.4859133 0.2114204 -0.7937487 0.5751404 0.1979308 -0.7937841 0.5751085 0.1978813 -0.7152471 0.675726 0.1783701 -0.7152951 0.675694 0.1782985 -0.6016677 0.7845225 0.1500681 -0.6017302 0.784494 0.1499657 -0.4903392 0.8629093 0.1222914 -0.4904031 0.8628811 0.1222336 -0.3984371 0.9117954 0.09938367 -0.3985063 0.9117724 0.09931647 -0.2907127 0.9540572 0.07253268 -0.2907898 0.9540398 0.07245269 -0.1665669 0.9851528 0.04158615 -0.1666501 0.9851426 0.04149356 -0.02650405 0.9996265 0.006671248 -0.02659287 0.9996247 0.006565263 0.1231214 0.9919188 -0.03062997 0.1230311 0.9919266 -0.03074004 0.2730863 0.9595816 -0.06802236 0.273 0.9595985 -0.06812979 0.4171283 0.9028846 -0.103939 0.4170479 0.9029099 -0.1040419 0.5506502 0.8233782 -0.1372324 0.5505769 0.8234107 -0.1373312 0.6703012 0.7230389 -0.1670664 0.6702344 0.7230782 -0.1671636 0.7731239 0.6042715 -0.1927054 0.7730646 0.6043168 -0.1928017 0.856198 0.4705068 -0.2134205 0.8561473 0.4705563 -0.2135153 0.9173964 0.3257138 -0.2286793 0.9173535 0.3257676 -0.2287754 0.9556015 0.1734478 -0.2382055 0.9555671 0.1735039 -0.2383023 0.9701369 0.01738605 -0.2419341 0.9701604 0.01744323 -0.241836 0.9609094 -0.138669 -0.2396331 0.960941 -0.1386136 -0.2395384 0.928304 -0.2909625 -0.2315003 0.9283416 -0.2909125 -0.2314128 0.8735387 -0.4352864 -0.2178435 0.873582 -0.435241 -0.2177607 0.798283 -0.5684291 -0.1990795 0.7983311 -0.5683892 -0.1990003 0.7041042 -0.688043 -0.1755964 0.7041555 -0.6880097 -0.1755213 0.5932078 -0.7913386 -0.147945 0.5932613 -0.791312 -0.1478731 0.4683404 -0.8758035 -0.1167279 0.4682851 -0.8758237 -0.1167979 0.3323564 -0.9395031 -0.08290414 0.3324098 -0.93949 -0.08283907 0.1876013 -0.9811329 -0.04673354 0.1875462 -0.9811402 -0.04680047 0.03681473 -0.9992796 -0.009218847 0.03686871 -0.9992782 -0.009152886 -0.1154661 -0.9928953 0.02874845 -0.1154128 -0.9928996 0.028815 -0.2655593 -0.961821 0.0661714 -0.265508 -0.9618306 0.06623784 -0.4098055 -0.9064368 0.1021366 -0.409756 -0.9064515 0.1022042 -0.5447391 -0.8275404 0.1357799 -0.5446922 -0.8275601 0.1358485 -0.6657744 -0.7274624 0.1659602 -0.6657332 -0.7274854 0.1660247 -0.7691532 -0.6096216 0.1917414 -0.7691207 -0.6096451 0.1917973 -0.8527966 -0.4770095 0.2126027 -0.8527724 -0.4770319 0.2126496 -0.9148766 -0.3331302 0.2280901 -0.914862 -0.3331476 0.2281231 -0.9492676 -0.2070683 0.2366721 -0.9492608 -0.2070818 0.2366876 -0.9673388 -0.07800552 0.2411861 -0.9673372 -0.07800873 0.2411916</float_array>
          <technique_common>
            <accessor count="460" source="#cubenormals-array0-array" stride="3">
              <param type="float" name="X"/>
              <param type="float" name="Y"/>
              <param type="float" name="Z"/>
            </accessor>
          </technique_common>
        </source>
        <vertices id="cubeverts-array0-vertices">
          <input semantic="POSITION" source="#cubeverts-array0"/>
        </vertices>
        <triangles count="460" material="ref_O_on_button001_shape001">
          <input offset="0" semantic="VERTEX" source="#cubeverts-array0-vertices"/>
          <input offset="1" semantic="NORMAL" source="#cubenormals-array0"/>
          <p>0 0 1 0 2 0 3 1 1 1 0 1 4 2 3 2 0 2 5 3 3 3 4 3 6 4 5 4 4 4 7 5 5 5 6 5 8 6 7 6 6 6 9 7 7 7 8 7 10 8 9 8 8 8 11 9 9 9 10 9 12 10 11 10 10 10 13 11 11 11 12 11 14 12 13 12 12 12 15 13 13 13 14 13 16 14 15 14 14 14 17 15 15 15 16 15 18 16 17 16 16 16 19 17 17 17 18 17 20 18 19 18 18 18 21 19 19 19 20 19 22 20 21 20 20 20 23 21 21 21 22 21 24 22 23 22 22 22 25 23 23 23 24 23 26 24 25 24 24 24 27 25 25 25 26 25 28 26 27 26 26 26 29 27 27 27 28 27 30 28 29 28 28 28 31 29 29 29 30 29 32 30 31 30 30 30 33 31 31 31 32 31 34 32 33 32 32 32 35 33 33 33 34 33 36 34 35 34 34 34 37 35 35 35 36 35 38 36 37 36 36 36 39 37 37 37 38 37 40 38 39 38 38 38 41 39 39 39 40 39 42 40 41 40 40 40 43 41 41 41 42 41 44 42 43 42 42 42 45 43 43 43 44 43 46 44 45 44 44 44 47 45 45 45 46 45 48 46 47 46 46 46 49 47 47 47 48 47 50 48 49 48 48 48 51 49 49 49 50 49 52 50 51 50 50 50 53 51 51 51 52 51 54 52 53 52 52 52 55 53 53 53 54 53 56 54 55 54 54 54 57 55 55 55 56 55 58 56 57 56 56 56 59 57 57 57 58 57 60 58 59 58 58 58 61 59 59 59 60 59 62 60 61 60 60 60 63 61 61 61 62 61 64 62 63 62 62 62 65 63 63 63 64 63 66 64 65 64 64 64 67 65 65 65 66 65 68 66 67 66 66 66 69 67 67 67 68 67 70 68 68 68 71 68 70 69 69 69 68 69 72 70 71 70 73 70 72 71 70 71 71 71 74 72 73 72 75 72 74 73 72 73 73 73 76 74 75 74 77 74 76 75 74 75 75 75 78 76 76 76 77 76 78 77 77 77 79 77 80 78 79 78 81 78 80 79 78 79 79 79 82 80 80 80 81 80 82 81 81 81 83 81 84 82 82 82 83 82 84 83 83 83 85 83 86 84 84 84 85 84 86 85 85 85 87 85 88 86 86 86 87 86 88 87 87 87 89 87 90 88 88 88 89 88 90 89 89 89 91 89 92 90 90 90 91 90 92 91 91 91 93 91 94 92 92 92 93 92 94 93 93 93 95 93 96 94 95 94 97 94 96 95 94 95 95 95 98 96 96 96 97 96 98 97 97 97 99 97 100 98 99 98 101 98 100 99 98 99 99 99 102 100 101 100 103 100 102 101 100 101 101 101 104 102 102 102 103 102 104 103 103 103 105 103 106 104 105 104 107 104 106 105 104 105 105 105 108 106 107 106 109 106 108 107 106 107 107 107 110 108 109 108 111 108 110 109 108 109 109 109 112 110 111 110 113 110 112 111 110 111 111 111 114 112 113 112 115 112 114 113 112 113 113 113 116 114 115 114 117 114 116 115 114 115 115 115 118 116 117 116 119 116 118 117 116 117 117 117 120 118 119 118 121 118 120 119 118 119 119 119 122 120 121 120 123 120 122 121 120 121 121 121 124 122 123 122 125 122 124 123 122 123 123 123 126 124 125 124 127 124 126 125 124 125 125 125 128 126 126 126 127 126 128 127 127 127 129 127 130 128 129 128 131 128 130 129 128 129 129 129 132 130 130 130 131 130 132 131 131 131 133 131 134 132 132 132 133 132 134 133 133 133 135 133 136 134 135 134 137 134 136 135 134 135 135 135 138 136 137 136 139 136 138 137 136 137 137 137 140 138 139 138 141 138 140 139 138 139 139 139 142 140 141 140 143 140 142 141 140 141 141 141 144 142 143 142 145 142 144 143 142 143 143 143 1 144 145 144 2 144 1 145 144 145 145 145 146 146 11 146 13 146 147 147 146 147 13 147 147 148 15 148 17 148 147 149 13 149 15 149 148 150 11 150 146 150 148 151 9 151 11 151 149 152 147 152 17 152 149 153 17 153 19 153 150 154 9 154 148 154 150 155 7 155 9 155 150 156 5 156 7 156 151 157 149 157 19 157 151 158 19 158 21 158 152 159 5 159 150 159 152 160 3 160 5 160 153 161 151 161 21 161 153 162 21 162 23 162 154 163 144 163 1 163 154 164 3 164 152 164 154 165 1 165 3 165 155 166 23 166 25 166 155 167 153 167 23 167 156 168 25 168 27 168 156 169 155 169 25 169 157 170 142 170 144 170 157 171 140 171 142 171 157 172 144 172 154 172 158 173 138 173 140 173 158 174 136 174 138 174 158 175 140 175 157 175 159 176 29 176 31 176 159 177 27 177 29 177 159 178 156 178 27 178 160 179 134 179 136 179 160 180 136 180 158 180 161 181 33 181 35 181 161 182 31 182 33 182 161 183 159 183 31 183 132 184 134 184 160 184 162 185 37 185 39 185 162 186 35 186 37 186 162 187 161 187 35 187 163 188 132 188 160 188 163 189 130 189 132 189 128 190 130 190 163 190 126 191 128 191 163 191 164 192 41 192 43 192 164 193 39 193 41 193 164 194 162 194 39 194 165 195 126 195 163 195 124 196 126 196 165 196 166 197 164 197 43 197 166 198 43 198 45 198 47 199 166 199 45 199 122 200 124 200 165 200 122 201 165 201 167 201 120 202 122 202 167 202 168 203 166 203 47 203 168 204 47 204 49 204 51 205 168 205 49 205 118 206 120 206 167 206 118 207 167 207 169 207 116 208 118 208 169 208 170 209 168 209 51 209 170 210 51 210 53 210 55 211 170 211 53 211 114 212 116 212 169 212 114 213 169 213 171 213 112 214 114 214 171 214 172 215 55 215 57 215 172 216 170 216 55 216 59 217 172 217 57 217 110 218 112 218 171 218 110 219 171 219 173 219 174 220 172 220 59 220 61 221 174 221 59 221 108 222 110 222 173 222 63 223 174 223 61 223 106 224 108 224 173 224 106 225 173 225 175 225 65 226 174 226 63 226 65 227 176 227 174 227 104 228 106 228 175 228 67 229 176 229 65 229 102 230 175 230 177 230 102 231 104 231 175 231 69 232 176 232 67 232 69 233 178 233 176 233 100 234 102 234 177 234 70 235 178 235 69 235 98 236 100 236 177 236 98 237 177 237 179 237 72 238 178 238 70 238 74 239 178 239 72 239 74 240 180 240 178 240 96 241 98 241 179 241 96 242 179 242 181 242 76 243 180 243 74 243 78 244 180 244 76 244 94 245 96 245 181 245 94 246 181 246 182 246 80 247 180 247 78 247 80 248 183 248 180 248 92 249 94 249 182 249 92 250 182 250 184 250 82 251 183 251 80 251 90 252 92 252 184 252 90 253 184 253 185 253 84 254 183 254 82 254 84 255 186 255 183 255 88 256 90 256 185 256 88 257 185 257 187 257 86 258 88 258 187 258 86 259 186 259 84 259 86 260 187 260 186 260 10 261 188 261 12 261 188 262 189 262 12 262 14 263 189 263 16 263 12 264 189 264 14 264 10 265 190 265 188 265 8 266 190 266 10 266 189 267 191 267 16 267 16 268 191 268 18 268 8 269 192 269 190 269 6 270 192 270 8 270 4 271 192 271 6 271 191 272 193 272 18 272 18 273 193 273 20 273 4 274 194 274 192 274 0 275 194 275 4 275 193 276 195 276 20 276 20 277 195 277 22 277 145 278 196 278 2 278 0 279 196 279 194 279 2 280 196 280 0 280 22 281 197 281 24 281 195 282 197 282 22 282 24 283 198 283 26 283 197 284 198 284 24 284 143 285 199 285 145 285 141 286 199 286 143 286 145 287 199 287 196 287 139 288 200 288 141 288 137 289 200 289 139 289 141 290 200 290 199 290 28 291 201 291 30 291 26 292 201 292 28 292 198 293 201 293 26 293 135 294 202 294 137 294 137 295 202 295 200 295 32 296 203 296 34 296 30 297 203 297 32 297 201 298 203 298 30 298 135 299 133 299 202 299 133 300 204 300 202 300 131 301 204 301 133 301 36 302 205 302 38 302 34 303 205 303 36 303 203 304 205 304 34 304 131 305 129 305 204 305 129 306 127 306 204 306 127 307 206 307 204 307 40 308 207 308 42 308 38 309 207 309 40 309 205 310 207 310 38 310 127 311 125 311 206 311 207 312 208 312 42 312 42 313 208 313 44 313 208 314 46 314 44 314 125 315 123 315 206 315 206 316 123 316 209 316 123 317 121 317 209 317 208 318 210 318 46 318 46 319 210 319 48 319 210 320 50 320 48 320 121 321 119 321 209 321 209 322 119 322 211 322 119 323 117 323 211 323 210 324 212 324 50 324 50 325 212 325 52 325 212 326 54 326 52 326 117 327 115 327 211 327 211 328 115 328 213 328 115 329 113 329 213 329 54 330 214 330 56 330 212 331 214 331 54 331 214 332 58 332 56 332 113 333 111 333 213 333 213 334 111 334 215 334 214 335 216 335 58 335 216 336 60 336 58 336 111 337 109 337 215 337 216 338 62 338 60 338 109 339 107 339 215 339 215 340 107 340 217 340 216 341 64 341 62 341 218 342 64 342 216 342 107 343 105 343 217 343 218 344 66 344 64 344 105 345 103 345 217 345 217 346 103 346 219 346 218 347 68 347 66 347 220 348 68 348 218 348 103 349 101 349 219 349 220 350 71 350 68 350 101 351 99 351 219 351 219 352 99 352 221 352 220 353 73 353 71 353 220 354 75 354 73 354 222 355 75 355 220 355 99 356 97 356 221 356 221 357 97 357 223 357 222 358 77 358 75 358 222 359 79 359 77 359 97 360 95 360 223 360 223 361 95 361 224 361 222 362 81 362 79 362 225 363 81 363 222 363 95 364 93 364 224 364 224 365 93 365 226 365 225 366 83 366 81 366 93 367 91 367 226 367 226 368 91 368 227 368 225 369 85 369 83 369 228 370 85 370 225 370 91 371 89 371 227 371 227 372 89 372 229 372 89 373 87 373 229 373 228 374 87 374 85 374 229 375 87 375 228 375 154 376 194 376 196 376 154 377 152 377 194 377 152 378 192 378 194 378 152 379 150 379 192 379 150 380 190 380 192 380 150 381 148 381 190 381 148 382 188 382 190 382 148 383 146 383 188 383 146 384 189 384 188 384 146 385 147 385 189 385 147 386 191 386 189 386 147 387 149 387 191 387 149 388 193 388 191 388 149 389 151 389 193 389 151 390 195 390 193 390 151 391 153 391 195 391 153 392 197 392 195 392 153 393 155 393 197 393 155 394 198 394 197 394 155 395 156 395 198 395 156 396 201 396 198 396 156 397 159 397 201 397 159 398 203 398 201 398 159 399 161 399 203 399 161 400 205 400 203 400 161 401 162 401 205 401 162 402 207 402 205 402 162 403 164 403 207 403 164 404 208 404 207 404 164 405 166 405 208 405 166 406 210 406 208 406 166 407 168 407 210 407 168 408 212 408 210 408 168 409 170 409 212 409 170 410 214 410 212 410 170 411 172 411 214 411 172 412 216 412 214 412 172 413 174 413 216 413 174 414 218 414 216 414 174 415 176 415 218 415 176 416 220 416 218 416 176 417 178 417 220 417 220 418 180 418 222 418 178 419 180 419 220 419 222 420 183 420 225 420 180 421 183 421 222 421 225 422 186 422 228 422 183 423 186 423 225 423 228 424 187 424 229 424 186 425 187 425 228 425 229 426 185 426 227 426 187 427 185 427 229 427 227 428 184 428 226 428 185 429 184 429 227 429 226 430 182 430 224 430 184 431 182 431 226 431 182 432 181 432 224 432 224 433 181 433 223 433 223 434 179 434 221 434 181 435 179 435 223 435 179 436 177 436 221 436 221 437 177 437 219 437 219 438 175 438 217 438 177 439 175 439 219 439 217 440 173 440 215 440 175 441 173 441 217 441 215 442 171 442 213 442 173 443 171 443 215 443 213 444 169 444 211 444 171 445 169 445 213 445 211 446 167 446 209 446 169 447 167 447 211 447 209 448 165 448 206 448 167 449 165 449 209 449 206 450 163 450 204 450 165 451 163 451 206 451 204 452 160 452 202 452 163 453 160 453 204 453 202 454 158 454 200 454 160 455 158 455 202 455 200 456 157 456 199 456 158 457 157 457 200 457 199 458 154 458 196 458 157 459 154 459 199 459</p>
        </triangles>
      </mesh>
    </geometry>
  </library_geometries>
  <library_materials>
    <material id="mat_O_on_button001_shape001" name="O_on_button001_shape001">
      <instance_effect url="#effect_O_on_button001_shape001"/>
    </material>
  </library_materials>
  <library_visual_scenes>
    <visual_scene id="myscene">
      <node id="node0" name="node0">
        <instance_geometry url="#geometry0">
          <bind_material>
            <technique_common>
              <instance_material symbol="ref_O_on_button001_shape001" target="#mat_O_on_button001_shape001"/>
            </technique_common>
          </bind_material>
        </instance_geometry>
      </node>
    </visual_scene>
  </library_visual_scenes>
  <scene>
    <instance_visual_scene url="#myscene"/>
  </scene>
</COLLADA>
