<COLLADA xmlns="http://www.collada.org/2005/11/COLLADASchema" version="1.4.1">
  <asset>
    <contributor/>
    <created>2026-09-17T08:47:00.893324</created>
    <modified>2026-09-17T08:47:00.893324</modified>
    <unit name="meter" meter="1.0"/>
    <up_axis>Z_UP</up_axis>
  </asset>
  <library_effects>
    <effect id="effect_R0603_R0603_HwOR010_shape001" name="effect_R0603_R0603_HwOR010_shape001">
      <profile_COMMON>
        <technique sid="common">
          <phong>
            <emission>
              <color>0.0 0.0 0.0 1.0</color>
            </emission>
            <ambient>
              <color>0.0 0.0 0.0 1.0</color>
            </ambient>
            <diffuse>
              <color>0.67843097448349 0.7098039984703064 0.7411760091781616 1.0</color>
            </diffuse>
            <specular>
              <color>1 1 1 1.0</color>
            </specular>
            <shininess>
              <float>0.0</float>
            </shininess>
            <reflective>
              <color>0.0 0.0 0.0 1.0</color>
            </reflective>
            <reflectivity>
              <float>0.0</float>
            </reflectivity>
            <transparent>
              <color>0.0 0.0 0.0 1.0</color>
            </transparent>
            <transparency>
              <float>1.0</float>
            </transparency>
          </phong>
        </technique>
        <extra>
          <technique profile="GOOGLEEARTH">
            <double_sided>0</double_sided>
          </technique>
        </extra>
      </profile_COMMON>
    </effect>
  </library_effects>
  <library_geometries>
    <geometry id="geometry0" name="R0603_R0603_HwOR010_shape001">
      <mesh>
        <source id="cubeverts-array0">
          <float_array count="2484" id="cubeverts-array0-array">-0.0008 0.000405 1e-05 -0.0008 -0.000395 1e-05 -0.00055 -0.000395 1e-05 -0.00055 0.000405 1e-05 -0.0008 0.000405 0.00044 -0.0008 -0.000395 0.00044 -0.00065 0.000105 0.00044 -0.00065 0.000405 0.00044 -0.00065 -9.500001e-05 0.00044 -0.00055 0.000105 0.00044 -0.00055 -9.500001e-05 0.00044 -0.00065 -0.000395 0.00044 -0.00055 -9.500001e-05 0.00045 -0.00055 0.000105 0.00045 -0.00081 0.000405 0.00045 -0.00065 0.000105 0.00045 -0.00065 0.000405 0.00045 -0.00065 -9.500001e-05 0.00045 -0.00081 -0.000395 0.00045 -0.00065 -0.000395 0.00045 -0.00081 0.000405 -2.23517e-13 -0.00081 -0.000395 -2.23517e-13 -0.00055 -0.000395 -2.23517e-13 -0.00055 0.000405 -2.23517e-13 0.00054 -0.000395 0.00045 -0.00054 -0.000395 0.00045 0.00054 -0.000395 0.00044 -0.00054 -0.000395 0.00044 0.00054 0.000405 0.00045 0.00054 0.000405 0.00044 -0.00054 0.000405 0.00045 -0.00054 0.000405 0.00044 0.00055 0.000405 1e-05 0.00055 -0.000395 1e-05 0.0008 -0.000395 1e-05 0.0008 0.000405 1e-05 0.0008 -0.000395 0.00044 0.0008 0.000405 0.00044 0.00065 0.000105 0.00044 0.00065 0.000405 0.00044 0.00065 -9.500001e-05 0.00044 0.00055 -9.500001e-05 0.00044 0.00055 0.000105 0.00044 0.00065 -0.000395 0.00044 0.00055 -9.500001e-05 0.00045 0.00055 0.000105 0.00045 0.00065 0.000405 0.00045 0.00065 0.000105 0.00045 0.00081 0.000405 0.00045 0.00065 -9.500001e-05 0.00045 0.00081 -0.000395 0.00045 0.00065 -0.000395 0.00045 0.00081 0.000405 -2.23517e-13 0.00081 -0.000395 -2.23517e-13 0.00055 0.000405 -2.23517e-13 0.00055 -0.000395 -2.23517e-13 -0.0002362345 -0.000395 0.000259015 -0.0002478434 -0.000395 0.0002719946 -0.0002721651 -0.000395 0.000259015 -0.0002430034 -0.000395 0.000259015 -0.000267604 -0.000395 0.0002719946 -0.0002789339 -0.000395 0.000259015 -0.0002855924 -0.000395 0.0002692672 -0.0002887232 -0.000395 0.0002656625 -0.0002925513 -0.000395 0.0002627546 -0.0002833558 -0.000395 0.0002734169 -0.000296899 -0.000395 0.0002606772 -0.000254309 -0.000395 0.0003064695 -0.0003017654 -0.000395 0.0002594306 -0.0003071495 -0.000395 0.000259015 -0.0002608595 -0.000395 0.0003064695 -0.0002887232 -0.000395 0.0003001859 -0.0002815662 -0.000395 0.0002833488 -0.0003202019 -0.000395 0.000259015 -0.0003291664 -0.000395 0.0002644252 -0.0003291664 -0.000395 0.000259015 -0.0003315925 -0.000395 0.000280389 -0.000348563 -0.000395 0.0002644252 -0.000348563 -0.000395 0.000280389 -0.0002956619 -0.000395 0.0003342969 -0.0003066643 -0.000395 0.0003064695 -0.0003202019 -0.000395 0.0003064695 -0.000330246 -0.000395 0.0003010108 -0.0003315925 -0.000395 0.0002858234 -0.0003885695 -0.000395 0.0002430512 -0.0003546889 -0.000395 0.000259015 -0.0003764753 -0.000395 0.0002538959 -0.000330246 -0.000395 0.0003064695 -0.0003024307 -0.000395 0.0003342969 -0.0003829409 -0.000395 0.0002529255 -0.0003924027 -0.000395 0.0002488254 -0.0003890304 -0.000395 0.0002481461 -0.0003765117 -0.000395 0.000267385 -0.0003781251 -0.000395 0.0002674336 -0.0003772421 -0.000395 0.0002646435 -0.000348563 -0.000395 0.0003010108 -0.000348563 -0.000395 0.0002858234 -0.0003672562 -0.000395 0.0002929076 -0.0003610938 -0.000395 0.0002929076 -0.0003546889 -0.000395 0.0003064695 -0.0003988722 -0.000395 0.0002623608 -0.0004005423 -0.000395 0.0002609074 -0.0003976777 -0.000395 0.000264068 -0.0003803329 -0.000395 0.0002590878 -0.0004025847 -0.000395 0.00025973 -0.0003969604 -0.000395 0.0002660266 -0.0004049129 -0.000395 0.0002588883 -0.0003315925 -0.000395 0.0003342969 -0.0003072708 -0.000395 0.0003472766 -0.0004075243 -0.000395 0.0002583829 -0.0003924027 -0.000395 0.0002435365 -0.0004104165 -0.000395 0.0002582144 -0.0004032612 -0.000395 0.0002656465 -0.0004028228 -0.000395 0.0002676519 -0.0004045764 -0.000395 0.0002642134 -0.0004129469 -0.000395 0.0002583387 -0.0003383613 -0.000395 0.0003342969 -0.0004153232 -0.000395 0.0002587118 -0.0003270314 -0.000395 0.0003472766 -0.0004043513 -0.000395 0.0002708786 -0.0004067677 -0.000395 0.0002633533 -0.0004098342 -0.000395 0.0002630666 -0.0003869804 -0.000395 0.0002929076 -0.0004105742 -0.000395 0.0002739113 -0.0003978405 -0.000395 0.0002726398 -0.0003983467 -0.000395 0.0002864057 -0.0003987106 -0.000395 0.0002738385 -0.0003999536 -0.000395 0.0002749723 -0.0004016515 -0.000395 0.0002760857 -0.0004037961 -0.000395 0.0002771733 -0.000406377 -0.000395 0.0002782297 -0.0004196114 -0.000395 0.0002663418 -0.0004276661 -0.000395 0.000259015 -0.0004196114 -0.000395 0.0002602038 -0.0004175449 -0.000395 0.0002593336 -0.00041314 -0.000395 0.0002750383 -0.0003450198 -0.000395 0.0003445491 -0.0003481506 -0.000395 0.0003409444 -0.0003519787 -0.000395 0.0003380366 -0.0003936279 -0.000395 0.0002929076 -0.0003983467 -0.000395 0.0002921798 -0.0004152179 -0.000395 0.0002761641 -0.0003427832 -0.000395 0.0003486989 -0.0003563263 -0.000395 0.0003359591 -0.0004336101 -0.000395 0.000259015 -0.0004168023 -0.000395 0.0002772855 -0.0003137363 -0.000395 0.0003817515 -0.0004069593 -0.000395 0.000288856 -0.0004084068 -0.000395 0.000279063 -0.0004100469 -0.000395 0.0002798266 -0.0003611927 -0.000395 0.0003347125 -0.0004178889 -0.000395 0.0002783996 -0.0004112955 -0.000395 0.0002805195 -0.0004134491 -0.000395 0.000284295 -0.0004121512 -0.000395 0.000281141 -0.0004357331 -0.000395 0.0002616142 -0.0004381203 -0.000395 0.000259726 -0.0004337677 -0.000395 0.0002642554 -0.0004116417 -0.000395 0.0002875945 -0.0004124286 -0.000395 0.0002869243 -0.0004133352 -0.000395 0.0002852692 -0.0004129943 -0.000395 0.0002861475 -0.0004409272 -0.000395 0.0002585924 -0.000406377 -0.000395 0.000293684 -0.0003665769 -0.000395 0.0003342969 -0.0004441515 -0.000395 0.0002582144 -0.0004464827 -0.000395 0.0002583812 -0.0004276661 -0.000395 0.0002808256 -0.000419575 -0.000395 0.0002837612 -0.0004194695 -0.000395 0.0002822461 -0.0004191529 -0.000395 0.0002808462 -0.0004186258 -0.000395 0.0002795635 -0.0003796293 -0.000395 0.0003342969 -0.0004519878 -0.000395 0.0002608831 -0.0004605883 -0.000395 0.000259015 -0.0004504014 -0.000395 0.0002597158 -0.0004485662 -0.000395 0.0002588817 -0.0004353273 -0.000395 0.0002867808 -0.0004436541 -0.000395 0.0002791516 -0.0004340394 -0.000395 0.0002841876 -0.0004336101 -0.000395 0.0002805588 -0.0003885937 -0.000395 0.0003342969 -0.0003202868 -0.000395 0.0003817515 -0.0003481506 -0.000395 0.0003754679 -0.0003409936 -0.000395 0.0003586307 -0.0004548991 -0.000395 0.0002680886 -0.0004605883 -0.000395 0.0002644252 -0.0004374731 -0.000395 0.0002883372 -0.0003885937 -0.000395 0.0003397071 -0.0004404759 -0.000395 0.000288856 -0.0004515875 -0.000395 0.0002847559 -0.0004630144 -0.000395 0.000280389 -0.000479985 -0.000395 0.0002644252 -0.0004861109 -0.000395 0.000259015 -0.0003910198 -0.000395 0.0003556709 -0.0004079904 -0.000395 0.0003397071 -0.0003660916 -0.000395 0.0003817515 -0.0004141163 -0.000395 0.0003342969 -0.0004157661 -0.000395 0.000290991 -0.0004515875 -0.000395 0.0002905301 -0.0004630144 -0.000395 0.0002858234 -0.0004236145 -0.000395 0.0003362621 -0.000479985 -0.000395 0.000280389 -0.0004399179 -0.000395 0.000293684 -0.0004616679 -0.000395 0.0003010108 -0.0004079904 -0.000395 0.0003556709 -0.0004236145 -0.000395 0.0003421332 -0.0003796293 -0.000395 0.0003817515 -0.0003896733 -0.000395 0.0003762927 -0.0003910198 -0.000395 0.0003611054 -0.0004616679 -0.000395 0.0003064695 -0.0004367518 -0.000395 0.0003334963 -0.0003896733 -0.000395 0.0003817515 -0.000479985 -0.000395 0.0003010108 -0.000479985 -0.000395 0.0002858234 -0.0004079904 -0.000395 0.0003762927 -0.0004079904 -0.000395 0.0003611054 -0.0004358663 -0.000395 0.000338955 -0.0004480575 -0.000395 0.0003439528 -0.0004394479 -0.000395 0.0003392676 -0.0004426746 -0.000395 0.000340205 -0.0004455449 -0.000395 0.000341767 -0.0004610856 -0.000395 0.0003342969 -0.0004530552 -0.000395 0.000339974 -0.0004236145 -0.000395 0.0003742063 -0.0004263381 -0.000395 0.0003407437 -0.0004610856 -0.000395 0.0003397071 -0.0004557187 -0.000395 0.0003434723 -0.0004141163 -0.000395 0.0003817515 -0.0004236145 -0.000395 0.0003806112 -0.0004576218 -0.000395 0.0003474981 -0.0004259917 -0.000395 0.0003814597 -0.0004527156 -0.000395 0.0003574905 -0.0004292898 -0.000395 0.0003397503 -0.0004324669 -0.000395 0.0003391539 -0.0004286602 -0.000395 0.0003820664 -0.000458764 -0.000395 0.0003520501 -0.0004347988 -0.000395 0.0003770206 -0.000537459 -0.000395 0.0002740333 -0.0005440196 -0.000395 0.0002680966 -0.0004316172 -0.000395 0.0003824306 -0.0005514663 -0.000395 0.0002635082 -0.0004477299 -0.000395 0.0003717559 -0.000479985 -0.000395 0.0003397071 -0.0004591448 -0.000395 0.0003571265 -0.0005595899 -0.000395 0.000260397 -0.0004861109 -0.000395 0.0003342969 -0.0004861109 -0.000395 0.0003064695 -0.000568162 -0.000395 0.0002588504 -0.0005249752 -0.000395 0.000306086 -0.0004348595 -0.000395 0.0003825521 -0.000479985 -0.000395 0.0003817515 -0.000452291 -0.000395 0.0003755649 -0.0005458938 -0.000395 0.0003057486 -0.0005860441 -0.000395 0.0002986633 -0.0005701864 -0.000395 0.0002794316 -0.0005853693 -0.000395 0.0002794316 -0.0005873937 -0.000395 0.000279769 -0.000597853 -0.000395 0.0002693097 -0.0006332797 -0.000395 0.0002703219 -0.0005880685 -0.000395 0.0002588504 -0.0006670194 -0.000395 0.0002365822 -0.0005722108 -0.000395 0.0003320656 -0.00057491 -0.000395 0.0003320656 -0.0006332797 -0.000395 0.0002736959 -0.0004861109 -0.000395 0.0003817515 -0.0005583776 -0.000395 0.000350285 -0.0005965034 -0.000395 0.0003165453 -0.0005615629 -0.000395 0.000357506 -0.0005657076 -0.000395 0.0003644278 -0.0005707457 -0.000395 0.0003709401 -0.000646898 -0.000395 0.0002977773 -0.0006417146 -0.000395 0.0002929275 -0.000576597 -0.000395 0.0003769394 -0.0006530313 -0.000395 0.0003014037 -0.0007067057 -0.000395 0.0002620754 -0.0006990721 -0.000395 0.0002595252 -0.0005869015 -0.000395 0.0003844372 -0.0007137698 -0.000395 0.0002656362 -0.0005982198 -0.000395 0.0003899631 -0.0007202324 -0.000395 0.0002701914 -0.0006221456 -0.000395 0.0003742402 -0.0007260638 -0.000395 0.0002757203 -0.0006102033 -0.000395 0.0003933467 -0.0006673568 -0.000395 0.0003418501 -0.00065984 -0.000395 0.0003036444 -0.0006670194 -0.000395 0.000304399 -0.0006715654 -0.000395 0.0003440004 -0.0006760672 -0.000395 0.0003455984 -0.0006806855 -0.000395 0.0003465815 -0.0007189785 -0.000395 0.0003131713 -0.0006987347 -0.000395 0.0002821308 -0.0006852388 -0.000395 0.000346911 -0.0006629706 -0.000395 0.0003813255 -0.0006855762 -0.000395 0.0003671548 -0.0006778161 -0.000395 0.0003664801 -0.0007402346 -0.000395 0.0003124965 -0.0006962689 -0.000395 0.0003660991 -0.000622483 -0.000395 0.000394484 -0.0006332011 -0.000395 0.0003936477 -0.0006436206 -0.000395 0.000391148 -0.0006535915 -0.000395 0.0003870208 -0.0007065254 -0.000395 0.0003629668 -0.000716001 -0.000395 0.0003578631 -0.0007243769 -0.000395 0.0003509598 -0.000341441 -0.000395 0.000353393 -0.0002820137 -0.000395 0.000278111 -0.0003972188 -0.000395 0.0002713057 -0.0003968456 -0.000395 0.0002698369 -0.0003967212 -0.000395 0.0002682342 -0.0004610856 -0.000405 0.0003342969 -0.0004610856 -0.000405 0.0003397071 -0.000479985 -0.000405 0.0003397071 -0.000479985 -0.000405 0.0003817515 -0.0004861109 -0.000405 0.0003817515 -0.0004861109 -0.000405 0.0003342969 -0.0004367518 -0.000405 0.0003334963 -0.0004236145 -0.000405 0.0003362621 -0.0004236145 -0.000405 0.0003421332 -0.0004263381 -0.000405 0.0003407437 -0.0004292898 -0.000405 0.0003397503 -0.0004324669 -0.000405 0.0003391539 -0.0004358663 -0.000405 0.000338955 -0.0004394479 -0.000405 0.0003392676 -0.0004426746 -0.000405 0.000340205 -0.0004455449 -0.000405 0.000341767 -0.0004480575 -0.000405 0.0003439528 -0.0004527156 -0.000405 0.0003574905 -0.0004477299 -0.000405 0.0003717559 -0.0004347988 -0.000405 0.0003770206 -0.0004236145 -0.000405 0.0003742063 -0.0004236145 -0.000405 0.0003806112 -0.0004259917 -0.000405 0.0003814597 -0.0004286602 -0.000405 0.0003820664 -0.0004316172 -0.000405 0.0003824306 -0.0004348595 -0.000405 0.0003825521 -0.000452291 -0.000405 0.0003755649 -0.0004591448 -0.000405 0.0003571265 -0.000458764 -0.000405 0.0003520501 -0.0004576218 -0.000405 0.0003474981 -0.0004557187 -0.000405 0.0003434723 -0.0004530552 -0.000405 0.000339974 -0.0003885937 -0.000405 0.0003342969 -0.0003885937 -0.000405 0.0003397071 -0.0004079904 -0.000405 0.0003397071 -0.0004079904 -0.000405 0.0003556709 -0.0003910198 -0.000405 0.0003556709 -0.0003910198 -0.000405 0.0003611054 -0.0004079904 -0.000405 0.0003611054 -0.0004079904 -0.000405 0.0003762927 -0.0003896733 -0.000405 0.0003762927 -0.0003896733 -0.000405 0.0003817515 -0.0004141163 -0.000405 0.0003817515 -0.0004141163 -0.000405 0.0003342969 -0.0003525054 -0.000405 0.0003446564 -0.0003519787 -0.000405 0.0003380366 -0.0003481506 -0.000405 0.0003409444 -0.0003502878 -0.000405 0.0003473589 -0.0003450198 -0.000405 0.0003445491 -0.0003552838 -0.000405 0.0003424916 -0.0003563263 -0.000405 0.0003359591 -0.0003487031 -0.000405 0.0003505614 -0.0003427832 -0.000405 0.0003486989 -0.0003585619 -0.000405 0.0003409449 -0.0003611927 -0.000405 0.0003347125 -0.000347752 -0.000405 0.0003542626 -0.000341441 -0.000405 0.000353393 -0.0003623388 -0.000405 0.0003400166 -0.0003665769 -0.000405 0.0003342969 -0.0003474349 -0.000405 0.0003584609 -0.0003409936 -0.000405 0.0003586307 -0.0003666132 -0.000405 0.0003397071 -0.0003477604 -0.000405 0.000362629 -0.0003735034 -0.000405 0.0003397071 -0.0003796293 -0.000405 0.0003342969 -0.0003487368 -0.000405 0.0003662479 -0.0003481506 -0.000405 0.0003754679 -0.0003503633 -0.000405 0.0003693152 -0.0003526389 -0.000405 0.0003718287 -0.0003554409 -0.000405 0.0003737815 -0.0003586578 -0.000405 0.0003751765 -0.0003660916 -0.000405 0.0003817515 -0.0003622892 -0.000405 0.0003760137 -0.0003663342 -0.000405 0.0003762927 -0.0003735034 -0.000405 0.0003762927 -0.0003796293 -0.000405 0.0003817515 -0.0003735034 -0.000395 0.0003762927 -0.0003663342 -0.000395 0.0003762927 -0.0003735034 -0.000395 0.0003397071 -0.0003666132 -0.000395 0.0003397071 -0.0003623388 -0.000395 0.0003400166 -0.0003585619 -0.000395 0.0003409449 -0.0003552838 -0.000395 0.0003424916 -0.0003525054 -0.000395 0.0003446564 -0.0003502878 -0.000395 0.0003473589 -0.0003487031 -0.000395 0.0003505614 -0.000347752 -0.000395 0.0003542626 -0.0003474349 -0.000395 0.0003584609 -0.0003477604 -0.000395 0.000362629 -0.0003487368 -0.000395 0.0003662479 -0.0003503633 -0.000395 0.0003693152 -0.0003526389 -0.000395 0.0003718287 -0.0003554409 -0.000395 0.0003737815 -0.0003586578 -0.000395 0.0003751765 -0.0003622892 -0.000395 0.0003760137 -0.0003202868 -0.000405 0.0003817515 -0.0003172178 -0.000405 0.0003756862 -0.0003137363 -0.000405 0.0003817515 -0.0003163323 -0.000405 0.0003723625 -0.0003179941 -0.000405 0.0003723625 -0.0003091632 -0.000405 0.0003526382 -0.0002956619 -0.000405 0.0003342969 -0.0003072708 -0.000405 0.0003472766 -0.0003024307 -0.000405 0.0003342969 -0.0003250905 -0.000405 0.0003526382 -0.0003270314 -0.000405 0.0003472766 -0.0003383613 -0.000405 0.0003342969 -0.0003315925 -0.000405 0.0003342969 -0.0003091632 -0.000395 0.0003526382 -0.0003250905 -0.000395 0.0003526382 -0.0003163323 -0.000395 0.0003723625 -0.0003172178 -0.000395 0.0003756862 -0.0003179941 -0.000395 0.0003723625 -0.0004605883 -0.000405 0.0002644252 -0.0004605883 -0.000405 0.000259015 -0.000479985 -0.000405 0.0002644252 -0.000479985 -0.000405 0.000280389 -0.0004630144 -0.000405 0.000280389 -0.0004630144 -0.000405 0.0002858234 -0.000479985 -0.000405 0.0002858234 -0.000479985 -0.000405 0.0003010108 -0.0004616679 -0.000405 0.0003010108 -0.0004616679 -0.000405 0.0003064695 -0.0004861109 -0.000405 0.0003064695 -0.0004861109 -0.000405 0.000259015 -0.0004337677 -0.000405 0.0002642554 -0.0004336101 -0.000405 0.000259015 -0.0004276661 -0.000405 0.000259015 -0.0004375084 -0.000405 0.000264648 -0.0004357331 -0.000405 0.0002616142 -0.0004361574 -0.000405 0.0002658566 -0.000439036 -0.000405 0.0002637833 -0.0004381203 -0.000405 0.000259726 -0.0004407376 -0.000405 0.000263264 -0.0004409272 -0.000405 0.0002585924 -0.0004426109 -0.000405 0.0002630908 -0.0004441515 -0.000405 0.0002582144 -0.0004336101 -0.000405 0.000272771 -0.0004439535 -0.000405 0.0002631865 -0.0004464827 -0.000405 0.0002583812 -0.0004276661 -0.000405 0.0002808256 -0.000445158 -0.000405 0.0002634734 -0.0004336101 -0.000405 0.000276022 -0.0004462231 -0.000405 0.0002639511 -0.0004504014 -0.000405 0.0002597158 -0.0004485662 -0.000405 0.0002588817 -0.0004471477 -0.000405 0.0002646193 -0.0004519878 -0.000405 0.0002608831 -0.0004336101 -0.000405 0.0002805588 -0.0004415434 -0.000405 0.0002749545 -0.0004488702 -0.000405 0.0002685738 -0.0004340394 -0.000405 0.0002841876 -0.0004353273 -0.000405 0.0002867808 -0.0004436541 -0.000405 0.0002791516 -0.0004472933 -0.000405 0.000272868 -0.0004548991 -0.000405 0.0002680886 -0.0004484753 -0.000405 0.0002710238 -0.0004479823 -0.000405 0.0002720225 -0.0004487714 -0.000405 0.0002698736 -0.0004399179 -0.000405 0.000293684 -0.0004404759 -0.000405 0.000288856 -0.0004374731 -0.000405 0.0002883372 -0.0004515875 -0.000405 0.0002905301 -0.0004515875 -0.000405 0.0002847559 -0.0004472933 -0.000395 0.000272868 -0.0004415434 -0.000395 0.0002749545 -0.0004479823 -0.000395 0.0002720225 -0.0004484753 -0.000395 0.0002710238 -0.0004487714 -0.000395 0.0002698736 -0.0004488702 -0.000395 0.0002685738 -0.0004471477 -0.000395 0.0002646193 -0.0004462231 -0.000395 0.0002639511 -0.000445158 -0.000395 0.0002634734 -0.0004439535 -0.000395 0.0002631865 -0.0004426109 -0.000395 0.0002630908 -0.0004407376 -0.000395 0.000263264 -0.000439036 -0.000395 0.0002637833 -0.0004375084 -0.000395 0.000264648 -0.0004361574 -0.000395 0.0002658566 -0.0004336101 -0.000395 0.000272771 -0.0004336101 -0.000395 0.000276022 -0.0004098342 -0.000405 0.0002630666 -0.0004196114 -0.000405 0.0002663418 -0.0004196114 -0.000405 0.0002602038 -0.0004175449 -0.000405 0.0002593336 -0.0004153232 -0.000405 0.0002587118 -0.0004129469 -0.000405 0.0002583387 -0.0004104165 -0.000405 0.0002582144 -0.0004075243 -0.000405 0.0002583829 -0.0004049129 -0.000405 0.0002588883 -0.0004025847 -0.000405 0.00025973 -0.0004005423 -0.000405 0.0002609074 -0.0003988722 -0.000405 0.0002623608 -0.0003976777 -0.000405 0.000264068 -0.0003969604 -0.000405 0.0002660266 -0.0003967212 -0.000405 0.0002682342 -0.0003968456 -0.000405 0.0002698369 -0.0003972188 -0.000405 0.0002713057 -0.0003978405 -0.000405 0.0002726398 -0.0003987106 -0.000405 0.0002738385 -0.0003999536 -0.000405 0.0002749723 -0.0004016515 -0.000405 0.0002760857 -0.0004037961 -0.000405 0.0002771733 -0.000406377 -0.000405 0.0002782297 -0.0004084068 -0.000405 0.000279063 -0.0004100469 -0.000405 0.0002798266 -0.0004112955 -0.000405 0.0002805195 -0.0004121512 -0.000405 0.000281141 -0.0004134491 -0.000405 0.000284295 -0.0004133352 -0.000405 0.0002852692 -0.0004129943 -0.000405 0.0002861475 -0.0004124286 -0.000405 0.0002869243 -0.0004116417 -0.000405 0.0002875945 -0.0004069593 -0.000405 0.000288856 -0.0003983467 -0.000405 0.0002864057 -0.0003983467 -0.000405 0.0002921798 -0.000406377 -0.000405 0.000293684 -0.0004157661 -0.000405 0.000290991 -0.000419575 -0.000405 0.0002837612 -0.0004194695 -0.000405 0.0002822461 -0.0004191529 -0.000405 0.0002808462 -0.0004186258 -0.000405 0.0002795635 -0.0004178889 -0.000405 0.0002783996 -0.0004168023 -0.000405 0.0002772855 -0.0004152179 -0.000405 0.0002761641 -0.00041314 -0.000405 0.0002750383 -0.0004105742 -0.000405 0.0002739113 -0.0004043513 -0.000405 0.0002708786 -0.0004028228 -0.000405 0.0002676519 -0.0004032612 -0.000405 0.0002656465 -0.0004045764 -0.000405 0.0002642134 -0.0004067677 -0.000405 0.0002633533 -0.0003610938 -0.000405 0.0002929076 -0.0003672562 -0.000405 0.0002929076 -0.0003765117 -0.000405 0.000267385 -0.0003772421 -0.000405 0.0002646435 -0.0003781251 -0.000405 0.0002674336 -0.0003869804 -0.000405 0.0002929076 -0.0003936279 -0.000405 0.0002929076 -0.0003803329 -0.000405 0.0002590878 -0.0003829409 -0.000405 0.0002529255 -0.0003890304 -0.000405 0.0002481461 -0.0003924027 -0.000405 0.0002488254 -0.0003924027 -0.000405 0.0002435365 -0.0003885695 -0.000405 0.0002430512 -0.0003764753 -0.000405 0.0002538959 -0.0003291664 -0.000405 0.000259015 -0.0003291664 -0.000405 0.0002644252 -0.000348563 -0.000405 0.0002644252 -0.000348563 -0.000405 0.000280389 -0.0003315925 -0.000405 0.000280389 -0.0003315925 -0.000405 0.0002858234 -0.000348563 -0.000405 0.0002858234 -0.000348563 -0.000405 0.0003010108 -0.000330246 -0.000405 0.0003010108 -0.000330246 -0.000405 0.0003064695 -0.0003546889 -0.000405 0.0003064695 -0.0003546889 -0.000405 0.000259015 -0.0002930781 -0.000405 0.0002693744 -0.0002925513 -0.000405 0.0002627546 -0.0002887232 -0.000405 0.0002656625 -0.0002908604 -0.000405 0.000272077 -0.0002855924 -0.000405 0.0002692672 -0.0002958564 -0.000405 0.0002672097 -0.000296899 -0.000405 0.0002606772 -0.0002892757 -0.000405 0.0002752795 -0.0002833558 -0.000405 0.0002734169 -0.0002991346 -0.000405 0.0002656629 -0.0003017654 -0.000405 0.0002594306 -0.0002883246 -0.000405 0.0002789806 -0.0002820137 -0.000405 0.000278111 -0.0003029115 -0.000405 0.0002647347 -0.0003071495 -0.000405 0.000259015 -0.0002880075 -0.000405 0.000283179 -0.0002815662 -0.000405 0.0002833488 -0.0003071859 -0.000405 0.0002644252 -0.0002883331 -0.000405 0.0002873471 -0.000314076 -0.000405 0.0002644252 -0.0003202019 -0.000405 0.000259015 -0.0002893094 -0.000405 0.000290966 -0.0002887232 -0.000405 0.0003001859 -0.000290936 -0.000405 0.0002940333 -0.0002932115 -0.000405 0.0002965468 -0.0002960135 -0.000405 0.0002984995 -0.0002992305 -0.000405 0.0002998946 -0.0003066643 -0.000405 0.0003064695 -0.0003028618 -0.000405 0.0003007317 -0.0003069069 -0.000405 0.0003010108 -0.000314076 -0.000405 0.0003010108 -0.0003202019 -0.000405 0.0003064695 -0.000314076 -0.000395 0.0003010108 -0.0003069069 -0.000395 0.0003010108 -0.000314076 -0.000395 0.0002644252 -0.0003071859 -0.000395 0.0002644252 -0.0003029115 -0.000395 0.0002647347 -0.0002991346 -0.000395 0.0002656629 -0.0002958564 -0.000395 0.0002672097 -0.0002930781 -0.000395 0.0002693744 -0.0002908604 -0.000395 0.000272077 -0.0002892757 -0.000395 0.0002752795 -0.0002883246 -0.000395 0.0002789806 -0.0002880075 -0.000395 0.000283179 -0.0002883331 -0.000395 0.0002873471 -0.0002893094 -0.000395 0.000290966 -0.000290936 -0.000395 0.0002940333 -0.0002932115 -0.000395 0.0002965468 -0.0002960135 -0.000395 0.0002984995 -0.0002992305 -0.000395 0.0002998946 -0.0003028618 -0.000395 0.0003007317 -0.0002608595 -0.000405 0.0003064695 -0.0002577904 -0.000405 0.0003004043 -0.000254309 -0.000405 0.0003064695 -0.0002569049 -0.000405 0.0002970805 -0.0002585668 -0.000405 0.0002970805 -0.0002497358 -0.000405 0.0002773563 -0.0002362345 -0.000405 0.000259015 -0.0002478434 -0.000405 0.0002719946 -0.0002430034 -0.000405 0.000259015 -0.0002656631 -0.000405 0.0002773563 -0.000267604 -0.000405 0.0002719946 -0.0002789339 -0.000405 0.000259015 -0.0002721651 -0.000405 0.000259015 -0.0002497358 -0.000395 0.0002773563 -0.0002656631 -0.000395 0.0002773563 -0.0002569049 -0.000395 0.0002970805 -0.0002577904 -0.000395 0.0003004043 -0.0002585668 -0.000395 0.0002970805 -0.0005583776 -0.000405 0.000350285 -0.0005458938 -0.000405 0.0003057486 -0.0005249752 -0.000405 0.000306086 -0.0005722108 -0.000405 0.0003320656 -0.0005615629 -0.000405 0.000357506 -0.00057491 -0.000405 0.0003320656 -0.0005657076 -0.000405 0.0003644278 -0.0005707457 -0.000405 0.0003709401 -0.000576597 -0.000405 0.0003769394 -0.0006332011 -0.000405 0.0003936477 -0.0006221456 -0.000405 0.0003742402 -0.000622483 -0.000405 0.000394484 -0.0005869015 -0.000405 0.0003844372 -0.0005982198 -0.000405 0.0003899631 -0.0006102033 -0.000405 0.0003933467 -0.0006436206 -0.000405 0.000391148 -0.000537459 -0.000405 0.0002740333 -0.0006535915 -0.000405 0.0003870208 -0.0006629706 -0.000405 0.0003813255 -0.0005440196 -0.000405 0.0002680966 -0.0005701864 -0.000405 0.0002794316 -0.0005514663 -0.000405 0.0002635082 -0.0005595899 -0.000405 0.000260397 -0.0005853693 -0.000405 0.0002794316 -0.000568162 -0.000405 0.0002588504 -0.0006673568 -0.000405 0.0003418501 -0.0006778161 -0.000405 0.0003664801 -0.0006715654 -0.000405 0.0003440004 -0.0005873937 -0.000405 0.000279769 -0.000597853 -0.000405 0.0002693097 -0.0005880685 -0.000405 0.0002588504 -0.0006760672 -0.000405 0.0003455984 -0.0006806855 -0.000405 0.0003465815 -0.0006852388 -0.000405 0.000346911 -0.0006962689 -0.000405 0.0003660991 -0.0006855762 -0.000405 0.0003671548 -0.0007065254 -0.000405 0.0003629668 -0.0005965034 -0.000405 0.0003165453 -0.0006417146 -0.000405 0.0002929275 -0.0005860441 -0.000405 0.0002986633 -0.000716001 -0.000405 0.0003578631 -0.0006332797 -0.000405 0.0002736959 -0.0007243769 -0.000405 0.0003509598 -0.000646898 -0.000405 0.0002977773 -0.0006673568 -0.000405 0.000283143 -0.0006530313 -0.000405 0.0003014037 -0.00065984 -0.000405 0.0003036444 -0.0006670194 -0.000405 0.000304399 -0.0006332797 -0.000405 0.0002703219 -0.0007189785 -0.000405 0.0003131713 -0.0006673568 -0.000405 0.000256826 -0.0006987347 -0.000405 0.0002821308 -0.0007402346 -0.000405 0.0003124965 -0.0006670194 -0.000405 0.0002365822 -0.0006990721 -0.000405 0.0002595252 -0.0007067057 -0.000405 0.0002620754 -0.0007137698 -0.000405 0.0002656362 -0.0007202324 -0.000405 0.0002701914 -0.0007260638 -0.000405 0.0002757203 -0.0006666852 -0.000395 0.0002568427 -0.0006673568 -0.000395 0.000256826 -0.0006660236 -0.000395 0.0002568921 -0.0006653727 -0.000395 0.0002569735 -0.0006647332 -0.000395 0.0002570859 -0.0006641057 -0.000395 0.0002572285 -0.000663491 -0.000395 0.0002574005 -0.0006628897 -0.000395 0.0002576011 -0.0006623026 -0.000395 0.0002578292 -0.0006617302 -0.000395 0.0002580842 -0.0006611732 -0.000395 0.0002583652 -0.0006606324 -0.000395 0.0002586712 -0.0006601085 -0.000395 0.0002590016 -0.000659602 -0.000395 0.0002593553 -0.0006591138 -0.000395 0.0002597316 -0.0006586444 -0.000395 0.0002601296 -0.0006581945 -0.000395 0.0002605484 -0.000657765 -0.000395 0.0002609873 -0.0006573563 -0.000395 0.0002614453 -0.0006569692 -0.000395 0.0002619216 -0.0006566043 -0.000395 0.0002624153 -0.0006562625 -0.000395 0.0002629257 -0.0006559443 -0.000395 0.0002634518 -0.0006556503 -0.000395 0.0002639928 -0.0006553814 -0.000395 0.0002645479 -0.0006551382 -0.000395 0.0002651161 -0.0006549213 -0.000395 0.0002656967 -0.0006547315 -0.000395 0.0002662888 -0.0006545693 -0.000395 0.0002668915 -0.0006544356 -0.000395 0.000267504 -0.000654331 -0.000395 0.0002681255 -0.0006542561 -0.000395 0.000268755 -0.0006542117 -0.000395 0.0002693918 -0.0006541984 -0.000395 0.0002700374 -0.0006542177 -0.000395 0.0002707082 -0.0006542696 -0.000395 0.000271369 -0.0006543534 -0.000395 0.000272019 -0.0006544682 -0.000395 0.0002726576 -0.0006546132 -0.000395 0.0002732841 -0.0006547875 -0.000395 0.0002738978 -0.0006549902 -0.000395 0.000274498 -0.0006552205 -0.000395 0.000275084 -0.0006554775 -0.000395 0.0002756552 -0.0006557605 -0.000395 0.0002762109 -0.0006560685 -0.000395 0.0002767504 -0.0006564007 -0.000395 0.000277273 -0.0006567562 -0.000395 0.0002777781 -0.0006571342 -0.000395 0.0002782649 -0.0006575339 -0.000395 0.0002787327 -0.0006579543 -0.000395 0.000279181 -0.0006583947 -0.000395 0.000279609 -0.0006588541 -0.000395 0.0002800161 -0.0006593319 -0.000395 0.0002804014 -0.0006598269 -0.000395 0.0002807645 -0.0006603385 -0.000395 0.0002811045 -0.0006608658 -0.000395 0.0002814209 -0.000661408 -0.000395 0.0002817129 -0.0006619641 -0.000395 0.0002819798 -0.0006625333 -0.000395 0.000282221 -0.0006631148 -0.000395 0.0002824358 -0.0006637078 -0.000395 0.0002826235 -0.0006643113 -0.000395 0.0002827834 -0.0006649246 -0.000395 0.0002829149 -0.0006655467 -0.000395 0.0002830172 -0.0006661769 -0.000395 0.0002830897 -0.0006667641 -0.000395 0.0002831296 -0.0006673568 -0.000395 0.000283143 -0.0006679995 -0.000395 0.0002831272 -0.0006686357 -0.000395 0.0002830804 -0.0006692647 -0.000395 0.0002830032 -0.0006698855 -0.000395 0.0002828962 -0.0006704972 -0.000395 0.0002827603 -0.0006710992 -0.000395 0.000282596 -0.0006716904 -0.000395 0.000282404 -0.0006722701 -0.000395 0.000282185 -0.0006728373 -0.000395 0.0002819397 -0.0006733913 -0.000395 0.0002816688 -0.0006739312 -0.000395 0.000281373 -0.0006744561 -0.000395 0.0002810529 -0.0006749651 -0.000395 0.0002807092 -0.0006754576 -0.000395 0.0002803426 -0.0006759325 -0.000395 0.0002799538 -0.000676389 -0.000395 0.0002795435 -0.0006768264 -0.000395 0.0002791122 -0.0006772436 -0.000395 0.0002786609 -0.0006776399 -0.000395 0.00027819 -0.0006780145 -0.000395 0.0002777003 -0.0006783664 -0.000395 0.0002771924 -0.0006786948 -0.000395 0.0002766671 -0.0006789989 -0.000395 0.0002761251 -0.0006792779 -0.000395 0.0002755669 -0.0006795309 -0.000395 0.0002749933 -0.0006797569 -0.000395 0.000274405 -0.0006799552 -0.000395 0.0002738027 -0.0006801249 -0.000395 0.000273187 -0.0006802652 -0.000395 0.0002725585 -0.0006803753 -0.000395 0.0002719181 -0.0006804542 -0.000395 0.0002712663 -0.0006805011 -0.000395 0.000270604 -0.0006805152 -0.000395 0.0002699316 -0.0006804959 -0.000395 0.0002692608 -0.0006804439 -0.000395 0.0002686 -0.0006803601 -0.000395 0.00026795 -0.0006802453 -0.000395 0.0002673114 -0.0006801003 -0.000395 0.0002666849 -0.0006799261 -0.000395 0.0002660712 -0.0006797234 -0.000395 0.000265471 -0.0006794931 -0.000395 0.0002648849 -0.000679236 -0.000395 0.0002643138 -0.0006789531 -0.000395 0.0002637581 -0.0006786451 -0.000395 0.0002632186 -0.0006783129 -0.000395 0.000262696 -0.0006779574 -0.000395 0.0002621909 -0.0006775793 -0.000395 0.0002617041 -0.0006771797 -0.000395 0.0002612362 -0.0006767592 -0.000395 0.000260788 -0.0006763189 -0.000395 0.00026036 -0.0006758594 -0.000395 0.0002599529 -0.0006753817 -0.000395 0.0002595676 -0.0006748866 -0.000395 0.0002592045 -0.000674375 -0.000395 0.0002588645 -0.0006738477 -0.000395 0.0002585481 -0.0006733056 -0.000395 0.0002582561 -0.0006727495 -0.000395 0.0002579892 -0.0006721802 -0.000395 0.000257748 -0.0006715987 -0.000395 0.0002575332 -0.0006710057 -0.000395 0.0002573455 -0.0006704022 -0.000395 0.0002571856 -0.000669789 -0.000395 0.0002570541 -0.0006691669 -0.000395 0.0002569518 -0.0006685367 -0.000395 0.0002568793 -0.0006679494 -0.000395 0.0002568394</float_array>
          <technique_common>
            <accessor count="828" source="#cubeverts-array0-array" stride="3">
              <param type="float" name="X"/>
              <param type="float" name="Y"/>
              <param type="float" name="Z"/>
            </accessor>
          </technique_common>
        </source>
        <source id="cubenormals-array0">
          <float_array count="4884" id="cubenormals-array0-array">-0 0 1 0 0 -1 0 0 -1 0 0 -1 0 0 -1 0 0 -1 1 0 0 1 -0 0 -0 0 1 -0 0 1 0 0 1 0 0 1 0 0 1 0 0 1 -1 0 0 -1 -0 0 0 0 -1 0 0 -1 1 -0 0 1 0 0 0 1 0 0 1 -0 0 1 0 0 1 -0 0 1 0 0 -1 0 0 -1 0 0 -1 0 0 -1 0 0 -1 0 0 -1 0 0 -1 0 1 0 0 1 -0 0 1 0 0 1 -0 0 0 1 -0 0 1 0 -0 -1 -0 0 -1 0 1 0 0 1 0 -0 0 1 -0 0 1 0 -1 -0 -0 -1 0 0 0 0 1 -0 0 1 0 0 -1 0 0 -1 0 0 1 0 0 -1 0 0 -1 0 0 -1 0 0 -1 0 0 -1 -1 0 0 -1 0 0 -0 0 1 -0 0 1 -0 0 1 0 0 1 -0 0 1 0 0 1 1 0 0 1 0 0 0 0 -1 0 0 -1 -1 -0 -0 -1 0 0 0 1 0 -0 1 0 -0 1 0 0 1 0 -0 1 0 0 -1 -0 -0 -1 0 0 -1 -0 0 -1 0 -0 -1 0 -0 -1 -0 0 -1 0 -1 0 0 -1 -0 -0 -1 0 0 -1 -0 -0 -0 1 0 0 1 0 0 -1 -0 -0 -1 0 0 -1 0 0 -1 -0 0 -1 0 0 -1 -0 0 -1 0 0 -1 -0 0 -1 -0 0 -1 0 0 -1 0 0 -1 0 0 -1 -0 -0 -1 0 -0 -1 0 0 -1 0 0 -1 0 0 -1 0 0 -1 -0 0 -1 -0 0 -1 -0 0 -1 -0 0 -1 -0 0 -1 -0 0 -1 -0 0 -1 -0 -0 -1 0 -0 -1 0 0 -1 0 0 -1 0 -0 -1 0 -0 -1 0 0 -1 0 0 -1 0 0 -1 0 0 -1 -0 0 -1 0 -0 -1 0 -0 -1 0 0 -1 -0 0 -1 0 0 -1 -0 0 -1 0 0 -1 -0 -0 -1 0 0 -1 -0 -0 -1 -0 0 -1 -0 -0 -1 0 -0 -1 -0 0 -1 0 -0 -1 -0 -0 -1 -0 -0 -1 0 -0 -1 0 -0 -1 0 -0 -1 0 -0 -1 0 -0 -1 0 0 -1 0 0 -1 0 0 -1 0 0 -1 0 0 -1 0 0 -1 -0 0 -1 -0 0 -1 -0 0 -1 -0 -0 -1 -0 -0 -1 0 0 -1 0 0 -1 -0 0 -1 0 -0 -1 0 0 -1 0 -0 -1 0 0 -1 -0 -0 -1 -0 -0 -1 0 0 -1 0 0 -1 0 -0 -1 0 0 -1 0 0 -1 0 0 -1 -0 -0 -1 0 0 -1 0 0 -1 -0 0 -1 0 0 -1 0 0 -1 0 0 -1 0 0 -1 0 0 -1 0 0 -1 0 0 -1 -0 0 -1 -0 -0 -1 0 0 -1 -0 0 -1 -0 -0 -1 -0 -0 -1 0 0 -1 -0 0 -1 -0 0 -1 -0 -0 -1 -0 0 -1 0 -0 -1 -0 -0 -1 0 0 -1 -0 0 -1 -0 -0 -1 -0 -0 -1 -0 0 -1 -0 0 -1 -0 -0 -1 0 0 -1 0 0 -1 0 0 -1 0 0 -1 -0 -0 -1 0 -0 -1 0 0 -1 0 -0 -1 0 -0 -1 0 0 -1 0 0 -1 0 -0 -1 0 0 -1 -0 -0 -1 -0 0 -1 0 0 -1 -0 -0 -1 0 -0 -1 0 -0 -1 0 0 -1 -0 -0 -1 0 -0 -1 0 -0 -1 0 -0 -1 0 -0 -1 0 -0 -1 0 0 -1 0 0 -1 0 0 -1 0 0 -1 0 0 -1 -0 0 -1 0 -0 -1 0 0 -1 0 -0 -1 0 0 -1 0 -0 -1 0 0 -1 0 0 -1 0 0 -1 0 -0 -1 0 0 -1 -0 -0 -1 0 0 -1 0 0 -1 -0 0 -1 0 -0 -1 0 0 -1 0 0 -1 -0 0 -1 -0 0 -1 -0 0 -1 -0 0 -1 0 -0 -1 0 -0 -1 0 -0 -1 0 -0 -1 0 -0 -1 0 -0 -1 0 0 -1 0 0 -1 -0 0 -1 0 0 -1 0 0 -1 -0 0 -1 0 0 -1 0 0 -1 -0 0 -1 -0 -0 -1 0 0 -1 0 0 -1 0 0 -1 -0 0 -1 -0 0 -1 0 -0 -1 0 -0 -1 0 0 -1 0 0 -1 0 0 -1 0 -0 -1 0 -0 -1 -0 0 -1 0 0 -1 -0 0 -1 -0 -0 -1 0 -0 -1 0 0 -1 0 0 -1 0 0 -1 -0 -0 -1 0 0 -1 0 0 -1 0 0 -1 0 0 -1 0 0 -1 0 0 -1 0 0 -1 0 -0 -1 0 -0 -1 -0 -0 -1 0 -0 -1 0 0 -1 0 -0 -1 0 -0 -1 0 -0 -1 0 0 -1 0 -0 -1 0 0 -1 0 -0 -1 0 0 -1 -0 0 -1 0 0 -1 0 -0 -1 -0 -0 -1 -0 -0 -1 -0 -0 -1 0 -0 -1 -0 0 -1 0 0 -1 0 -0 -1 0 0 -1 0 0 -1 0 -0 -1 0 -0 -1 0 -0 -1 0 -0 -1 0 -0 -1 0 -0 -1 0 -0 -1 0 -0 -1 0 -0 -1 0 -0 -1 0 0 -1 0 0 -1 0 0 -1 0 0 -1 0 0 -1 0 0 -1 0 0 -1 0 0 -1 0 0 -1 0 0 -1 0 0 -1 0 0 -1 0 0 -1 0 0 -1 0 0 -1 0 0 -1 0 0 -1 0 0 -1 0 0 -1 0 0 -1 0 0 -1 0 0 -1 0 0 -1 0 0 -1 0 0 -1 0 0 -1 0 0 -1 -0 0 -1 0 0 -1 0 0 -1 0 0 -1 0 0 -1 0 1 0 -0 1 0 0 0 0 1 0 0 1 1 0 -0 1 0 0 0 0 1 0 0 1 -1 -0 -0 -1 0 0 0 0 -1 0 0 -1 0 -1 0 -0 -1 -0 0 -1 -0 0 -1 0 0.2060118 0 -0.9785495 0.2060118 0 -0.9785495 1 0 -0 1 0 0 -0.4544429 0 0.8907759 -0.4544429 0 0.8907759 -0.3189709 0 0.9477645 -0.3189709 0 0.9477645 -0.1845018 0 0.9828323 -0.1845018 0 0.9828323 -0.05840085 0 0.9982932 -0.05840085 0 0.9982932 0.08693116 0 0.9962143 0.08693116 0 0.9962143 0.2789965 0 0.9602921 0.2789965 0 0.9602921 0.4779995 0 0.8783602 0.4779995 0 0.8783602 0.6563395 0 0.7544656 0.6563395 0 0.7544656 0.9455885 0 0.3253651 0.9455885 0 0.3253651 0.944008 0 -0.3299226 0.944008 0 -0.3299226 0.3770763 0 -0.9261821 0.3770763 0 -0.9261821 -0.2440189 0 -0.9697704 -0.2440189 -0 -0.9697704 1 0 -0 1 0 0 0.3361494 0 0.9418087 0.3361494 0 0.9418087 0.2216936 0 0.9751164 0.2216936 0 0.9751164 0.1222678 0 0.9924971 0.1222678 0 0.9924971 0.03742986 0 0.9992992 0.03742986 0 0.9992992 -0.3720582 0 0.9282094 -0.3720582 0 0.9282094 -0.9373388 0 0.3484193 -0.9373388 0 0.3484193 -0.9971985 0 -0.07480042 -0.9971985 -0 -0.07480042 -0.9699326 0 -0.2433738 -0.9699326 -0 -0.2433738 -0.9040719 0 -0.4273805 -0.9040719 -0 -0.4273805 -0.7956405 0 -0.6057692 -0.7956405 -0 -0.6057692 -0.3692451 0 -0.929332 -0.3692451 -0 -0.929332 0 -1 0 0 -1 0 0 -1 -0 0 -1 0 0 -1 -0 0 -1 0 0 -1 0 0 -1 0 0 -1 0 0 -1 0 0 -1 0 0 -1 0 0 -1 0 0 -1 -0 0 -1 0 0 -1 0 0 -1 0 0 -1 -0 0 -1 0 0 -1 0 0 -1 0 0 -1 -0 0 -1 0 0 -1 0 1 0 -0 1 0 0 0 0 1 0 0 1 1 0 -0 1 0 0 0 0 -1 0 0 -1 1 0 0 1 0 0 0 0 1 0 0 1 1 0 -0 1 0 0 0 0 -1 0 0 -1 1 0 -0 1 0 0 0 0 1 0 0 1 -1 -0 -0 -1 0 0 0 0 -1 0 0 -1 0 -1 -0 -0 -1 0 0 -1 0 0 -1 0 0 -1 -0 -0 -1 -0 0 -1 -0 0 -1 -0 0 -1 0 0 -1 -0 0 -1 0 0 -1 0 0 -1 -0 0 -1 -0 0 -1 0 0 -1 0 0 -1 -0 0 -1 -0 0 -1 0 0 -1 0 0 -1 -0 0 -1 -0 0 -1 0 0 -1 0 0 -1 -0 0 -1 0 0 -1 0 0 -1 0 0 -1 0 0 -1 0 0 -1 0 0 -1 -0 0 -1 0 0 -1 0 0 -1 0 0 -1 0 0 -1 -0 0 -1 0 0 -1 -0 0 -1 0 0 -1 0 0 -1 0 0 0 -1 0 0 -1 0.07695393 0 -0.9970347 0.07695393 0 -0.9970347 0.2481584 0 -0.9687195 0.2481584 0 -0.9687195 0.4311427 0 -0.9022837 0.4311427 0 -0.9022837 0.6048888 0 -0.7963099 0.6048888 0 -0.7963099 0.7549875 0 -0.6557391 0.7549875 0 -0.6557391 0.8802784 0 -0.4744575 0.8802784 0 -0.4744575 0.9614716 0 -0.2749041 0.9614716 0 -0.2749041 0.9963718 0 -0.08510736 0.9963718 0 -0.08510736 0.9203071 0 0.3911966 0.9203071 0 0.3911966 0.3305496 0 0.9437886 0.3305496 0 0.9437886 0 0 1 0 0 1 -1 -0 -0 -1 0 0 0 0 -1 0 0 -1 1 0 -0 1 0 0 0 0 1 0 0 1 -0.0722112 0 0.9973893 -0.0722112 0 0.9973893 -0.2386681 0 0.9711012 -0.2386681 0 0.9711012 -0.4267237 0 0.9043821 -0.4267237 0 0.9043821 -0.6146188 0 0.7888243 -0.6146188 0 0.7888243 -0.7730431 0 0.6343536 -0.7730431 0 0.6343536 -0.8962711 0 0.4435065 -0.8962711 0 0.4435065 -0.9685339 0 0.2488814 -0.9685339 0 0.2488814 -0.9971603 0 0.075308 -0.9971603 0 0.075308 -0.9969641 0 -0.07786299 -0.9969641 -0 -0.07786299 -0.9654793 -0 -0.2604798 -0.9654793 0 -0.2604798 -0.8834704 -0 -0.4684871 -0.8834704 0 -0.4684871 -0.7413241 -0 -0.6711471 -0.7413241 0 -0.6711471 -0.5717651 0 -0.8204173 -0.5717651 -0 -0.8204173 -0.3978629 -0 -0.9174448 -0.3978629 0 -0.9174448 -0.224641 -0 -0.9744416 -0.224641 0 -0.9744416 -0.06881899 -0 -0.9976292 -0.06881899 0 -0.9976292 -0 -1 0 -0 -1 0 0 -1 0 -0 -1 0 0 -1 0 -0 -1 0 -0 -1 -0 -0 -1 -0 -0 -1 -0 -0 -1 -0 -0 -1 -0 -0 -1 -0 -0 -1 0 -0 -1 0 -0 -1 -0 0 -1 0 -0 -1 0 0 -1 0 0 -1 0 0 -1 0 0 -1 0 0 -1 0 0 -1 0 0 -1 0 0 -1 -0 -0 -1 -0 0 -1 -0 0 -1 0 0 -1 0 0 -1 0 0.9345104 0 0.3559357 0.9345104 0 0.3559357 0 0 1 0 0 1 -0.9345102 0 0.3559362 -0.9345102 0 0.3559362 0 0 -1 0 0 -1 0.9434446 0 -0.3315305 0.9434446 0 -0.3315305 0 0 -1 0 0 -1 -0.9369751 -0 -0.3493961 -0.9369751 0 -0.3493961 0 0 -1 0 0 -1 0 0 1 0 0 1 -0.9398442 0 -0.3416035 -0.9398442 -0 -0.3416035 -0.9662943 0 -0.2574399 -0.9662943 -0 -0.2574399 0.973789 0 -0.2274535 0.973789 0 -0.2274535 0.9409539 0 -0.338535 0.9409539 0 -0.338535 0 -1 0 -0 -1 0 0 -1 0 1 0 0 1 0 0 0 0 1 0 0 1 1 0 -0 1 0 0 0 0 -1 0 0 -1 1 0 -0 1 0 0 0 0 1 0 0 1 1 0 -0 1 0 0 0 0 -1 0 0 -1 1 0 -0 1 0 0 0 0 1 0 0 1 -1 -0 -0 -1 0 0 0 0 -1 0 0 -1 0 -1 -0 -0 -1 0 0 -1 0 0 -1 0 0 -1 -0 -0 -1 -0 0 -1 -0 0 -1 -0 0 -1 0 0 -1 -0 0 -1 0 0 -1 0 0 -1 0 0 -1 0 0 -1 0 0 -1 -0 0 -1 0 0 -1 -0 0 -1 0 0 -1 -0 0 -1 0 0 -1 0 0 -1 -0 0 -1 -0 0 -1 -0 0 -1 0 0 -1 0 0 -1 0 0 -1 -0 0 -1 -0 0 -1 0 0 -1 0 0 -1 0 0 -1 -0 0 -1 0 0 -1 0 0 -1 -0 0 -1 0 0 -1 0 0 -1 0 0 -1 0 0 -1 0 0 -1 0 0 -1 -0 0 -1 0 0 -1 0 0 -1 0 0 -1 0 0 -1 0 -0.2609075 0 0.9653638 -0.2609075 0 0.9653638 -1 -0 -0 -1 0 0 0.3461798 0 -0.9381682 0.3461798 0 -0.9381682 -0.1702672 0 -0.9853979 -0.1702672 -0 -0.9853979 -0.5871264 0 -0.8094953 -0.5871264 -0 -0.8094953 -0.8956282 0 -0.4448034 -0.8956282 -0 -0.4448034 -0.9930739 0 -0.1174914 -0.9930739 -0 -0.1174914 -0.1387398 0 0.9903288 -0.1387398 0 0.9903288 -0.7013163 0 0.7128502 -0.7013163 0 0.7128502 -0.9271802 0 -0.3746157 -0.9271802 -0 -0.3746157 -0.5926755 0 -0.8054413 -0.5926755 -0 -0.8054413 -0.4137484 0 -0.9103913 -0.4137484 -0 -0.9103913 -0.2335849 0 -0.9723364 -0.2335849 -0 -0.9723364 -0.07138207 0 -0.997449 -0.07138207 -0 -0.997449 0.1164348 0 -0.9931983 0.1164348 0 -0.9931983 0.3744694 0 -0.9272393 0.3744694 0 -0.9272393 0.6203653 0 -0.784313 0.6203653 0 -0.784313 0.8022625 0 -0.5969715 0.8022625 0 -0.5969715 -0.9995476 -0 -0.03007658 -0.9995476 0 -0.03007658 0 0 -1 0 0 -1 1 0 -0 1 0 0 0.7239758 0 0.6898254 0.7239758 0 0.6898254 0.3411042 0 -0.9400256 0.3411042 0 -0.9400256 0.775183 0 -0.6317368 0.775183 0 -0.6317368 0.8966901 0 -0.442659 0.8966901 0 -0.442659 0.9684229 0 -0.2493134 0.9684229 0 -0.2493134 0.9971254 0 -0.07576809 0.9971254 0 -0.07576809 0.9168025 0 0.399341 0.9168025 0 0.399341 0.5857271 0 0.8105084 0.5857271 0 0.8105084 0.4092604 0 0.9124176 0.4092604 0 0.9124176 0.2316921 0 0.9727892 0.2316921 0 0.9727892 0.07105194 0 0.9974726 0.07105194 0 0.9974726 -0.09205684 0 0.9957537 -0.09205684 0 0.9957537 -0.2918828 0 0.9564541 -0.2918828 0 0.9564541 -0.4926077 0 0.8702515 -0.4926077 0 0.8702515 -0.6667382 0 0.7452921 -0.6667382 0 0.7452921 -0.9383439 0 0.3457031 -0.9383439 0 0.3457031 -1 0 -0 -1 -0 0 0.1333554 0 -0.9910682 0.1333554 0 -0.9910682 0 -1 -0 -0 -1 0 -0 -1 0 -0 -1 0 -0 -1 0 -0 -1 0 0 -1 0 0 -1 0 0 -1 0 0 -1 0 0 -1 0 0 -1 0 0 -1 0 0 -1 0 0 -1 0 0.3176373 0 0.9482123 0.3176373 0 0.9482123 -1 -0 -0 -1 0 0 -0.3880885 0 -0.9216222 -0.3880885 -0 -0.9216222 -0.2694962 0 -0.9630014 -0.2694962 -0 -0.9630014 -0.1551036 0 -0.9878982 -0.1551036 -0 -0.9878982 -0.04908979 0 -0.9987943 -0.04908979 -0 -0.9987943 0.05816241 0 -0.9983072 0.05816241 0 -0.9983072 0.1900125 0 -0.9817817 0.1900125 0 -0.9817817 0.3400104 0 -0.9404217 0.3400104 0 -0.9404217 0.4993919 0 -0.8663762 0.4993919 0 -0.8663762 0.6564963 0 -0.7543293 0.6564963 0 -0.7543293 0.8193535 0 -0.5732886 0.8193535 0 -0.5732886 0.9390071 0 -0.3438978 0.9390071 0 -0.3438978 0.9941795 0 -0.1077353 0.9941795 0 -0.1077353 0.9970001 0 0.07739965 0.9970001 0 0.07739965 0.9692053 0 0.2462541 0.9692053 0 0.2462541 0.9063915 0 0.4224387 0.9063915 0 0.4224387 0.8092943 0 0.5874034 0.8092943 0 0.5874034 0.6739388 0 0.7387872 0.6739388 0 0.7387872 0.5483499 0 0.836249 0.5483499 0 0.836249 0.452278 0 0.8918771 0.452278 0 0.8918771 0.3788205 0 0.9254701 0.3788205 0 0.9254701 0.3797734 0 0.9250796 0.3797734 0 0.9250796 0.4220529 0 0.9065712 0.4220529 0 0.9065712 0.4852672 0 0.8743659 0.4852672 0 0.8743659 0.5877108 0 0.8090711 0.5877108 0 0.8090711 0.9247496 0 0.3805762 0.9247496 0 0.3805762 0.9932342 0 -0.116129 0.9932342 0 -0.116129 0.9322366 0 -0.3618494 0.9322366 0 -0.3618494 0.8083429 0 -0.5887119 0.8083429 0 -0.5887119 0.6483755 0 -0.7613207 0.6483755 0 -0.7613207 0.2601515 0 -0.9655678 0.2601515 0 -0.9655678 -0.2736458 0 -0.9618306 -0.2736458 -0 -0.9618306 1 0 -0 1 0 0 0.1841095 0 0.9829057 0.1841095 0 0.9829057 -0.2757047 0 0.9612424 -0.2757047 0 0.9612424 -0.884725 0 0.4661134 -0.884725 0 0.4661134 -0.9975817 0 -0.0695038 -0.9975817 -0 -0.0695038 -0.9753731 0 -0.220561 -0.9753731 -0 -0.220561 -0.9249622 0 -0.3800591 -0.9249622 -0 -0.3800591 -0.8448895 0 -0.5349409 -0.8448895 -0 -0.5349409 -0.7158893 0 -0.6982138 -0.7158893 -0 -0.6982138 -0.5777195 0 -0.8162354 -0.5777195 -0 -0.8162354 -0.4763551 0 -0.879253 -0.4763551 -0 -0.879253 -0.4021612 0 -0.9155688 -0.4021612 -0 -0.9155688 -0.4380825 0 -0.8989348 -0.4380825 -0 -0.8989348 -0.9037372 0 -0.4280878 -0.9037372 -0 -0.4280878 -0.976927 0 0.2135735 -0.976927 0 0.2135735 -0.7367635 0 0.6761505 -0.7367635 0 0.6761505 -0.3653672 0 0.9308634 -0.3653672 0 0.9308634 -0.09309701 0 0.995657 -0.09309701 0 0.995657 0 -1 -0 0 -1 -0 0 -1 0 0 -1 0 0 -1 0 0 -1 0 0 -1 0 0 -1 -0 0 -1 -0 0 -1 -0 0 -1 0 0 -1 -0 0 -1 0 0 -1 -0 0 -1 -0 0 -1 -0 -0 -1 0 0 -1 0 0 -1 0 0 -1 -0 0 -1 -0 0 -1 -0 0 -1 -0 0 -1 0 0 -1 -0 -0 -1 0 0 -1 0 0 -1 -0 0 -1 0 0 -1 -0 0 -1 0 0 -1 -0 0 -1 0 0 -1 0 0 -1 0 0 -1 0 0 -1 0 0 -1 -0 0 -1 0 0 -1 0 0 -1 -0 0 -1 0 0 -1 -0 0 -1 -0 0 -1 0 0 -1 0 0 -1 0 0 -1 0 0 -1 0 0 0 1 0 0 1 -0.9400933 0 0.3409171 -0.9400933 0 0.3409171 -0.9662935 0 0.257443 -0.9662935 0 0.257443 0.9533932 0 0.3017308 0.9533932 0 0.3017308 0.9445576 0 0.3283455 0.9445576 0 0.3283455 0 0 1 0 0 1 -0.9306704 -0 -0.3658587 -0.9306704 0 -0.3658587 -0.9209169 0 0.3897591 -0.9209169 0 0.3897591 -0.6174073 0 0.7866437 -0.6174073 0 0.7866437 0.1974696 0 0.980309 0.1974696 0 0.980309 -1 -0 -0 -1 0 0 -0.1255782 0 -0.9920837 -0.1255782 -0 -0.9920837 0.667601 0 -0.7445192 0.667601 0 -0.7445192 0.9303007 0 -0.3667977 0.9303007 0 -0.3667977 0 -1 -0 0 -1 -0 0 -1 0 0 -1 -0 0 -1 0 0 -1 -0 0 -1 -0 0 -1 -0 0 -1 0 0 -1 -0 0 -1 0 0 -1 0 1 0 -0 1 0 0 0 0 1 0 0 1 1 0 -0 1 0 0 0 0 -1 0 0 -1 1 0 -0 1 0 0 0 0 1 0 0 1 1 0 -0 1 0 0 0 0 -1 0 0 -1 1 0 -0 1 0 0 0 0 1 0 0 1 -1 -0 -0 -1 0 0 0 0 -1 0 0 -1 0 -1 -0 -0 -1 0 0 -1 0 0 -1 0 0 -1 -0 -0 -1 -0 0 -1 -0 0 -1 -0 0 -1 0 0 -1 -0 0 -1 0 0 -1 0 0 -1 -0 0 -1 -0 0 -1 0 0 -1 0 0 -1 -0 0 -1 -0 0 -1 0 0 -1 0 0 -1 -0 0 -1 -0 0 -1 0 0 -1 0 0 -1 -0 0 -1 0 0 -1 0 0 -1 0 0 -1 0 0 -1 0 0 -1 0 0 -1 -0 0 -1 0 0 -1 0 0 -1 0 0 -1 0 0 -1 -0 0 -1 0 0 -1 -0 0 -1 0 0 -1 0 0 -1 0 0 0 -1 0 0 -1 0.07695435 0 -0.9970345 0.07695435 0 -0.9970345 0.2481584 0 -0.9687195 0.2481584 0 -0.9687195 0.4311427 0 -0.9022837 0.4311427 0 -0.9022837 0.6048898 0 -0.7963092 0.6048898 0 -0.7963092 0.7549875 0 -0.6557391 0.7549875 0 -0.6557391 0.8802796 0 -0.4744553 0.8802796 0 -0.4744553 0.9614716 0 -0.2749041 0.9614716 0 -0.2749041 0.9963713 0 -0.0851125 0.9963713 0 -0.0851125 0.9203071 0 0.3911966 0.9203071 0 0.3911966 0.3305483 0 0.9437891 0.3305483 0 0.9437891 0 0 1 0 0 1 -1 -0 -0 -1 0 0 0 0 -1 0 0 -1 1 0 -0 1 0 0 0 0 1 0 0 1 -0.0722112 0 0.9973893 -0.0722112 0 0.9973893 -0.2386681 0 0.9711012 -0.2386681 0 0.9711012 -0.4267237 0 0.9043821 -0.4267237 0 0.9043821 -0.6146188 0 0.7888243 -0.6146188 0 0.7888243 -0.7730431 0 0.6343536 -0.7730431 0 0.6343536 -0.8962711 0 0.4435065 -0.8962711 0 0.4435065 -0.9685339 0 0.2488814 -0.9685339 0 0.2488814 -0.9971598 0 0.07531504 -0.9971598 0 0.07531504 -0.9969641 0 -0.07786299 -0.9969641 -0 -0.07786299 -0.9654798 -0 -0.2604778 -0.9654798 0 -0.2604778 -0.8834649 -0 -0.4684974 -0.8834649 0 -0.4684974 -0.7413286 -0 -0.6711423 -0.7413286 0 -0.6711423 -0.571761 0 -0.8204203 -0.571761 -0 -0.8204203 -0.3978629 -0 -0.9174448 -0.3978629 0 -0.9174448 -0.224641 -0 -0.9744416 -0.224641 0 -0.9744416 -0.06882631 -0 -0.9976287 -0.06882631 0 -0.9976287 -0 -1 0 -0 -1 0 0 -1 0 -0 -1 0 0 -1 0 -0 -1 0 -0 -1 -0 -0 -1 -0 -0 -1 -0 -0 -1 -0 -0 -1 -0 -0 -1 -0 -0 -1 0 -0 -1 0 -0 -1 -0 0 -1 0 -0 -1 0 0 -1 0 0 -1 0 0 -1 0 0 -1 0 0 -1 0 0 -1 0 0 -1 0 0 -1 -0 -0 -1 -0 0 -1 -0 0 -1 0 0 -1 0 0 -1 0 0.9345104 0 0.355936 0.9345104 0 0.355936 0 0 1 0 0 1 -0.9345104 0 0.3559357 -0.9345104 0 0.3559357 0 0 -1 0 0 -1 0.9434451 0 -0.3315285 0.9434451 0 -0.3315285 0 0 -1 0 0 -1 -0.9369751 -0 -0.3493961 -0.9369751 0 -0.3493961 0 0 -1 0 0 -1 0 0 1 0 0 1 -0.9398438 0 -0.3416046 -0.9398438 -0 -0.3416046 -0.9662943 0 -0.2574399 -0.9662943 -0 -0.2574399 0.973789 0 -0.2274535 0.973789 0 -0.2274535 0.9409537 0 -0.3385354 0.9409537 0 -0.3385354 0 -1 0 -0 -1 0 0 -1 0 0 -1 0 0 -1 0 0 -1 -0 0 -1 -0 0 -1 -0 0 -1 0 0 -1 0 0 -1 0 0 -1 -0 0 -1 -0 0 -1 -0 0 -1 0 0 -1 -0 0 -1 -0 0 -1 0 0 -1 -0 0 -1 -0 -0 -1 0 -0 -1 0 0 -1 -0 0 -1 0 0 -1 0 0 -1 0 0 -1 -0 0 -1 0 0 -1 0 0 -1 -0 0 -1 0 0 -1 -0 0 -1 0 0 -1 -0 0 -1 0 0 -1 0 0 -1 0 0 -1 -0 0 -1 -0 0 -1 -0 0 -1 0 0 -1 -0 0 -1 -0 0 -1 -0 0 -1 -0 0 -1 -0 -0 -1 -0 0 -1 -0 0 -1 0 0 -1 0 0 -1 -0 0 -1 0 -0 -1 -0 0 -1 -0 0 -1 0 0 -1 0 0 -1 0 0 -1 -0 0 -1 0 0 -1 0 0.7978019 0 0.6029196 0.7978019 0 0.6029196 0.914937 0 0.4035968 0.914937 0 0.4035968 0.8579525 0 0.513729 0.8579525 0 0.513729 0.7909396 0 0.6118943 0.7909396 0 0.6118943 0.7158784 0 0.698225 0.7158784 0 0.698225 0.5883588 0 0.8086001 0.5883588 0 0.8086001 0.4387265 0 0.8986207 0.4387265 0 0.8986207 0.2717345 0 0.9623723 0.2717345 0 0.9623723 0.09222057 0 0.9957386 0.09222057 0 0.9957386 -0.07779115 0 0.9969697 -0.07779115 0 0.9969697 -0.233288 0 0.9724077 -0.233288 0 0.9724077 -0.3824514 0 0.9239756 -0.3824514 0 0.9239756 -0.5190338 0 0.8547537 -0.5190338 0 0.8547537 -0.7071061 0 0.7071075 -0.7071061 0 0.7071075 0.08662863 0 0.9962407 0.08662863 0 0.9962407 -0.09825245 0 0.9951615 -0.09825245 0 0.9951615 -0.2920824 0 0.9563931 -0.2920824 0 0.9563931 -0.4742033 0 0.8804153 -0.4742033 0 0.8804153 -0.6360127 0 0.7716786 -0.6360127 0 0.7716786 -0.9245098 0 0.3811584 -0.9245098 0 0.3811584 -0.9331244 0 -0.3595536 -0.9331244 -0 -0.3595536 -0.688029 0 -0.7256832 -0.688029 -0 -0.7256832 -0.5761241 0 -0.8173622 -0.5761241 -0 -0.8173622 -0.4501196 0 -0.8929683 -0.4501196 -0 -0.8929683 -0.3168554 0 -0.9484739 -0.3168554 -0 -0.9484739 -0.582048 0 -0.8131545 -0.582048 -0 -0.8131545 0.7071069 0 -0.7071066 0.7071069 0 -0.7071066 1 0 0 1 0 0 0.467307 0 -0.8840951 0.467307 0 -0.8840951 0.8631878 0 0.5048831 0.8631878 0 0.5048831 -0.4630183 0 0.8863487 -0.4630183 0 0.8863487 0.6832199 0 0.7302126 0.6832199 0 0.7302126 0.5089522 0 0.8607948 0.5089522 0 0.8607948 0.3125957 0 0.9498863 0.3125957 0 0.9498863 0.1045382 0 0.9945208 0.1045382 0 0.9945208 -0.5746303 0 0.8184131 -0.5746303 0 0.8184131 0.8376105 0 0.5462679 0.8376105 0 0.5462679 0.7071065 0 -0.7071071 0.7071065 0 -0.7071071 -0.07218231 0 -0.9973914 -0.07218231 -0 -0.9973914 -0.2082039 0 -0.9780854 -0.2082039 -0 -0.9780854 -0.3345289 0 -0.9423855 -0.3345289 -0 -0.9423855 -0.4549806 0 -0.8905013 -0.4549806 -0 -0.8905013 0.5823851 0 -0.8129131 0.5823851 0 -0.8129131 -0.6660154 0 -0.745938 -0.6660154 -0 -0.745938 0 0 -1 0 0 -1 -0.7071064 0 -0.7071072 -0.7071064 -0 -0.7071072 -0.7348034 0 0.6782801 -0.7348034 0 0.6782801 0 0 1 0 0 1 0.1643943 0 0.9863947 0.1643943 0 0.9863947 -0.7071068 0 0.7071068 -0.7071068 0 0.7071068 -0.7302711 0 -0.6831575 -0.7302711 -0 -0.6831575 0 0 -1 0 0 -1 0.1775581 0 -0.9841102 0.1775581 0 -0.9841102 0.3576499 0 -0.9338557 0.3576499 0 -0.9338557 0.5245758 0 -0.8513637 0.5245758 0 -0.8513637 0.670968 0 -0.7414863 0.670968 0 -0.7414863 0.9318203 0 -0.3629201 0.9318203 0 -0.3629201 -0.02479713 0 0.9996925 -0.07452152 0.003343747 0.9972138 -0.1240286 0.009977168 0.9922285 -0.1730967 0.01982382 0.9847053 -0.2215459 0.03279771 0.9745982 -0.2691669 0.04879254 0.9618568 -0.3156163 0.06763265 0.9464735 -0.3607604 0.08920096 0.9283831 -0.4043123 0.1133005 0.9075762 -0.4460032 0.1397173 0.884059 -0.4855 0.1681651 0.8579105 -0.5227194 0.1985146 0.8290696 -0.5572013 0.2303111 0.7977992 -0.5888553 0.2633758 0.7641221 -0.6174714 0.2974001 0.7282048 -0.6427997 0.3319671 0.6903669 -0.6647872 0.366861 0.6507465 -0.683296 0.4016882 0.6097157 -0.6983238 0.4362161 0.5675028 -0.7098489 0.4700826 0.5245349 -0.717987 0.5032253 0.4808941 -0.7227845 0.5351996 0.4372001 -0.7244159 0.5659274 0.393634 -0.723049 0.5954219 0.3502469 -0.7189018 0.6232787 0.3077399 -0.712184 0.6496166 0.2660682 -0.7031192 0.6743917 0.2254313 -0.691977 0.6975114 0.1861331 -0.6789672 0.7190548 0.148202 -0.6643773 0.7389742 0.1118924 -0.6483585 0.7574211 0.07710076 -0.6311809 0.7743859 0.04401458 -0.613023 0.7899643 0.01262215 -0.6160768 0.7874877 -0.01768032 -0.6343485 0.7714353 -0.04989633 -0.6516215 0.7538781 -0.08400735 -0.6676903 0.7346984 -0.120033 -0.6822877 0.7138346 -0.157872 -0.6951441 0.6912318 -0.1974166 -0.7059604 0.6669121 -0.2384286 -0.7144867 0.6408298 -0.2807953 -0.7204345 0.6131062 -0.3241524 -0.7235788 0.5836918 -0.3684256 -0.7236785 0.5527624 -0.4132107 -0.7205593 0.5206131 -0.4579915 -0.7140725 0.4873083 -0.502624 -0.7041193 0.4530875 -0.546743 -0.690639 0.4181921 -0.590028 -0.6737636 0.383176 -0.6318376 -0.6533675 0.3479524 -0.6723393 -0.6297743 0.3132034 -0.7108362 -0.6029371 0.2789404 -0.747435 -0.5732303 0.2457107 -0.7816862 -0.540772 0.2136853 -0.813575 -0.5057486 0.1831017 -0.8430256 -0.4684722 0.154277 -0.8699037 -0.4292099 0.1274507 -0.8941673 -0.3880754 0.1027423 -0.9158829 -0.3454034 0.08039666 -0.9350042 -0.3012346 0.0604848 -0.9516298 -0.2558843 0.04320338 -0.9657415 -0.2095273 0.02866705 -0.9773825 -0.1622904 0.01696776 -0.9865971 -0.11431 0.008197238 -0.9934114 -0.06769833 0.002674518 -0.9977022 -0.02262092 -0 -0.9997441 0.02452198 0 -0.9996993 0.07339121 0.003144697 -0.9972982 0.1218989 0.009378577 -0.9924982 0.1697223 0.01860315 -0.9853163 0.2168379 0.03075387 -0.9757231 0.26304 0.04572354 -0.9637008 0.3082321 0.06342979 -0.9491942 0.3521276 0.08370821 -0.9322012 0.3946185 0.1064574 -0.9126571 0.4354928 0.1315209 -0.8905326 0.4744624 0.1586746 -0.8658568 0.5114132 0.1877984 -0.8385633 0.5459981 0.2185782 -0.8087704 0.5780498 0.2508188 -0.7764975 0.6073651 0.2842782 -0.7418178 0.6336337 0.3185444 -0.705009 0.6567916 0.3534676 -0.6660972 0.6766165 0.3886364 -0.6254213 0.6930034 0.4237335 -0.5832633 0.705904 0.4584722 -0.53991 0.7153129 0.4925721 -0.4956816 0.7212629 0.5256963 -0.4510246 0.7238761 0.5577559 -0.4060933 0.7232859 0.5883856 -0.3614691 0.7196954 0.6174889 -0.3174049 0.7133095 0.6450476 -0.2740496 0.704427 0.6707984 -0.2319744 0.6932404 0.6949199 -0.1910605 0.6801198 0.717201 -0.1518545 0.6652796 0.7377929 -0.1143009 0.6490119 0.756709 -0.07858177 0.6315476 0.7740461 -0.04472491 0.613152 0.7898607 -0.01282893 0.6160768 0.7874877 0.01768032 0.6343472 0.7714365 0.04989397 0.6516236 0.7538757 0.08401148 0.6677169 0.7346643 0.1200945 0.6822892 0.7138332 0.1578724 0.6951256 0.6912684 0.1973534 0.7059604 0.6669121 0.2384286 0.7144837 0.6408398 0.2807798 0.720445 0.6130426 0.3242493 0.7235811 0.5836889 0.3684258 0.7236819 0.5528157 0.4131336 0.7205593 0.5206131 0.4579915 0.714064 0.4872707 0.5026727 0.7041129 0.4530627 0.5467715 0.6906738 0.4182703 0.589932 0.673722 0.3830963 0.6319304 0.6534001 0.348002 0.6722819 0.6297393 0.3131534 0.710889 0.6029748 0.2789835 0.7473885 0.5732303 0.2457107 0.7816862 0.5407329 0.2136473 0.813611 0.5057489 0.1830987 0.8430261 0.4685102 0.1543032 0.8698785 0.4292099 0.1274507 0.8941673 0.3881151 0.102766 0.9158635 0.345331 0.08036181 0.935034 0.3012347 0.060483 0.9516299 0.2559079 0.04321078 0.965735 0.2095079 0.02866098 0.9773868 0.1623055 0.01697053 0.9865946 0.11431 0.008197238 0.9934114 0.06774189 0.002679673 0.9976993 0.02257295 0 0.9997452 0 -1 0 0 -1 0 0 -1 0 0 -1 0 0 -1 0 0 -1 0 0 -1 0 0 -1 0 0 -1 0 0 -1 0 0 -1 0 -0 -1 0 0 -1 0 0 -1 0 0 -1 0 0 -1 0 -0 -1 0 -0 -1 0 -0 -1 0 0 -1 0 -0 -1 0 -0 -1 0 -0 -1 0 -0 -1 0 0 -1 0 0 -1 0 0 -1 0 0 -1 0 0 -1 0 0 -1 0 0 -1 0 -0 -1 -0 -0 -1 -0 0 -1 0 0 -1 0 -0 -1 -0 0 -1 0 0 -1 0 -0 -1 -0 -0 -1 -0 0 -1 0 0 -1 0 -0 -1 -0 -0 -1 -0 0 -1 0 0 -1 0 -0 -1 -0 -0 -1 -0 0 -1 0 -0 -1 -0 -0 -1 -0 -0 -1 -0 -0 -1 -0 -0 -1 -0 -0 -1 -0 -0 -1 0 -0 -1 -0 -0 -1 0 -0 -1 0 -0 -1 -0 -0 -1 0 -0 -1 -0 -0 -1 -0 -0 -1 0 -0 -1 0 0 -1 0 0 -1 0 0 -1 0 0 -1 0 0 -1 0 0 -1 0 0 -1 0 0 -1 0 0 -1 0 0 -1 0 0 -1 0 -0 -1 -0 -0 -1 -0 0 -1 0 0 -1 0 0 -1 0 -0 -1 -0 -0 -1 -0 0 -1 0 0 -1 0 0 -1 0 -0 -1 -0 0 -1 -0 0 -1 -0 0 -1 -0 0 -1 -0 0 -1 -0 0 -1 -0 0 -1 -0 0 -1 -0 0 -1 -0 0 -1 -0 0 -1 -0 0 -1 0 0 -1 -0 0 -1 -0 0 -1 0 0 -1 0 0 -1 -0 0 -1 -0 0 -1 0 0 -1 0 0 -1 -0 0 -1 -0 0 -1 0 0 -1 0 0 -1 -0 0 -1 -0 0 -1 0 0 -1 0 0 -1 0 0 -1 -0 0 -1 0 0 -1 0 0 -1 0 0 -1 0 0 -1 0 0 -1 0 0 -1 0 0 -1 0 0 -1 0 0 -1 0 0 -1 0 0 -1 0 0 -1 0</float_array>
          <technique_common>
            <accessor count="1628" source="#cubenormals-array0-array" stride="3">
              <param type="float" name="X"/>
              <param type="float" name="Y"/>
              <param type="float" name="Z"/>
            </accessor>
          </technique_common>
        </source>
        <vertices id="cubeverts-array0-vertices">
          <input semantic="POSITION" source="#cubeverts-array0"/>
        </vertices>
        <triangles count="1628" material="ref_R0603_R0603_HwOR010_shape001">
          <input offset="0" semantic="VERTEX" source="#cubeverts-array0-vertices"/>
          <input offset="1" semantic="NORMAL" source="#cubenormals-array0"/>
          <p>0 0 2 0 3 0 6 1 4 1 7 1 8 2 6 2 9 2 8 3 9 3 10 3 5 4 8 4 11 4 5 5 6 5 8 5 10 6 9 6 12 6 12 7 9 7 13 7 14 8 15 8 16 8 15 9 17 9 13 9 13 10 17 10 12 10 17 11 18 11 19 11 14 12 18 12 17 12 14 13 17 13 15 13 20 14 21 14 14 14 14 15 21 15 18 15 22 16 20 16 23 16 21 17 20 17 22 17 2 18 22 18 3 18 3 19 22 19 23 19 16 20 4 20 14 20 7 21 4 21 16 21 20 22 14 22 4 22 23 23 0 23 3 23 23 24 20 24 0 24 5 25 19 25 18 25 5 26 11 26 19 26 18 27 21 27 5 27 1 28 22 28 2 28 21 29 22 29 1 29 8 30 10 30 17 30 17 31 10 31 12 31 17 32 11 32 8 32 19 33 11 33 17 33 16 34 6 34 7 34 15 35 6 35 16 35 9 36 6 36 13 36 13 37 6 37 15 37 24 38 25 38 26 38 26 39 25 39 27 39 26 40 28 40 24 40 29 41 28 41 26 41 29 42 30 42 28 42 31 43 30 43 29 43 30 44 31 44 25 44 25 45 31 45 27 45 30 46 25 46 24 46 30 47 24 47 28 47 26 48 31 48 29 48 27 49 31 49 26 49 32 50 33 50 34 50 38 51 39 51 37 51 40 52 38 52 37 52 41 53 42 53 38 53 41 54 38 54 40 54 43 55 40 55 36 55 44 56 45 56 41 56 41 57 45 57 42 57 46 58 47 58 48 58 47 59 49 59 48 59 45 60 44 60 47 60 47 61 44 61 49 61 49 62 50 62 48 62 49 63 51 63 50 63 48 64 50 64 52 64 52 65 50 65 53 65 53 66 54 66 52 66 55 67 54 67 53 67 32 68 54 68 33 68 33 69 54 69 55 69 54 70 35 70 52 70 32 71 35 71 54 71 37 72 48 72 52 72 46 73 37 73 39 73 46 74 48 74 37 74 34 75 55 75 53 75 34 76 33 76 55 76 50 77 36 77 53 77 36 78 51 78 43 78 50 79 51 79 36 79 49 80 44 80 40 80 40 81 44 81 41 81 51 82 40 82 43 82 49 83 40 83 51 83 47 84 39 84 38 84 46 85 39 85 47 85 45 86 47 86 42 86 42 87 47 87 38 87 57 88 58 88 59 88 57 89 60 89 58 89 61 90 62 90 63 90 63 91 64 91 61 91 61 92 65 92 62 92 64 93 66 93 61 93 36 94 67 94 56 94 66 95 68 95 61 95 68 96 69 96 61 96 70 97 71 97 72 97 73 98 74 98 75 98 73 99 76 99 74 99 76 100 77 100 74 100 76 101 78 101 77 101 70 102 79 102 71 102 71 103 79 103 80 103 67 104 79 104 70 104 81 105 82 105 83 105 75 106 84 106 73 106 85 107 84 107 75 107 86 108 84 108 85 108 73 109 84 109 69 109 61 110 84 110 58 110 59 111 84 111 56 111 58 112 84 112 59 112 69 113 84 113 61 113 81 114 87 114 82 114 79 115 88 115 80 115 80 116 88 116 81 116 89 117 90 117 91 117 92 118 93 118 94 118 82 119 95 119 83 119 83 120 95 120 96 120 92 121 97 121 93 121 98 122 99 122 97 122 100 123 101 123 90 123 90 124 102 124 100 124 89 125 102 125 90 125 103 126 102 126 89 126 101 127 104 127 90 127 103 128 105 128 102 128 104 129 106 129 90 129 81 130 107 130 87 130 108 131 107 131 88 131 88 132 107 132 81 132 106 133 109 133 90 133 90 134 109 134 110 134 109 135 111 135 110 135 112 136 113 136 114 136 111 137 115 137 110 137 87 138 116 138 99 138 107 139 116 139 87 139 115 140 117 140 110 140 108 141 118 141 107 141 114 142 119 142 120 142 120 143 119 143 121 143 113 144 119 144 114 144 97 145 122 145 93 145 119 146 123 146 121 146 124 147 125 147 126 147 126 148 125 148 127 148 127 149 125 149 128 149 128 150 125 150 129 150 129 151 125 151 130 151 123 152 131 152 121 152 131 153 132 153 133 153 133 154 132 154 134 154 134 155 132 155 117 155 117 156 132 156 110 156 123 157 135 157 131 157 116 158 136 158 137 158 137 159 138 159 116 159 139 160 140 160 125 160 135 161 141 161 131 161 116 162 142 162 136 162 116 163 143 163 99 163 138 164 143 164 116 164 132 165 144 165 110 165 141 166 145 166 131 166 67 167 146 167 79 167 36 168 146 168 67 168 125 169 147 169 130 169 130 170 147 170 148 170 148 171 147 171 149 171 143 172 150 172 99 172 145 173 151 173 131 173 152 174 153 174 154 174 155 175 156 175 144 175 144 176 157 176 155 176 147 177 158 177 149 177 149 178 158 178 152 178 152 179 158 179 153 179 153 180 159 180 160 180 160 181 159 181 161 181 158 182 159 182 153 182 144 183 162 183 110 183 156 184 162 184 144 184 139 185 163 185 140 185 150 186 164 186 99 186 162 187 165 187 110 187 165 188 166 188 110 188 151 189 167 189 131 189 168 190 167 190 169 190 169 191 167 191 170 191 170 192 167 192 171 192 171 193 167 193 151 193 97 194 172 194 122 194 164 195 172 195 99 195 99 196 172 196 97 196 173 197 174 197 175 197 175 198 174 198 176 198 176 199 174 199 166 199 166 200 174 200 110 200 177 201 178 201 179 201 179 202 178 202 180 202 172 203 181 203 122 203 122 204 181 204 139 204 139 205 181 205 163 205 182 206 183 206 184 206 185 207 186 207 173 207 173 208 186 208 174 208 177 209 187 209 178 209 172 210 188 210 181 210 187 211 189 211 178 211 178 212 190 212 185 212 189 213 190 213 178 213 190 214 191 214 185 214 185 215 191 215 186 215 191 216 192 216 186 216 174 217 193 217 110 217 172 218 194 218 188 218 194 219 195 219 188 219 182 220 196 220 183 220 181 221 197 221 163 221 163 222 197 222 198 222 199 223 200 223 190 223 190 224 200 224 191 224 197 225 201 225 198 225 191 226 202 226 192 226 203 227 204 227 199 227 199 228 204 228 200 228 194 229 205 229 195 229 197 230 206 230 201 230 207 231 208 231 209 231 203 232 210 232 204 232 198 233 211 233 203 233 201 234 211 234 198 234 203 235 211 235 210 235 207 236 212 236 208 236 200 237 213 237 214 237 204 238 213 238 200 238 209 239 215 239 216 239 208 240 215 240 209 240 217 241 218 241 219 241 219 242 218 242 220 242 220 243 218 243 221 243 211 244 222 244 210 244 223 245 222 245 211 245 206 246 224 246 225 246 223 247 226 247 222 247 227 248 226 248 223 248 228 249 229 249 224 249 227 250 230 250 226 250 228 251 231 251 229 251 84 252 1 252 56 252 193 253 1 253 110 253 56 254 1 254 34 254 110 255 1 255 84 255 217 256 232 256 218 256 225 257 232 257 233 257 233 258 232 258 234 258 234 259 232 259 217 259 228 260 235 260 231 260 230 261 236 261 226 261 224 262 237 262 225 262 225 263 237 263 232 263 238 264 239 264 193 264 212 265 240 265 228 265 228 266 240 266 235 266 239 267 241 267 193 267 237 268 242 268 232 268 236 269 243 269 226 269 244 270 243 270 236 270 241 271 245 271 193 271 222 272 246 272 210 272 210 273 246 273 247 273 193 274 248 274 1 274 245 275 248 275 193 275 246 276 249 276 247 276 250 277 251 277 252 277 252 278 251 278 244 278 244 279 251 279 243 279 253 280 254 280 255 280 255 281 254 281 256 281 256 282 254 282 257 282 257 283 254 283 258 283 258 284 259 284 260 284 248 285 261 285 1 285 260 286 261 286 248 286 259 287 261 287 260 287 253 288 262 288 254 288 262 289 263 289 254 289 254 290 264 290 258 290 258 291 264 291 259 291 265 292 266 292 246 292 246 293 266 293 249 293 263 294 267 294 254 294 265 295 268 295 266 295 265 296 269 296 268 296 265 297 270 297 269 297 267 298 271 298 272 298 265 299 273 299 270 299 267 300 274 300 271 300 261 301 275 301 1 301 276 302 275 302 261 302 265 303 277 303 273 303 275 304 278 304 1 304 265 305 279 305 277 305 278 306 280 306 1 306 263 307 281 307 267 307 280 308 282 308 1 308 251 309 283 309 265 309 250 310 283 310 251 310 265 311 283 311 279 311 267 312 284 312 274 312 281 313 284 313 267 313 274 314 284 314 285 314 285 315 284 315 286 315 284 316 287 316 286 316 287 317 288 317 286 317 288 318 289 318 286 318 286 319 290 319 291 319 289 320 292 320 286 320 286 321 292 321 290 321 293 322 294 322 295 322 282 323 296 323 1 323 293 324 297 324 294 324 283 325 5 325 298 325 298 326 5 326 299 326 299 327 5 327 300 327 300 328 5 328 301 328 301 329 5 329 293 329 297 330 5 330 302 330 302 331 5 331 303 331 303 332 5 332 304 332 304 333 5 333 296 333 293 334 5 334 297 334 36 335 5 335 283 335 36 336 283 336 250 336 36 337 250 337 240 337 36 338 240 338 212 338 36 339 212 339 207 339 36 340 207 340 196 340 36 341 196 341 182 341 36 342 182 342 146 342 197 343 228 343 206 343 206 344 228 344 224 344 172 345 207 345 209 345 172 346 209 346 194 346 116 347 182 347 142 347 142 348 182 348 305 348 305 349 182 349 184 349 85 350 99 350 98 350 73 351 81 351 83 351 73 352 83 352 76 352 61 353 70 353 65 353 65 354 70 354 306 354 306 355 70 355 72 355 103 356 139 356 125 356 103 357 125 357 124 357 103 358 124 358 307 358 103 359 307 359 308 359 103 360 308 360 309 360 103 361 309 361 105 361 98 362 86 362 85 362 167 363 132 363 131 363 203 364 167 364 168 364 203 365 168 365 198 365 193 366 247 366 249 366 193 367 249 367 238 367 222 368 226 368 310 368 310 369 226 369 311 369 226 370 243 370 311 370 311 371 243 371 312 371 243 372 251 372 312 372 312 373 251 373 313 373 251 374 265 374 313 374 313 375 265 375 314 375 265 376 246 376 314 376 314 377 246 377 315 377 246 378 222 378 315 378 315 379 222 379 310 379 314 380 312 380 313 380 311 381 312 381 310 381 312 382 315 382 310 382 314 383 315 383 312 383 316 384 201 384 317 384 211 385 201 385 316 385 201 386 206 386 317 386 317 387 206 387 318 387 318 388 225 388 319 388 206 389 225 389 318 389 319 390 233 390 320 390 225 391 233 391 319 391 320 392 234 392 321 392 233 393 234 393 320 393 321 394 217 394 322 394 234 395 217 395 321 395 322 396 219 396 323 396 217 397 219 397 322 397 323 398 220 398 324 398 219 399 220 399 323 399 324 400 221 400 325 400 220 401 221 401 324 401 325 402 218 402 326 402 221 403 218 403 325 403 326 404 232 404 327 404 218 405 232 405 326 405 327 406 242 406 328 406 232 407 242 407 327 407 328 408 237 408 329 408 242 409 237 409 328 409 329 410 224 410 330 410 237 411 224 411 329 411 224 412 229 412 330 412 330 413 229 413 331 413 331 414 231 414 332 414 229 415 231 415 331 415 332 416 235 416 333 416 231 417 235 417 332 417 333 418 240 418 334 418 235 419 240 419 333 419 334 420 250 420 335 420 240 421 250 421 334 421 335 422 252 422 336 422 250 423 252 423 335 423 336 424 244 424 337 424 252 425 244 425 336 425 337 426 236 426 338 426 244 427 236 427 337 427 338 428 230 428 339 428 236 429 230 429 338 429 339 430 227 430 340 430 230 431 227 431 339 431 340 432 223 432 341 432 227 433 223 433 340 433 341 434 211 434 316 434 223 435 211 435 341 435 319 436 317 436 318 436 320 437 317 437 319 437 321 438 316 438 317 438 321 439 317 439 320 439 322 440 316 440 321 440 323 441 316 441 322 441 324 442 316 442 323 442 341 443 324 443 325 443 341 444 325 444 326 444 341 445 316 445 324 445 340 446 341 446 326 446 339 447 340 447 326 447 332 448 330 448 331 448 327 449 339 449 326 449 333 450 330 450 332 450 338 451 339 451 327 451 329 452 330 452 333 452 334 453 329 453 333 453 337 454 338 454 327 454 335 455 329 455 334 455 328 456 329 456 335 456 336 457 327 457 328 457 336 458 337 458 327 458 336 459 328 459 335 459 181 460 188 460 342 460 342 461 188 461 343 461 188 462 195 462 343 462 343 463 195 463 344 463 195 464 205 464 344 464 344 465 205 465 345 465 205 466 194 466 345 466 345 467 194 467 346 467 194 468 347 468 346 468 209 469 347 469 194 469 209 470 216 470 347 470 347 471 216 471 348 471 216 472 215 472 348 472 348 473 215 473 349 473 215 474 208 474 349 474 349 475 208 475 350 475 208 476 212 476 350 476 350 477 212 477 351 477 212 478 228 478 351 478 351 479 228 479 352 479 228 480 197 480 352 480 352 481 197 481 353 481 197 482 181 482 353 482 353 483 181 483 342 483 351 484 349 484 350 484 351 485 352 485 349 485 352 486 348 486 349 486 348 487 345 487 347 487 347 488 345 488 346 488 343 489 344 489 342 489 345 490 353 490 344 490 344 491 353 491 342 491 352 492 353 492 348 492 348 493 353 493 345 493 354 494 355 494 356 494 357 495 356 495 358 495 357 496 354 496 356 496 359 497 360 497 355 497 359 498 355 498 354 498 361 499 358 499 362 499 361 500 357 500 358 500 363 501 364 501 360 501 363 502 360 502 359 502 365 503 362 503 366 503 365 504 361 504 362 504 367 505 368 505 364 505 367 506 364 506 363 506 369 507 366 507 370 507 369 508 365 508 366 508 371 509 368 509 367 509 372 510 369 510 370 510 373 511 368 511 371 511 374 512 368 512 373 512 375 513 372 513 370 513 376 514 377 514 375 514 376 515 375 515 370 515 378 516 377 516 376 516 379 517 378 517 376 517 380 518 379 518 376 518 381 519 382 519 380 519 381 520 383 520 382 520 381 521 380 521 376 521 384 522 374 522 373 522 384 523 383 523 381 523 385 524 374 524 384 524 385 525 384 525 381 525 172 526 164 526 374 526 374 527 164 527 368 527 368 528 164 528 364 528 164 529 150 529 364 529 364 530 143 530 360 530 150 531 143 531 364 531 360 532 138 532 355 532 143 533 138 533 360 533 355 534 137 534 356 534 138 535 137 535 355 535 356 536 136 536 358 536 137 537 136 537 356 537 358 538 142 538 362 538 136 539 142 539 358 539 362 540 305 540 366 540 142 541 305 541 362 541 366 542 184 542 370 542 305 543 184 543 366 543 370 544 183 544 376 544 184 545 183 545 370 545 376 546 196 546 381 546 183 547 196 547 376 547 196 548 207 548 381 548 381 549 207 549 385 549 207 550 172 550 385 550 385 551 172 551 374 551 386 552 387 552 383 552 386 553 383 553 384 553 388 554 386 554 384 554 388 555 384 555 373 555 389 556 388 556 373 556 389 557 373 557 371 557 390 558 389 558 371 558 390 559 371 559 367 559 391 560 367 560 363 560 391 561 390 561 367 561 392 562 363 562 359 562 392 563 391 563 363 563 393 564 359 564 354 564 393 565 392 565 359 565 394 566 393 566 354 566 394 567 354 567 357 567 395 568 357 568 361 568 395 569 394 569 357 569 396 570 361 570 365 570 396 571 395 571 361 571 397 572 365 572 369 572 397 573 396 573 365 573 398 574 397 574 369 574 398 575 369 575 372 575 399 576 372 576 375 576 399 577 398 577 372 577 400 578 375 578 377 578 400 579 399 579 375 579 401 580 377 580 378 580 401 581 400 581 377 581 402 582 401 582 378 582 402 583 378 583 379 583 403 584 379 584 380 584 403 585 402 585 379 585 404 586 380 586 382 586 404 587 403 587 380 587 387 588 382 588 383 588 387 589 404 589 382 589 394 590 395 590 393 590 393 591 395 591 392 591 395 592 391 592 392 592 395 593 396 593 391 593 396 594 390 594 391 594 396 595 397 595 390 595 400 596 401 596 399 596 399 597 402 597 398 597 401 598 402 598 399 598 402 599 403 599 398 599 398 600 404 600 397 600 403 601 404 601 398 601 390 602 387 602 389 602 397 603 387 603 390 603 404 604 387 604 397 604 389 605 386 605 388 605 387 606 386 606 389 606 405 607 406 607 407 607 406 608 408 608 407 608 405 609 409 609 406 609 408 610 410 610 407 610 410 611 411 611 407 611 412 612 411 612 410 612 412 613 413 613 411 613 405 614 414 614 409 614 410 615 414 615 412 615 414 616 415 616 412 616 415 617 416 617 417 617 405 618 416 618 414 618 414 619 416 619 415 619 79 620 146 620 411 620 411 621 146 621 407 621 146 622 182 622 407 622 407 623 182 623 405 623 182 624 116 624 405 624 405 625 116 625 416 625 116 626 107 626 416 626 416 627 107 627 417 627 107 628 118 628 417 628 417 629 118 629 415 629 118 630 108 630 415 630 415 631 108 631 412 631 108 632 88 632 412 632 412 633 88 633 413 633 413 634 88 634 411 634 411 635 88 635 79 635 418 636 419 636 414 636 418 637 414 637 410 637 420 638 418 638 410 638 420 639 410 639 408 639 421 640 420 640 408 640 421 641 408 641 406 641 422 642 421 642 406 642 422 643 406 643 409 643 419 644 422 644 409 644 419 645 409 645 414 645 418 646 420 646 419 646 420 647 422 647 419 647 420 648 421 648 422 648 174 649 423 649 424 649 186 650 423 650 174 650 186 651 192 651 423 651 423 652 192 652 425 652 192 653 202 653 425 653 425 654 202 654 426 654 202 655 191 655 426 655 426 656 191 656 427 656 191 657 200 657 427 657 427 658 200 658 428 658 200 659 214 659 428 659 428 660 214 660 429 660 214 661 213 661 429 661 429 662 213 662 430 662 213 663 204 663 430 663 430 664 204 664 431 664 204 665 210 665 431 665 431 666 210 666 432 666 210 667 247 667 432 667 432 668 247 668 433 668 247 669 193 669 433 669 433 670 193 670 434 670 193 671 174 671 434 671 434 672 174 672 424 672 432 673 430 673 431 673 432 674 433 674 430 674 433 675 429 675 430 675 429 676 426 676 428 676 428 677 426 677 427 677 423 678 425 678 424 678 426 679 434 679 425 679 425 680 434 680 424 680 433 681 434 681 429 681 429 682 434 682 426 682 435 683 436 683 437 683 438 684 439 684 435 684 438 685 435 685 440 685 441 686 442 686 439 686 441 687 439 687 438 687 443 688 444 688 442 688 443 689 442 689 441 689 445 690 446 690 444 690 445 691 444 691 443 691 447 692 435 692 437 692 447 693 440 693 435 693 448 694 449 694 446 694 448 695 446 695 445 695 450 696 447 696 437 696 451 697 449 697 448 697 452 698 447 698 450 698 453 699 454 699 455 699 453 700 455 700 449 700 453 701 449 701 451 701 456 702 454 702 453 702 457 703 454 703 456 703 458 704 452 704 450 704 459 705 452 705 458 705 460 706 457 706 456 706 461 707 458 707 450 707 462 708 461 708 450 708 463 709 464 709 459 709 463 710 459 710 458 710 465 711 466 711 467 711 465 712 468 712 466 712 465 713 460 713 468 713 465 714 457 714 460 714 469 715 462 715 450 715 469 716 470 716 471 716 469 717 471 717 462 717 472 718 473 718 470 718 472 719 470 719 469 719 463 720 465 720 464 720 464 721 465 721 467 721 469 722 199 722 472 722 203 723 199 723 469 723 199 724 190 724 472 724 472 725 190 725 473 725 473 726 189 726 470 726 190 727 189 727 473 727 470 728 187 728 471 728 189 729 187 729 470 729 471 730 177 730 462 730 187 731 177 731 471 731 462 732 179 732 461 732 177 733 179 733 462 733 461 734 180 734 458 734 179 735 180 735 461 735 180 736 178 736 458 736 458 737 178 737 463 737 463 738 185 738 465 738 178 739 185 739 463 739 465 740 173 740 457 740 185 741 173 741 465 741 457 742 175 742 454 742 173 743 175 743 457 743 454 744 176 744 455 744 175 745 176 745 454 745 455 746 166 746 449 746 176 747 166 747 455 747 449 748 165 748 446 748 166 749 165 749 449 749 446 750 162 750 444 750 165 751 162 751 446 751 444 752 156 752 442 752 162 753 156 753 444 753 442 754 155 754 439 754 156 755 155 755 442 755 439 756 157 756 435 756 155 757 157 757 439 757 157 758 144 758 435 758 435 759 144 759 436 759 144 760 132 760 436 760 436 761 132 761 437 761 132 762 167 762 437 762 437 763 167 763 450 763 450 764 203 764 469 764 167 765 203 765 450 765 474 766 475 766 459 766 474 767 459 767 464 767 476 768 474 768 464 768 476 769 464 769 467 769 477 770 467 770 466 770 477 771 476 771 467 771 478 772 466 772 468 772 478 773 477 773 466 773 479 774 468 774 460 774 479 775 478 775 468 775 480 776 479 776 460 776 480 777 460 777 456 777 481 778 480 778 456 778 481 779 456 779 453 779 482 780 453 780 451 780 482 781 481 781 453 781 483 782 451 782 448 782 483 783 482 783 451 783 484 784 448 784 445 784 484 785 483 785 448 785 485 786 484 786 445 786 485 787 445 787 443 787 486 788 443 788 441 788 486 789 485 789 443 789 487 790 441 790 438 790 487 791 486 791 441 791 488 792 438 792 440 792 488 793 487 793 438 793 489 794 488 794 440 794 489 795 440 795 447 795 490 796 489 796 447 796 490 797 447 797 452 797 475 798 490 798 452 798 475 799 452 799 459 799 490 800 475 800 489 800 489 801 475 801 488 801 485 802 475 802 484 802 486 803 475 803 485 803 487 804 475 804 486 804 488 805 475 805 487 805 481 806 479 806 480 806 482 807 479 807 481 807 483 808 479 808 482 808 483 809 478 809 479 809 484 810 474 810 483 810 477 811 474 811 476 811 478 812 474 812 477 812 475 813 474 813 484 813 483 814 474 814 478 814 491 815 131 815 492 815 121 816 131 816 491 816 131 817 133 817 492 817 492 818 133 818 493 818 493 819 134 819 494 819 133 820 134 820 493 820 494 821 117 821 495 821 134 822 117 822 494 822 495 823 115 823 496 823 117 824 115 824 495 824 496 825 111 825 497 825 115 826 111 826 496 826 497 827 109 827 498 827 111 828 109 828 497 828 498 829 106 829 499 829 109 830 106 830 498 830 499 831 104 831 500 831 106 832 104 832 499 832 500 833 101 833 501 833 104 834 101 834 500 834 501 835 100 835 502 835 101 836 100 836 501 836 502 837 102 837 503 837 100 838 102 838 502 838 503 839 105 839 504 839 102 840 105 840 503 840 504 841 309 841 505 841 105 842 309 842 504 842 505 843 308 843 506 843 309 844 308 844 505 844 506 845 307 845 507 845 308 846 307 846 506 846 507 847 124 847 508 847 307 848 124 848 507 848 508 849 126 849 509 849 124 850 126 850 508 850 509 851 127 851 510 851 126 852 127 852 509 852 510 853 128 853 511 853 127 854 128 854 510 854 511 855 129 855 512 855 128 856 129 856 511 856 512 857 130 857 513 857 129 858 130 858 512 858 513 859 148 859 514 859 130 860 148 860 513 860 514 861 149 861 515 861 148 862 149 862 514 862 515 863 152 863 516 863 149 864 152 864 515 864 516 865 154 865 517 865 152 866 154 866 516 866 517 867 153 867 518 867 154 868 153 868 517 868 518 869 160 869 519 869 153 870 160 870 518 870 519 871 161 871 520 871 160 872 161 872 519 872 520 873 159 873 521 873 161 874 159 874 520 874 521 875 158 875 522 875 159 876 158 876 521 876 522 877 147 877 523 877 158 878 147 878 522 878 523 879 125 879 524 879 147 880 125 880 523 880 125 881 140 881 524 881 524 882 140 882 525 882 525 883 163 883 526 883 140 884 163 884 525 884 526 885 198 885 527 885 163 886 198 886 526 886 527 887 168 887 528 887 198 888 168 888 527 888 528 889 169 889 529 889 168 890 169 890 528 890 529 891 170 891 530 891 169 892 170 892 529 892 530 893 171 893 531 893 170 894 171 894 530 894 531 895 151 895 532 895 171 896 151 896 531 896 532 897 145 897 533 897 151 898 145 898 532 898 533 899 141 899 534 899 145 900 141 900 533 900 534 901 135 901 535 901 141 902 135 902 534 902 535 903 123 903 536 903 135 904 123 904 535 904 536 905 119 905 537 905 123 906 119 906 536 906 537 907 113 907 538 907 119 908 113 908 537 908 538 909 112 909 539 909 113 910 112 910 538 910 539 911 114 911 540 911 112 912 114 912 539 912 540 913 120 913 541 913 114 914 120 914 540 914 541 915 121 915 491 915 120 916 121 916 541 916 526 917 523 917 525 917 525 918 523 918 524 918 526 919 522 919 523 919 526 920 527 920 522 920 527 921 521 921 522 921 527 922 520 922 521 922 527 923 519 923 520 923 510 924 537 924 509 924 511 925 537 925 510 925 512 926 537 926 511 926 513 927 537 927 512 927 509 928 537 928 508 928 537 929 538 929 508 929 506 930 538 930 505 930 507 931 538 931 506 931 508 932 538 932 507 932 504 933 538 933 503 933 505 934 538 934 504 934 519 935 528 935 518 935 527 936 528 936 519 936 514 937 536 937 513 937 515 938 536 938 514 938 513 939 536 939 537 939 528 940 529 940 518 940 538 941 539 941 503 941 503 942 539 942 502 942 515 943 535 943 536 943 516 944 535 944 515 944 529 945 530 945 518 945 518 946 530 946 517 946 516 947 534 947 535 947 517 948 534 948 516 948 530 949 531 949 517 949 531 950 532 950 517 950 517 951 533 951 534 951 532 952 533 952 517 952 539 953 501 953 502 953 539 954 540 954 501 954 540 955 500 955 501 955 541 956 499 956 540 956 540 957 499 957 500 957 491 958 498 958 541 958 541 959 498 959 499 959 491 960 497 960 498 960 491 961 496 961 497 961 491 962 495 962 496 962 492 963 495 963 491 963 492 964 494 964 495 964 492 965 493 965 494 965 98 966 97 966 542 966 542 967 97 967 543 967 97 968 92 968 543 968 543 969 92 969 544 969 544 970 94 970 545 970 92 971 94 971 544 971 545 972 93 972 546 972 94 973 93 973 545 973 93 974 122 974 546 974 546 975 122 975 547 975 122 976 139 976 547 976 547 977 139 977 548 977 139 978 103 978 548 978 548 979 103 979 549 979 103 980 89 980 549 980 549 981 89 981 550 981 550 982 91 982 551 982 89 983 91 983 550 983 551 984 90 984 552 984 91 985 90 985 551 985 90 986 110 986 552 986 552 987 110 987 553 987 553 988 84 988 554 988 110 989 84 989 553 989 554 990 86 990 555 990 84 991 86 991 554 991 86 992 98 992 555 992 555 993 98 993 542 993 550 994 554 994 555 994 551 995 553 995 554 995 551 996 554 996 550 996 549 997 550 997 555 997 552 998 553 998 551 998 545 999 549 999 555 999 544 1000 545 1000 555 1000 546 1001 549 1001 545 1001 542 1002 544 1002 555 1002 543 1003 544 1003 542 1003 548 1004 546 1004 547 1004 548 1005 549 1005 546 1005 75 1006 74 1006 556 1006 556 1007 74 1007 557 1007 74 1008 77 1008 557 1008 557 1009 77 1009 558 1009 77 1010 78 1010 558 1010 558 1011 78 1011 559 1011 78 1012 76 1012 559 1012 559 1013 76 1013 560 1013 76 1014 83 1014 560 1014 560 1015 83 1015 561 1015 83 1016 96 1016 561 1016 561 1017 96 1017 562 1017 96 1018 95 1018 562 1018 562 1019 95 1019 563 1019 95 1020 82 1020 563 1020 563 1021 82 1021 564 1021 82 1022 87 1022 564 1022 564 1023 87 1023 565 1023 87 1024 99 1024 565 1024 565 1025 99 1025 566 1025 99 1026 85 1026 566 1026 566 1027 85 1027 567 1027 85 1028 75 1028 567 1028 567 1029 75 1029 556 1029 565 1030 563 1030 564 1030 565 1031 566 1031 563 1031 566 1032 562 1032 563 1032 562 1033 559 1033 561 1033 561 1034 559 1034 560 1034 557 1035 558 1035 556 1035 559 1036 567 1036 558 1036 558 1037 567 1037 556 1037 566 1038 567 1038 562 1038 562 1039 567 1039 559 1039 568 1040 569 1040 570 1040 571 1041 570 1041 572 1041 571 1042 568 1042 570 1042 573 1043 574 1043 569 1043 573 1044 569 1044 568 1044 575 1045 572 1045 576 1045 575 1046 571 1046 572 1046 577 1047 578 1047 574 1047 577 1048 574 1048 573 1048 579 1049 576 1049 580 1049 579 1050 575 1050 576 1050 581 1051 582 1051 578 1051 581 1052 578 1052 577 1052 583 1053 580 1053 584 1053 583 1054 579 1054 580 1054 585 1055 582 1055 581 1055 586 1056 583 1056 584 1056 587 1057 582 1057 585 1057 588 1058 582 1058 587 1058 589 1059 586 1059 584 1059 590 1060 591 1060 589 1060 590 1061 589 1061 584 1061 592 1062 591 1062 590 1062 593 1063 592 1063 590 1063 594 1064 593 1064 590 1064 595 1065 596 1065 594 1065 595 1066 597 1066 596 1066 595 1067 594 1067 590 1067 598 1068 588 1068 587 1068 598 1069 597 1069 595 1069 599 1070 588 1070 598 1070 599 1071 598 1071 595 1071 73 1072 69 1072 588 1072 588 1073 69 1073 582 1073 582 1074 69 1074 578 1074 69 1075 68 1075 578 1075 578 1076 66 1076 574 1076 68 1077 66 1077 578 1077 574 1078 64 1078 569 1078 66 1079 64 1079 574 1079 569 1080 63 1080 570 1080 64 1081 63 1081 569 1081 570 1082 62 1082 572 1082 63 1083 62 1083 570 1083 572 1084 65 1084 576 1084 62 1085 65 1085 572 1085 576 1086 306 1086 580 1086 65 1087 306 1087 576 1087 580 1088 72 1088 584 1088 306 1089 72 1089 580 1089 584 1090 71 1090 590 1090 72 1091 71 1091 584 1091 590 1092 80 1092 595 1092 71 1093 80 1093 590 1093 80 1094 81 1094 595 1094 595 1095 81 1095 599 1095 81 1096 73 1096 599 1096 599 1097 73 1097 588 1097 600 1098 601 1098 597 1098 600 1099 597 1099 598 1099 602 1100 600 1100 598 1100 602 1101 598 1101 587 1101 603 1102 602 1102 587 1102 603 1103 587 1103 585 1103 604 1104 603 1104 585 1104 604 1105 585 1105 581 1105 605 1106 581 1106 577 1106 605 1107 604 1107 581 1107 606 1108 577 1108 573 1108 606 1109 605 1109 577 1109 607 1110 573 1110 568 1110 607 1111 606 1111 573 1111 608 1112 607 1112 568 1112 608 1113 568 1113 571 1113 609 1114 571 1114 575 1114 609 1115 608 1115 571 1115 610 1116 575 1116 579 1116 610 1117 609 1117 575 1117 611 1118 579 1118 583 1118 611 1119 610 1119 579 1119 612 1120 611 1120 583 1120 612 1121 583 1121 586 1121 613 1122 586 1122 589 1122 613 1123 612 1123 586 1123 614 1124 589 1124 591 1124 614 1125 613 1125 589 1125 615 1126 591 1126 592 1126 615 1127 614 1127 591 1127 616 1128 615 1128 592 1128 616 1129 592 1129 593 1129 617 1130 593 1130 594 1130 617 1131 616 1131 593 1131 618 1132 594 1132 596 1132 618 1133 617 1133 594 1133 601 1134 596 1134 597 1134 601 1135 618 1135 596 1135 608 1136 609 1136 607 1136 607 1137 609 1137 606 1137 609 1138 605 1138 606 1138 609 1139 610 1139 605 1139 610 1140 604 1140 605 1140 610 1141 611 1141 604 1141 614 1142 615 1142 613 1142 613 1143 616 1143 612 1143 615 1144 616 1144 613 1144 616 1145 617 1145 612 1145 612 1146 618 1146 611 1146 617 1147 618 1147 612 1147 604 1148 601 1148 603 1148 611 1149 601 1149 604 1149 618 1150 601 1150 611 1150 603 1151 600 1151 602 1151 601 1152 600 1152 603 1152 619 1153 620 1153 621 1153 620 1154 622 1154 621 1154 619 1155 623 1155 620 1155 622 1156 624 1156 621 1156 624 1157 625 1157 621 1157 626 1158 625 1158 624 1158 626 1159 627 1159 625 1159 619 1160 628 1160 623 1160 624 1161 628 1161 626 1161 628 1162 629 1162 626 1162 629 1163 630 1163 631 1163 619 1164 630 1164 628 1164 628 1165 630 1165 629 1165 56 1166 67 1166 625 1166 625 1167 67 1167 621 1167 67 1168 70 1168 621 1168 621 1169 70 1169 619 1169 70 1170 61 1170 619 1170 619 1171 61 1171 630 1171 61 1172 58 1172 630 1172 630 1173 58 1173 631 1173 58 1174 60 1174 631 1174 631 1175 60 1175 629 1175 60 1176 57 1176 629 1176 629 1177 57 1177 626 1177 57 1178 59 1178 626 1178 626 1179 59 1179 627 1179 59 1180 56 1180 627 1180 627 1181 56 1181 625 1181 632 1182 633 1182 628 1182 632 1183 628 1183 624 1183 634 1184 632 1184 624 1184 634 1185 624 1185 622 1185 635 1186 634 1186 622 1186 635 1187 622 1187 620 1187 636 1188 635 1188 620 1188 636 1189 620 1189 623 1189 633 1190 636 1190 623 1190 633 1191 623 1191 628 1191 632 1192 634 1192 633 1192 634 1193 636 1193 633 1193 634 1194 635 1194 636 1194 637 1195 638 1195 639 1195 640 1196 638 1196 637 1196 641 1197 642 1197 637 1197 643 1198 642 1198 641 1198 644 1199 642 1199 643 1199 645 1200 642 1200 644 1200 637 1201 642 1201 640 1201 646 1202 647 1202 648 1202 649 1203 647 1203 645 1203 650 1204 647 1204 649 1204 651 1205 647 1205 650 1205 648 1206 647 1206 651 1206 645 1207 647 1207 642 1207 646 1208 652 1208 647 1208 638 1209 653 1209 639 1209 652 1210 654 1210 647 1210 654 1211 655 1211 647 1211 656 1212 657 1212 658 1212 653 1213 657 1213 656 1213 638 1214 657 1214 653 1214 657 1215 659 1215 658 1215 660 1216 661 1216 657 1216 657 1217 661 1217 659 1217 655 1218 662 1218 647 1218 663 1219 662 1219 655 1219 663 1220 664 1220 662 1220 665 1221 666 1221 660 1221 666 1222 667 1222 660 1222 660 1223 667 1223 661 1223 663 1224 668 1224 664 1224 663 1225 669 1225 668 1225 663 1226 670 1226 669 1226 671 1227 670 1227 672 1227 672 1228 670 1228 663 1228 671 1229 673 1229 670 1229 674 1230 675 1230 676 1230 673 1231 677 1231 670 1231 675 1232 678 1232 676 1232 677 1233 679 1233 670 1233 680 1234 681 1234 675 1234 682 1235 681 1235 680 1235 683 1236 681 1236 682 1236 684 1237 681 1237 683 1237 678 1238 681 1238 685 1238 675 1239 681 1239 678 1239 679 1240 686 1240 670 1240 684 1241 688 1241 681 1241 679 1242 689 1242 686 1242 687 1243 690 1243 685 1243 687 1244 691 1244 690 1244 688 1245 691 1245 681 1245 688 1246 692 1246 691 1246 688 1247 693 1247 692 1247 688 1248 694 1248 693 1248 686 1249 695 1249 688 1249 689 1250 695 1250 686 1250 688 1251 695 1251 694 1251 639 1252 266 1252 637 1252 249 1253 266 1253 639 1253 637 1254 268 1254 641 1254 266 1255 268 1255 637 1255 641 1256 269 1256 643 1256 268 1257 269 1257 641 1257 643 1258 270 1258 644 1258 269 1259 270 1259 643 1259 644 1260 273 1260 645 1260 270 1261 273 1261 644 1261 645 1262 277 1262 649 1262 273 1263 277 1263 645 1263 649 1264 279 1264 650 1264 277 1265 279 1265 649 1265 650 1266 283 1266 651 1266 279 1267 283 1267 650 1267 651 1268 298 1268 648 1268 283 1269 298 1269 651 1269 648 1270 299 1270 646 1270 298 1271 299 1271 648 1271 646 1272 300 1272 652 1272 299 1273 300 1273 646 1273 652 1274 301 1274 654 1274 300 1275 301 1275 652 1275 654 1276 293 1276 655 1276 301 1277 293 1277 654 1277 655 1278 295 1278 663 1278 293 1279 295 1279 655 1279 663 1280 294 1280 672 1280 295 1281 294 1281 663 1281 672 1282 297 1282 671 1282 294 1283 297 1283 672 1283 671 1284 302 1284 673 1284 297 1285 302 1285 671 1285 673 1286 303 1286 677 1286 302 1287 303 1287 673 1287 677 1288 304 1288 679 1288 303 1289 304 1289 677 1289 679 1290 296 1290 689 1290 304 1291 296 1291 679 1291 689 1292 282 1292 695 1292 296 1293 282 1293 689 1293 695 1294 280 1294 694 1294 282 1295 280 1295 695 1295 694 1296 278 1296 693 1296 280 1297 278 1297 694 1297 693 1298 275 1298 692 1298 278 1299 275 1299 693 1299 692 1300 276 1300 691 1300 275 1301 276 1301 692 1301 691 1302 261 1302 690 1302 276 1303 261 1303 691 1303 690 1304 259 1304 685 1304 261 1305 259 1305 690 1305 259 1306 678 1306 685 1306 264 1307 678 1307 259 1307 264 1308 254 1308 678 1308 678 1309 254 1309 676 1309 254 1310 267 1310 676 1310 676 1311 267 1311 674 1311 267 1312 272 1312 674 1312 674 1313 272 1313 675 1313 675 1314 271 1314 680 1314 272 1315 271 1315 675 1315 680 1316 274 1316 682 1316 271 1317 274 1317 680 1317 682 1318 285 1318 683 1318 274 1319 285 1319 682 1319 683 1320 286 1320 684 1320 285 1321 286 1321 683 1321 684 1322 291 1322 688 1322 286 1323 291 1323 684 1323 688 1324 290 1324 686 1324 291 1325 290 1325 688 1325 686 1326 292 1326 670 1326 290 1327 292 1327 686 1327 670 1328 289 1328 669 1328 292 1329 289 1329 670 1329 669 1330 288 1330 668 1330 289 1331 288 1331 669 1331 668 1332 287 1332 664 1332 288 1333 287 1333 668 1333 664 1334 284 1334 662 1334 287 1335 284 1335 664 1335 662 1336 281 1336 647 1336 284 1337 281 1337 662 1337 647 1338 263 1338 642 1338 281 1339 263 1339 647 1339 263 1340 262 1340 642 1340 642 1341 262 1341 640 1341 640 1342 253 1342 638 1342 262 1343 253 1343 640 1343 638 1344 255 1344 657 1344 253 1345 255 1345 638 1345 255 1346 256 1346 657 1346 657 1347 256 1347 660 1347 660 1348 257 1348 665 1348 256 1349 257 1349 660 1349 665 1350 258 1350 666 1350 257 1351 258 1351 665 1351 666 1352 260 1352 667 1352 258 1353 260 1353 666 1353 667 1354 260 1354 661 1354 661 1355 260 1355 248 1355 661 1356 245 1356 659 1356 248 1357 245 1357 661 1357 659 1358 241 1358 658 1358 245 1359 241 1359 659 1359 658 1360 239 1360 656 1360 241 1361 239 1361 658 1361 656 1362 238 1362 653 1362 239 1363 238 1363 656 1363 653 1364 249 1364 639 1364 238 1365 249 1365 653 1365 696 1366 697 1366 687 1366 698 1367 696 1367 687 1367 699 1368 698 1368 687 1368 700 1369 699 1369 687 1369 701 1370 700 1370 687 1370 702 1371 701 1371 687 1371 703 1372 702 1372 687 1372 704 1373 703 1373 687 1373 705 1374 704 1374 687 1374 706 1375 705 1375 687 1375 707 1376 706 1376 687 1376 708 1377 707 1377 687 1377 709 1378 708 1378 687 1378 710 1379 709 1379 687 1379 711 1380 710 1380 687 1380 712 1381 711 1381 687 1381 713 1382 712 1382 687 1382 714 1383 713 1383 687 1383 715 1384 714 1384 687 1384 716 1385 715 1385 687 1385 717 1386 716 1386 687 1386 718 1387 717 1387 687 1387 719 1388 718 1388 687 1388 720 1389 719 1389 687 1389 721 1390 720 1390 687 1390 722 1391 721 1391 687 1391 723 1392 722 1392 687 1392 724 1393 723 1393 687 1393 725 1394 724 1394 687 1394 726 1395 725 1395 687 1395 727 1396 726 1396 687 1396 728 1397 727 1397 687 1397 729 1398 728 1398 687 1398 681 1399 730 1399 729 1399 681 1400 731 1400 730 1400 681 1401 732 1401 731 1401 681 1402 733 1402 732 1402 681 1403 734 1403 733 1403 681 1404 735 1404 734 1404 681 1405 736 1405 735 1405 681 1406 737 1406 736 1406 681 1407 738 1407 737 1407 681 1408 739 1408 738 1408 681 1409 740 1409 739 1409 681 1410 741 1410 740 1410 681 1411 742 1411 741 1411 681 1412 743 1412 742 1412 681 1413 744 1413 743 1413 681 1414 745 1414 744 1414 746 1415 745 1415 681 1415 747 1416 746 1416 681 1416 748 1417 747 1417 681 1417 749 1418 748 1418 681 1418 750 1419 749 1419 681 1419 751 1420 750 1420 681 1420 752 1421 751 1421 681 1421 753 1422 752 1422 681 1422 754 1423 753 1423 681 1423 755 1424 754 1424 681 1424 756 1425 755 1425 681 1425 757 1426 756 1426 681 1426 758 1427 757 1427 681 1427 759 1428 758 1428 681 1428 760 1429 759 1429 681 1429 761 1430 760 1430 681 1430 762 1431 761 1431 681 1431 763 1432 762 1432 681 1432 764 1433 763 1433 681 1433 765 1434 764 1434 681 1434 766 1435 765 1435 681 1435 767 1436 766 1436 681 1436 768 1437 767 1437 681 1437 769 1438 768 1438 681 1438 770 1439 769 1439 681 1439 771 1440 770 1440 681 1440 772 1441 771 1441 681 1441 773 1442 772 1442 681 1442 774 1443 773 1443 681 1443 775 1444 774 1444 681 1444 776 1445 775 1445 681 1445 777 1446 776 1446 681 1446 778 1447 777 1447 681 1447 779 1448 778 1448 681 1448 780 1449 779 1449 681 1449 781 1450 780 1450 681 1450 782 1451 781 1451 681 1451 783 1452 782 1452 681 1452 784 1453 783 1453 681 1453 785 1454 784 1454 681 1454 786 1455 785 1455 681 1455 787 1456 786 1456 681 1456 788 1457 787 1457 681 1457 789 1458 788 1458 681 1458 790 1459 789 1459 681 1459 791 1460 790 1460 681 1460 792 1461 791 1461 681 1461 793 1462 792 1462 681 1462 794 1463 793 1463 681 1463 795 1464 794 1464 681 1464 687 1465 796 1465 795 1465 687 1466 797 1466 796 1466 687 1467 798 1467 797 1467 687 1468 799 1468 798 1468 687 1469 800 1469 799 1469 687 1470 801 1470 800 1470 687 1471 802 1471 801 1471 687 1472 803 1472 802 1472 687 1473 804 1473 803 1473 687 1474 805 1474 804 1474 687 1475 806 1475 805 1475 687 1476 807 1476 806 1476 687 1477 808 1477 807 1477 687 1478 809 1478 808 1478 687 1479 810 1479 809 1479 687 1480 811 1480 810 1480 812 1481 811 1481 687 1481 813 1482 812 1482 687 1482 814 1483 813 1483 687 1483 815 1484 814 1484 687 1484 816 1485 815 1485 687 1485 817 1486 816 1486 687 1486 818 1487 817 1487 687 1487 819 1488 818 1488 687 1488 820 1489 819 1489 687 1489 821 1490 820 1490 687 1490 822 1491 821 1491 687 1491 823 1492 822 1492 687 1492 824 1493 823 1493 687 1493 825 1494 824 1494 687 1494 826 1495 825 1495 687 1495 827 1496 826 1496 687 1496 697 1497 827 1497 687 1497 704 1498 702 1498 703 1498 705 1499 702 1499 704 1499 706 1500 701 1500 705 1500 705 1501 701 1501 702 1501 707 1502 700 1502 706 1502 706 1503 700 1503 701 1503 708 1504 699 1504 707 1504 709 1505 699 1505 708 1505 707 1506 699 1506 700 1506 710 1507 698 1507 709 1507 709 1508 698 1508 699 1508 726 1509 727 1509 725 1509 711 1510 696 1510 710 1510 712 1511 696 1511 711 1511 713 1512 696 1512 712 1512 710 1513 696 1513 698 1513 724 1514 728 1514 723 1514 725 1515 728 1515 724 1515 727 1516 728 1516 725 1516 713 1517 697 1517 696 1517 721 1518 729 1518 720 1518 722 1519 729 1519 721 1519 723 1520 729 1520 722 1520 728 1521 729 1521 723 1521 826 1522 824 1522 825 1522 827 1523 823 1523 826 1523 826 1524 823 1524 824 1524 697 1525 822 1525 827 1525 827 1526 822 1526 823 1526 697 1527 821 1527 822 1527 697 1528 820 1528 821 1528 735 1529 737 1529 734 1529 736 1530 737 1530 735 1530 697 1531 819 1531 820 1531 713 1532 819 1532 697 1532 737 1533 738 1533 734 1533 714 1534 818 1534 713 1534 713 1535 818 1535 819 1535 738 1536 739 1536 734 1536 734 1537 739 1537 733 1537 714 1538 817 1538 818 1538 715 1539 817 1539 714 1539 733 1540 740 1540 732 1540 739 1541 740 1541 733 1541 716 1542 816 1542 715 1542 715 1543 816 1543 817 1543 732 1544 741 1544 731 1544 740 1545 741 1545 732 1545 716 1546 815 1546 816 1546 741 1547 742 1547 731 1547 731 1548 743 1548 730 1548 742 1549 743 1549 731 1549 743 1550 744 1550 730 1550 744 1551 745 1551 730 1551 730 1552 745 1552 729 1552 720 1553 746 1553 719 1553 745 1554 746 1554 729 1554 729 1555 746 1555 720 1555 719 1556 747 1556 718 1556 746 1557 747 1557 719 1557 718 1558 748 1558 717 1558 747 1559 748 1559 718 1559 748 1560 749 1560 717 1560 717 1561 749 1561 716 1561 716 1562 749 1562 815 1562 803 1563 801 1563 802 1563 804 1564 800 1564 803 1564 805 1565 800 1565 804 1565 803 1566 800 1566 801 1566 805 1567 799 1567 800 1567 806 1568 799 1568 805 1568 807 1569 798 1569 806 1569 806 1570 798 1570 799 1570 808 1571 797 1571 807 1571 809 1572 797 1572 808 1572 807 1573 797 1573 798 1573 758 1574 760 1574 757 1574 759 1575 760 1575 758 1575 810 1576 796 1576 809 1576 811 1577 796 1577 810 1577 809 1578 796 1578 797 1578 760 1579 761 1579 757 1579 757 1580 761 1580 756 1580 812 1581 795 1581 811 1581 813 1582 795 1582 812 1582 811 1583 795 1583 796 1583 761 1584 762 1584 756 1584 764 1585 766 1585 763 1585 765 1586 766 1586 764 1586 766 1587 767 1587 763 1587 763 1588 767 1588 762 1588 762 1589 768 1589 756 1589 767 1590 768 1590 762 1590 756 1591 768 1591 755 1591 768 1592 769 1592 755 1592 755 1593 769 1593 754 1593 754 1594 770 1594 753 1594 769 1595 770 1595 754 1595 789 1596 787 1596 788 1596 770 1597 771 1597 753 1597 753 1598 771 1598 752 1598 789 1599 786 1599 787 1599 790 1600 786 1600 789 1600 771 1601 772 1601 752 1601 752 1602 772 1602 751 1602 790 1603 785 1603 786 1603 791 1604 785 1604 790 1604 772 1605 773 1605 751 1605 751 1606 773 1606 750 1606 791 1607 784 1607 785 1607 792 1608 784 1608 791 1608 750 1609 774 1609 749 1609 773 1610 774 1610 750 1610 792 1611 783 1611 784 1611 815 1612 775 1612 814 1612 749 1613 775 1613 815 1613 774 1614 775 1614 749 1614 792 1615 782 1615 783 1615 793 1616 782 1616 792 1616 814 1617 776 1617 813 1617 775 1618 776 1618 814 1618 793 1619 781 1619 782 1619 813 1620 777 1620 795 1620 776 1621 777 1621 813 1621 793 1622 780 1622 781 1622 794 1623 780 1623 793 1623 777 1624 778 1624 795 1624 795 1625 778 1625 794 1625 794 1626 779 1626 780 1626 778 1627 779 1627 794 1627</p>
        </triangles>
      </mesh>
    </geometry>
  </library_geometries>
  <library_materials>
    <material id="mat_R0603_R0603_HwOR010_shape001" name="R0603_R0603_HwOR010_shape001">
      <instance_effect url="#effect_R0603_R0603_HwOR010_shape001"/>
    </material>
  </library_materials>
  <library_visual_scenes>
    <visual_scene id="myscene">
      <node id="node0" name="node0">
        <instance_geometry url="#geometry0">
          <bind_material>
            <technique_common>
              <instance_material symbol="ref_R0603_R0603_HwOR010_shape001" target="#mat_R0603_R0603_HwOR010_shape001"/>
            </technique_common>
          </bind_material>
        </instance_geometry>
      </node>
    </visual_scene>
  </library_visual_scenes>
  <scene>
    <instance_visual_scene url="#myscene"/>
  </scene>
</COLLADA>
