<COLLADA xmlns="http://www.collada.org/2005/11/COLLADASchema" version="1.4.1">
  <asset>
    <contributor/>
    <created>2026-09-17T08:47:02.718839</created>
    <modified>2026-09-17T08:47:02.718839</modified>
    <unit name="meter" meter="1.0"/>
    <up_axis>Z_UP</up_axis>
  </asset>
  <library_effects>
    <effect id="effect_Terminal_003_shape001" name="effect_Terminal_003_shape001">
      <profile_COMMON>
        <technique sid="common">
          <phong>
            <emission>
              <color>0.0 0.0 0.0 1.0</color>
            </emission>
            <ambient>
              <color>0.0 0.0 0.0 1.0</color>
            </ambient>
            <diffuse>
              <color>0.67843097448349 0.7098039984703064 0.7411760091781616 1.0</color>
            </diffuse>
            <specular>
              <color>1 1 1 1.0</color>
            </specular>
            <shininess>
              <float>0.0</float>
            </shininess>
            <reflective>
              <color>0.0 0.0 0.0 1.0</color>
            </reflective>
            <reflectivity>
              <float>0.0</float>
            </reflectivity>
            <transparent>
              <color>0.0 0.0 0.0 1.0</color>
            </transparent>
            <transparency>
              <float>1.0</float>
            </transparency>
          </phong>
        </technique>
        <extra>
          <technique profile="GOOGLEEARTH">
            <double_sided>0</double_sided>
          </technique>
        </extra>
      </profile_COMMON>
    </effect>
  </library_effects>
  <library_geometries>
    <geometry id="geometry0" name="Terminal_003_shape001">
      <mesh>
        <source id="cubeverts-array0">
          <float_array count="144" id="cubeverts-array0-array">-0.00025 -0.002724647 -0.009 -0.00025 -0.002724647 -0.0110447 0.00025 -0.002724647 -0.009 0.00025 -0.002724647 -0.0110447 0.00025 0.002724647 -0.009 -0.00025 0.002724647 -0.009 -0.00025 -0.003072271 -0.01185669 0.00025 -0.003072271 -0.01185669 -0.00025 0.00186022 -0.01738534 -0.00025 0.00070227 -0.01665711 -0.00025 0.0019 -0.01734556 -0.00025 -0.00186022 -0.01738534 -0.00025 -0.00070227 -0.01665711 -0.00025 -0.0019 -0.01734556 -0.00025 0.00070227 -0.01415711 -0.00025 -0.00070227 -0.01415711 -0.00025 0.0019 -0.0121103 -0.00025 0.00220319 -0.011 -0.00025 0.00220319 -0.011519 -0.00025 0.002724647 -0.0110447 -0.00025 -0.0019 -0.0121103 -0.00025 -0.00220319 -0.011519 -0.00025 -0.00220319 -0.011 -0.00025 -0.002647757 -0.01203843 -0.00025 0.002647757 -0.01203843 -0.00025 0.003072271 -0.01185669 0.00025 0.00070227 -0.01665711 0.00025 0.00186022 -0.01738534 0.00025 0.0019 -0.01734556 0.00025 -0.00186022 -0.01738534 0.00025 -0.00070227 -0.01665711 0.00025 -0.0019 -0.01734556 0.00025 0.00070227 -0.01415711 0.00025 -0.00070227 -0.01415711 0.00025 0.00220319 -0.011 0.00025 0.0019 -0.0121103 0.00025 0.00220319 -0.011519 0.00025 0.002724647 -0.0110447 0.00025 -0.0019 -0.0121103 0.00025 -0.00220319 -0.011 0.00025 -0.00220319 -0.011519 0.00025 -0.002647757 -0.01203843 0.00025 0.002647757 -0.01203843 0.00025 0.003072271 -0.01185669 -0.0001599217 0.001245564 -0.018 0.0001599217 0.001245564 -0.018 -0.0001599217 -0.001245564 -0.018 0.0001599217 -0.001245564 -0.018</float_array>
          <technique_common>
            <accessor count="48" source="#cubeverts-array0-array" stride="3">
              <param type="float" name="X"/>
              <param type="float" name="Y"/>
              <param type="float" name="Z"/>
            </accessor>
          </technique_common>
        </source>
        <source id="cubenormals-array0">
          <float_array count="288" id="cubenormals-array0-array">0 -1 0 0 -1 -0 0 0 1 0 0 1 0 -0.9192975 0.3935634 0 -0.9192975 0.3935634 -1 0 0 -1 -0 0 -1 0 0 -1 0 0 -1 0 0 -1 0 0 -1 0 0 -1 0 0 -1 0 0 -1 0 0 -1 0 0 -1 0 0 -1 0 0 -1 0 0 -1 0 0 -1 0 0 -1 0 0 -1 0 -0 -1 0 0 -1 0 -0 -1 0 0 -1 0 0 1 0 0 1 0 0 1 0 0 1 -0 0 1 0 0 1 0 0 1 0 0 1 0 0 1 0 0 1 -0 0 1 0 0 1 -0 0 1 0 0 1 0 0 1 -0 0 1 0 0 1 0 -0 1 0 0 1 0 0 1 0 -0 1 0 0 1 0 0 0 1 0 0 1 0 0 -0.3935629 -0.9192977 0 -0.3935629 -0.9192977 0 0.9192975 0.3935634 -0 0.9192975 0.3935634 0 0.3935629 -0.9192977 0 0.3935629 -0.9192977 0 -0.9192975 -0.3935634 0 -0.9192975 -0.3935634 0 1 0 0 1 0 0 0.8898414 -0.4562699 0 0.8898414 -0.4562699 0 1 0 0 1 0 0 0.7071015 -0.7071121 0 0.7071015 -0.7071121 0 0.7071071 -0.7071064 0 0.7071071 -0.7071064 -0.9894314 0 -0.1450018 -0.9894313 0 -0.1450018 0 -0.7071015 -0.7071121 0 -0.7071015 -0.7071121 0 -0.7071071 -0.7071064 0 -0.7071071 -0.7071064 0 -1 0 0 -1 -0 0 -0.8898414 -0.4562699 0 -0.8898414 -0.4562699 0 -1 0 0 -1 -0 0 0.9192975 -0.3935634 0 0.9192975 -0.3935634 0 1 0 0 1 0 0 0 -1 0 0 -1 0 0 1 0 0 1 0 -1 0 0 -1 -0 0.9894314 0 -0.1450018 0.9894313 0 -0.1450018 0 0 -1 0 0 -1</float_array>
          <technique_common>
            <accessor count="96" source="#cubenormals-array0-array" stride="3">
              <param type="float" name="X"/>
              <param type="float" name="Y"/>
              <param type="float" name="Z"/>
            </accessor>
          </technique_common>
        </source>
        <vertices id="cubeverts-array0-vertices">
          <input semantic="POSITION" source="#cubeverts-array0"/>
        </vertices>
        <triangles count="96" material="ref_Terminal_003_shape001">
          <input offset="0" semantic="VERTEX" source="#cubeverts-array0-vertices"/>
          <input offset="1" semantic="NORMAL" source="#cubenormals-array0"/>
          <p>0 0 1 0 2 0 2 1 1 1 3 1 4 2 5 2 0 2 4 3 0 3 2 3 1 4 6 4 3 4 3 5 6 5 7 5 8 6 9 6 10 6 9 7 11 7 12 7 8 8 11 8 9 8 11 9 13 9 12 9 9 10 14 10 10 10 13 11 15 11 12 11 16 12 17 12 18 12 17 13 5 13 19 13 15 14 20 14 14 14 14 15 20 15 16 15 21 16 22 16 20 16 16 17 22 17 17 17 17 18 22 18 5 18 20 19 22 19 16 19 22 20 0 20 5 20 1 21 0 21 22 21 22 22 23 22 1 22 1 23 23 23 6 23 13 24 20 24 15 24 16 25 10 25 14 25 24 26 17 26 25 26 25 27 17 27 19 27 26 28 27 28 28 28 29 29 26 29 30 29 29 30 27 30 26 30 31 31 29 31 30 31 32 32 26 32 28 32 33 33 31 33 30 33 34 34 35 34 36 34 4 35 34 35 37 35 38 36 33 36 32 36 38 37 32 37 35 37 39 38 40 38 38 38 39 39 35 39 34 39 39 40 34 40 4 40 39 41 38 41 35 41 2 42 39 42 4 42 2 43 3 43 39 43 41 44 39 44 3 44 41 45 3 45 7 45 38 46 31 46 33 46 28 47 35 47 32 47 34 48 42 48 37 48 37 49 42 49 43 49 19 50 5 50 4 50 19 51 4 51 37 51 6 52 23 52 7 52 7 53 23 53 41 53 25 54 19 54 37 54 25 55 37 55 43 55 24 56 25 56 43 56 24 57 43 57 42 57 17 58 24 58 42 58 17 59 42 59 34 59 18 60 17 60 34 60 18 61 34 61 36 61 16 62 18 62 36 62 16 63 36 63 35 63 10 64 16 64 35 64 10 65 35 65 28 65 10 66 28 66 27 66 8 67 10 67 27 67 44 68 27 68 45 68 44 69 8 69 27 69 46 70 11 70 44 70 44 71 11 71 8 71 13 72 11 72 31 72 31 73 11 73 29 73 29 74 46 74 47 74 11 75 46 75 29 75 20 76 13 76 38 76 38 77 13 77 31 77 21 78 20 78 40 78 40 79 20 79 38 79 22 80 21 80 39 80 39 81 21 81 40 81 23 82 22 82 41 82 41 83 22 83 39 83 12 84 15 84 33 84 12 85 33 85 30 85 14 86 33 86 15 86 14 87 32 87 33 87 26 88 12 88 30 88 26 89 9 89 12 89 14 90 9 90 32 90 32 91 9 91 26 91 29 92 47 92 45 92 29 93 45 93 27 93 44 94 47 94 46 94 44 95 45 95 47 95</p>
        </triangles>
      </mesh>
    </geometry>
  </library_geometries>
  <library_materials>
    <material id="mat_Terminal_003_shape001" name="Terminal_003_shape001">
      <instance_effect url="#effect_Terminal_003_shape001"/>
    </material>
  </library_materials>
  <library_visual_scenes>
    <visual_scene id="myscene">
      <node id="node0" name="node0">
        <instance_geometry url="#geometry0">
          <bind_material>
            <technique_common>
              <instance_material symbol="ref_Terminal_003_shape001" target="#mat_Terminal_003_shape001"/>
            </technique_common>
          </bind_material>
        </instance_geometry>
      </node>
    </visual_scene>
  </library_visual_scenes>
  <scene>
    <instance_visual_scene url="#myscene"/>
  </scene>
</COLLADA>
