<COLLADA xmlns="http://www.collada.org/2005/11/COLLADASchema" version="1.4.1">
  <asset>
    <contributor/>
    <created>2026-09-17T08:47:02.014155</created>
    <modified>2026-09-17T08:47:02.014155</modified>
    <unit name="meter" meter="1.0"/>
    <up_axis>Z_UP</up_axis>
  </asset>
  <library_effects>
    <effect id="effect_text001_shape001" name="effect_text001_shape001">
      <profile_COMMON>
        <technique sid="common">
          <phong>
            <emission>
              <color>0.0 0.0 0.0 1.0</color>
            </emission>
            <ambient>
              <color>0.0 0.0 0.0 1.0</color>
            </ambient>
            <diffuse>
              <color>0.67843097448349 0.7098039984703064 0.7411760091781616 1.0</color>
            </diffuse>
            <specular>
              <color>1 1 1 1.0</color>
            </specular>
            <shininess>
              <float>0.0</float>
            </shininess>
            <reflective>
              <color>0.0 0.0 0.0 1.0</color>
            </reflective>
            <reflectivity>
              <float>0.0</float>
            </reflectivity>
            <transparent>
              <color>0.0 0.0 0.0 1.0</color>
            </transparent>
            <transparency>
              <float>1.0</float>
            </transparency>
          </phong>
        </technique>
        <extra>
          <technique profile="GOOGLEEARTH">
            <double_sided>0</double_sided>
          </technique>
        </extra>
      </profile_COMMON>
    </effect>
  </library_effects>
  <library_geometries>
    <geometry id="geometry0" name="text001_shape001">
      <mesh>
        <source id="cubeverts-array0">
          <float_array count="1734" id="cubeverts-array0-array">0.07435991 0.0001127 0.0004595008 0.074352 1.270002e-05 0.0004103875 0.07435991 1.270002e-05 0.0004595008 0.074352 0.0001127 0.0004103875 0.07431953 1.270002e-05 0.0003764175 0.07431953 0.0001127 0.0003764175 0.07426905 1.270002e-05 0.0003640029 0.07426905 0.0001127 0.0003640029 0.07422553 0.0001127 0.0003770997 0.07422553 1.270002e-05 0.0003770997 0.07421066 1.270002e-05 0.0004098418 0.07421066 0.0001127 0.0004098418 0.07421748 0.0001127 0.0004331706 0.07421748 1.270002e-05 0.0004331706 0.07423685 0.0001127 0.0004491324 0.07423685 1.270002e-05 0.0004491324 0.07427969 0.0001127 0.0004589551 0.07427969 1.270002e-05 0.0004589551 0.07435991 0.0001127 0.000477509 0.07435991 1.270002e-05 0.000477509 0.07437383 0.0001127 0.0003320792 0.07442513 1.270002e-05 0.0003320792 0.07437383 1.270002e-05 0.0003320792 0.07442513 0.0001127 0.0003320792 0.0744127 0.0001127 0.0003668678 0.0744127 1.270002e-05 0.0003668678 0.07440957 1.270002e-05 0.0004534981 0.07440957 0.0001127 0.0004534981 0.07440957 1.270002e-05 0.0005189824 0.07440957 0.0001127 0.0005189824 0.07440711 1.270002e-05 0.0005642757 0.07440711 0.0001127 0.0005642757 0.07439183 0.0001127 0.0005976999 0.07439183 1.270002e-05 0.0005976999 0.07435773 1.270002e-05 0.0006196645 0.07435773 0.0001127 0.0006196645 0.07429742 1.270002e-05 0.0006283957 0.07429742 0.0001127 0.0006283957 0.07423167 0.0001127 0.0006181638 0.07423167 1.270002e-05 0.0006181638 0.07418829 1.270002e-05 0.0005889687 0.07418829 0.0001127 0.0005889687 0.07416673 0.0001127 0.0005391734 0.07416673 1.270002e-05 0.0005391734 0.07421475 1.270002e-05 0.0005326249 0.07421475 0.0001127 0.0005326249 0.07423917 1.270002e-05 0.000575599 0.07423917 0.0001127 0.000575599 0.07429034 1.270002e-05 0.0005877409 0.07429034 0.0001127 0.0005877409 0.07434627 1.270002e-05 0.000571097 0.07434627 0.0001127 0.000571097 0.07436018 1.270002e-05 0.000528805 0.07436018 0.0001127 0.000528805 0.07435991 1.270002e-05 0.000515981 0.07435991 0.0001127 0.000515981 0.07427232 1.270002e-05 0.0004990642 0.07427232 0.0001127 0.0004990642 0.07422867 1.270002e-05 0.0004916972 0.07422867 0.0001127 0.0004916972 0.07419334 0.0001127 0.000475599 0.07419334 1.270002e-05 0.000475599 0.07416796 1.270002e-05 0.0004473589 0.07416796 0.0001127 0.0004473589 0.07415827 1.270002e-05 0.0004084776 0.07415827 0.0001127 0.0004084776 0.07418392 1.270002e-05 0.0003488596 0.07418392 0.0001127 0.0003488596 0.07425732 0.0001127 0.0003255308 0.07425732 1.270002e-05 0.0003255308 0.07431148 0.0001127 0.0003350806 0.07431148 1.270002e-05 0.0003350806 0.07436401 0.0001127 0.0003678228 0.07436401 1.270002e-05 0.0003678228 0.07513617 0.0001127 0.0004595008 0.07512826 1.270002e-05 0.0004103875 0.07513617 1.270002e-05 0.0004595008 0.07512826 0.0001127 0.0004103875 0.07509579 0.0001127 0.0003764175 0.07509579 1.270002e-05 0.0003764175 0.07504531 1.270002e-05 0.0003640029 0.07504531 0.0001127 0.0003640029 0.07500179 1.270002e-05 0.0003770997 0.07500179 0.0001127 0.0003770997 0.07498692 0.0001127 0.0004098418 0.07498692 1.270002e-05 0.0004098418 0.07499374 1.270002e-05 0.0004331706 0.07499374 0.0001127 0.0004331706 0.07501311 0.0001127 0.0004491324 0.07501311 1.270002e-05 0.0004491324 0.07505595 1.270002e-05 0.0004589551 0.07505595 0.0001127 0.0004589551 0.07513617 1.270002e-05 0.000477509 0.07513617 0.0001127 0.000477509 0.07515009 0.0001127 0.0003320792 0.07520139 1.270002e-05 0.0003320792 0.07515009 1.270002e-05 0.0003320792 0.07520139 0.0001127 0.0003320792 0.07518897 0.0001127 0.0003668678 0.07518897 1.270002e-05 0.0003668678 0.07518583 1.270002e-05 0.0004534981 0.07518583 0.0001127 0.0004534981 0.07518583 1.270002e-05 0.0005189824 0.07518583 0.0001127 0.0005189824 0.07518337 1.270002e-05 0.0005642757 0.07518337 0.0001127 0.0005642757 0.0751681 1.270002e-05 0.0005976999 0.0751681 0.0001127 0.0005976999 0.07513399 0.0001127 0.0006196645 0.07513399 1.270002e-05 0.0006196645 0.07507369 1.270002e-05 0.0006283957 0.07507369 0.0001127 0.0006283957 0.07500793 0.0001127 0.0006181638 0.07500793 1.270002e-05 0.0006181638 0.07496455 0.0001127 0.0005889687 0.07496455 1.270002e-05 0.0005889687 0.07494299 1.270002e-05 0.0005391734 0.07494299 0.0001127 0.0005391734 0.07499101 0.0001127 0.0005326249 0.07499101 1.270002e-05 0.0005326249 0.07501543 1.270002e-05 0.000575599 0.07501543 0.0001127 0.000575599 0.0750666 1.270002e-05 0.0005877409 0.0750666 0.0001127 0.0005877409 0.07512253 1.270002e-05 0.000571097 0.07512253 0.0001127 0.000571097 0.07513644 1.270002e-05 0.000528805 0.07513644 0.0001127 0.000528805 0.07513617 1.270002e-05 0.000515981 0.07513617 0.0001127 0.000515981 0.07504858 0.0001127 0.0004990642 0.07504858 1.270002e-05 0.0004990642 0.07500493 1.270002e-05 0.0004916972 0.07500493 0.0001127 0.0004916972 0.0749696 1.270002e-05 0.000475599 0.0749696 0.0001127 0.000475599 0.07494422 1.270002e-05 0.0004473589 0.07494422 0.0001127 0.0004473589 0.07493453 1.270002e-05 0.0004084776 0.07493453 0.0001127 0.0004084776 0.07496018 0.0001127 0.0003488596 0.07496018 1.270002e-05 0.0003488596 0.07503358 1.270002e-05 0.0003255308 0.07503358 0.0001127 0.0003255308 0.07508774 0.0001127 0.0003350806 0.07508774 1.270002e-05 0.0003350806 0.07514027 1.270002e-05 0.0003678228 0.07514027 0.0001127 0.0003678228 0.07531107 0.0001127 0.0003320792 0.07531107 1.270002e-05 0.000490333 0.07531107 1.270002e-05 0.0003320792 0.07531107 0.0001127 0.000490333 0.07533385 1.270002e-05 0.0005659128 0.07533385 0.0001127 0.0005659128 0.07538802 0.0001127 0.0005858309 0.07538802 1.270002e-05 0.0005858309 0.07542226 1.270002e-05 0.0005769632 0.07542226 0.0001127 0.0005769632 0.07544258 1.270002e-05 0.0005532252 0.07544258 0.0001127 0.0005532252 0.07544831 1.270002e-05 0.0005083411 0.07544831 0.0001127 0.0005083411 0.07544831 1.270002e-05 0.0003320792 0.07544831 0.0001127 0.0003320792 0.07549743 1.270002e-05 0.0003320792 0.07549743 0.0001127 0.0003320792 0.07549743 1.270002e-05 0.0005102511 0.07549743 0.0001127 0.0005102511 0.0754947 1.270002e-05 0.0005580001 0.0754947 0.0001127 0.0005580001 0.07547942 1.270002e-05 0.0005942893 0.07547942 0.0001127 0.0005942893 0.07544654 1.270002e-05 0.0006189824 0.07544654 0.0001127 0.0006189824 0.07539838 0.0001127 0.0006283957 0.07539838 1.270002e-05 0.0006283957 0.07530616 1.270002e-05 0.0005806468 0.07530616 0.0001127 0.0005806468 0.07530616 1.270002e-05 0.0006218473 0.07530616 0.0001127 0.0006218473 0.07526196 1.270002e-05 0.0006218473 0.07526196 0.0001127 0.0006218473 0.07526196 1.270002e-05 0.0003320792 0.07526196 0.0001127 0.0003320792 0.07590207 1.270002e-05 0.0004728705 0.07602731 0.0001127 0.0006532252 0.07602731 1.270002e-05 0.0006532252 0.07590207 0.0001127 0.0004728705 0.07602731 1.270002e-05 0.0004728705 0.07602731 0.0001127 0.0004728705 0.07607642 0.0001127 0.0003320792 0.07607642 1.270002e-05 0.00042785 0.07607642 1.270002e-05 0.0003320792 0.07607642 0.0001127 0.00042785 0.07613044 1.270002e-05 0.00042785 0.07613044 0.0001127 0.00042785 0.07613044 1.270002e-05 0.0004728705 0.07613044 0.0001127 0.0004728705 0.07607642 1.270002e-05 0.0004728705 0.07607642 0.0001127 0.0004728705 0.07607642 1.270002e-05 0.0007320792 0.07607642 0.0001127 0.0007320792 0.07603631 1.270002e-05 0.0007320792 0.07603631 0.0001127 0.0007320792 0.07585377 0.0001127 0.0004728705 0.07585377 1.270002e-05 0.0004728705 0.07585377 1.270002e-05 0.00042785 0.07585377 0.0001127 0.00042785 0.07602731 1.270002e-05 0.00042785 0.07602731 0.0001127 0.00042785 0.07602731 1.270002e-05 0.0003320792 0.07602731 0.0001127 0.0003320792 0.07436019 0.0001127 0.0009205177 0.07436019 1.270002e-05 0.000967721 0.07436019 1.270002e-05 0.0009205177 0.07436019 0.0001127 0.000967721 0.07411462 1.270002e-05 0.000967721 0.07411462 0.0001127 0.000967721 0.07411462 1.270002e-05 0.001103874 0.07411462 0.0001127 0.001103874 0.07433591 1.270002e-05 0.001103874 0.07433591 0.0001127 0.001103874 0.07433591 1.270002e-05 0.001150804 0.07433591 0.0001127 0.001150804 0.07411462 1.270002e-05 0.001150804 0.07411462 0.0001127 0.001150804 0.07411462 1.270002e-05 0.001273314 0.07411462 0.0001127 0.001273314 0.07435091 1.270002e-05 0.001273314 0.07435091 0.0001127 0.001273314 0.07435091 1.270002e-05 0.001320518 0.07435091 0.0001127 0.001320518 0.07406169 1.270002e-05 0.001320518 0.07406169 0.0001127 0.001320518 0.07406169 1.270002e-05 0.0009205177 0.07406169 0.0001127 0.0009205177 0.07485623 0.0001127 0.0009205177 0.07485623 1.270002e-05 0.001234842 0.07485623 1.270002e-05 0.0009205177 0.07485623 0.0001127 0.001234842 0.07506633 0.0001127 0.0009205177 0.07506633 1.270002e-05 0.0009205177 0.07512062 1.270002e-05 0.0009205177 0.07512062 0.0001127 0.0009205177 0.07512062 1.270002e-05 0.001320518 0.07512062 0.0001127 0.001320518 0.07506988 1.270002e-05 0.001320518 0.07506988 0.0001127 0.001320518 0.07506988 1.270002e-05 0.001006466 0.07506988 0.0001127 0.001006466 0.07485978 0.0001127 0.001320518 0.07485978 1.270002e-05 0.001320518 0.07480548 1.270002e-05 0.001320518 0.07480548 0.0001127 0.001320518 0.07480548 1.270002e-05 0.0009205177 0.07480548 0.0001127 0.0009205177 0.07527315 0.0001127 0.0009205177 0.07527315 1.270002e-05 0.0009764523 0.07527315 1.270002e-05 0.0009205177 0.07527315 0.0001127 0.0009764523 0.07521722 1.270002e-05 0.0009764523 0.07521722 0.0001127 0.0009764523 0.07521722 1.270002e-05 0.0009205177 0.07521722 0.0001127 0.0009205177 0.07584737 1.270002e-05 0.001243437 0.07594409 0.0001127 0.001282046 0.07594409 1.270002e-05 0.001282046 0.07584737 0.0001127 0.001243437 0.07601544 1.270002e-05 0.001261991 0.07601544 0.0001127 0.001261991 0.07606374 1.270002e-05 0.001205511 0.07606374 0.0001127 0.001205511 0.07608025 1.270002e-05 0.001120245 0.07608025 0.0001127 0.001120245 0.07604163 1.270002e-05 0.001001009 0.07604163 0.0001127 0.001001009 0.07594327 1.270002e-05 0.0009589898 0.07594327 0.0001127 0.0009589898 0.07584573 0.0001127 0.0010006 0.07584573 1.270002e-05 0.0010006 0.07580685 0.0001127 0.001114515 0.07580685 1.270002e-05 0.001114515 0.07577519 1.270002e-05 0.00101547 0.07584259 0.0001127 0.0009409816 0.07584259 1.270002e-05 0.0009409816 0.07577519 0.0001127 0.00101547 0.07594354 0.0001127 0.0009136965 0.07594354 1.270002e-05 0.0009136965 0.07604068 1.270002e-05 0.0009383895 0.07604068 0.0001127 0.0009383895 0.07611025 0.0001127 0.001011104 0.07611025 1.270002e-05 0.001011104 0.07613481 1.270002e-05 0.001119972 0.07613481 0.0001127 0.001119972 0.07611148 1.270002e-05 0.001227339 0.07611148 0.0001127 0.001227339 0.07604368 0.0001127 0.001301145 0.07604368 1.270002e-05 0.001301145 0.07594382 0.0001127 0.001327612 0.07594382 1.270002e-05 0.001327612 0.07580576 0.0001127 0.001271268 0.07580576 1.270002e-05 0.001271268 0.07575227 1.270002e-05 0.001115334 0.07575227 0.0001127 0.001115334 0.07560848 0.0001127 0.0009846378 0.07553317 1.270002e-05 0.0009589898 0.07560848 1.270002e-05 0.0009846378 0.07553317 0.0001127 0.0009589898 0.07546523 0.0001127 0.0009778165 0.07546523 1.270002e-05 0.0009778165 0.07541899 1.270002e-05 0.001034706 0.07541899 0.0001127 0.001034706 0.07540411 0.0001127 0.001123792 0.07540411 1.270002e-05 0.001123792 0.07541667 1.270002e-05 0.0012006 0.07541667 0.0001127 0.0012006 0.07546019 0.0001127 0.001259945 0.07546019 1.270002e-05 0.001259945 0.07553727 1.270002e-05 0.001282046 0.07553727 0.0001127 0.001282046 0.07560384 0.0001127 0.001262128 0.07560384 1.270002e-05 0.001262128 0.07564423 1.270002e-05 0.001198553 0.07564423 0.0001127 0.001198553 0.07569634 1.270002e-05 0.001210832 0.07569634 0.0001127 0.001210832 0.07563931 0.0001127 0.00129678 0.07563931 1.270002e-05 0.00129678 0.07553836 0.0001127 0.001327339 0.07553836 1.270002e-05 0.001327339 0.07544136 1.270002e-05 0.001303192 0.07544136 0.0001127 0.001303192 0.07537342 0.0001127 0.001232523 0.07537342 1.270002e-05 0.001232523 0.07534955 1.270002e-05 0.001123519 0.07534955 0.0001127 0.001123519 0.07537069 0.0001127 0.001016289 0.07537069 1.270002e-05 0.001016289 0.07543236 1.270002e-05 0.0009400266 0.07543236 0.0001127 0.0009400266 0.07553754 1.270002e-05 0.0009136965 0.07553754 0.0001127 0.0009136965 0.07564327 0.0001127 0.0009479393 0.07564327 1.270002e-05 0.0009479393 0.07570316 1.270002e-05 0.001047394 0.07570316 0.0001127 0.001047394 0.07565023 0.0001127 0.001060763 0.07565023 1.270002e-05 0.001060763 0.07625241 0.0001127 0.0009205177 0.07625241 1.270002e-05 0.001261036 0.07625241 1.270002e-05 0.0009205177 0.07625241 0.0001127 0.001261036 0.0763681 1.270002e-05 0.0009205177 0.0763681 0.0001127 0.0009205177 0.07641585 1.270002e-05 0.0009205177 0.07641585 0.0001127 0.0009205177 0.07653208 1.270002e-05 0.001255306 0.07653208 0.0001127 0.001255306 0.07653208 1.270002e-05 0.0009205177 0.07653208 0.0001127 0.0009205177 0.07658311 1.270002e-05 0.0009205177 0.07658311 0.0001127 0.0009205177 0.07658311 1.270002e-05 0.001320518 0.07658311 0.0001127 0.001320518 0.07651189 1.270002e-05 0.001320518 0.07651189 0.0001127 0.001320518 0.07641612 1.270002e-05 0.001042209 0.07641612 0.0001127 0.001042209 0.07639484 1.270002e-05 0.0009780893 0.07639484 0.0001127 0.0009780893 0.07637574 1.270002e-05 0.001037298 0.07637574 0.0001127 0.001037298 0.07628106 1.270002e-05 0.001320518 0.07628106 0.0001127 0.001320518 0.07620139 1.270002e-05 0.001320518 0.07620139 0.0001127 0.001320518 0.07620139 1.270002e-05 0.0009205177 0.07620139 0.0001127 0.0009205177 0.07460194 0.0001127 0.0009205177 0.07475855 1.270002e-05 0.001320518 0.07460194 1.270002e-05 0.0009205177 0.07475855 0.0001127 0.001320518 0.07470453 1.270002e-05 0.001320518 0.07470453 0.0001127 0.001320518 0.07459647 0.0001127 0.001029931 0.07459647 1.270002e-05 0.001029931 0.07457492 1.270002e-05 0.0009644468 0.07457492 0.0001127 0.0009644468 0.07455391 1.270002e-05 0.001029931 0.07455391 0.0001127 0.001029931 0.07444996 1.270002e-05 0.001320518 0.07444996 0.0001127 0.001320518 0.07439265 1.270002e-05 0.001320518 0.07439265 0.0001127 0.001320518 0.07454764 1.270002e-05 0.0009205177 0.07454764 0.0001127 0.0009205177 0.0737621 0.0001127 0.001061309 0.07388734 1.270002e-05 0.001241664 0.0737621 1.270002e-05 0.001061309 0.07388734 0.0001127 0.001241664 0.07388734 1.270002e-05 0.001061309 0.07388734 0.0001127 0.001061309 0.07393645 0.0001127 0.0009205177 0.07393645 1.270002e-05 0.001016289 0.07393645 1.270002e-05 0.0009205177 0.07393645 0.0001127 0.001016289 0.07399047 1.270002e-05 0.001016289 0.07399047 0.0001127 0.001016289 0.07399047 1.270002e-05 0.001061309 0.07399047 0.0001127 0.001061309 0.07393645 1.270002e-05 0.001061309 0.07393645 0.0001127 0.001061309 0.07393645 1.270002e-05 0.001320518 0.07393645 0.0001127 0.001320518 0.07389634 1.270002e-05 0.001320518 0.07389634 0.0001127 0.001320518 0.07371381 0.0001127 0.001061309 0.07371381 1.270002e-05 0.001061309 0.07371381 1.270002e-05 0.001016289 0.07371381 0.0001127 0.001016289 0.07388734 1.270002e-05 0.001016289 0.07388734 0.0001127 0.001016289 0.07388734 1.270002e-05 0.0009205177 0.07388734 0.0001127 0.0009205177 0.07562185 0.0001127 0.0003320792 0.07562185 1.270002e-05 0.0004906058 0.07562185 1.270002e-05 0.0003320792 0.07562185 0.0001127 0.0004906058 0.07563004 1.270002e-05 0.0005440847 0.07563004 0.0001127 0.0005440847 0.07565746 1.270002e-05 0.0005747805 0.07565746 0.0001127 0.0005747805 0.07569852 1.270002e-05 0.0005861038 0.07569852 0.0001127 0.0005861038 0.07574368 1.270002e-05 0.0005693234 0.07574368 0.0001127 0.0005693234 0.07575964 1.270002e-05 0.0005157081 0.07575964 0.0001127 0.0005157081 0.07575964 1.270002e-05 0.0003320792 0.07575964 0.0001127 0.0003320792 0.07580875 1.270002e-05 0.0003320792 0.07580875 0.0001127 0.0003320792 0.07580875 1.270002e-05 0.0005157081 0.07580875 0.0001127 0.0005157081 0.07579852 0.0001127 0.0005806468 0.07579852 1.270002e-05 0.0005806468 0.07576455 1.270002e-05 0.0006157081 0.07576455 0.0001127 0.0006157081 0.07570861 1.270002e-05 0.0006283957 0.07570861 0.0001127 0.0006283957 0.07562185 0.0001127 0.0005885594 0.07562185 1.270002e-05 0.0005885594 0.07562185 1.270002e-05 0.0007320792 0.07562185 0.0001127 0.0007320792 0.07557273 1.270002e-05 0.0007320792 0.07557273 0.0001127 0.0007320792 0.07557273 1.270002e-05 0.0003320792 0.07557273 0.0001127 0.0003320792 0.07650015 0.0001127 0.0003320792 0.07650015 1.270002e-05 0.0003792825 0.07650015 1.270002e-05 0.0003320792 0.07650015 0.0001127 0.0003792825 0.07625459 1.270002e-05 0.0003792825 0.07625459 0.0001127 0.0003792825 0.07625459 1.270002e-05 0.0005154353 0.07625459 0.0001127 0.0005154353 0.07647588 1.270002e-05 0.0005154353 0.07647588 0.0001127 0.0005154353 0.07647588 1.270002e-05 0.0005623657 0.07647588 0.0001127 0.0005623657 0.07625459 1.270002e-05 0.0005623657 0.07625459 0.0001127 0.0005623657 0.07625459 1.270002e-05 0.000684876 0.07625459 0.0001127 0.000684876 0.07649088 1.270002e-05 0.000684876 0.07649088 0.0001127 0.000684876 0.07649088 1.270002e-05 0.0007320792 0.07649088 0.0001127 0.0007320792 0.07620166 1.270002e-05 0.0007320792 0.07620166 0.0001127 0.0007320792 0.07620166 1.270002e-05 0.0003320792 0.07620166 0.0001127 0.0003320792 0.07454136 0.0001127 0.0003320792 0.07454136 1.270002e-05 0.0006725976 0.07454136 1.270002e-05 0.0003320792 0.07454136 0.0001127 0.0006725976 0.07465704 1.270002e-05 0.0003320792 0.07465704 0.0001127 0.0003320792 0.0747048 1.270002e-05 0.0003320792 0.0747048 0.0001127 0.0003320792 0.07482103 1.270002e-05 0.0006668677 0.07482103 0.0001127 0.0006668677 0.07482103 1.270002e-05 0.0003320792 0.07482103 0.0001127 0.0003320792 0.07487206 1.270002e-05 0.0003320792 0.07487206 0.0001127 0.0003320792 0.07487206 1.270002e-05 0.0007320792 0.07487206 0.0001127 0.0007320792 0.07480083 1.270002e-05 0.0007320792 0.07480083 0.0001127 0.0007320792 0.07470507 0.0001127 0.0004537709 0.07470507 1.270002e-05 0.0004537709 0.07468378 0.0001127 0.0003896508 0.07468378 1.270002e-05 0.0003896508 0.07466469 0.0001127 0.0004488596 0.07466469 1.270002e-05 0.0004488596 0.07457001 0.0001127 0.0007320792 0.07457001 1.270002e-05 0.0007320792 0.07449033 1.270002e-05 0.0007320792 0.07449033 0.0001127 0.0007320792 0.07449033 1.270002e-05 0.0003320792 0.07449033 0.0001127 0.0003320792 0.07385923 0.0001127 0.000684876 0.07393917 1.270002e-05 0.000684876 0.07385923 1.270002e-05 0.000684876 0.07393917 0.0001127 0.000684876 0.07400002 0.0001127 0.0006792825 0.07400002 1.270002e-05 0.0006792825 0.07402731 1.270002e-05 0.0006585458 0.07402731 0.0001127 0.0006585458 0.07403686 1.270002e-05 0.0006234844 0.07403686 0.0001127 0.0006234844 0.07402662 1.270002e-05 0.0005885594 0.07402662 0.0001127 0.0005885594 0.0739962 0.0001127 0.0005686413 0.0739962 1.270002e-05 0.0005686413 0.07394572 1.270002e-05 0.0005640028 0.07394572 0.0001127 0.0005640028 0.07385923 1.270002e-05 0.0005640028 0.07385923 0.0001127 0.0005640028 0.07385923 0.0001127 0.0005167996 0.07395172 1.270002e-05 0.0005167996 0.07385923 1.270002e-05 0.0005167996 0.07395172 0.0001127 0.0005167996 0.07401025 0.0001127 0.0005101147 0.07401025 1.270002e-05 0.0005101147 0.07404204 1.270002e-05 0.0004869223 0.07404204 0.0001127 0.0004869223 0.0740535 1.270002e-05 0.000448041 0.0740535 0.0001127 0.000448041 0.07404559 1.270002e-05 0.0004143439 0.07404559 0.0001127 0.0004143439 0.0740254 1.270002e-05 0.0003921065 0.0740254 0.0001127 0.0003921065 0.07399483 1.270002e-05 0.0003811924 0.07399483 0.0001127 0.0003811924 0.07395882 1.270002e-05 0.0003792825 0.07395882 0.0001127 0.0003792825 0.07385923 1.270002e-05 0.0003792825 0.07385923 0.0001127 0.0003792825 0.07395882 0.0001127 0.0003320792 0.07402335 1.270002e-05 0.0003387641 0.07395882 1.270002e-05 0.0003320792 0.07402335 0.0001127 0.0003387641 0.07406714 1.270002e-05 0.0003585458 0.07406714 0.0001127 0.0003585458 0.07409647 1.270002e-05 0.00039579 0.07409647 0.0001127 0.00039579 0.07410835 0.0001127 0.000448041 0.07410835 1.270002e-05 0.000448041 0.07408883 0.0001127 0.000508614 0.07408883 1.270002e-05 0.000508614 0.07403304 0.0001127 0.0005449032 0.07403304 1.270002e-05 0.0005449032 0.07407505 0.0001127 0.0005814653 0.07407505 1.270002e-05 0.0005814653 0.07408897 1.270002e-05 0.00062976 0.07408897 0.0001127 0.00062976 0.07407328 0.0001127 0.0006825567 0.07407328 1.270002e-05 0.0006825567 0.0740299 0.0001127 0.0007199373 0.0740299 1.270002e-05 0.0007199373 0.07395636 1.270002e-05 0.0007320792 0.07395636 0.0001127 0.0007320792 0.0738063 1.270002e-05 0.0007320792 0.0738063 0.0001127 0.0007320792 0.0738063 1.270002e-05 0.0003320792 0.0738063 0.0001127 0.0003320792</float_array>
          <technique_common>
            <accessor count="578" source="#cubeverts-array0-array" stride="3">
              <param type="float" name="X"/>
              <param type="float" name="Y"/>
              <param type="float" name="Z"/>
            </accessor>
          </technique_common>
        </source>
        <source id="cubenormals-array0">
          <float_array count="3360" id="cubenormals-array0-array">-0.9872721 0 0.1590403 -0.9872721 0 0.1590403 -0.7228792 0 0.6909744 -0.7228792 0 0.6909744 -0.2388343 0 0.9710603 -0.2388343 0 0.9710603 0.2881839 0 0.9575751 0.2881839 0 0.9575751 0.9105037 0 0.413501 0.9105037 0 0.413501 0.9598179 0 -0.2806234 0.9598179 0 -0.2806234 0.6359252 0 -0.7717507 0.6359252 0 -0.7717507 0.2234919 0 -0.9747058 0.2234919 0 -0.9747058 0.225351 0 -0.9742776 0.225351 0 -0.9742776 -1 -0 0 -1 0 -0 0 0 -1 0 0 -1 0.9417747 0 0.3362445 0.9417747 0 0.3362445 0.9993455 0 0.03617244 0.9993455 0 0.03617244 1 0 0 1 0 -0 0.9985323 0 0.05415939 0.9985323 0 0.05415939 0.9094537 0 0.4158051 0.9094537 0 0.4158051 0.5414715 0 0.840719 0.5414715 0 0.840719 0.143296 0 0.9896799 0.143296 0 0.9896799 -0.15375 0 0.9881098 -0.15375 0 0.9881098 -0.5583311 0 0.8296183 -0.5583311 0 0.8296183 -0.9177232 0 0.3972205 -0.9177232 0 0.3972205 -0.1351206 -0 -0.9908292 -0.1351206 0 -0.9908292 0.8694168 0 -0.4940795 0.8694168 0 -0.4940795 0.2309057 0 -0.9729762 0.2309057 0 -0.9729762 -0.2852187 -0 -0.9584624 -0.2852187 0 -0.9584624 -0.9498978 -0 -0.3125606 -0.9498978 0 -0.3125606 -0.9997706 0 0.0214125 -0.9997706 0 0.0214125 -0.1896408 0 0.9818535 -0.1896408 0 0.9818535 -0.1664004 0 0.9860582 -0.1664004 0 0.9860582 -0.4146208 0 0.9099942 -0.4146208 0 0.9099942 -0.7438274 0 0.6683717 -0.7438274 0 0.6683717 -0.9703243 0 0.2418076 -0.9703243 0 0.2418076 -0.9185894 -0 -0.3952133 -0.9185894 0 -0.3952133 -0.3029195 -0 -0.9530162 -0.3029195 -0 -0.9530162 0.1736436 0 -0.9848086 0.1736436 0 -0.9848086 0.5289755 0 -0.8486372 0.5289755 0 -0.8486372 -0.9642774 -0 -0.2648946 -0.9642774 0 -0.2648946 0 -1 -0 -0 -1 0 0 -1 0 0 -1 -0 -0 -1 0 -0 -1 0 -0 -1 0 0 -1 -0 -0 -1 0 0 -1 0 0 -1 -0 -0 -1 0 -0 -1 0 0 -1 -0 0 -1 -0 0 -1 -0 -0 -1 0 0 -1 -0 0 -1 0 -0 -1 0 -0 -1 0 0 -1 -0 0 -1 0 -0 -1 0 0 -1 -0 0 -1 -0 -0 -1 0 0 -1 0 -0 -1 0 0 -1 -0 0 -1 0 0 -1 -0 -0 -1 0 -0 -1 0 0 -1 0 -0 -1 0 0 -1 -0 -0 1 0 0 1 0 -0 1 0 0 1 0 0 1 0 0 1 0 0 1 0 -0 1 0 0 1 0 -0 1 0 -0 1 0 0 1 0 0 1 0 -0 1 0 -0 1 0 -0 1 0 0 1 0 0 1 0 0 1 0 0 1 0 0 1 0 -0 1 0 0 1 0 0 1 0 -0 1 0 -0 1 0 0 1 0 -0 1 0 0 1 0 -0 1 0 -0 1 0 -0 1 0 0 1 0 0 1 0 -0 1 0 0 1 0 -0 1 0 -0.9872721 0 0.1590403 -0.9872721 0 0.1590403 -0.7228792 0 0.6909744 -0.7228792 0 0.6909744 -0.2388343 0 0.9710603 -0.2388343 0 0.9710603 0.2881839 0 0.9575751 0.2881839 0 0.9575751 0.9105037 0 0.413501 0.9105037 0 0.413501 0.9598179 0 -0.2806234 0.9598179 0 -0.2806234 0.6359252 0 -0.7717507 0.6359252 0 -0.7717507 0.2234919 0 -0.9747058 0.2234919 0 -0.9747058 0.225351 0 -0.9742776 0.225351 0 -0.9742776 -1 -0 0 -1 0 -0 0 0 -1 0 0 -1 0.9418402 0 0.3360613 0.9418402 0 0.3360613 0.9993424 0 0.03626034 0.9993424 0 0.03626034 1 0 0 1 0 -0 0.9985323 0 0.05415939 0.9985323 0 0.05415939 0.9095322 0 0.4156334 0.9095322 0 0.4156334 0.5413859 0 0.8407742 0.5413859 0 0.8407742 0.1433137 0 0.9896773 0.1433137 0 0.9896773 -0.15375 0 0.9881098 -0.15375 0 0.9881098 -0.5582635 0 0.8296638 -0.5582635 0 0.8296638 -0.9177232 0 0.3972205 -0.9177232 0 0.3972205 -0.1351206 -0 -0.9908292 -0.1351206 -0 -0.9908292 0.8694168 0 -0.4940795 0.8694168 0 -0.4940795 0.2309057 0 -0.9729762 0.2309057 0 -0.9729762 -0.2852187 -0 -0.9584624 -0.2852187 0 -0.9584624 -0.9498978 -0 -0.3125606 -0.9498978 0 -0.3125606 -0.9997706 0 0.0214125 -0.9997706 0 0.0214125 -0.1896408 0 0.9818535 -0.1896408 0 0.9818535 -0.1664004 0 0.9860582 -0.1664004 0 0.9860582 -0.4146208 0 0.9099942 -0.4146208 0 0.9099942 -0.7438274 0 0.6683717 -0.7438274 0 0.6683717 -0.9703243 0 0.2418076 -0.9703243 0 0.2418076 -0.9185894 -0 -0.3952133 -0.9185894 -0 -0.3952133 -0.3029195 -0 -0.9530162 -0.3029195 0 -0.9530162 0.1736436 0 -0.9848086 0.1736436 0 -0.9848086 0.5289755 0 -0.8486372 0.5289755 0 -0.8486372 -0.9642774 -0 -0.2648946 -0.9642774 -0 -0.2648946 0 -1 -0 -0 -1 0 0 -1 0 0 -1 -0 -0 -1 0 -0 -1 0 -0 -1 0 0 -1 -0 -0 -1 0 0 -1 0 0 -1 -0 -0 -1 0 -0 -1 0 0 -1 -0 0 -1 -0 0 -1 -0 -0 -1 0 0 -1 -0 0 -1 0 -0 -1 0 -0 -1 0 0 -1 -0 0 -1 0 -0 -1 0 0 -1 -0 0 -1 -0 -0 -1 0 0 -1 0 -0 -1 0 0 -1 -0 0 -1 0 0 -1 -0 -0 -1 0 -0 -1 0 0 -1 0 -0 -1 0 0 -1 -0 -0 1 0 0 1 0 -0 1 0 0 1 0 0 1 0 0 1 0 0 1 0 -0 1 0 0 1 0 -0 1 0 -0 1 0 0 1 0 0 1 0 -0 1 0 -0 1 0 -0 1 0 0 1 0 0 1 0 0 1 0 0 1 0 0 1 0 -0 1 0 0 1 0 0 1 0 -0 1 0 -0 1 0 0 1 0 -0 1 0 0 1 0 -0 1 0 -0 1 0 -0 1 0 0 1 0 0 1 0 -0 1 0 0 1 0 -0 1 0 1 0 0 1 0 -0 0.9574509 0 -0.2885961 0.9574509 0 -0.2885961 0.345157 0 -0.938545 0.345157 0 -0.938545 -0.2507093 -0 -0.9680625 -0.2507093 0 -0.9680625 -0.759607 -0 -0.6503823 -0.759607 0 -0.6503823 -0.9919504 -0 -0.1266274 -0.9919504 0 -0.1266274 -1 -0 0 -1 0 -0 0 0 -1 0 0 -1 1 0 0 1 0 -0 0.998368 0 0.05710836 0.998368 0 0.05710836 0.9216172 0 0.3881003 0.9216172 0 0.3881003 0.6005723 0 0.7995704 0.6005723 0 0.7995704 0.1918426 0 0.9814257 0.1918426 0 0.9814257 -0.4597788 0 0.8880335 -0.4597788 0 0.8880335 1 0 0 1 0 -0 0 0 1 0 0 1 -1 -0 0 -1 0 -0 0 0 -1 0 0 -1 0 -1 -0 0 -1 0 -0 -1 -0 -0 -1 0 -0 -1 -0 0 -1 0 0 -1 -0 0 -1 -0 0 -1 0 0 -1 -0 -0 -1 0 0 -1 0 0 -1 -0 -0 -1 0 0 -1 0 0 -1 0 0 1 0 0 1 0 0 1 0 0 1 0 -0 1 0 0 1 0 -0 1 0 -0 1 0 -0 1 0 0 1 0 0 1 0 -0 1 0 0 1 0 0 1 0 -0 1 0 0 1 0 0.8213909 0 -0.5703657 0.8213909 0 -0.5703657 -1 -0 0 -1 0 -0 0 0 1 0 0 1 1 0 0 1 0 -0 0 0 -1 0 0 -1 1 0 0 1 0 -0 0 0 1 0 0 1 1 0 0 1 0 -0 0 0 1 0 0 1 -0.8176063 0 0.5757776 -0.8176063 0 0.5757776 -1 -0 0 -1 0 -0 0 0 -1 0 0 -1 -1 -0 0 -1 0 -0 0 0 -1 0 0 -1 -0 -1 0 0 -1 0 -0 -1 -0 0 -1 -0 -0 -1 0 0 -1 -0 -0 -1 0 0 -1 -0 -0 -1 0 0 -1 0 0 -1 0 0 -1 0 -0 -1 0 0 -1 0 0 1 0 0 1 0 0 1 0 0 1 0 0 1 0 0 1 0 0 1 0 0 1 0 0 1 0 0 1 0 0 1 0 0 1 0 0 1 0 0 1 0 1 0 0 1 0 -0 0 0 1 0 0 1 1 0 0 1 0 -0 0 0 -1 0 0 -1 1 0 0 1 0 -0 0 0 1 0 0 1 1 0 0 1 0 -0 0 0 -1 0 0 -1 1 0 0 1 0 -0 0 0 1 0 0 1 -1 -0 0 -1 0 -0 0 0 -1 0 0 -1 0 -1 -0 0 -1 0 -0 -1 -0 0 -1 0 0 -1 0 -0 -1 -0 0 -1 -0 -0 -1 0 0 -1 -0 -0 -1 0 0 1 0 0 1 0 0 1 0 0 1 0 0 1 0 0 1 0 0 1 0 0 1 0 0 1 0 0 1 0 1 0 0 1 0 -0 -0.8313801 0 -0.5557042 -0.8313801 -0 -0.5557042 0 0 -1 0 0 -1 1 0 0 1 0 -0 0 0 1 0 0 1 -1 -0 0 -1 0 -0 0.8311571 0 0.5560377 0.8311571 0 0.5560377 0 0 1 0 0 1 -1 -0 0 -1 0 -0 0 0 -1 0 0 -1 0 -1 -0 0 -1 -0 0 -1 0 -0 -1 0 -0 -1 0 0 -1 -0 0 -1 0 0 -1 0 0 1 0 0 1 0 0 1 0 0 1 0 0 1 0 0 1 0 0 1 0 0 1 -0 1 0 0 1 0 -0 0 0 1 0 0 1 -1 -0 0 -1 0 -0 0 0 -1 0 0 -1 0 -1 -0 -0 -1 0 0 1 0 0 1 0 0.3707139 0 -0.9287471 0.3707139 0 -0.9287471 -0.2705876 -0 -0.9626954 -0.2705876 0 -0.9626954 -0.7600381 -0 -0.6498786 -0.7600381 0 -0.6498786 -0.981765 -0 -0.1900986 -0.981765 0 -0.1900986 -0.9513603 0 0.3080804 -0.9513603 0 0.3080804 -0.3928315 0 0.9196104 -0.3928315 0 0.9196104 0.3923748 0 0.9198054 0.3923748 0 0.9198054 0.9463969 0 0.3230057 0.9463969 0 0.3230057 0.9539909 0 -0.2998354 0.9539909 0 -0.2998354 -0.7415172 0 -0.6709338 -0.7415172 -0 -0.6709338 -0.2609156 0 -0.9653617 -0.2609156 -0 -0.9653617 0.2463711 0 -0.9691755 0.2463711 0 -0.9691755 0.722547 0 -0.6913217 0.722547 0 -0.6913217 0.9754872 0 -0.2200563 0.9754872 0 -0.2200563 0.9771952 0 0.212343 0.9771952 0 0.212343 0.7364247 0 0.6765195 0.7364247 0 0.6765195 0.256189 0 0.9666267 0.256189 0 0.9666267 -0.3778519 0 0.925866 -0.3778519 0 0.925866 -0.945911 0 0.3244262 -0.945911 0 0.3244262 -0.9746615 -0 -0.223685 -0.9746615 0 -0.223685 -0 -1 0 0 -1 -0 -0 -1 0 -0 -1 0 0 -1 -0 -0 -1 0 0 -1 0 0 -1 -0 -0 -1 0 0 -1 0 0 -1 -0 -0 -1 0 0 -1 0 0 -1 -0 0 -1 0 0 -1 0 0 -1 -0 0 -1 -0 0 -1 0 -0 -1 0 0 1 0 -0 1 0 0 1 0 0 1 0 -0 1 0 0 1 0 -0 1 0 -0 1 0 0 1 0 -0 1 0 0 1 0 0 1 0 -0 1 -0 0 1 0 -0 1 0 0 1 0 -0 1 0 -0 1 0 0 1 -0 0 1 0 -0.3223836 0 0.946609 -0.3223836 0 0.946609 0.2670456 0 0.9636839 0.2670456 0 0.9636839 0.7759867 0 0.6307492 0.7759867 0 0.6307492 0.9863406 0 0.1647185 0.9863406 0 0.1647185 0.9868962 0 -0.1613567 0.9868962 0 -0.1613567 0.8064165 0 -0.5913479 0.8064165 0 -0.5913479 0.2756219 0 -0.9612662 0.2756219 0 -0.9612662 -0.2866345 -0 -0.95804 -0.2866345 -0 -0.95804 -0.8441062 -0 -0.536176 -0.8441062 0 -0.536176 0.2293161 0 -0.973352 0.2293161 0 -0.973352 0.8332524 0 0.5528927 0.8332524 0 0.5528927 0.2897273 0 0.9571093 0.2897273 0 0.9571093 -0.2415691 0 0.9703836 -0.2415691 0 0.9703836 -0.7208875 0 0.6930521 -0.7208875 0 0.6930521 -0.9768481 0 0.2139339 -0.9768481 0 0.2139339 -0.9811138 0 -0.1934316 -0.9811138 -0 -0.1934316 -0.7775812 -0 -0.6287826 -0.7775812 0 -0.6287826 -0.2428264 -0 -0.9700698 -0.2428264 0 -0.9700698 0.3081192 0 -0.9513478 0.3081192 0 -0.9513478 0.8566626 0 -0.5158772 0.8566626 0 -0.5158772 0.24489 0 0.9695508 0.24489 0 0.9695508 -0.8768038 0 0.4808483 -0.8768038 0 0.4808483 0 -1 0 0 -1 -0 0 -1 0 0 -1 0 -0 -1 -0 0 -1 -0 0 -1 -0 0 -1 0 -0 -1 0 0 -1 0 0 -1 0 0 -1 -0 -0 -1 0 0 -1 0 -0 -1 0 0 -1 0 0 -1 0 0 -1 -0 0 -1 0 -0 -1 0 0 1 0 -0 1 0 0 1 -0 0 1 -0 0 1 0 -0 1 0 0 1 0 -0 1 0 0 1 0 0 1 0 -0 1 0 0 1 0 0 1 0 -0 1 0 0 1 0 -0 1 0 0 1 0 -0 1 0 0 1 -0 0 1 0 1 0 0 1 0 -0 -0.946844 -0 -0.321693 -0.946844 0 -0.321693 0 0 -1 0 0 -1 0.9446843 0 -0.327981 0.9446843 0 -0.327981 -1 -0 0 -1 0 -0 0 0 -1 0 0 -1 1 0 0 1 0 -0 0 0 1 0 0 1 -0.9455787 0 0.3253936 -0.9455787 0 0.3253936 -0.9490704 0 0.315064 -0.9490704 0 0.315064 0.9517238 0 0.3069559 0.9517238 0 0.3069559 0.9484075 0 0.3170541 0.9484075 0 0.3170541 0 0 1 0 0 1 -1 -0 0 -1 0 -0 0 0 -1 0 0 -1 0 -1 -0 0 -1 0 -0 -1 0 0 -1 -0 -0 -1 0 0 -1 0 0 -1 0 0 -1 0 0 -1 0 0 -1 0 0 -1 0 0 -1 -0 0 -1 0 0 1 0 0 1 0 -0 1 0 -0 1 0 -0 1 0 0 1 0 0 1 -0 0 1 0 0 1 0 0 1 0 0 1 0 0 1 0 0 1 0 0.9311681 0 -0.36459 0.9311681 0 -0.36459 0 0 1 0 0 1 -0.9372958 0 0.3485349 -0.9372958 0 0.3485349 -0.9498734 0 0.3126349 -0.9498734 0 0.3126349 0.9521858 0 0.3055196 0.9521858 0 0.3055196 0.9415678 0 0.3368235 0.9415678 0 0.3368235 0 0 1 0 0 1 -0.9324545 -0 -0.3612876 -0.9324545 0 -0.3612876 0 0 -1 0 0 -1 0 -1 -0 0 -1 -0 0 -1 -0 0 -1 0 -0 -1 -0 -0 -1 0 0 -1 0 0 1 0 0 1 0 -0 1 0 0 1 -0 -0 1 0 -0 1 0 -0 1 0 0.8213909 0 -0.5703657 0.8213909 0 -0.5703657 -1 -0 0 -1 0 -0 0 0 1 0 0 1 1 0 0 1 0 -0 0 0 -1 0 0 -1 1 0 0 1 0 -0 0 0 1 0 0 1 1 0 0 1 0 -0 0 0 1 0 0 1 -0.8176177 0 0.5757614 -0.8176177 0 0.5757614 -1 -0 0 -1 0 -0 0 0 -1 0 0 -1 -1 -0 0 -1 0 -0 0 0 -1 0 0 -1 -0 -1 0 0 -1 0 -0 -1 -0 0 -1 -0 -0 -1 0 0 -1 -0 -0 -1 0 0 -1 -0 -0 -1 0 0 -1 0 0 -1 0 0 -1 0 -0 -1 0 0 -1 0 0 1 0 0 1 0 0 1 0 0 1 0 0 1 0 0 1 0 0 1 0 0 1 0 0 1 0 0 1 0 0 1 0 0 1 0 0 1 0 0 1 0 1 0 0 1 0 -0 0.9884858 0 -0.1513137 0.9884858 0 -0.1513137 0.7457797 0 -0.6661926 0.7457797 0 -0.6661926 0.2658428 0 -0.9640164 0.2658428 0 -0.9640164 -0.348319 -0 -0.9373761 -0.348319 0 -0.9373761 -0.9584336 -0 -0.2853155 -0.9584336 0 -0.2853155 -1 -0 0 -1 0 -0 0 0 -1 0 0 -1 1 0 0 1 0 -0 0.9877977 0 0.1557427 0.9877977 0 0.1557427 0.7182364 0 0.6957992 0.7182364 0 0.6957992 0.2211947 0 0.9752296 0.2211947 0 0.9752296 -0.4172658 0 0.9087844 -0.4172658 0 0.9087844 1 0 0 1 0 -0 0 0 1 0 0 1 -1 -0 0 -1 0 -0 0 0 -1 0 0 -1 0 -1 -0 0 -1 0 -0 -1 0 0 -1 0 0 -1 0 -0 -1 0 0 -1 -0 0 -1 0 0 -1 -0 0 -1 0 -0 -1 -0 0 -1 0 0 -1 -0 -0 -1 0 0 -1 -0 0 1 0 0 1 0 0 1 0 0 1 -0 0 1 0 -0 1 0 0 1 0 0 1 0 -0 1 0 -0 1 0 -0 1 0 -0 1 0 0 1 0 0 1 0 0 1 0 1 0 0 1 0 -0 0 0 1 0 0 1 1 0 0 1 0 -0 0 0 -1 0 0 -1 1 0 0 1 0 -0 0 0 1 0 0 1 1 0 0 1 0 -0 0 0 -1 0 0 -1 1 0 0 1 0 -0 0 0 1 0 0 1 -1 -0 0 -1 0 -0 0 0 -1 0 0 -1 0 -1 -0 0 -1 0 -0 -1 -0 0 -1 0 0 -1 0 -0 -1 -0 0 -1 -0 -0 -1 0 0 -1 -0 -0 -1 0 0 1 0 0 1 0 0 1 0 0 1 0 0 1 0 0 1 0 0 1 0 0 1 0 0 1 0 0 1 0 1 0 0 1 0 -0 -0.9468505 -0 -0.321674 -0.9468505 0 -0.321674 0 0 -1 0 0 -1 0.9446843 0 -0.327981 0.9446843 0 -0.327981 -1 -0 0 -1 0 -0 0 0 -1 0 0 -1 1 0 0 1 0 -0 0 0 1 0 0 1 -0.9455866 0 0.3253705 -0.9455866 0 0.3253705 -0.9490704 0 0.3150639 -0.9490704 0 0.3150639 0.9517238 0 0.3069557 0.9517238 0 0.3069557 0.9484074 0 0.3170542 0.9484074 0 0.3170542 0 0 1 0 0 1 -1 -0 0 -1 0 -0 0 0 -1 0 0 -1 0 -1 -0 0 -1 0 -0 -1 0 0 -1 -0 -0 -1 0 0 -1 0 0 -1 0 0 -1 0 0 -1 0 0 -1 0 0 -1 0 0 -1 -0 0 -1 0 0 1 0 0 1 0 -0 1 0 -0 1 0 -0 1 0 0 1 0 0 1 -0 0 1 0 0 1 0 0 1 0 0 1 0 0 1 0 0 1 0 0 0 -1 0 0 -1 -0.09153344 -0 -0.995802 -0.09153344 -0 -0.995802 -0.6051171 -0 -0.7961365 -0.6051171 0 -0.7961365 -0.9648351 -0 -0.2628561 -0.9648351 0 -0.2628561 -0.9596135 0 0.2813219 -0.9596135 0 0.2813219 -0.5478117 0 0.8366017 -0.5478117 0 0.8366017 -0.09150932 0 0.9958043 -0.09150932 0 0.9958043 0 0 1 0 0 1 1 0 0 1 0 -0 0 0 -1 0 0 -1 -0.1134703 -0 -0.9935414 -0.1134703 -0 -0.9935414 -0.5894454 -0 -0.8078082 -0.5894454 0 -0.8078082 -0.9592072 -0 -0.2827038 -0.9592072 0 -0.2827038 -0.9735269 0 0.2285725 -0.9735269 0 0.2285725 -0.7404111 0 0.6721543 -0.7404111 0 0.6721543 -0.3362974 0 0.9417559 -0.3362974 0 0.9417559 -0.05295247 0 0.998597 -0.05295247 0 0.998597 0 0 1 0 0 1 1 0 0 1 0 -0 0.1030423 0 -0.9946769 0.1030423 0 -0.9946769 0.4116624 0 -0.9113364 0.4116624 0 -0.9113364 0.7855828 0 -0.6187565 0.7855828 0 -0.6187565 0.9751486 0 -0.221552 0.9751486 0 -0.221552 0.9518173 0 0.3066657 0.9518173 0 0.3066657 0.5452341 0 0.8382838 0.5452341 0 0.8382838 0.6564571 0 -0.7543633 0.6564571 0 -0.7543633 0.9609038 0 -0.2768826 0.9609038 0 -0.2768826 0.9585873 0 0.2847987 0.9585873 0 0.2847987 0.6527738 0 0.7575529 0.6527738 0 0.7575529 0.162901 0 0.9866424 0.162901 0 0.9866424 0 0 1 0 0 1 -1 -0 0 -1 0 -0 0 0 -1 0 0 -1 0 -1 0 -0 -1 -0 0 -1 -0 0 -1 0 0 -1 -0 0 -1 0 -0 -1 0 0 -1 -0 -0 -1 0 0 -1 -0 0 -1 -0 -0 -1 0 0 -1 0 0 -1 0 -0 -1 -0 -0 -1 0 0 -1 -0 0 -1 0 0 -1 -0 -0 -1 0 0 -1 0 -0 -1 0 0 -1 -0 0 -1 -0 -0 -1 0 0 -1 -0 0 -1 0 0 -1 -0 -0 -1 0 -0 -1 0 0 -1 0 0 -1 0 -0 -1 0 0 -1 -0 -0 -1 0 0 1 0 -0 1 0 0 1 0 -0 1 0 0 1 0 -0 1 0 0 1 0 -0 1 0 0 1 0 -0 1 0 0 1 0 -0 1 0 0 1 0 0 1 -0 0 1 0 -0 1 0 -0 1 0 -0 1 0 -0 1 0 0 1 0 -0 1 0 0 1 0 0 1 0 -0 1 0 0 1 0 -0 1 0 0 1 0 -0 1 0 -0 1 0 0 1 0 -0 1 0 -0 1 0 0 1 0 -0 1 0 0 1 0</float_array>
          <technique_common>
            <accessor count="1120" source="#cubenormals-array0-array" stride="3">
              <param type="float" name="X"/>
              <param type="float" name="Y"/>
              <param type="float" name="Z"/>
            </accessor>
          </technique_common>
        </source>
        <vertices id="cubeverts-array0-vertices">
          <input semantic="POSITION" source="#cubeverts-array0"/>
        </vertices>
        <triangles count="1120" material="ref_text001_shape001">
          <input offset="0" semantic="VERTEX" source="#cubeverts-array0-vertices"/>
          <input offset="1" semantic="NORMAL" source="#cubenormals-array0"/>
          <p>0 0 1 0 2 0 0 1 3 1 1 1 3 2 4 2 1 2 3 3 5 3 4 3 5 4 6 4 4 4 5 5 7 5 6 5 8 6 9 6 6 6 7 7 8 7 6 7 8 8 10 8 9 8 8 9 11 9 10 9 12 10 13 10 10 10 11 11 12 11 10 11 14 12 15 12 13 12 12 13 14 13 13 13 16 14 17 14 15 14 14 15 16 15 15 15 18 16 19 16 17 16 16 17 18 17 17 17 18 18 2 18 19 18 18 19 0 19 2 19 20 20 21 20 22 20 20 21 23 21 21 21 24 22 25 22 21 22 23 23 24 23 21 23 24 24 26 24 25 24 24 25 27 25 26 25 27 26 28 26 26 26 27 27 29 27 28 27 29 28 30 28 28 28 29 29 31 29 30 29 32 30 33 30 30 30 31 31 32 31 30 31 32 32 34 32 33 32 32 33 35 33 34 33 35 34 36 34 34 34 35 35 37 35 36 35 38 36 39 36 36 36 37 37 38 37 36 37 38 38 40 38 39 38 38 39 41 39 40 39 42 40 43 40 40 40 41 41 42 41 40 41 42 42 44 42 43 42 42 43 45 43 44 43 45 44 46 44 44 44 45 45 47 45 46 45 47 46 48 46 46 46 47 47 49 47 48 47 49 48 50 48 48 48 49 49 51 49 50 49 51 50 52 50 50 50 51 51 53 51 52 51 53 52 54 52 52 52 53 53 55 53 54 53 55 54 56 54 54 54 55 55 57 55 56 55 57 56 58 56 56 56 57 57 59 57 58 57 60 58 61 58 58 58 59 59 60 59 58 59 60 60 62 60 61 60 60 61 63 61 62 61 63 62 64 62 62 62 63 63 65 63 64 63 65 64 66 64 64 64 65 65 67 65 66 65 68 66 69 66 66 66 67 67 68 67 66 67 70 68 71 68 69 68 68 69 70 69 69 69 72 70 73 70 71 70 70 71 72 71 71 71 72 72 22 72 73 72 72 73 20 73 22 73 9 74 66 74 69 74 10 75 62 75 64 75 10 76 64 76 66 76 10 77 66 77 9 77 6 78 9 78 69 78 71 79 6 79 69 79 13 80 62 80 10 80 61 81 62 81 13 81 15 82 61 82 13 82 4 83 6 83 71 83 58 84 61 84 15 84 73 85 4 85 71 85 17 86 58 86 15 86 1 87 4 87 73 87 56 88 58 88 17 88 40 89 43 89 44 89 25 90 73 90 22 90 25 91 22 91 21 91 25 92 1 92 73 92 46 93 40 93 44 93 19 94 56 94 17 94 39 95 40 95 46 95 26 96 19 96 2 96 26 97 2 97 1 97 26 98 1 98 25 98 54 99 56 99 19 99 48 100 39 100 46 100 36 101 39 101 48 101 28 102 52 102 54 102 28 103 19 103 26 103 28 104 54 104 19 104 30 105 52 105 28 105 30 106 50 106 52 106 34 107 36 107 48 107 34 108 48 108 50 108 33 109 34 109 50 109 33 110 50 110 30 110 67 111 8 111 68 111 63 112 11 112 65 112 65 113 11 113 67 113 67 114 11 114 8 114 8 115 7 115 68 115 7 116 70 116 68 116 63 117 12 117 11 117 63 118 60 118 12 118 60 119 14 119 12 119 7 120 5 120 70 120 60 121 59 121 14 121 5 122 72 122 70 122 59 123 16 123 14 123 5 124 3 124 72 124 59 125 57 125 16 125 42 126 41 126 45 126 20 127 24 127 23 127 72 128 24 128 20 128 3 129 24 129 72 129 41 130 47 130 45 130 57 131 18 131 16 131 41 132 38 132 47 132 0 133 27 133 3 133 18 134 27 134 0 134 3 135 27 135 24 135 57 136 55 136 18 136 38 137 49 137 47 137 38 138 37 138 49 138 53 139 29 139 55 139 18 140 29 140 27 140 55 141 29 141 18 141 53 142 31 142 29 142 51 143 31 143 53 143 37 144 35 144 49 144 49 145 35 145 51 145 35 146 32 146 51 146 51 147 32 147 31 147 74 148 75 148 76 148 74 149 77 149 75 149 78 150 79 150 75 150 77 151 78 151 75 151 78 152 80 152 79 152 78 153 81 153 80 153 81 154 82 154 80 154 81 155 83 155 82 155 84 156 85 156 82 156 83 157 84 157 82 157 84 158 86 158 85 158 84 159 87 159 86 159 88 160 89 160 86 160 87 161 88 161 86 161 88 162 90 162 89 162 88 163 91 163 90 163 91 164 92 164 90 164 91 165 93 165 92 165 93 166 76 166 92 166 93 167 74 167 76 167 94 168 95 168 96 168 94 169 97 169 95 169 98 170 99 170 95 170 97 171 98 171 95 171 98 172 100 172 99 172 98 173 101 173 100 173 101 174 102 174 100 174 101 175 103 175 102 175 103 176 104 176 102 176 103 177 105 177 104 177 105 178 106 178 104 178 105 179 107 179 106 179 108 180 109 180 106 180 107 181 108 181 106 181 108 182 110 182 109 182 108 183 111 183 110 183 112 184 113 184 110 184 111 185 112 185 110 185 114 186 115 186 113 186 112 187 114 187 113 187 114 188 116 188 115 188 114 189 117 189 116 189 118 190 119 190 116 190 117 191 118 191 116 191 118 192 120 192 119 192 118 193 121 193 120 193 121 194 122 194 120 194 121 195 123 195 122 195 123 196 124 196 122 196 123 197 125 197 124 197 125 198 126 198 124 198 125 199 127 199 126 199 127 200 128 200 126 200 127 201 129 201 128 201 130 202 131 202 128 202 129 203 130 203 128 203 130 204 132 204 131 204 130 205 133 205 132 205 133 206 134 206 132 206 133 207 135 207 134 207 135 208 136 208 134 208 135 209 137 209 136 209 137 210 138 210 136 210 137 211 139 211 138 211 140 212 141 212 138 212 139 213 140 213 138 213 140 214 142 214 141 214 140 215 143 215 142 215 144 216 145 216 142 216 143 217 144 217 142 217 144 218 146 218 145 218 144 219 147 219 146 219 94 220 96 220 146 220 147 221 94 221 146 221 82 222 141 222 142 222 85 223 136 223 138 223 85 224 138 224 141 224 85 225 141 225 82 225 80 226 82 226 142 226 145 227 80 227 142 227 86 228 136 228 85 228 134 229 136 229 86 229 89 230 134 230 86 230 79 231 80 231 145 231 132 232 134 232 89 232 146 233 79 233 145 233 90 234 132 234 89 234 75 235 79 235 146 235 131 236 132 236 90 236 115 237 116 237 119 237 99 238 146 238 96 238 99 239 96 239 95 239 99 240 75 240 146 240 120 241 115 241 119 241 92 242 131 242 90 242 113 243 115 243 120 243 100 244 92 244 76 244 100 245 76 245 75 245 100 246 75 246 99 246 128 247 131 247 92 247 122 248 113 248 120 248 110 249 113 249 122 249 102 250 126 250 128 250 102 251 92 251 100 251 102 252 128 252 92 252 104 253 126 253 102 253 104 254 124 254 126 254 109 255 110 255 122 255 109 256 122 256 124 256 106 257 109 257 124 257 106 258 124 258 104 258 140 259 83 259 143 259 137 260 84 260 139 260 139 261 84 261 140 261 140 262 84 262 83 262 83 263 81 263 143 263 81 264 144 264 143 264 137 265 87 265 84 265 137 266 135 266 87 266 135 267 88 267 87 267 81 268 78 268 144 268 135 269 133 269 88 269 78 270 147 270 144 270 133 271 91 271 88 271 78 272 77 272 147 272 133 273 130 273 91 273 117 274 114 274 118 274 94 275 98 275 97 275 147 276 98 276 94 276 77 277 98 277 147 277 114 278 121 278 118 278 130 279 93 279 91 279 114 280 112 280 121 280 74 281 101 281 77 281 93 282 101 282 74 282 77 283 101 283 98 283 130 284 129 284 93 284 112 285 123 285 121 285 112 286 111 286 123 286 127 287 103 287 129 287 93 288 103 288 101 288 129 289 103 289 93 289 127 290 105 290 103 290 125 291 105 291 127 291 111 292 108 292 123 292 123 293 108 293 125 293 108 294 107 294 125 294 125 295 107 295 105 295 148 296 149 296 150 296 148 297 151 297 149 297 151 298 152 298 149 298 151 299 153 299 152 299 154 300 155 300 152 300 153 301 154 301 152 301 154 302 156 302 155 302 154 303 157 303 156 303 157 304 158 304 156 304 157 305 159 305 158 305 159 306 160 306 158 306 159 307 161 307 160 307 161 308 162 308 160 308 161 309 163 309 162 309 163 310 164 310 162 310 163 311 165 311 164 311 165 312 166 312 164 312 165 313 167 313 166 313 167 314 168 314 166 314 167 315 169 315 168 315 169 316 170 316 168 316 169 317 171 317 170 317 171 318 172 318 170 318 171 319 173 319 172 319 174 320 175 320 172 320 173 321 174 321 172 321 174 322 176 322 175 322 174 323 177 323 176 323 177 324 178 324 176 324 177 325 179 325 178 325 179 326 180 326 178 326 179 327 181 327 180 327 181 328 182 328 180 328 181 329 183 329 182 329 183 330 150 330 182 330 183 331 148 331 150 331 149 332 182 332 150 332 180 333 182 333 149 333 176 334 180 334 149 334 152 335 176 335 149 335 178 336 180 336 176 336 160 337 162 337 164 337 166 338 160 338 164 338 175 339 155 339 156 339 168 340 158 340 160 340 168 341 160 341 166 341 172 342 175 342 156 342 170 343 156 343 158 343 170 344 158 344 168 344 170 345 172 345 156 345 175 346 176 346 152 346 175 347 152 347 155 347 183 348 151 348 148 348 183 349 181 349 151 349 181 350 177 350 151 350 177 351 153 351 151 351 181 352 179 352 177 352 163 353 161 353 165 353 161 354 167 354 165 354 154 355 174 355 157 355 159 356 169 356 161 356 161 357 169 357 167 357 174 358 173 358 157 358 157 359 171 359 159 359 159 360 171 360 169 360 173 361 171 361 157 361 177 362 174 362 153 362 153 363 174 363 154 363 184 364 185 364 186 364 187 365 185 365 184 365 185 366 188 366 186 366 185 367 189 367 188 367 189 368 184 368 188 368 189 369 187 369 184 369 190 370 191 370 192 370 190 371 193 371 191 371 193 372 194 372 191 372 193 373 195 373 194 373 195 374 196 374 194 374 195 375 197 375 196 375 197 376 198 376 196 376 197 377 199 377 198 377 199 378 200 378 198 378 199 379 201 379 200 379 201 380 202 380 200 380 201 381 203 381 202 381 202 382 204 382 205 382 203 383 204 383 202 383 204 384 206 384 205 384 204 385 207 385 206 385 207 386 208 386 206 386 207 387 209 387 208 387 209 388 210 388 208 388 209 389 211 389 210 389 211 390 192 390 210 390 211 391 190 391 192 391 184 392 205 392 206 392 208 393 184 393 206 393 188 394 184 394 208 394 191 395 210 395 192 395 191 396 208 396 210 396 198 397 208 397 191 397 198 398 188 398 208 398 196 399 191 399 194 399 196 400 198 400 191 400 186 401 205 401 184 401 186 402 188 402 198 402 202 403 205 403 186 403 200 404 202 404 186 404 198 405 200 405 186 405 187 406 207 406 204 406 209 407 207 407 187 407 189 408 209 408 187 408 193 409 190 409 211 409 193 410 211 410 209 410 199 411 193 411 209 411 199 412 209 412 189 412 197 413 195 413 193 413 197 414 193 414 199 414 185 415 187 415 204 415 185 416 199 416 189 416 203 417 185 417 204 417 201 418 185 418 203 418 201 419 199 419 185 419 212 420 213 420 214 420 212 421 215 421 213 421 215 422 216 422 213 422 215 423 217 423 216 423 217 424 218 424 216 424 217 425 219 425 218 425 219 426 220 426 218 426 219 427 221 427 220 427 221 428 222 428 220 428 221 429 223 429 222 429 223 430 224 430 222 430 223 431 225 431 224 431 225 432 226 432 224 432 225 433 227 433 226 433 227 434 228 434 226 434 227 435 229 435 228 435 229 436 230 436 228 436 229 437 231 437 230 437 231 438 232 438 230 438 231 439 233 439 232 439 233 440 234 440 232 440 233 441 235 441 234 441 235 442 214 442 234 442 235 443 212 443 214 443 218 444 234 444 216 444 214 445 216 445 234 445 213 446 216 446 214 446 232 447 234 447 218 447 232 448 218 448 224 448 226 449 232 449 224 449 222 450 218 450 220 450 222 451 224 451 218 451 230 452 226 452 228 452 230 453 232 453 226 453 219 454 217 454 235 454 212 455 235 455 217 455 215 456 212 456 217 456 233 457 219 457 235 457 233 458 225 458 219 458 227 459 225 459 233 459 223 460 221 460 219 460 223 461 219 461 225 461 231 462 229 462 227 462 231 463 227 463 233 463 236 464 237 464 238 464 236 465 239 465 237 465 237 466 240 466 241 466 239 467 240 467 237 467 240 468 242 468 241 468 240 469 243 469 242 469 243 470 244 470 242 470 243 471 245 471 244 471 245 472 246 472 244 472 245 473 247 473 246 473 247 474 248 474 246 474 247 475 249 475 248 475 248 476 250 476 251 476 249 477 250 477 248 477 250 478 252 478 251 478 250 479 253 479 252 479 253 480 254 480 252 480 253 481 255 481 254 481 255 482 238 482 254 482 255 483 236 483 238 483 248 484 241 484 242 484 237 485 254 485 238 485 252 486 254 486 237 486 251 487 252 487 237 487 244 488 246 488 248 488 244 489 248 489 242 489 237 490 241 490 251 490 251 491 241 491 248 491 249 492 243 492 240 492 239 493 236 493 255 493 253 494 239 494 255 494 250 495 239 495 253 495 245 496 249 496 247 496 250 497 249 497 239 497 245 498 243 498 249 498 240 499 239 499 249 499 256 500 257 500 258 500 256 501 259 501 257 501 259 502 260 502 257 502 259 503 261 503 260 503 261 504 262 504 260 504 261 505 263 505 262 505 263 506 258 506 262 506 263 507 256 507 258 507 257 508 262 508 258 508 257 509 260 509 262 509 259 510 256 510 263 510 259 511 263 511 261 511 264 512 265 512 266 512 267 513 265 513 264 513 265 514 268 514 266 514 265 515 269 515 268 515 269 516 270 516 268 516 269 517 271 517 270 517 271 518 272 518 270 518 271 519 273 519 272 519 273 520 274 520 272 520 273 521 275 521 274 521 275 522 276 522 274 522 275 523 277 523 276 523 276 524 278 524 279 524 277 525 278 525 276 525 279 526 280 526 281 526 278 527 280 527 279 527 280 528 264 528 281 528 280 529 267 529 264 529 282 530 283 530 284 530 285 531 283 531 282 531 284 532 286 532 287 532 283 533 286 533 284 533 286 534 288 534 287 534 286 535 289 535 288 535 288 536 290 536 291 536 289 537 290 537 288 537 290 538 292 538 291 538 290 539 293 539 292 539 293 540 294 540 292 540 293 541 295 541 294 541 294 542 296 542 297 542 295 543 296 543 294 543 297 544 298 544 299 544 296 545 298 545 297 545 299 546 300 546 301 546 298 547 300 547 299 547 300 548 302 548 301 548 300 549 303 549 302 549 303 550 282 550 302 550 303 551 285 551 282 551 279 552 282 552 284 552 276 553 284 553 287 553 276 554 279 554 284 554 281 555 302 555 282 555 281 556 282 556 279 556 288 557 276 557 287 557 274 558 276 558 288 558 301 559 302 559 281 559 264 560 301 560 281 560 291 561 274 561 288 561 272 562 274 562 291 562 292 563 272 563 291 563 270 564 272 564 292 564 299 565 264 565 266 565 299 566 301 566 264 566 268 567 299 567 266 567 294 568 270 568 292 568 297 569 268 569 270 569 297 570 270 570 294 570 297 571 299 571 268 571 285 572 278 572 283 572 283 573 277 573 286 573 278 574 277 574 283 574 303 575 280 575 285 575 285 576 280 576 278 576 277 577 289 577 286 577 277 578 275 578 289 578 303 579 300 579 280 579 300 580 267 580 280 580 275 581 290 581 289 581 275 582 273 582 290 582 273 583 293 583 290 583 273 584 271 584 293 584 267 585 298 585 265 585 300 586 298 586 267 586 298 587 269 587 265 587 271 588 295 588 293 588 269 589 296 589 271 589 271 590 296 590 295 590 298 591 296 591 269 591 304 592 305 592 306 592 304 593 307 593 305 593 308 594 309 594 305 594 307 595 308 595 305 595 308 596 310 596 309 596 308 597 311 597 310 597 312 598 313 598 310 598 311 599 312 599 310 599 312 600 314 600 313 600 312 601 315 601 314 601 316 602 317 602 314 602 315 603 316 603 314 603 316 604 318 604 317 604 316 605 319 605 318 605 320 606 321 606 318 606 319 607 320 607 318 607 320 608 322 608 321 608 320 609 323 609 322 609 323 610 324 610 322 610 323 611 325 611 324 611 324 612 326 612 327 612 325 613 326 613 324 613 327 614 328 614 329 614 326 615 328 615 327 615 328 616 330 616 329 616 328 617 331 617 330 617 332 618 333 618 330 618 331 619 332 619 330 619 332 620 334 620 333 620 332 621 335 621 334 621 334 622 336 622 337 622 335 623 336 623 334 623 336 624 338 624 337 624 336 625 339 625 338 625 339 626 340 626 338 626 339 627 341 627 340 627 340 628 342 628 343 628 341 629 342 629 340 629 342 630 344 630 343 630 342 631 345 631 344 631 346 632 347 632 344 632 345 633 346 633 344 633 346 634 306 634 347 634 346 635 304 635 306 635 340 636 309 636 338 636 310 637 337 637 338 637 310 638 338 638 309 638 334 639 337 639 310 639 305 640 309 640 340 640 313 641 334 641 310 641 306 642 340 642 343 642 306 643 305 643 340 643 314 644 333 644 334 644 314 645 334 645 313 645 317 646 333 646 314 646 330 647 333 647 317 647 344 648 347 648 306 648 344 649 306 649 343 649 318 650 330 650 317 650 329 651 330 651 318 651 321 652 329 652 318 652 327 653 321 653 322 653 327 654 322 654 324 654 327 655 329 655 321 655 308 656 341 656 339 656 336 657 311 657 339 657 339 658 311 658 308 658 336 659 335 659 311 659 308 660 307 660 341 660 335 661 312 661 311 661 341 662 304 662 342 662 307 663 304 663 341 663 332 664 315 664 335 664 335 665 315 665 312 665 332 666 316 666 315 666 332 667 331 667 316 667 346 668 345 668 304 668 304 669 345 669 342 669 331 670 319 670 316 670 331 671 328 671 319 671 328 672 320 672 319 672 320 673 326 673 323 673 323 674 326 674 325 674 328 675 326 675 320 675 348 676 349 676 350 676 348 677 351 677 349 677 351 678 352 678 349 678 351 679 353 679 352 679 353 680 354 680 352 680 353 681 355 681 354 681 355 682 356 682 354 682 355 683 357 683 356 683 357 684 358 684 356 684 357 685 359 685 358 685 359 686 360 686 358 686 359 687 361 687 360 687 361 688 362 688 360 688 361 689 363 689 362 689 363 690 364 690 362 690 363 691 365 691 364 691 365 692 366 692 364 692 365 693 367 693 366 693 367 694 368 694 366 694 367 695 369 695 368 695 369 696 370 696 368 696 369 697 371 697 370 697 371 698 372 698 370 698 371 699 373 699 372 699 373 700 374 700 372 700 373 701 375 701 374 701 375 702 376 702 374 702 375 703 377 703 376 703 377 704 350 704 376 704 377 705 348 705 350 705 368 706 352 706 354 706 374 707 376 707 349 707 372 708 374 708 349 708 362 709 356 709 360 709 362 710 364 710 356 710 350 711 349 711 376 711 349 712 352 712 368 712 349 713 368 713 370 713 354 714 356 714 368 714 368 715 356 715 366 715 356 716 358 716 360 716 364 717 366 717 356 717 370 718 372 718 349 718 353 719 369 719 355 719 377 720 375 720 351 720 375 721 373 721 351 721 357 722 363 722 361 722 365 723 363 723 357 723 351 724 348 724 377 724 353 725 351 725 369 725 369 726 351 726 371 726 357 727 355 727 369 727 357 728 369 728 367 728 359 729 357 729 361 729 367 730 365 730 357 730 373 731 371 731 351 731 378 732 379 732 380 732 378 733 381 733 379 733 381 734 382 734 379 734 381 735 383 735 382 735 382 736 384 736 385 736 383 737 384 737 382 737 384 738 386 738 385 738 384 739 387 739 386 739 387 740 388 740 386 740 387 741 389 741 388 741 389 742 390 742 388 742 389 743 391 743 390 743 391 744 392 744 390 744 391 745 393 745 392 745 393 746 394 746 392 746 393 747 395 747 394 747 395 748 380 748 394 748 395 749 378 749 380 749 386 750 394 750 380 750 388 751 394 751 386 751 385 752 386 752 380 752 392 753 394 753 388 753 390 754 392 754 388 754 379 755 382 755 385 755 379 756 385 756 380 756 395 757 387 757 378 757 395 758 389 758 387 758 387 759 384 759 378 759 395 760 393 760 389 760 393 761 391 761 389 761 383 762 381 762 384 762 384 763 381 763 378 763 396 764 397 764 398 764 396 765 399 765 397 765 399 766 400 766 397 766 399 767 401 767 400 767 401 768 398 768 400 768 401 769 396 769 398 769 402 770 403 770 404 770 402 771 405 771 403 771 405 772 406 772 403 772 405 773 407 773 406 773 407 774 408 774 406 774 407 775 409 775 408 775 409 776 410 776 408 776 409 777 411 777 410 777 411 778 412 778 410 778 411 779 413 779 412 779 413 780 414 780 412 780 413 781 415 781 414 781 414 782 416 782 417 782 415 783 416 783 414 783 416 784 418 784 417 784 416 785 419 785 418 785 419 786 420 786 418 786 419 787 421 787 420 787 421 788 422 788 420 788 421 789 423 789 422 789 423 790 404 790 422 790 423 791 402 791 404 791 398 792 417 792 418 792 420 793 398 793 418 793 400 794 398 794 420 794 403 795 422 795 404 795 403 796 420 796 422 796 410 797 420 797 403 797 410 798 400 798 420 798 408 799 403 799 406 799 408 800 410 800 403 800 397 801 417 801 398 801 397 802 400 802 410 802 414 803 417 803 397 803 412 804 414 804 397 804 410 805 412 805 397 805 396 806 419 806 416 806 421 807 419 807 396 807 401 808 421 808 396 808 405 809 402 809 423 809 405 810 423 810 421 810 411 811 405 811 421 811 411 812 421 812 401 812 409 813 407 813 405 813 409 814 405 814 411 814 399 815 396 815 416 815 399 816 411 816 401 816 415 817 399 817 416 817 413 818 399 818 415 818 413 819 411 819 399 819 424 820 425 820 426 820 424 821 427 821 425 821 427 822 428 822 425 822 427 823 429 823 428 823 429 824 430 824 428 824 429 825 431 825 430 825 431 826 432 826 430 826 431 827 433 827 432 827 433 828 434 828 432 828 433 829 435 829 434 829 435 830 436 830 434 830 435 831 437 831 436 831 437 832 438 832 436 832 437 833 439 833 438 833 439 834 440 834 438 834 439 835 441 835 440 835 441 836 442 836 440 836 441 837 443 837 442 837 444 838 445 838 442 838 443 839 444 839 442 839 444 840 446 840 445 840 444 841 447 841 446 841 447 842 448 842 446 842 447 843 449 843 448 843 450 844 451 844 448 844 449 845 450 845 448 845 450 846 452 846 451 846 450 847 453 847 452 847 453 848 454 848 452 848 453 849 455 849 454 849 455 850 456 850 454 850 455 851 457 851 456 851 457 852 426 852 456 852 457 853 424 853 426 853 425 854 456 854 426 854 451 855 425 855 428 855 430 856 451 856 428 856 454 857 425 857 451 857 454 858 456 858 425 858 442 859 436 859 438 859 442 860 438 860 440 860 448 861 430 861 432 861 448 862 432 862 434 862 448 863 451 863 430 863 452 864 454 864 451 864 445 865 434 865 436 865 445 866 436 866 442 866 446 867 448 867 434 867 446 868 434 868 445 868 457 869 427 869 424 869 427 870 450 870 429 870 450 871 431 871 429 871 427 872 455 872 450 872 457 873 455 873 427 873 437 874 443 874 439 874 439 875 443 875 441 875 431 876 449 876 433 876 433 877 449 877 435 877 450 878 449 878 431 878 455 879 453 879 450 879 435 880 444 880 437 880 437 881 444 881 443 881 449 882 447 882 435 882 435 883 447 883 444 883 458 884 459 884 460 884 458 885 461 885 459 885 461 886 462 886 459 886 461 887 463 887 462 887 463 888 464 888 462 888 463 889 465 889 464 889 465 890 466 890 464 890 465 891 467 891 466 891 467 892 468 892 466 892 467 893 469 893 468 893 469 894 470 894 468 894 469 895 471 895 470 895 471 896 472 896 470 896 471 897 473 897 472 897 473 898 474 898 472 898 473 899 475 899 474 899 475 900 476 900 474 900 475 901 477 901 476 901 477 902 478 902 476 902 477 903 479 903 478 903 479 904 480 904 478 904 479 905 481 905 480 905 481 906 460 906 480 906 481 907 458 907 460 907 464 908 480 908 462 908 460 909 462 909 480 909 459 910 462 910 460 910 478 911 480 911 464 911 478 912 464 912 470 912 472 913 478 913 470 913 468 914 464 914 466 914 468 915 470 915 464 915 476 916 472 916 474 916 476 917 478 917 472 917 465 918 463 918 481 918 458 919 481 919 463 919 461 920 458 920 463 920 479 921 465 921 481 921 479 922 471 922 465 922 473 923 471 923 479 923 469 924 467 924 465 924 469 925 465 925 471 925 477 926 475 926 473 926 477 927 473 927 479 927 482 928 483 928 484 928 482 929 485 929 483 929 485 930 486 930 483 930 485 931 487 931 486 931 487 932 488 932 486 932 487 933 489 933 488 933 489 934 490 934 488 934 489 935 491 935 490 935 491 936 492 936 490 936 491 937 493 937 492 937 493 938 494 938 492 938 493 939 495 939 494 939 495 940 496 940 494 940 495 941 497 941 496 941 497 942 498 942 496 942 497 943 499 943 498 943 498 944 500 944 501 944 499 945 500 945 498 945 502 946 503 946 501 946 500 947 502 947 501 947 504 948 505 948 503 948 502 949 504 949 503 949 505 950 506 950 507 950 504 951 506 951 505 951 506 952 508 952 507 952 506 953 509 953 508 953 509 954 510 954 508 954 509 955 511 955 510 955 511 956 484 956 510 956 511 957 482 957 484 957 503 958 486 958 488 958 508 959 510 959 483 959 507 960 508 960 483 960 496 961 490 961 494 961 496 962 498 962 490 962 484 963 483 963 510 963 483 964 486 964 503 964 483 965 503 965 505 965 488 966 490 966 503 966 503 967 490 967 501 967 490 968 492 968 494 968 498 969 501 969 490 969 505 970 507 970 483 970 487 971 502 971 489 971 511 972 509 972 485 972 509 973 506 973 485 973 491 974 497 974 495 974 499 975 497 975 491 975 485 976 482 976 511 976 487 977 485 977 502 977 502 978 485 978 504 978 491 979 489 979 502 979 491 980 502 980 500 980 493 981 491 981 495 981 500 982 499 982 491 982 506 983 504 983 485 983 512 984 513 984 514 984 512 985 515 985 513 985 516 986 517 986 513 986 515 987 516 987 513 987 516 988 518 988 517 988 516 989 519 989 518 989 519 990 520 990 518 990 519 991 521 991 520 991 521 992 522 992 520 992 521 993 523 993 522 993 524 994 525 994 522 994 523 995 524 995 522 995 524 996 526 996 525 996 524 997 527 997 526 997 527 998 528 998 526 998 527 999 529 999 528 999 529 1000 514 1000 528 1000 529 1001 512 1001 514 1001 530 1002 531 1002 532 1002 530 1003 533 1003 531 1003 534 1004 535 1004 531 1004 533 1005 534 1005 531 1005 534 1006 536 1006 535 1006 534 1007 537 1007 536 1007 537 1008 538 1008 536 1008 537 1009 539 1009 538 1009 539 1010 540 1010 538 1010 539 1011 541 1011 540 1011 541 1012 542 1012 540 1012 541 1013 543 1013 542 1013 543 1014 544 1014 542 1014 543 1015 545 1015 544 1015 545 1016 546 1016 544 1016 545 1017 547 1017 546 1017 547 1018 548 1018 546 1018 547 1019 549 1019 548 1019 549 1020 532 1020 548 1020 549 1021 530 1021 532 1021 550 1022 551 1022 552 1022 550 1023 553 1023 551 1023 553 1024 554 1024 551 1024 553 1025 555 1025 554 1025 555 1026 556 1026 554 1026 555 1027 557 1027 556 1027 558 1028 559 1028 556 1028 557 1029 558 1029 556 1029 560 1030 561 1030 559 1030 558 1031 560 1031 559 1031 562 1032 563 1032 561 1032 560 1033 562 1033 561 1033 564 1034 565 1034 563 1034 562 1035 564 1035 563 1035 564 1036 566 1036 565 1036 564 1037 567 1037 566 1037 568 1038 569 1038 566 1038 567 1039 568 1039 566 1039 570 1040 571 1040 569 1040 568 1041 570 1041 569 1041 570 1042 572 1042 571 1042 570 1043 573 1043 572 1043 573 1044 574 1044 572 1044 573 1045 575 1045 574 1045 575 1046 576 1046 574 1046 575 1047 577 1047 576 1047 577 1048 552 1048 576 1048 577 1049 550 1049 552 1049 552 1050 548 1050 576 1050 546 1051 548 1051 552 1051 544 1052 552 1052 551 1052 544 1053 546 1053 552 1053 532 1054 576 1054 548 1054 542 1055 544 1055 551 1055 554 1056 542 1056 551 1056 540 1057 542 1057 554 1057 556 1058 540 1058 554 1058 538 1059 540 1059 556 1059 526 1060 532 1060 531 1060 526 1061 528 1061 532 1061 574 1062 576 1062 532 1062 574 1063 532 1063 528 1063 514 1064 574 1064 528 1064 559 1065 538 1065 556 1065 525 1066 531 1066 535 1066 525 1067 526 1067 531 1067 563 1068 535 1068 536 1068 563 1069 525 1069 535 1069 561 1070 536 1070 538 1070 561 1071 563 1071 536 1071 561 1072 538 1072 559 1072 522 1073 525 1073 563 1073 565 1074 522 1074 563 1074 520 1075 522 1075 565 1075 572 1076 514 1076 513 1076 572 1077 513 1077 517 1077 572 1078 574 1078 514 1078 566 1079 518 1079 520 1079 566 1080 520 1080 565 1080 571 1081 517 1081 518 1081 571 1082 572 1082 517 1082 569 1083 518 1083 566 1083 569 1084 571 1084 518 1084 549 1085 550 1085 577 1085 549 1086 547 1086 550 1086 550 1087 545 1087 553 1087 547 1088 545 1088 550 1088 577 1089 530 1089 549 1089 545 1090 543 1090 553 1090 543 1091 555 1091 553 1091 543 1092 541 1092 555 1092 541 1093 557 1093 555 1093 541 1094 539 1094 557 1094 530 1095 527 1095 533 1095 529 1096 527 1096 530 1096 577 1097 575 1097 530 1097 530 1098 575 1098 529 1098 575 1099 512 1099 529 1099 539 1100 558 1100 557 1100 533 1101 524 1101 534 1101 527 1102 524 1102 533 1102 534 1103 562 1103 537 1103 524 1104 562 1104 534 1104 537 1105 560 1105 539 1105 562 1106 560 1106 537 1106 539 1107 560 1107 558 1107 524 1108 523 1108 562 1108 523 1109 564 1109 562 1109 523 1110 521 1110 564 1110 512 1111 573 1111 515 1111 515 1112 573 1112 516 1112 575 1113 573 1113 512 1113 519 1114 567 1114 521 1114 521 1115 567 1115 564 1115 516 1116 570 1116 519 1116 573 1117 570 1117 516 1117 519 1118 568 1118 567 1118 570 1119 568 1119 519 1119</p>
        </triangles>
      </mesh>
    </geometry>
  </library_geometries>
  <library_materials>
    <material id="mat_text001_shape001" name="text001_shape001">
      <instance_effect url="#effect_text001_shape001"/>
    </material>
  </library_materials>
  <library_visual_scenes>
    <visual_scene id="myscene">
      <node id="node0" name="node0">
        <instance_geometry url="#geometry0">
          <bind_material>
            <technique_common>
              <instance_material symbol="ref_text001_shape001" target="#mat_text001_shape001"/>
            </technique_common>
          </bind_material>
        </instance_geometry>
      </node>
    </visual_scene>
  </library_visual_scenes>
  <scene>
    <instance_visual_scene url="#myscene"/>
  </scene>
</COLLADA>
