<COLLADA xmlns="http://www.collada.org/2005/11/COLLADASchema" version="1.4.1">
  <asset>
    <contributor/>
    <created>2026-09-17T08:46:56.935696</created>
    <modified>2026-09-17T08:46:56.935696</modified>
    <unit name="meter" meter="1.0"/>
    <up_axis>Z_UP</up_axis>
  </asset>
  <library_effects>
    <effect id="effect_TopSilkscreen_HwOR001_shape001" name="effect_TopSilkscreen_HwOR001_shape001">
      <profile_COMMON>
        <technique sid="common">
          <phong>
            <emission>
              <color>0.0 0.0 0.0 1.0</color>
            </emission>
            <ambient>
              <color>0.0 0.0 0.0 1.0</color>
            </ambient>
            <diffuse>
              <color>0.67843097448349 0.7098039984703064 0.7411760091781616 1.0</color>
            </diffuse>
            <specular>
              <color>1 1 1 1.0</color>
            </specular>
            <shininess>
              <float>0.0</float>
            </shininess>
            <reflective>
              <color>0.0 0.0 0.0 1.0</color>
            </reflective>
            <reflectivity>
              <float>0.0</float>
            </reflectivity>
            <transparent>
              <color>0.0 0.0 0.0 1.0</color>
            </transparent>
            <transparency>
              <float>1.0</float>
            </transparency>
          </phong>
        </technique>
        <extra>
          <technique profile="GOOGLEEARTH">
            <double_sided>0</double_sided>
          </technique>
        </extra>
      </profile_COMMON>
    </effect>
  </library_effects>
  <library_geometries>
    <geometry id="geometry0" name="TopSilkscreen_HwOR001_shape001">
      <mesh>
        <source id="cubeverts-array0">
          <float_array count="3108" id="cubeverts-array0-array">0.003249992 0.003453007 0.001620051 0.003376993 0.003580008 0.001620051 0.003359978 0.003516507 0.001620051 0.003313493 0.003470022 0.001620051 0.003122992 0.003707008 0.001620051 0.000749967 0.003453007 0.001620051 0.0008769673 0.003707008 0.001620051 0.0006399815 0.003516507 0.001620051 0.0006864669 0.003470022 0.001620051 0.0006229667 0.003580008 0.001620051 0.003122992 0.03901303 0.001620051 0.003376993 0.03914003 0.001620051 0.003313493 0.03925002 0.001620051 0.003359978 0.03920353 0.001620051 0.003249992 0.03926703 0.001620051 0.0008769673 0.03901303 0.001620051 0.000749967 0.03926703 0.001620051 0.0006229667 0.03914003 0.001620051 0.0006399815 0.03920353 0.001620051 0.0006864669 0.03925002 0.001620051 0.008576932 0.03802132 0.001620051 0.008845744 0.03793326 0.001620051 0.008754285 0.03783949 0.001620051 0.008659549 0.03810603 0.001620051 0.008932416 0.03803147 0.001620051 0.008490196 0.03794085 0.001620051 0.008658265 0.0377504 0.001620051 0.00873784 0.03819474 0.001620051 0.009014084 0.03813388 0.001620051 0.008399557 0.03786479 0.001620051 0.008557923 0.0376662 0.001620051 0.008811612 0.03828725 0.001620051 0.009090547 0.03824023 0.001620051 0.00830524 0.03779335 0.001620051 0.00845351 0.03758711 0.001620051 0.008880681 0.03838332 0.001620051 0.009161613 0.03835027 0.001620051 0.008207478 0.03772669 0.001620051 0.008345284 0.03751332 0.001620051 0.008944876 0.03848271 0.001620051 0.009227105 0.0384637 0.001620051 0.008106515 0.037665 0.001620051 0.008233516 0.03744503 0.001620051 0.009004037 0.03858518 0.001620051 0.009286862 0.03858027 0.001620051 0.008002603 0.03760841 0.001620051 0.008118481 0.03738238 0.001620051 0.009058016 0.03869047 0.001620051 0.009340735 0.03869966 0.001620051 0.007895999 0.03755707 0.001620051 0.008000466 0.03732555 0.001620051 0.00910668 0.03879832 0.001620051 0.00938859 0.03882159 0.001620051 0.007786969 0.03751111 0.001620051 0.007879766 0.03727467 0.001620051 0.009149908 0.03890846 0.001620051 0.009430307 0.03894576 0.001620051 0.007675783 0.03747064 0.001620051 0.007756679 0.03722987 0.001620051 0.009187592 0.03902062 0.001620051 0.009465784 0.03907185 0.001620051 0.007562718 0.03743577 0.001620051 0.007631512 0.03719126 0.001620051 0.009219638 0.03913452 0.001620051 0.009494931 0.03919955 0.001620051 0.007448056 0.03740657 0.001620051 0.007504576 0.03715894 0.001620051 0.009245967 0.03924988 0.001620051 0.009517676 0.03932854 0.001620051 0.007332081 0.03738313 0.001620051 0.007376187 0.03713298 0.001620051 0.009266513 0.0393664 0.001620051 0.009533964 0.03945852 0.001620051 0.007215081 0.03736549 0.001620051 0.007246664 0.03711346 0.001620051 0.009281225 0.0394838 0.001620051 0.009543753 0.03958913 0.001620051 0.007097348 0.03735371 0.001620051 0.007116329 0.03710042 0.001620051 0.009290068 0.0396018 0.001620051 0.009547018 0.03972008 0.001620051 0.006979173 0.03734781 0.001620051 0.006985506 0.03709389 0.001620051 0.009293017 0.03972008 0.001620051 0.009543753 0.03985102 0.001620051 0.006860852 0.03734781 0.001620051 0.00685452 0.03709389 0.001620051 0.009290068 0.03983836 0.001620051 0.009533964 0.03998164 0.001620051 0.006742678 0.03735371 0.001620051 0.006723696 0.03710042 0.001620051 0.009281225 0.03995635 0.001620051 0.009517676 0.04011161 0.001620051 0.006624945 0.03736549 0.001620051 0.006593361 0.03711346 0.001620051 0.009266513 0.04007376 0.001620051 0.009494931 0.04024061 0.001620051 0.006507945 0.03738313 0.001620051 0.006463838 0.03713298 0.001620051 0.009245967 0.04019028 0.001620051 0.009465784 0.04036831 0.001620051 0.00639197 0.03740657 0.001620051 0.006335449 0.03715894 0.001620051 0.009219638 0.04030563 0.001620051 0.009430307 0.0404944 0.001620051 0.006277307 0.03743577 0.001620051 0.006208513 0.03719126 0.001620051 0.009187592 0.04041953 0.001620051 0.00938859 0.04061857 0.001620051 0.006164242 0.03747064 0.001620051 0.006083346 0.03722987 0.001620051 0.009149908 0.04053169 0.001620051 0.009340735 0.0407405 0.001620051 0.006053057 0.03751111 0.001620051 0.00596026 0.03727467 0.001620051 0.00910668 0.04064184 0.001620051 0.009286862 0.04085989 0.001620051 0.005944026 0.03755707 0.001620051 0.005839559 0.03732555 0.001620051 0.009058016 0.04074969 0.001620051 0.009227105 0.04097646 0.001620051 0.005837422 0.03760841 0.001620051 0.005721545 0.03738238 0.001620051 0.009004037 0.04085498 0.001620051 0.009161613 0.04108989 0.001620051 0.00573351 0.037665 0.001620051 0.00560651 0.03744503 0.001620051 0.008944876 0.04095745 0.001620051 0.005632548 0.03772669 0.001620051 0.005494741 0.03751332 0.001620051 0.009090547 0.04119992 0.001620051 0.008880681 0.04105684 0.001620051 0.005534786 0.03779335 0.001620051 0.005386515 0.03758711 0.001620051 0.009014084 0.04130627 0.001620051 0.008811612 0.04115291 0.001620051 0.005440468 0.03786479 0.001620051 0.005282102 0.0376662 0.001620051 0.008932416 0.04140868 0.001620051 0.00873784 0.04124542 0.001620051 0.005349829 0.03794085 0.001620051 0.00518176 0.0377504 0.001620051 0.008845744 0.0415069 0.001620051 0.008659549 0.04133413 0.001620051 0.005263093 0.03802132 0.001620051 0.005085741 0.03783949 0.001620051 0.008754285 0.04160067 0.001620051 0.008576932 0.04141883 0.001620051 0.004994281 0.03793326 0.001620051 0.005180477 0.03810603 0.001620051 0.008658265 0.04168976 0.001620051 0.008490196 0.04149931 0.001620051 0.005102186 0.03819474 0.001620051 0.00490761 0.03803147 0.001620051 0.008557923 0.04177395 0.001620051 0.008399557 0.04157537 0.001620051 0.005028413 0.03828725 0.001620051 0.004825942 0.03813388 0.001620051 0.00845351 0.04185304 0.001620051 0.00830524 0.04164681 0.001620051 0.004959344 0.03838332 0.001620051 0.004749479 0.03824023 0.001620051 0.008345284 0.04192683 0.001620051 0.008207478 0.04171346 0.001620051 0.004895149 0.03848271 0.001620051 0.004678413 0.03835027 0.001620051 0.004835989 0.03858518 0.001620051 0.008233516 0.04199513 0.001620051 0.008106515 0.04177516 0.001620051 0.00461292 0.0384637 0.001620051 0.004782009 0.03869047 0.001620051 0.008118481 0.04205778 0.001620051 0.008002603 0.04183175 0.001620051 0.004553163 0.03858027 0.001620051 0.004733345 0.03879832 0.001620051 0.008000466 0.04211461 0.001620051 0.007895999 0.04188309 0.001620051 0.00449929 0.03869966 0.001620051 0.004690117 0.03890846 0.001620051 0.007879766 0.04216549 0.001620051 0.007786969 0.04192905 0.001620051 0.004451435 0.03882159 0.001620051 0.004652434 0.03902062 0.001620051 0.007756679 0.04221029 0.001620051 0.007675783 0.04196952 0.001620051 0.004409718 0.03894576 0.001620051 0.004620388 0.03913452 0.001620051 0.007631512 0.0422489 0.001620051 0.007562718 0.04200439 0.001620051 0.004374241 0.03907185 0.001620051 0.004594059 0.03924988 0.001620051 0.007504576 0.04228122 0.001620051 0.007448056 0.04203359 0.001620051 0.004345094 0.03919955 0.001620051 0.004573513 0.0393664 0.001620051 0.007376187 0.04230717 0.001620051 0.007332081 0.04205703 0.001620051 0.004322349 0.03932854 0.001620051 0.007246664 0.0423267 0.001620051 0.007215081 0.04207467 0.001620051 0.004306062 0.03945852 0.001620051 0.004549958 0.0396018 0.001620051 0.0045588 0.0394838 0.001620051 0.007116329 0.04233974 0.001620051 0.007097348 0.04208645 0.001620051 0.004296273 0.03958913 0.001620051 0.006985506 0.04234627 0.001620051 0.006979173 0.04209235 0.001620051 0.004293007 0.03972008 0.001620051 0.004547008 0.03972008 0.001620051 0.004549958 0.03983836 0.001620051 0.00685452 0.04234627 0.001620051 0.006860852 0.04209235 0.001620051 0.004296273 0.03985102 0.001620051 0.0045588 0.03995635 0.001620051 0.006723696 0.04233974 0.001620051 0.006742678 0.04208645 0.001620051 0.004306062 0.03998164 0.001620051 0.004573513 0.04007376 0.001620051 0.006593361 0.0423267 0.001620051 0.006624945 0.04207467 0.001620051 0.004322349 0.04011161 0.001620051 0.004594059 0.04019028 0.001620051 0.006463838 0.04230717 0.001620051 0.006507945 0.04205703 0.001620051 0.004345094 0.04024061 0.001620051 0.004620388 0.04030563 0.001620051 0.006335449 0.04228122 0.001620051 0.00639197 0.04203359 0.001620051 0.004374241 0.04036831 0.001620051 0.004652434 0.04041953 0.001620051 0.006208513 0.0422489 0.001620051 0.006277307 0.04200439 0.001620051 0.004409718 0.0404944 0.001620051 0.004690117 0.04053169 0.001620051 0.006083346 0.04221029 0.001620051 0.006164242 0.04196952 0.001620051 0.004451435 0.04061857 0.001620051 0.004733345 0.04064184 0.001620051 0.00596026 0.04216549 0.001620051 0.006053057 0.04192905 0.001620051 0.00449929 0.0407405 0.001620051 0.004782009 0.04074969 0.001620051 0.005839559 0.04211461 0.001620051 0.005944026 0.04188309 0.001620051 0.004553163 0.04085989 0.001620051 0.004835989 0.04085498 0.001620051 0.005721545 0.04205778 0.001620051 0.005837422 0.04183175 0.001620051 0.00461292 0.04097646 0.001620051 0.004895149 0.04095745 0.001620051 0.00560651 0.04199513 0.001620051 0.00573351 0.04177516 0.001620051 0.004678413 0.04108989 0.001620051 0.004959344 0.04105684 0.001620051 0.005494741 0.04192683 0.001620051 0.005632548 0.04171346 0.001620051 0.004749479 0.04119992 0.001620051 0.005028413 0.04115291 0.001620051 0.005386515 0.04185304 0.001620051 0.005534786 0.04164681 0.001620051 0.004825942 0.04130627 0.001620051 0.005102186 0.04124542 0.001620051 0.005282102 0.04177395 0.001620051 0.005440468 0.04157537 0.001620051 0.00490761 0.04140868 0.001620051 0.005180477 0.04133413 0.001620051 0.00518176 0.04168976 0.001620051 0.005349829 0.04149931 0.001620051 0.004994281 0.0415069 0.001620051 0.005263093 0.04141883 0.001620051 0.005085741 0.04160067 0.001620051 0.008576932 0.00130125 0.001620051 0.008845744 0.001213188 0.001620051 0.008754285 0.001119419 0.001620051 0.008659549 0.001385952 0.001620051 0.008932416 0.001311399 0.001620051 0.008490196 0.001220771 0.001620051 0.008658265 0.001030326 0.001620051 0.00873784 0.001474667 0.001620051 0.009014084 0.001413808 0.001620051 0.008399557 0.001144715 0.001620051 0.008557923 0.0009461296 0.001620051 0.008811612 0.001567174 0.001620051 0.009090547 0.00152016 0.001620051 0.00830524 0.001073272 0.001620051 0.00845351 0.0008670396 0.001620051 0.008880681 0.001663244 0.001620051 0.009161613 0.001630192 0.001620051 0.008207478 0.001006619 0.001620051 0.008345284 0.0007932525 0.001620051 0.008944876 0.001762637 0.001620051 0.009227105 0.001743629 0.001620051 0.008106515 0.0009449226 0.001620051 0.008233516 0.0007249517 0.001620051 0.009004037 0.001865106 0.001620051 0.009286862 0.00186019 0.001620051 0.008002603 0.000888335 0.001620051 0.008118481 0.0006623071 0.001620051 0.009058016 0.001970397 0.001620051 0.009340735 0.001979585 0.001620051 0.007895999 0.0008369973 0.001620051 0.008000466 0.0006054744 0.001620051 0.00910668 0.002078248 0.001620051 0.00938859 0.002101516 0.001620051 0.007786969 0.0007910372 0.001620051 0.007879766 0.0005545948 0.001620051 0.009149908 0.00218839 0.001620051 0.009430307 0.002225682 0.001620051 0.007675783 0.0007505689 0.001620051 0.007756679 0.0005097949 0.001620051 0.009187592 0.00230055 0.001620051 0.009465784 0.002351772 0.001620051 0.007562718 0.0007156931 0.001620051 0.007631512 0.000471186 0.001620051 0.009219638 0.002414448 0.001620051 0.009494931 0.002479474 0.001620051 0.007448056 0.0006864964 0.001620051 0.007504576 0.0004388643 0.001620051 0.009245967 0.002529803 0.001620051 0.009517676 0.00260847 0.001620051 0.007332081 0.0006630515 0.001620051 0.007376187 0.0004129099 0.001620051 0.009266513 0.002646327 0.001620051 0.009533964 0.00273844 0.001620051 0.007215081 0.0006454167 0.001620051 0.007246664 0.0003933874 0.001620051 0.009281225 0.00276373 0.001620051 0.009543753 0.00286906 0.001620051 0.007097348 0.0006336356 0.001620051 0.007116329 0.0003803454 0.001620051 0.009290068 0.002881721 0.001620051 0.009547018 0.003000005 0.001620051 0.006979173 0.0006277378 0.001620051 0.006985506 0.0003738163 0.001620051 0.009293017 0.003000005 0.001620051 0.009543753 0.00313095 0.001620051 0.006860852 0.0006277378 0.001620051 0.00685452 0.0003738163 0.001620051 0.009290068 0.00311829 0.001620051 0.009533964 0.00326157 0.001620051 0.006742678 0.0006336356 0.001620051 0.006723696 0.0003803454 0.001620051 0.009281225 0.00323628 0.001620051 0.009517676 0.00339154 0.001620051 0.006624945 0.0006454167 0.001620051 0.006593361 0.0003933874 0.001620051 0.009266513 0.003353683 0.001620051 0.009494931 0.003520536 0.001620051 0.006507945 0.0006630515 0.001620051 0.006463838 0.0004129099 0.001620051 0.009245967 0.003470207 0.001620051 0.009465784 0.003648238 0.001620051 0.00639197 0.0006864964 0.001620051 0.006335449 0.0004388643 0.001620051 0.009219638 0.003585562 0.001620051 0.009430307 0.003774328 0.001620051 0.006277307 0.0007156931 0.001620051 0.006208513 0.000471186 0.001620051 0.009187592 0.003699461 0.001620051 0.00938859 0.003898494 0.001620051 0.006164242 0.0007505689 0.001620051 0.006083346 0.0005097949 0.001620051 0.009149908 0.00381162 0.001620051 0.009340735 0.004020425 0.001620051 0.006053057 0.0007910372 0.001620051 0.00596026 0.0005545948 0.001620051 0.00910668 0.003921763 0.001620051 0.009286862 0.00413982 0.001620051 0.005944026 0.0008369973 0.001620051 0.005839559 0.0006054744 0.001620051 0.009058016 0.004029613 0.001620051 0.009227105 0.004256381 0.001620051 0.005837422 0.000888335 0.001620051 0.005721545 0.0006623071 0.001620051 0.009004037 0.004134904 0.001620051 0.009161613 0.004369818 0.001620051 0.00573351 0.0009449226 0.001620051 0.00560651 0.0007249517 0.001620051 0.008944876 0.004237373 0.001620051 0.005632548 0.001006619 0.001620051 0.005494741 0.0007932525 0.001620051 0.009090547 0.00447985 0.001620051 0.008880681 0.004336766 0.001620051 0.005534786 0.001073272 0.001620051 0.005386515 0.0008670396 0.001620051 0.009014084 0.004586203 0.001620051 0.008811612 0.004432836 0.001620051 0.005440468 0.001144715 0.001620051 0.005282102 0.0009461296 0.001620051 0.008932416 0.004688612 0.001620051 0.00873784 0.004525343 0.001620051 0.005349829 0.001220771 0.001620051 0.00518176 0.001030326 0.001620051 0.008845744 0.004786822 0.001620051 0.008659549 0.004614058 0.001620051 0.005263093 0.00130125 0.001620051 0.005085741 0.001119419 0.001620051 0.008754285 0.004880591 0.001620051 0.008576932 0.004698761 0.001620051 0.005180477 0.001385952 0.001620051 0.004994281 0.001213188 0.001620051 0.008658265 0.004969684 0.001620051 0.008490196 0.00477924 0.001620051 0.005102186 0.001474667 0.001620051 0.00490761 0.001311399 0.001620051 0.008557923 0.005053881 0.001620051 0.008399557 0.004855295 0.001620051 0.005028413 0.001567174 0.001620051 0.004825942 0.001413808 0.001620051 0.00845351 0.00513297 0.001620051 0.00830524 0.004926738 0.001620051 0.004959344 0.001663244 0.001620051 0.004749479 0.00152016 0.001620051 0.008345284 0.005206758 0.001620051 0.008207478 0.004993391 0.001620051 0.004895149 0.001762637 0.001620051 0.004678413 0.001630192 0.001620051 0.004835989 0.001865106 0.001620051 0.008233516 0.005275058 0.001620051 0.008106515 0.005055088 0.001620051 0.00461292 0.001743629 0.001620051 0.004782009 0.001970397 0.001620051 0.008118481 0.005337703 0.001620051 0.008002603 0.005111675 0.001620051 0.004553163 0.00186019 0.001620051 0.004733345 0.002078248 0.001620051 0.008000466 0.005394536 0.001620051 0.007895999 0.005163013 0.001620051 0.00449929 0.001979585 0.001620051 0.004690117 0.00218839 0.001620051 0.007879766 0.005445415 0.001620051 0.007786969 0.005208973 0.001620051 0.004451435 0.002101516 0.001620051 0.007756679 0.005490215 0.001620051 0.007675783 0.005249441 0.001620051 0.004409718 0.002225682 0.001620051 0.004620388 0.002414448 0.001620051 0.004652434 0.00230055 0.001620051 0.007631512 0.005528824 0.001620051 0.007562718 0.005284317 0.001620051 0.004374241 0.002351772 0.001620051 0.004594059 0.002529803 0.001620051 0.007504576 0.005561146 0.001620051 0.007448056 0.005313514 0.001620051 0.004345094 0.002479474 0.001620051 0.004573513 0.002646327 0.001620051 0.007376187 0.005587101 0.001620051 0.007332081 0.005336958 0.001620051 0.004322349 0.00260847 0.001620051 0.007246664 0.005606623 0.001620051 0.007215081 0.005354593 0.001620051 0.004306062 0.00273844 0.001620051 0.004549958 0.002881721 0.001620051 0.0045588 0.00276373 0.001620051 0.007116329 0.005619665 0.001620051 0.007097348 0.005366374 0.001620051 0.004296273 0.00286906 0.001620051 0.004547008 0.003000005 0.001620051 0.006985506 0.005626194 0.001620051 0.006979173 0.005372272 0.001620051 0.004293007 0.003000005 0.001620051 0.004549958 0.00311829 0.001620051 0.00685452 0.005626194 0.001620051 0.006860852 0.005372272 0.001620051 0.004296273 0.00313095 0.001620051 0.0045588 0.00323628 0.001620051 0.006723696 0.005619665 0.001620051 0.006742678 0.005366374 0.001620051 0.004306062 0.00326157 0.001620051 0.004573513 0.003353683 0.001620051 0.006593361 0.005606623 0.001620051 0.006624945 0.005354593 0.001620051 0.004322349 0.00339154 0.001620051 0.004594059 0.003470207 0.001620051 0.006463838 0.005587101 0.001620051 0.006507945 0.005336958 0.001620051 0.004345094 0.003520536 0.001620051 0.004620388 0.003585562 0.001620051 0.006335449 0.005561146 0.001620051 0.00639197 0.005313514 0.001620051 0.004374241 0.003648238 0.001620051 0.004652434 0.003699461 0.001620051 0.006208513 0.005528824 0.001620051 0.006277307 0.005284317 0.001620051 0.004409718 0.003774328 0.001620051 0.004690117 0.00381162 0.001620051 0.006083346 0.005490215 0.001620051 0.006164242 0.005249441 0.001620051 0.004451435 0.003898494 0.001620051 0.004733345 0.003921763 0.001620051 0.00596026 0.005445415 0.001620051 0.006053057 0.005208973 0.001620051 0.00449929 0.004020425 0.001620051 0.004782009 0.004029613 0.001620051 0.005839559 0.005394536 0.001620051 0.005944026 0.005163013 0.001620051 0.004553163 0.00413982 0.001620051 0.004835989 0.004134904 0.001620051 0.005721545 0.005337703 0.001620051 0.005837422 0.005111675 0.001620051 0.00461292 0.004256381 0.001620051 0.004895149 0.004237373 0.001620051 0.00560651 0.005275058 0.001620051 0.00573351 0.005055088 0.001620051 0.004678413 0.004369818 0.001620051 0.004959344 0.004336766 0.001620051 0.005494741 0.005206758 0.001620051 0.005632548 0.004993391 0.001620051 0.004749479 0.00447985 0.001620051 0.005028413 0.004432836 0.001620051 0.005386515 0.00513297 0.001620051 0.005534786 0.004926738 0.001620051 0.004825942 0.004586203 0.001620051 0.005102186 0.004525343 0.001620051 0.005282102 0.005053881 0.001620051 0.005440468 0.004855295 0.001620051 0.00490761 0.004688612 0.001620051 0.005180477 0.004614058 0.001620051 0.00518176 0.004969684 0.001620051 0.005349829 0.00477924 0.001620051 0.004994281 0.004786822 0.001620051 0.005263093 0.004698761 0.001620051 0.005085741 0.004880591 0.001620051 0.07055014 0.04259309 0.001620051 0.07080414 0.04270739 0.001620051 0.07080414 1.270002e-05 0.001620051 0.07055014 0.0001270003 0.001620051 0.01029002 1.270002e-05 0.001620051 0.01054402 0.0001270003 0.001620051 0.01029002 0.04270739 0.001620051 0.01054402 0.04259309 0.001620051 0.07583707 0.03802132 0.001620051 0.07610588 0.03793326 0.001620051 0.07601442 0.03783949 0.001620051 0.07591969 0.03810603 0.001620051 0.07619255 0.03803147 0.001620051 0.07575033 0.03794085 0.001620051 0.0759184 0.0377504 0.001620051 0.07599798 0.03819474 0.001620051 0.07627422 0.03813388 0.001620051 0.07565969 0.03786479 0.001620051 0.07581806 0.0376662 0.001620051 0.07607175 0.03828725 0.001620051 0.07635068 0.03824023 0.001620051 0.07556538 0.03779335 0.001620051 0.07571365 0.03758711 0.001620051 0.07614082 0.03838332 0.001620051 0.07642175 0.03835027 0.001620051 0.07546761 0.03772669 0.001620051 0.07560542 0.03751332 0.001620051 0.07620501 0.03848271 0.001620051 0.07648724 0.0384637 0.001620051 0.07536665 0.037665 0.001620051 0.07549365 0.03744503 0.001620051 0.07626417 0.03858518 0.001620051 0.076547 0.03858027 0.001620051 0.07526274 0.03760841 0.001620051 0.07537862 0.03738238 0.001620051 0.07631815 0.03869047 0.001620051 0.07660087 0.03869966 0.001620051 0.07515614 0.03755707 0.001620051 0.0752606 0.03732555 0.001620051 0.07636681 0.03879832 0.001620051 0.07664873 0.03882159 0.001620051 0.0750471 0.03751111 0.001620051 0.0751399 0.03727467 0.001620051 0.07641004 0.03890846 0.001620051 0.07669044 0.03894576 0.001620051 0.07493592 0.03747064 0.001620051 0.07501682 0.03722987 0.001620051 0.07644772 0.03902062 0.001620051 0.07672592 0.03907185 0.001620051 0.07482285 0.03743577 0.001620051 0.07489165 0.03719126 0.001620051 0.07647977 0.03913452 0.001620051 0.07675507 0.03919955 0.001620051 0.07470819 0.03740657 0.001620051 0.07476471 0.03715894 0.001620051 0.0765061 0.03924988 0.001620051 0.07677781 0.03932854 0.001620051 0.07459222 0.03738313 0.001620051 0.07463632 0.03713298 0.001620051 0.07652665 0.0393664 0.001620051 0.0767941 0.03945852 0.001620051 0.07447521 0.03736549 0.001620051 0.0745068 0.03711346 0.001620051 0.07654136 0.0394838 0.001620051 0.07680389 0.03958913 0.001620051 0.07435748 0.03735371 0.001620051 0.07437646 0.03710042 0.001620051 0.0765502 0.0396018 0.001620051 0.07680715 0.03972008 0.001620051 0.07423931 0.03734781 0.001620051 0.07424564 0.03709389 0.001620051 0.07655315 0.03972008 0.001620051 0.07680389 0.03985102 0.001620051 0.07412099 0.03734781 0.001620051 0.07411465 0.03709389 0.001620051 0.0765502 0.03983836 0.001620051 0.0767941 0.03998164 0.001620051 0.07400282 0.03735371 0.001620051 0.07398383 0.03710042 0.001620051 0.07654136 0.03995635 0.001620051 0.07677781 0.04011161 0.001620051 0.07388508 0.03736549 0.001620051 0.07385349 0.03711346 0.001620051 0.07652665 0.04007376 0.001620051 0.07675507 0.04024061 0.001620051 0.07376808 0.03738313 0.001620051 0.07372398 0.03713298 0.001620051 0.0765061 0.04019028 0.001620051 0.07672592 0.04036831 0.001620051 0.07365211 0.03740657 0.001620051 0.07359558 0.03715894 0.001620051 0.07647977 0.04030563 0.001620051 0.07669044 0.0404944 0.001620051 0.07353745 0.03743577 0.001620051 0.07346865 0.03719126 0.001620051 0.07644772 0.04041953 0.001620051 0.07664873 0.04061857 0.001620051 0.07342438 0.03747064 0.001620051 0.07334348 0.03722987 0.001620051 0.07641004 0.04053169 0.001620051 0.07660087 0.0407405 0.001620051 0.07331319 0.03751111 0.001620051 0.0732204 0.03727467 0.001620051 0.07636681 0.04064184 0.001620051 0.076547 0.04085989 0.001620051 0.07320416 0.03755707 0.001620051 0.07309969 0.03732555 0.001620051 0.07631815 0.04074969 0.001620051 0.07648724 0.04097646 0.001620051 0.07309756 0.03760841 0.001620051 0.07298168 0.03738238 0.001620051 0.07626417 0.04085498 0.001620051 0.07642175 0.04108989 0.001620051 0.07299364 0.037665 0.001620051 0.07286665 0.03744503 0.001620051 0.07620501 0.04095745 0.001620051 0.07289268 0.03772669 0.001620051 0.07275488 0.03751332 0.001620051 0.07635068 0.04119992 0.001620051 0.07614082 0.04105684 0.001620051 0.07279492 0.03779335 0.001620051 0.07264665 0.03758711 0.001620051 0.07627422 0.04130627 0.001620051 0.07607175 0.04115291 0.001620051 0.0727006 0.03786479 0.001620051 0.07254224 0.0376662 0.001620051 0.07619255 0.04140868 0.001620051 0.07599798 0.04124542 0.001620051 0.07260996 0.03794085 0.001620051 0.07244189 0.0377504 0.001620051 0.07610588 0.0415069 0.001620051 0.07591969 0.04133413 0.001620051 0.07252323 0.03802132 0.001620051 0.07234588 0.03783949 0.001620051 0.07601442 0.04160067 0.001620051 0.07583707 0.04141883 0.001620051 0.07244061 0.03810603 0.001620051 0.07225442 0.03793326 0.001620051 0.0759184 0.04168976 0.001620051 0.07575033 0.04149931 0.001620051 0.07236232 0.03819474 0.001620051 0.07216775 0.03803147 0.001620051 0.07581806 0.04177395 0.001620051 0.07565969 0.04157537 0.001620051 0.07228855 0.03828725 0.001620051 0.07208607 0.03813388 0.001620051 0.07571365 0.04185304 0.001620051 0.07556538 0.04164681 0.001620051 0.07221948 0.03838332 0.001620051 0.07200961 0.03824023 0.001620051 0.07560542 0.04192683 0.001620051 0.07546761 0.04171346 0.001620051 0.07215528 0.03848271 0.001620051 0.07193855 0.03835027 0.001620051 0.07549365 0.04199513 0.001620051 0.07536665 0.04177516 0.001620051 0.07187305 0.0384637 0.001620051 0.07209612 0.03858518 0.001620051 0.07537862 0.04205778 0.001620051 0.07526274 0.04183175 0.001620051 0.0718133 0.03858027 0.001620051 0.07204214 0.03869047 0.001620051 0.07199348 0.03879832 0.001620051 0.0752606 0.04211461 0.001620051 0.07515614 0.04188309 0.001620051 0.07175942 0.03869966 0.001620051 0.07195025 0.03890846 0.001620051 0.0751399 0.04216549 0.001620051 0.0750471 0.04192905 0.001620051 0.07171157 0.03882159 0.001620051 0.07191257 0.03902062 0.001620051 0.07501682 0.04221029 0.001620051 0.07493592 0.04196952 0.001620051 0.07166985 0.03894576 0.001620051 0.07188052 0.03913452 0.001620051 0.07489165 0.0422489 0.001620051 0.07482285 0.04200439 0.001620051 0.07163438 0.03907185 0.001620051 0.07185419 0.03924988 0.001620051 0.07476471 0.04228122 0.001620051 0.07470819 0.04203359 0.001620051 0.07160523 0.03919955 0.001620051 0.07463632 0.04230717 0.001620051 0.07459222 0.04205703 0.001620051 0.07158248 0.03932854 0.001620051 0.07181893 0.0394838 0.001620051 0.07183365 0.0393664 0.001620051 0.0745068 0.0423267 0.001620051 0.07447521 0.04207467 0.001620051 0.07156619 0.03945852 0.001620051 0.07437646 0.04233974 0.001620051 0.07435748 0.04208645 0.001620051 0.0715564 0.03958913 0.001620051 0.07181009 0.0396018 0.001620051 0.07424564 0.04234627 0.001620051 0.07423931 0.04209235 0.001620051 0.07155314 0.03972008 0.001620051 0.07180714 0.03972008 0.001620051 0.07181009 0.03983836 0.001620051 0.07411465 0.04234627 0.001620051 0.07412099 0.04209235 0.001620051 0.0715564 0.03985102 0.001620051 0.07181893 0.03995635 0.001620051 0.07398383 0.04233974 0.001620051 0.07400282 0.04208645 0.001620051 0.07156619 0.03998164 0.001620051 0.07183365 0.04007376 0.001620051 0.07385349 0.0423267 0.001620051 0.07388508 0.04207467 0.001620051 0.07158248 0.04011161 0.001620051 0.07185419 0.04019028 0.001620051 0.07372398 0.04230717 0.001620051 0.07376808 0.04205703 0.001620051 0.07160523 0.04024061 0.001620051 0.07188052 0.04030563 0.001620051 0.07359558 0.04228122 0.001620051 0.07365211 0.04203359 0.001620051 0.07163438 0.04036831 0.001620051 0.07191257 0.04041953 0.001620051 0.07346865 0.0422489 0.001620051 0.07353745 0.04200439 0.001620051 0.07166985 0.0404944 0.001620051 0.07195025 0.04053169 0.001620051 0.07334348 0.04221029 0.001620051 0.07342438 0.04196952 0.001620051 0.07171157 0.04061857 0.001620051 0.07199348 0.04064184 0.001620051 0.0732204 0.04216549 0.001620051 0.07331319 0.04192905 0.001620051 0.07175942 0.0407405 0.001620051 0.07204214 0.04074969 0.001620051 0.07309969 0.04211461 0.001620051 0.07320416 0.04188309 0.001620051 0.0718133 0.04085989 0.001620051 0.07209612 0.04085498 0.001620051 0.07298168 0.04205778 0.001620051 0.07309756 0.04183175 0.001620051 0.07187305 0.04097646 0.001620051 0.07215528 0.04095745 0.001620051 0.07286665 0.04199513 0.001620051 0.07299364 0.04177516 0.001620051 0.07193855 0.04108989 0.001620051 0.07221948 0.04105684 0.001620051 0.07275488 0.04192683 0.001620051 0.07289268 0.04171346 0.001620051 0.07200961 0.04119992 0.001620051 0.07228855 0.04115291 0.001620051 0.07264665 0.04185304 0.001620051 0.07279492 0.04164681 0.001620051 0.07208607 0.04130627 0.001620051 0.07236232 0.04124542 0.001620051 0.07254224 0.04177395 0.001620051 0.0727006 0.04157537 0.001620051 0.07216775 0.04140868 0.001620051 0.07244061 0.04133413 0.001620051 0.07244189 0.04168976 0.001620051 0.07260996 0.04149931 0.001620051 0.07225442 0.0415069 0.001620051 0.07252323 0.04141883 0.001620051 0.07234588 0.04160067 0.001620051 0.07583707 0.00130125 0.001620051 0.07610588 0.001213188 0.001620051 0.07601442 0.001119419 0.001620051 0.07591969 0.001385952 0.001620051 0.07619255 0.001311399 0.001620051 0.07575033 0.001220771 0.001620051 0.0759184 0.001030326 0.001620051 0.07599798 0.001474667 0.001620051 0.07627422 0.001413808 0.001620051 0.07565969 0.001144715 0.001620051 0.07581806 0.0009461296 0.001620051 0.07607175 0.001567174 0.001620051 0.07635068 0.00152016 0.001620051 0.07556538 0.001073272 0.001620051 0.07571365 0.0008670396 0.001620051 0.07614082 0.001663244 0.001620051 0.07642175 0.001630192 0.001620051 0.07546761 0.001006619 0.001620051 0.07560542 0.0007932525 0.001620051 0.07620501 0.001762637 0.001620051 0.07648724 0.001743629 0.001620051 0.07536665 0.0009449226 0.001620051 0.07549365 0.0007249517 0.001620051 0.07626417 0.001865106 0.001620051 0.076547 0.00186019 0.001620051 0.07526274 0.000888335 0.001620051 0.07537862 0.0006623071 0.001620051 0.07631815 0.001970397 0.001620051 0.07660087 0.001979585 0.001620051 0.07515614 0.0008369973 0.001620051 0.0752606 0.0006054744 0.001620051 0.07636681 0.002078248 0.001620051 0.07664873 0.002101516 0.001620051 0.0750471 0.0007910372 0.001620051 0.0751399 0.0005545948 0.001620051 0.07641004 0.00218839 0.001620051 0.07669044 0.002225682 0.001620051 0.07493592 0.0007505689 0.001620051 0.07501682 0.0005097949 0.001620051 0.07644772 0.00230055 0.001620051 0.07672592 0.002351772 0.001620051 0.07482285 0.0007156931 0.001620051 0.07489165 0.000471186 0.001620051 0.07647977 0.002414448 0.001620051 0.07675507 0.002479474 0.001620051 0.07470819 0.0006864964 0.001620051 0.07476471 0.0004388643 0.001620051 0.0765061 0.002529803 0.001620051 0.07677781 0.00260847 0.001620051 0.07459222 0.0006630515 0.001620051 0.07463632 0.0004129099 0.001620051 0.07652665 0.002646327 0.001620051 0.0767941 0.00273844 0.001620051 0.07447521 0.0006454167 0.001620051 0.0745068 0.0003933874 0.001620051 0.07654136 0.00276373 0.001620051 0.07680389 0.00286906 0.001620051 0.07435748 0.0006336356 0.001620051 0.07437646 0.0003803454 0.001620051 0.0765502 0.002881721 0.001620051 0.07680715 0.003000005 0.001620051 0.07423931 0.0006277378 0.001620051 0.07424564 0.0003738163 0.001620051 0.07655315 0.003000005 0.001620051 0.07680389 0.00313095 0.001620051 0.07412099 0.0006277378 0.001620051 0.07411465 0.0003738163 0.001620051 0.0765502 0.00311829 0.001620051 0.0767941 0.00326157 0.001620051 0.07400282 0.0006336356 0.001620051 0.07398383 0.0003803454 0.001620051 0.07654136 0.00323628 0.001620051 0.07677781 0.00339154 0.001620051 0.07388508 0.0006454167 0.001620051 0.07385349 0.0003933874 0.001620051 0.07652665 0.003353683 0.001620051 0.07675507 0.003520536 0.001620051 0.07376808 0.0006630515 0.001620051 0.07372398 0.0004129099 0.001620051 0.0765061 0.003470207 0.001620051 0.07672592 0.003648238 0.001620051 0.07365211 0.0006864964 0.001620051 0.07359558 0.0004388643 0.001620051 0.07647977 0.003585562 0.001620051 0.07669044 0.003774328 0.001620051 0.07353745 0.0007156931 0.001620051 0.07346865 0.000471186 0.001620051 0.07644772 0.003699461 0.001620051 0.07664873 0.003898494 0.001620051 0.07342438 0.0007505689 0.001620051 0.07334348 0.0005097949 0.001620051 0.07641004 0.00381162 0.001620051 0.07660087 0.004020425 0.001620051 0.07331319 0.0007910372 0.001620051 0.0732204 0.0005545948 0.001620051 0.07636681 0.003921763 0.001620051 0.076547 0.00413982 0.001620051 0.07320416 0.0008369973 0.001620051 0.07309969 0.0006054744 0.001620051 0.07631815 0.004029613 0.001620051 0.07648724 0.004256381 0.001620051 0.07309756 0.000888335 0.001620051 0.07298168 0.0006623071 0.001620051 0.07626417 0.004134904 0.001620051 0.07642175 0.004369818 0.001620051 0.07299364 0.0009449226 0.001620051 0.07286665 0.0007249517 0.001620051 0.07620501 0.004237373 0.001620051 0.07289268 0.001006619 0.001620051 0.07275488 0.0007932525 0.001620051 0.07635068 0.00447985 0.001620051 0.07614082 0.004336766 0.001620051 0.07279492 0.001073272 0.001620051 0.07264665 0.0008670396 0.001620051 0.07627422 0.004586203 0.001620051 0.07607175 0.004432836 0.001620051 0.0727006 0.001144715 0.001620051 0.07254224 0.0009461296 0.001620051 0.07619255 0.004688612 0.001620051 0.07599798 0.004525343 0.001620051 0.07260996 0.001220771 0.001620051 0.07244189 0.001030326 0.001620051 0.07610588 0.004786822 0.001620051 0.07591969 0.004614058 0.001620051 0.07252323 0.00130125 0.001620051 0.07234588 0.001119419 0.001620051 0.07601442 0.004880591 0.001620051 0.07583707 0.004698761 0.001620051 0.07244061 0.001385952 0.001620051 0.07225442 0.001213188 0.001620051 0.0759184 0.004969684 0.001620051 0.07575033 0.00477924 0.001620051 0.07236232 0.001474667 0.001620051 0.07216775 0.001311399 0.001620051 0.07581806 0.005053881 0.001620051 0.07565969 0.004855295 0.001620051 0.07228855 0.001567174 0.001620051 0.07208607 0.001413808 0.001620051 0.07571365 0.00513297 0.001620051 0.07556538 0.004926738 0.001620051 0.07221948 0.001663244 0.001620051 0.07200961 0.00152016 0.001620051 0.07560542 0.005206758 0.001620051 0.07546761 0.004993391 0.001620051 0.07215528 0.001762637 0.001620051 0.07193855 0.001630192 0.001620051 0.07549365 0.005275058 0.001620051 0.07536665 0.005055088 0.001620051 0.07187305 0.001743629 0.001620051 0.07209612 0.001865106 0.001620051 0.07537862 0.005337703 0.001620051 0.07526274 0.005111675 0.001620051 0.0718133 0.00186019 0.001620051 0.07204214 0.001970397 0.001620051 0.0752606 0.005394536 0.001620051 0.07515614 0.005163013 0.001620051 0.07175942 0.001979585 0.001620051 0.07199348 0.002078248 0.001620051 0.07195025 0.00218839 0.001620051 0.0751399 0.005445415 0.001620051 0.0750471 0.005208973 0.001620051 0.07171157 0.002101516 0.001620051 0.07191257 0.00230055 0.001620051 0.07501682 0.005490215 0.001620051 0.07493592 0.005249441 0.001620051 0.07166985 0.002225682 0.001620051 0.07188052 0.002414448 0.001620051 0.07489165 0.005528824 0.001620051 0.07482285 0.005284317 0.001620051 0.07163438 0.002351772 0.001620051 0.07185419 0.002529803 0.001620051 0.07476471 0.005561146 0.001620051 0.07470819 0.005313514 0.001620051 0.07160523 0.002479474 0.001620051 0.07183365 0.002646327 0.001620051 0.07463632 0.005587101 0.001620051 0.07459222 0.005336958 0.001620051 0.07158248 0.00260847 0.001620051 0.07181893 0.00276373 0.001620051 0.0745068 0.005606623 0.001620051 0.07447521 0.005354593 0.001620051 0.07156619 0.00273844 0.001620051 0.07181009 0.002881721 0.001620051 0.07437646 0.005619665 0.001620051 0.07435748 0.005366374 0.001620051 0.0715564 0.00286906 0.001620051 0.07180714 0.003000005 0.001620051 0.07424564 0.005626194 0.001620051 0.07423931 0.005372272 0.001620051 0.07155314 0.003000005 0.001620051 0.07181009 0.00311829 0.001620051 0.07411465 0.005626194 0.001620051 0.07412099 0.005372272 0.001620051 0.0715564 0.00313095 0.001620051 0.07181893 0.00323628 0.001620051 0.07398383 0.005619665 0.001620051 0.07400282 0.005366374 0.001620051 0.07156619 0.00326157 0.001620051 0.07183365 0.003353683 0.001620051 0.07385349 0.005606623 0.001620051 0.07388508 0.005354593 0.001620051 0.07158248 0.00339154 0.001620051 0.07185419 0.003470207 0.001620051 0.07372398 0.005587101 0.001620051 0.07376808 0.005336958 0.001620051 0.07160523 0.003520536 0.001620051 0.07188052 0.003585562 0.001620051 0.07359558 0.005561146 0.001620051 0.07365211 0.005313514 0.001620051 0.07163438 0.003648238 0.001620051 0.07191257 0.003699461 0.001620051 0.07346865 0.005528824 0.001620051 0.07353745 0.005284317 0.001620051 0.07166985 0.003774328 0.001620051 0.07195025 0.00381162 0.001620051 0.07334348 0.005490215 0.001620051 0.07342438 0.005249441 0.001620051 0.07171157 0.003898494 0.001620051 0.07199348 0.003921763 0.001620051 0.0732204 0.005445415 0.001620051 0.07331319 0.005208973 0.001620051 0.07175942 0.004020425 0.001620051 0.07204214 0.004029613 0.001620051 0.07309969 0.005394536 0.001620051 0.07320416 0.005163013 0.001620051 0.0718133 0.00413982 0.001620051 0.07209612 0.004134904 0.001620051 0.07298168 0.005337703 0.001620051 0.07309756 0.005111675 0.001620051 0.07187305 0.004256381 0.001620051 0.07215528 0.004237373 0.001620051 0.07286665 0.005275058 0.001620051 0.07299364 0.005055088 0.001620051 0.07193855 0.004369818 0.001620051 0.07221948 0.004336766 0.001620051 0.07275488 0.005206758 0.001620051 0.07289268 0.004993391 0.001620051 0.07200961 0.00447985 0.001620051 0.07228855 0.004432836 0.001620051 0.07264665 0.00513297 0.001620051 0.07279492 0.004926738 0.001620051 0.07208607 0.004586203 0.001620051 0.07236232 0.004525343 0.001620051 0.07254224 0.005053881 0.001620051 0.0727006 0.004855295 0.001620051 0.07216775 0.004688612 0.001620051 0.07244061 0.004614058 0.001620051 0.07244189 0.004969684 0.001620051 0.07260996 0.00477924 0.001620051 0.07225442 0.004786822 0.001620051 0.07252323 0.004698761 0.001620051 0.07234588 0.004880591 0.001620051</float_array>
          <technique_common>
            <accessor count="1036" source="#cubeverts-array0-array" stride="3">
              <param type="float" name="X"/>
              <param type="float" name="Y"/>
              <param type="float" name="Z"/>
            </accessor>
          </technique_common>
        </source>
        <source id="cubenormals-array0">
          <float_array count="3108" id="cubenormals-array0-array">0 0 -1 0 0 -1 0 0 -1 0 0 -1 0 -0 -1 0 0 -1 0 0 -1 0 0 -1 0 0 -1 0 0 -1 0 0 -1 0 -0 -1 0 0 -1 0 -0 -1 0 0 -1 0 0 -1 0 0 -1 0 0 -1 0 0 -1 0 -0 -1 0 0 -1 0 0 -1 0 -0 -1 0 0 -1 0 0 -1 0 0 -1 0 -0 -1 0 0 -1 0 0 -1 0 0 -1 0 -0 -1 0 0 -1 0 0 -1 0 0 -1 0 -0 -1 0 0 -1 0 0 -1 0 0 -1 0 -0 -1 0 0 -1 0 0 -1 0 0 -1 0 -0 -1 0 0 -1 0 0 -1 0 -0 -1 0 0 -1 0 0 -1 0 0 -1 0 0 -1 0 -0 -1 0 0 -1 0 0 -1 0 0 -1 0 -0 -1 0 0 -1 0 0 -1 0 0 -1 0 -0 -1 0 0 -1 0 0 -1 0 0 -1 0 -0 -1 0 0 -1 0 0 -1 0 0 -1 0 -0 -1 0 0 -1 0 0 -1 0 0 -1 0 -0 -1 0 0 -1 0 0 -1 0 0 -1 0 -0 -1 0 0 -1 0 0 -1 0 0 -1 0 -0 -1 0 0 -1 0 0 -1 0 0 -1 0 -0 -1 0 -0 -1 0 0 -1 0 0 -1 0 0 -1 0 -0 -1 0 0 -1 0 0 -1 0 0 -1 0 -0 -1 0 0 -1 0 0 -1 0 0 -1 0 -0 -1 0 0 -1 0 0 -1 0 0 -1 0 0 -1 0 -0 -1 0 0 -1 0 0 -1 0 0 -1 0 -0 -1 0 0 -1 0 0 -1 0 -0 -1 0 0 -1 0 0 -1 0 -0 -1 0 0 -1 0 -0 -1 0 0 -1 0 -0 -1 0 0 -1 0 -0 -1 0 0 -1 0 -0 -1 0 -0 -1 0 0 -1 0 0 -1 0 -0 -1 0 0 -1 0 -0 -1 0 0 -1 0 -0 -1 0 0 -1 0 -0 -1 0 0 -1 0 0 -1 0 -0 -1 0 -0 -1 0 0 -1 0 -0 -1 0 0 -1 0 -0 -1 0 0 -1 0 0 -1 0 -0 -1 0 -0 -1 0 0 -1 0 0 -1 0 -0 -1 0 -0 -1 0 0 -1 0 0 -1 0 0 -1 0 0 -1 0 -0 -1 0 -0 -1 0 0 -1 0 0 -1 0 -0 -1 0 -0 -1 0 0 -1 0 0 -1 0 -0 -1 0 -0 -1 0 0 -1 0 0 -1 0 -0 -1 0 -0 -1 0 0 -1 0 -0 -1 0 0 -1 0 -0 -1 0 0 -1 0 -0 -1 0 0 -1 0 -0 -1 0 0 -1 0 -0 -1 0 -0 -1 0 0 -1 0 0 -1 0 -0 -1 0 -0 -1 0 0 -1 0 0 -1 0 0 -1 0 -0 -1 0 0 -1 0 0 -1 0 0 -1 0 -0 -1 0 0 -1 0 0 -1 0 0 -1 0 -0 -1 0 0 -1 0 0 -1 0 0 -1 0 -0 -1 0 0 -1 0 0 -1 0 -0 -1 0 0 -1 0 0 -1 0 0 -1 0 0 -1 0 0 -1 0 -0 -1 0 0 -1 0 -0 -1 0 0 -1 0 0 -1 0 0 -1 0 0 -1 0 0 -1 0 0 -1 0 -0 -1 0 0 -1 0 0 -1 0 0 -1 0 0 -1 0 -0 -1 0 0 -1 0 0 -1 0 -0 -1 0 0 -1 0 0 -1 0 0 -1 0 -0 -1 0 0 -1 0 0 -1 0 0 -1 0 0 -1 0 -0 -1 0 0 -1 0 0 -1 0 0 -1 0 -0 -1 0 0 -1 0 0 -1 0 0 -1 0 -0 -1 0 0 -1 0 0 -1 0 0 -1 0 -0 -1 0 0 -1 0 0 -1 0 -0 -1 0 0 -1 0 0 -1 0 0 -1 0 -0 -1 0 0 -1 0 0 -1 0 0 -1 0 -0 -1 0 0 -1 0 0 -1 0 0 -1 0 -0 -1 0 0 -1 0 0 -1 0 0 -1 0 0 -1 0 -0 -1 0 0 -1 0 0 -1 0 -0 -1 0 0 -1 0 0 -1 0 0 -1 0 0 -1 0 -0 -1 0 0 -1 0 0 -1 0 -0 -1 0 0 -1 0 0 -1 0 -0 -1 0 0 -1 0 0 -1 0 0 -1 0 -0 -1 0 0 -1 0 0 -1 0 0 -1 0 -0 -1 0 0 -1 0 0 -1 0 0 -1 0 -0 -1 0 0 -1 0 0 -1 0 -0 -1 0 0 -1 0 0 -1 0 0 -1 0 0 -1 0 -0 -1 0 0 -1 0 0 -1 0 0 -1 0 -0 -1 0 0 -1 0 0 -1 0 0 -1 0 -0 -1 0 0 -1 0 0 -1 0 0 -1 0 -0 -1 0 0 -1 0 0 -1 0 0 -1 0 -0 -1 0 0 -1 0 0 -1 0 0 -1 0 -0 -1 0 0 -1 0 0 -1 0 0 -1 0 -0 -1 0 0 -1 0 0 -1 0 0 -1 0 -0 -1 0 0 -1 0 0 -1 0 0 -1 0 -0 -1 0 0 -1 0 0 -1 0 0 -1 0 -0 -1 0 0 -1 0 0 -1 0 0 -1 0 -0 -1 0 -0 -1 0 0 -1 0 0 -1 0 0 -1 0 -0 -1 0 0 -1 0 0 -1 0 0 -1 0 -0 -1 0 0 -1 0 0 -1 0 0 -1 0 -0 -1 0 0 -1 0 0 -1 0 0 -1 0 0 -1 0 -0 -1 0 0 -1 0 0 -1 0 0 -1 0 -0 -1 0 0 -1 0 0 -1 0 0 -1 0 -0 -1 0 0 -1 0 -0 -1 0 0 -1 0 -0 -1 0 0 -1 0 -0 -1 0 0 -1 0 -0 -1 0 0 -1 0 -0 -1 0 0 -1 0 -0 -1 0 0 -1 0 -0 -1 0 0 -1 0 -0 -1 0 0 -1 0 0 -1 0 -0 -1 0 -0 -1 0 0 -1 0 0 -1 0 -0 -1 0 -0 -1 0 0 -1 0 0 -1 0 -0 -1 0 -0 -1 0 0 -1 0 0 -1 0 -0 -1 0 -0 -1 0 0 -1 0 0 -1 0 -0 -1 0 -0 -1 0 0 -1 0 -0 -1 0 0 -1 0 0 -1 0 -0 -1 0 -0 -1 0 0 -1 0 0 -1 0 -0 -1 0 -0 -1 0 0 -1 0 0 -1 0 -0 -1 0 -0 -1 0 0 -1 0 0 -1 0 -0 -1 0 -0 -1 0 0 -1 0 -0 -1 0 0 -1 0 -0 -1 0 0 -1 0 -0 -1 0 0 -1 0 -0 -1 0 0 -1 0 -0 -1 0 -0 -1 0 0 -1 0 0 -1 0 -0 -1 0 -0 -1 0 0 -1 0 0 -1 0 -0 -1 0 0 -1 0 0 -1 0 0 -1 0 0 -1 0 -0 -1 0 0 -1 0 0 -1 0 0 -1 0 -0 -1 0 0 -1 0 0 -1 0 0 -1 0 -0 -1 0 0 -1 0 0 -1 0 -0 -1 0 0 -1 0 0 -1 0 0 -1 0 0 -1 0 -0 -1 0 0 -1 0 0 -1 0 0 -1 0 -0 -1 0 0 -1 0 0 -1 0 0 -1 0 0 -1 0 0 -1 0 -0 -1 0 0 -1 0 0 -1 0 0 -1 0 0 -1 0 -0 -1 0 0 -1 0 0 -1 0 -0 -1 0 0 -1 0 0 -1 0 0 -1 0 0 -1 0 -0 -1 0 0 -1 0 0 -1 0 0 -1 0 -0 -1 0 0 -1 0 0 -1 0 0 -1 0 -0 -1 0 0 -1 0 0 -1 0 0 -1 0 -0 -1 0 0 -1 0 0 -1 0 0 -1 0 -0 -1 0 0 -1 0 0 -1 0 -0 -1 0 0 -1 0 0 -1 0 0 -1 0 -0 -1 0 0 -1 0 0 -1 0 0 -1 0 -0 -1 0 0 -1 0 0 -1 0 0 -1 0 -0 -1 0 0 -1 0 0 -1 0 0 -1 0 0 -1 0 -0 -1 0 0 -1 0 0 -1 0 -0 -1 0 0 -1 0 0 -1 0 0 -1 0 0 -1 0 -0 -1 0 0 -1 0 0 -1 0 -0 -1 0 0 -1 0 0 -1 0 0 -1 0 0 -1 0 0 -1 0 0 -1 0 0 -1 0 0 -1 0 0 -1 0 0 -1 0 -0 -1 0 0 -1 0 0 -1 0 0 -1 0 -0 -1 0 0 -1 0 0 -1 0 0 -1 0 -0 -1 0 0 -1 0 0 -1 0 0 -1 0 -0 -1 0 0 -1 0 0 -1 0 0 -1 0 -0 -1 0 0 -1 0 0 -1 0 0 -1 0 -0 -1 0 0 -1 0 0 -1 0 0 -1 0 -0 -1 0 0 -1 0 0 -1 0 -0 -1 0 0 -1 0 0 -1 0 0 -1 0 0 -1 0 -0 -1 0 0 -1 0 0 -1 0 -0 -1 0 0 -1 0 0 -1 0 0 -1 0 0 -1 0 -0 -1 0 0 -1 0 0 -1 0 -0 -1 0 0 -1 0 0 -1 0 0 -1 0 0 -1 0 -0 -1 0 0 -1 0 0 -1 0 0 -1 0 -0 -1 0 0 -1 0 0 -1 0 0 -1 0 -0 -1 0 0 -1 0 0 -1 0 0 -1 0 -0 -1 0 -0 -1 0 0 -1 0 0 -1 0 0 -1 0 -0 -1 0 0 -1 0 0 -1 0 0 -1 0 -0 -1 0 0 -1 0 0 -1 0 0 -1 0 0 -1 0 -0 -1 0 0 -1 0 0 -1 0 0 -1 0 -0 -1 0 0 -1 0 0 -1 0 0 -1 0 -0 -1 0 0 -1 0 0 -1 0 0 -1 0 -0 -1 0 0 -1 0 -0 -1 0 0 -1 0 -0 -1 0 0 -1 0 -0 -1 0 0 -1 0 -0 -1 0 0 -1 0 -0 -1 0 -0 -1 0 0 -1 0 0 -1 0 -0 -1 0 -0 -1 0 0 -1 0 0 -1 0 -0 -1 0 0 -1 0 -0 -1 0 0 -1 0 0 -1 0 -0 -1 0 -0 -1 0 0 -1 0 0 -1 0 -0 -1 0 -0 -1 0 0 -1 0 0 -1 0 -0 -1 0 -0 -1 0 0 -1 0 0 -1 0 -0 -1 0 -0 -1 0 0 -1 0 -0 -1 0 0 -1 0 0 -1 0 -0 -1 0 -0 -1 0 0 -1 0 0 -1 0 -0 -1 0 -0 -1 0 0 -1 0 0 -1 0 -0 -1 0 -0 -1 0 0 -1 0 0 -1 0 -0 -1 0 -0 -1 0 0 -1 0 0 -1 0 -0 -1 0 0 -1 0 0 -1 0 0 -1 0 -0 -1 0 0 -1 0 0 -1 0 -0 -1 0 -0 -1 0 0 -1 0 0 -1 0 -0 -1 0 -0 -1 0 0 -1 0 0 -1 0 0 -1 0 -0 -1 0 0 -1 0 0 -1 0 0 -1 0 -0 -1 0 0 -1 0 0 -1 0 0 -1 0 -0 -1 0 0 -1 0 0 -1 0 -0 -1 0 0 -1 0 0 -1 0 0 -1 0 0 -1 0 -0 -1 0 0 -1 0 0 -1 0 -0 -1 0 0 -1 0 0 -1 0 0 -1 0 -0 -1 0 0 -1 0 0 -1 0 0 -1 0 0 -1 0 0 -1 0 0 -1 0 -0 -1 0 0 -1 0 0 -1 0 0 -1 0 -0 -1 0 0 -1 0 0 -1 0 0 -1 0 0 -1 0 -0 -1 0 0 -1 0 0 -1 0 0 -1 0 -0 -1 0 0 -1 0 0 -1 0 0 -1 0 -0 -1 0 0 -1 0 0 -1 0 0 -1 0 -0 -1 0 0 -1 0 0 -1 0 0 -1 0 -0 -1 0 0 -1 0 0 -1 0 0 -1 0 -0 -1 0 0 -1 0 0 -1 0 -0 -1 0 0 -1 0 0 -1 0 0 -1 0 -0 -1 0 0 -1 0 0 -1 0 0 -1 0 -0 -1 0 0 -1 0 0 -1 0 0 -1 0 -0 -1 0 0 -1 0 0 -1 0 0 -1 0 0 -1 0 -0 -1 0 0 -1 0 0 -1 0 -0 -1 0 0 -1 0 0 -1 0 0 -1 0 0 -1 0 -0 -1 0 0 -1 0 0 -1 0 -0 -1 0 0 -1 0 0 -1 0 -0 -1 0 0 -1 0 0 -1 0 0 -1 0 -0 -1 0 0 -1 0 0 -1 0 0 -1 0 -0 -1 0 0 -1 0 0 -1 0 0 -1 0 -0 -1 0 0 -1 0 0 -1 0 0 -1 0 -0 -1 0 0 -1 0 0 -1 0 0 -1 0 -0 -1 0 0 -1 0 0 -1 0 0 -1 0 -0 -1 0 0 -1 0 0 -1 0 0 -1 0 -0 -1 0 0 -1 0 0 -1 0 -0 -1 0 0 -1 0 0 -1 0 0 -1 0 -0 -1 0 0 -1 0 0 -1 0 0 -1 0 0 -1 0 -0 -1 0 0 -1 0 0 -1 0 0 -1 0 -0 -1 0 0 -1 0 0 -1 0 0 -1 0 -0 -1 0 0 -1 0 0 -1 0 0 -1 0 -0 -1 0 0 -1 0 0 -1 0 0 -1 0 -0 -1 0 0 -1 0 0 -1 0 0 -1 0 -0 -1 0 -0 -1 0 0 -1 0 0 -1 0 0 -1 0 -0 -1 0 0 -1 0 0 -1 0 0 -1 0 -0 -1 0 0 -1 0 0 -1 0 0 -1 0 -0 -1 0 0 -1 0 0 -1 0 0 -1 0 0 -1 0 -0 -1 0 0 -1 0 0 -1 0 0 -1 0 -0 -1 0 0 -1 0 0 -1 0 0 -1 0 -0 -1 0 0 -1 0 -0 -1 0 0 -1 0 -0 -1 0 0 -1 0 -0 -1 0 0 -1 0 -0 -1 0 0 -1 0 -0 -1 0 0 -1 0 -0 -1 0 0 -1 0 -0 -1 0 -0 -1 0 0 -1 0 0 -1 0 0 -1 0 -0 -1 0 -0 -1 0 0 -1 0 0 -1 0 -0 -1 0 -0 -1 0 0 -1 0 0 -1 0 -0 -1 0 -0 -1 0 0 -1 0 0 -1 0 -0 -1 0 -0 -1 0 0 -1 0 0 -1 0 -0 -1 0 -0 -1 0 0 -1 0 -0 -1 0 0 -1 0 0 -1 0 -0 -1 0 -0 -1 0 0 -1 0 0 -1 0 -0 -1 0 -0 -1 0 0 -1 0 0 -1 0 -0 -1 0 -0 -1 0 0 -1 0 0 -1 0 -0 -1 0 -0 -1 0 0 -1 0 0 -1 0 -0 -1 0 0 -1 0 0 -1 0 0 -1 0 -0 -1 0 0 -1 0 0 -1 0 -0 -1 0 0 -1 0 0 -1 0 0 -1 0 -0 -1 0 -0 -1 0 0 -1 0 0 -1 0 0 -1 0 -0 -1 0 0 -1 0 0 -1 0 0 -1 0 -0 -1 0 0 -1 0 0 -1 0 0 -1 0 -0 -1 0 0 -1 0 0 -1 0 0 -1 0 -0 -1 0 0 -1 0 0 -1 0 0 -1 0 -0 -1 0 0 -1 0 0 -1 0 0 -1 0 0 -1 0 -0 -1 0 0 -1 0 0 -1 0 0 -1 0 -0 -1 0 0 -1 0 0 -1 0 0 -1 0 0 -1 0 -0 -1 0 0 -1 0 0 -1 0 0 -1 0 0 -1 0 -0 -1 0 0 -1 0 0 -1 0 0 -1 0 -0 -1 0 0 -1 0 0 -1 0 0 -1 0 -0 -1 0 0 -1 0 0 -1 0 0 -1 0 -0 -1 0 0 -1 0 0 -1 0 0 -1 0 -0 -1 0 0 -1 0 0 -1 0 0 -1 0 -0 -1 0 0 -1 0 0 -1 0 0 -1 0 -0 -1 0 0 -1 0 0 -1 0 -0 -1 0 0 -1 0 0 -1 0 0 -1 0 -0 -1 0 0 -1 0 0 -1 0 0 -1 0 -0 -1 0 0 -1 0 0 -1 0 0 -1 0 -0 -1 0 0 -1 0 0 -1 0 0 -1 0 0 -1 0 -0 -1 0 0 -1 0 0 -1 0 0 -1 0 -0 -1 0 0 -1 0 0 -1 0 0 -1 0 -0 -1 0 -0 -1 0 0 -1 0 0 -1</float_array>
          <technique_common>
            <accessor count="1036" source="#cubenormals-array0-array" stride="3">
              <param type="float" name="X"/>
              <param type="float" name="Y"/>
              <param type="float" name="Z"/>
            </accessor>
          </technique_common>
        </source>
        <vertices id="cubeverts-array0-vertices">
          <input semantic="POSITION" source="#cubeverts-array0"/>
        </vertices>
        <triangles count="1036" material="ref_TopSilkscreen_HwOR001_shape001">
          <input offset="0" semantic="VERTEX" source="#cubeverts-array0-vertices"/>
          <input offset="1" semantic="NORMAL" source="#cubenormals-array0"/>
          <p>0 0 1 0 2 0 0 1 2 1 3 1 4 2 1 2 0 2 5 3 4 3 0 3 6 4 4 4 5 4 7 5 5 5 8 5 9 6 5 6 7 6 9 7 6 7 5 7 10 8 11 8 1 8 10 9 1 9 4 9 12 10 13 10 11 10 14 11 11 11 10 11 14 12 12 12 11 12 15 13 6 13 9 13 16 14 10 14 15 14 16 15 14 15 10 15 17 16 15 16 9 16 17 17 16 17 15 17 18 18 19 18 16 18 18 19 16 19 17 19 20 20 21 20 22 20 23 21 24 21 21 21 23 22 21 22 20 22 25 23 22 23 26 23 25 24 20 24 22 24 27 25 28 25 24 25 27 26 24 26 23 26 29 27 26 27 30 27 29 28 25 28 26 28 31 29 32 29 28 29 31 30 28 30 27 30 33 31 30 31 34 31 33 32 29 32 30 32 35 33 36 33 32 33 35 34 32 34 31 34 37 35 33 35 34 35 37 36 34 36 38 36 39 37 40 37 36 37 39 38 36 38 35 38 41 39 38 39 42 39 41 40 37 40 38 40 43 41 44 41 40 41 43 42 40 42 39 42 45 43 41 43 42 43 45 44 42 44 46 44 47 45 44 45 43 45 47 46 48 46 44 46 49 47 45 47 46 47 49 48 46 48 50 48 51 49 52 49 48 49 51 50 48 50 47 50 53 51 50 51 54 51 53 52 49 52 50 52 55 53 56 53 52 53 55 54 52 54 51 54 57 55 53 55 54 55 57 56 54 56 58 56 59 57 60 57 56 57 59 58 56 58 55 58 61 59 57 59 58 59 61 60 58 60 62 60 63 61 64 61 60 61 63 62 60 62 59 62 65 63 62 63 66 63 65 64 61 64 62 64 67 65 68 65 64 65 67 66 64 66 63 66 69 67 66 67 70 67 69 68 65 68 66 68 71 69 72 69 68 69 71 70 68 70 67 70 73 71 70 71 74 71 73 72 69 72 70 72 75 73 76 73 72 73 75 74 72 74 71 74 77 75 74 75 78 75 77 76 73 76 74 76 79 77 80 77 76 77 79 78 76 78 75 78 81 79 78 79 82 79 81 80 77 80 78 80 83 81 84 81 80 81 83 82 80 82 79 82 85 83 82 83 86 83 85 84 81 84 82 84 87 85 88 85 84 85 87 86 84 86 83 86 89 87 86 87 90 87 89 88 85 88 86 88 91 89 92 89 88 89 91 90 88 90 87 90 93 91 90 91 94 91 93 92 89 92 90 92 95 93 96 93 92 93 95 94 92 94 91 94 97 95 94 95 98 95 97 96 93 96 94 96 99 97 96 97 95 97 99 98 100 98 96 98 101 99 97 99 98 99 101 100 98 100 102 100 103 101 100 101 99 101 103 102 104 102 100 102 105 103 101 103 102 103 105 104 102 104 106 104 107 105 108 105 104 105 107 106 104 106 103 106 109 107 106 107 110 107 109 108 105 108 106 108 111 109 108 109 107 109 112 110 108 110 111 110 113 111 109 111 110 111 113 112 110 112 114 112 115 113 112 113 111 113 116 114 112 114 115 114 117 115 113 115 114 115 117 116 114 116 118 116 119 117 116 117 115 117 120 118 116 118 119 118 121 119 118 119 122 119 121 120 117 120 118 120 123 121 120 121 119 121 124 122 120 122 123 122 125 123 122 123 126 123 125 124 121 124 122 124 127 125 124 125 123 125 128 126 125 126 126 126 128 127 126 127 129 127 130 128 124 128 127 128 131 129 130 129 127 129 132 130 129 130 133 130 132 131 128 131 129 131 134 132 130 132 131 132 135 133 134 133 131 133 136 134 132 134 133 134 136 135 133 135 137 135 138 136 134 136 135 136 139 137 138 137 135 137 140 138 137 138 141 138 140 139 136 139 137 139 142 140 138 140 139 140 143 141 142 141 139 141 144 142 141 142 145 142 144 143 140 143 141 143 146 144 142 144 143 144 146 145 143 145 147 145 148 146 144 146 145 146 148 147 149 147 144 147 150 148 147 148 151 148 150 149 146 149 147 149 152 150 149 150 148 150 153 151 152 151 148 151 154 152 151 152 155 152 154 153 150 153 151 153 156 154 152 154 153 154 157 155 156 155 153 155 158 156 155 156 159 156 158 157 154 157 155 157 160 158 156 158 157 158 161 159 160 159 157 159 162 160 159 160 163 160 162 161 158 161 159 161 164 162 160 162 161 162 165 163 164 163 161 163 166 164 164 164 165 164 167 165 163 165 168 165 167 166 162 166 163 166 169 167 166 167 165 167 170 168 166 168 169 168 171 169 168 169 172 169 171 170 167 170 168 170 173 171 170 171 169 171 174 172 170 172 173 172 175 173 172 173 176 173 175 174 171 174 172 174 177 175 174 175 173 175 178 176 174 176 177 176 179 177 176 177 180 177 179 178 175 178 176 178 181 179 182 179 178 179 181 180 178 180 177 180 183 181 180 181 184 181 183 182 179 182 180 182 185 183 186 183 182 183 185 184 182 184 181 184 187 185 184 185 188 185 187 186 183 186 184 186 189 187 190 187 186 187 189 188 186 188 185 188 191 189 188 189 192 189 191 190 187 190 188 190 193 191 194 191 190 191 193 192 190 192 189 192 195 193 192 193 196 193 195 194 191 194 192 194 197 195 194 195 193 195 198 196 196 196 199 196 198 197 195 197 196 197 200 198 201 198 202 198 200 199 202 199 194 199 200 200 194 200 197 200 203 201 198 201 199 201 203 202 199 202 204 202 205 203 201 203 200 203 206 204 204 204 207 204 206 205 203 205 204 205 208 206 201 206 205 206 208 207 209 207 201 207 208 208 210 208 209 208 211 209 207 209 212 209 211 210 206 210 207 210 213 211 210 211 208 211 213 212 214 212 210 212 215 213 212 213 216 213 215 214 211 214 212 214 217 215 218 215 214 215 217 216 214 216 213 216 219 217 216 217 220 217 219 218 215 218 216 218 221 219 218 219 217 219 221 220 222 220 218 220 223 221 220 221 224 221 223 222 219 222 220 222 225 223 222 223 221 223 225 224 226 224 222 224 227 225 224 225 228 225 227 226 223 226 224 226 229 227 230 227 226 227 229 228 226 228 225 228 231 229 228 229 232 229 231 230 227 230 228 230 233 231 234 231 230 231 233 232 230 232 229 232 235 233 232 233 236 233 235 234 231 234 232 234 237 235 238 235 234 235 237 236 234 236 233 236 239 237 236 237 240 237 239 238 235 238 236 238 241 239 242 239 238 239 241 240 238 240 237 240 243 241 239 241 240 241 243 242 240 242 244 242 245 243 242 243 241 243 245 244 246 244 242 244 247 245 244 245 248 245 247 246 243 246 244 246 249 247 246 247 245 247 249 248 250 248 246 248 251 249 247 249 248 249 251 250 248 250 252 250 253 251 250 251 249 251 253 252 254 252 250 252 255 253 251 253 252 253 255 254 252 254 256 254 257 255 254 255 253 255 257 256 258 256 254 256 259 257 256 257 260 257 259 258 255 258 256 258 261 259 262 259 258 259 261 260 258 260 257 260 263 261 260 261 264 261 263 262 259 262 260 262 265 263 262 263 261 263 265 264 266 264 262 264 267 265 263 265 264 265 267 266 264 266 268 266 269 267 270 267 266 267 269 268 266 268 265 268 271 269 267 269 268 269 271 270 268 270 270 270 271 271 270 271 269 271 272 272 273 272 274 272 275 273 276 273 273 273 275 274 273 274 272 274 277 275 274 275 278 275 277 276 272 276 274 276 279 277 280 277 276 277 279 278 276 278 275 278 281 279 278 279 282 279 281 280 277 280 278 280 283 281 284 281 280 281 283 282 280 282 279 282 285 283 282 283 286 283 285 284 281 284 282 284 287 285 288 285 284 285 287 286 284 286 283 286 289 287 286 287 290 287 289 288 285 288 286 288 291 289 288 289 287 289 291 290 292 290 288 290 293 291 290 291 294 291 293 292 289 292 290 292 295 293 296 293 292 293 295 294 292 294 291 294 297 295 294 295 298 295 297 296 293 296 294 296 299 297 300 297 296 297 299 298 296 298 295 298 301 299 298 299 302 299 301 300 297 300 298 300 303 301 304 301 300 301 303 302 300 302 299 302 305 303 302 303 306 303 305 304 301 304 302 304 307 305 308 305 304 305 307 306 304 306 303 306 309 307 306 307 310 307 309 308 305 308 306 308 311 309 312 309 308 309 311 310 308 310 307 310 313 311 310 311 314 311 313 312 309 312 310 312 315 313 316 313 312 313 315 314 312 314 311 314 317 315 314 315 318 315 317 316 313 316 314 316 319 317 320 317 316 317 319 318 316 318 315 318 321 319 317 319 318 319 321 320 318 320 322 320 323 321 324 321 320 321 323 322 320 322 319 322 325 323 322 323 326 323 325 324 321 324 322 324 327 325 328 325 324 325 327 326 324 326 323 326 329 327 326 327 330 327 329 328 325 328 326 328 331 329 332 329 328 329 331 330 328 330 327 330 333 331 330 331 334 331 333 332 329 332 330 332 335 333 336 333 332 333 335 334 332 334 331 334 337 335 334 335 338 335 337 336 333 336 334 336 339 337 340 337 336 337 339 338 336 338 335 338 341 339 338 339 342 339 341 340 337 340 338 340 343 341 344 341 340 341 343 342 340 342 339 342 345 343 342 343 346 343 345 344 341 344 342 344 347 345 348 345 344 345 347 346 344 346 343 346 349 347 346 347 350 347 349 348 345 348 346 348 351 349 348 349 347 349 351 350 352 350 348 350 353 351 349 351 350 351 353 352 350 352 354 352 355 353 352 353 351 353 355 354 356 354 352 354 357 355 353 355 354 355 357 356 354 356 358 356 359 357 360 357 356 357 359 358 356 358 355 358 361 359 357 359 358 359 361 360 358 360 362 360 363 361 360 361 359 361 364 362 360 362 363 362 365 363 361 363 362 363 365 364 362 364 366 364 367 365 364 365 363 365 368 366 364 366 367 366 369 367 365 367 366 367 369 368 366 368 370 368 371 369 368 369 367 369 372 370 368 370 371 370 373 371 369 371 370 371 373 372 370 372 374 372 375 373 372 373 371 373 376 374 372 374 375 374 377 375 374 375 378 375 377 376 373 376 374 376 379 377 376 377 375 377 380 378 378 378 381 378 380 379 377 379 378 379 382 380 376 380 379 380 383 381 382 381 379 381 384 382 381 382 385 382 384 383 380 383 381 383 386 384 382 384 383 384 387 385 386 385 383 385 388 386 385 386 389 386 388 387 384 387 385 387 390 388 386 388 387 388 391 389 390 389 387 389 392 390 389 390 393 390 392 391 388 391 389 391 394 392 390 392 391 392 395 393 394 393 391 393 396 394 393 394 397 394 396 395 392 395 393 395 398 396 394 396 395 396 398 397 395 397 399 397 400 398 396 398 397 398 401 399 400 399 397 399 402 400 399 400 403 400 402 401 398 401 399 401 404 402 400 402 401 402 405 403 404 403 401 403 406 404 403 404 407 404 406 405 402 405 403 405 408 406 404 406 405 406 409 407 408 407 405 407 410 408 407 408 411 408 410 409 406 409 407 409 412 410 408 410 409 410 413 411 412 411 409 411 414 412 411 412 415 412 414 413 410 413 411 413 416 414 412 414 413 414 417 415 416 415 413 415 418 416 416 416 417 416 419 417 415 417 420 417 419 418 414 418 415 418 421 419 418 419 417 419 422 420 418 420 421 420 423 421 420 421 424 421 423 422 419 422 420 422 425 423 422 423 421 423 426 424 422 424 425 424 427 425 424 425 428 425 427 426 423 426 424 426 429 427 426 427 425 427 430 428 426 428 429 428 431 429 428 429 432 429 431 430 427 430 428 430 433 431 430 431 429 431 434 432 432 432 435 432 434 433 431 433 432 433 436 434 430 434 433 434 436 435 437 435 438 435 436 436 438 436 430 436 439 437 435 437 440 437 439 438 434 438 435 438 441 439 442 439 437 439 441 440 437 440 436 440 443 441 440 441 444 441 443 442 439 442 440 442 445 443 446 443 442 443 445 444 442 444 441 444 447 445 444 445 448 445 447 446 443 446 444 446 449 447 446 447 445 447 450 448 448 448 451 448 450 449 447 449 448 449 452 450 453 450 454 450 452 451 454 451 446 451 452 452 446 452 449 452 455 453 451 453 456 453 455 454 450 454 451 454 457 455 453 455 452 455 457 456 458 456 453 456 459 457 456 457 460 457 459 458 455 458 456 458 461 459 458 459 457 459 461 460 462 460 458 460 463 461 460 461 464 461 463 462 459 462 460 462 465 463 462 463 461 463 465 464 466 464 462 464 467 465 464 465 468 465 467 466 463 466 464 466 469 467 470 467 466 467 469 468 466 468 465 468 471 469 468 469 472 469 471 470 467 470 468 470 473 471 470 471 469 471 473 472 474 472 470 472 475 473 472 473 476 473 475 474 471 474 472 474 477 475 478 475 474 475 477 476 474 476 473 476 479 477 476 477 480 477 479 478 475 478 476 478 481 479 482 479 478 479 481 480 478 480 477 480 483 481 480 481 484 481 483 482 479 482 480 482 485 483 486 483 482 483 485 484 482 484 481 484 487 485 484 485 488 485 487 486 483 486 484 486 489 487 490 487 486 487 489 488 486 488 485 488 491 489 488 489 492 489 491 490 487 490 488 490 493 491 494 491 490 491 493 492 490 492 489 492 495 493 491 493 492 493 495 494 492 494 496 494 497 495 494 495 493 495 497 496 498 496 494 496 499 497 496 497 500 497 499 498 495 498 496 498 501 499 498 499 497 499 501 500 502 500 498 500 503 501 499 501 500 501 503 502 500 502 504 502 505 503 502 503 501 503 505 504 506 504 502 504 507 505 504 505 508 505 507 506 503 506 504 506 509 507 506 507 505 507 509 508 510 508 506 508 511 509 507 509 508 509 511 510 508 510 512 510 513 511 514 511 510 511 513 512 510 512 509 512 515 513 512 513 516 513 515 514 511 514 512 514 517 515 514 515 513 515 517 516 518 516 514 516 519 517 516 517 520 517 519 518 515 518 516 518 521 519 522 519 518 519 521 520 518 520 517 520 523 521 519 521 520 521 523 522 520 522 522 522 523 523 522 523 521 523 524 524 525 524 526 524 524 525 526 525 527 525 528 526 529 526 527 526 528 527 527 527 526 527 530 528 531 528 529 528 530 529 529 529 528 529 530 530 525 530 524 530 530 531 524 531 531 531 532 532 533 532 534 532 535 533 536 533 533 533 535 534 533 534 532 534 537 535 534 535 538 535 537 536 532 536 534 536 539 537 540 537 536 537 539 538 536 538 535 538 541 539 538 539 542 539 541 540 537 540 538 540 543 541 544 541 540 541 543 542 540 542 539 542 545 543 542 543 546 543 545 544 541 544 542 544 547 545 548 545 544 545 547 546 544 546 543 546 549 547 546 547 550 547 549 548 545 548 546 548 551 549 552 549 548 549 551 550 548 550 547 550 553 551 550 551 554 551 553 552 549 552 550 552 555 553 556 553 552 553 555 554 552 554 551 554 557 555 554 555 558 555 557 556 553 556 554 556 559 557 560 557 556 557 559 558 556 558 555 558 561 559 558 559 562 559 561 560 557 560 558 560 563 561 560 561 559 561 563 562 564 562 560 562 565 563 561 563 562 563 565 564 562 564 566 564 567 565 568 565 564 565 567 566 564 566 563 566 569 567 566 567 570 567 569 568 565 568 566 568 571 569 568 569 567 569 571 570 572 570 568 570 573 571 570 571 574 571 573 572 569 572 570 572 575 573 576 573 572 573 575 574 572 574 571 574 577 575 574 575 578 575 577 576 573 576 574 576 579 577 576 577 575 577 579 578 580 578 576 578 581 579 578 579 582 579 581 580 577 580 578 580 583 581 584 581 580 581 583 582 580 582 579 582 585 583 582 583 586 583 585 584 581 584 582 584 587 585 588 585 584 585 587 586 584 586 583 586 589 587 586 587 590 587 589 588 585 588 586 588 591 589 592 589 588 589 591 590 588 590 587 590 593 591 590 591 594 591 593 592 589 592 590 592 595 593 596 593 592 593 595 594 592 594 591 594 597 595 594 595 598 595 597 596 593 596 594 596 599 597 600 597 596 597 599 598 596 598 595 598 601 599 598 599 602 599 601 600 597 600 598 600 603 601 604 601 600 601 603 602 600 602 599 602 605 603 602 603 606 603 605 604 601 604 602 604 607 605 608 605 604 605 607 606 604 606 603 606 609 607 605 607 606 607 609 608 606 608 610 608 611 609 612 609 608 609 611 610 608 610 607 610 613 611 609 611 610 611 613 612 610 612 614 612 615 613 616 613 612 613 615 614 612 614 611 614 617 615 613 615 614 615 617 616 614 616 618 616 619 617 616 617 615 617 619 618 620 618 616 618 621 619 617 619 618 619 621 620 618 620 622 620 623 621 620 621 619 621 624 622 620 622 623 622 625 623 621 623 622 623 625 624 622 624 626 624 627 625 624 625 623 625 628 626 624 626 627 626 629 627 625 627 626 627 629 628 626 628 630 628 631 629 628 629 627 629 632 630 628 630 631 630 633 631 630 631 634 631 633 632 629 632 630 632 635 633 632 633 631 633 636 634 632 634 635 634 637 635 633 635 634 635 637 636 634 636 638 636 639 637 636 637 635 637 640 638 637 638 638 638 640 639 638 639 641 639 642 640 636 640 639 640 643 641 642 641 639 641 644 642 641 642 645 642 644 643 640 643 641 643 646 644 642 644 643 644 647 645 646 645 643 645 648 646 645 646 649 646 648 647 644 647 645 647 650 648 646 648 647 648 651 649 650 649 647 649 652 650 649 650 653 650 652 651 648 651 649 651 654 652 650 652 651 652 655 653 654 653 651 653 656 654 653 654 657 654 656 655 652 655 653 655 658 656 654 656 655 656 658 657 655 657 659 657 660 658 656 658 657 658 661 659 660 659 657 659 662 660 659 660 663 660 662 661 658 661 659 661 664 662 660 662 661 662 665 663 664 663 661 663 666 664 663 664 667 664 666 665 662 665 663 665 668 666 664 666 665 666 669 667 668 667 665 667 670 668 667 668 671 668 670 669 666 669 667 669 672 670 668 670 669 670 673 671 672 671 669 671 674 672 671 672 675 672 674 673 670 673 671 673 676 674 672 674 673 674 677 675 676 675 673 675 678 676 675 676 679 676 678 677 674 677 675 677 680 678 676 678 677 678 680 679 681 679 676 679 682 680 679 680 683 680 682 681 678 681 679 681 684 682 685 682 681 682 684 683 681 683 680 683 686 684 685 684 684 684 687 685 683 685 688 685 687 686 682 686 683 686 689 687 686 687 684 687 690 688 686 688 689 688 691 689 688 689 692 689 691 690 687 690 688 690 693 691 694 691 690 691 693 692 690 692 689 692 695 693 692 693 696 693 695 694 691 694 692 694 697 695 698 695 694 695 697 696 694 696 693 696 699 697 696 697 700 697 699 698 695 698 696 698 701 699 702 699 698 699 701 700 698 700 697 700 703 701 700 701 704 701 703 702 699 702 700 702 705 703 702 703 701 703 706 704 704 704 707 704 706 705 703 705 704 705 708 706 702 706 705 706 708 707 709 707 710 707 708 708 710 708 702 708 711 709 707 709 712 709 711 710 706 710 707 710 713 711 709 711 708 711 714 712 712 712 715 712 714 713 711 713 712 713 716 714 709 714 713 714 716 715 717 715 709 715 718 716 715 716 719 716 718 717 714 717 715 717 720 718 717 718 716 718 720 719 721 719 717 719 720 720 722 720 721 720 723 721 719 721 724 721 723 722 718 722 719 722 725 723 722 723 720 723 725 724 726 724 722 724 727 725 724 725 728 725 727 726 723 726 724 726 729 727 726 727 725 727 729 728 730 728 726 728 731 729 728 729 732 729 731 730 727 730 728 730 733 731 734 731 730 731 733 732 730 732 729 732 735 733 732 733 736 733 735 734 731 734 732 734 737 735 738 735 734 735 737 736 734 736 733 736 739 737 736 737 740 737 739 738 735 738 736 738 741 739 742 739 738 739 741 740 738 740 737 740 743 741 740 741 744 741 743 742 739 742 740 742 745 743 746 743 742 743 745 744 742 744 741 744 747 745 744 745 748 745 747 746 743 746 744 746 749 747 750 747 746 747 749 748 746 748 745 748 751 749 748 749 752 749 751 750 747 750 748 750 753 751 754 751 750 751 753 752 750 752 749 752 755 753 751 753 752 753 755 754 752 754 756 754 757 755 754 755 753 755 757 756 758 756 754 756 759 757 756 757 760 757 759 758 755 758 756 758 761 759 758 759 757 759 761 760 762 760 758 760 763 761 759 761 760 761 763 762 760 762 764 762 765 763 762 763 761 763 765 764 766 764 762 764 767 765 763 765 764 765 767 766 764 766 768 766 769 767 766 767 765 767 769 768 770 768 766 768 771 769 768 769 772 769 771 770 767 770 768 770 773 771 774 771 770 771 773 772 770 772 769 772 775 773 771 773 772 773 775 774 772 774 776 774 777 775 774 775 773 775 777 776 778 776 774 776 779 777 775 777 776 777 779 778 776 778 780 778 781 779 782 779 778 779 781 780 778 780 777 780 783 781 779 781 780 781 783 782 780 782 782 782 783 783 782 783 781 783 784 784 785 784 786 784 787 785 788 785 785 785 787 786 785 786 784 786 789 787 786 787 790 787 789 788 784 788 786 788 791 789 792 789 788 789 791 790 788 790 787 790 793 791 790 791 794 791 793 792 789 792 790 792 795 793 796 793 792 793 795 794 792 794 791 794 797 795 794 795 798 795 797 796 793 796 794 796 799 797 800 797 796 797 799 798 796 798 795 798 801 799 798 799 802 799 801 800 797 800 798 800 803 801 804 801 800 801 803 802 800 802 799 802 805 803 802 803 806 803 805 804 801 804 802 804 807 805 808 805 804 805 807 806 804 806 803 806 809 807 806 807 810 807 809 808 805 808 806 808 811 809 812 809 808 809 811 810 808 810 807 810 813 811 810 811 814 811 813 812 809 812 810 812 815 813 816 813 812 813 815 814 812 814 811 814 817 815 814 815 818 815 817 816 813 816 814 816 819 817 816 817 815 817 819 818 820 818 816 818 821 819 817 819 818 819 821 820 818 820 822 820 823 821 820 821 819 821 823 822 824 822 820 822 825 823 822 823 826 823 825 824 821 824 822 824 827 825 828 825 824 825 827 826 824 826 823 826 829 827 825 827 826 827 829 828 826 828 830 828 831 829 832 829 828 829 831 830 828 830 827 830 833 831 830 831 834 831 833 832 829 832 830 832 835 833 836 833 832 833 835 834 832 834 831 834 837 835 834 835 838 835 837 836 833 836 834 836 839 837 840 837 836 837 839 838 836 838 835 838 841 839 838 839 842 839 841 840 837 840 838 840 843 841 844 841 840 841 843 842 840 842 839 842 845 843 842 843 846 843 845 844 841 844 842 844 847 845 848 845 844 845 847 846 844 846 843 846 849 847 846 847 850 847 849 848 845 848 846 848 851 849 852 849 848 849 851 850 848 850 847 850 853 851 850 851 854 851 853 852 849 852 850 852 855 853 856 853 852 853 855 854 852 854 851 854 857 855 854 855 858 855 857 856 853 856 854 856 859 857 860 857 856 857 859 858 856 858 855 858 861 859 858 859 862 859 861 860 857 860 858 860 863 861 864 861 860 861 863 862 860 862 859 862 865 863 861 863 862 863 865 864 862 864 866 864 867 865 868 865 864 865 867 866 864 866 863 866 869 867 865 867 866 867 869 868 866 868 870 868 871 869 868 869 867 869 871 870 872 870 868 870 873 871 869 871 870 871 873 872 870 872 874 872 875 873 872 873 871 873 876 874 872 874 875 874 877 875 873 875 874 875 877 876 874 876 878 876 879 877 876 877 875 877 880 878 876 878 879 878 881 879 877 879 878 879 881 880 878 880 882 880 883 881 880 881 879 881 884 882 880 882 883 882 885 883 881 883 882 883 885 884 882 884 886 884 887 885 884 885 883 885 888 886 884 886 887 886 889 887 885 887 886 887 889 888 886 888 890 888 891 889 888 889 887 889 892 890 890 890 893 890 892 891 889 891 890 891 894 892 888 892 891 892 895 893 894 893 891 893 896 894 893 894 897 894 896 895 892 895 893 895 898 896 894 896 895 896 899 897 898 897 895 897 900 898 897 898 901 898 900 899 896 899 897 899 902 900 898 900 899 900 903 901 902 901 899 901 904 902 901 902 905 902 904 903 900 903 901 903 906 904 902 904 903 904 907 905 906 905 903 905 908 906 905 906 909 906 908 907 904 907 905 907 910 908 906 908 907 908 910 909 907 909 911 909 912 910 908 910 909 910 913 911 912 911 909 911 914 912 911 912 915 912 914 913 910 913 911 913 916 914 912 914 913 914 917 915 916 915 913 915 918 916 915 916 919 916 918 917 914 917 915 917 920 918 916 918 917 918 921 919 920 919 917 919 922 920 919 920 923 920 922 921 918 921 919 921 924 922 920 922 921 922 925 923 924 923 921 923 926 924 923 924 927 924 926 925 922 925 923 925 928 926 924 926 925 926 929 927 928 927 925 927 930 928 927 928 931 928 930 929 926 929 927 929 932 930 933 930 928 930 932 931 928 931 929 931 934 932 931 932 935 932 934 933 930 933 931 933 936 934 937 934 933 934 936 935 933 935 932 935 938 936 935 936 939 936 938 937 934 937 935 937 940 938 941 938 937 938 940 939 937 939 936 939 942 940 941 940 940 940 943 941 939 941 944 941 943 942 938 942 939 942 945 943 946 943 942 943 945 944 942 944 940 944 947 945 944 945 948 945 947 946 943 946 944 946 949 947 950 947 946 947 949 948 946 948 945 948 951 949 948 949 952 949 951 950 947 950 948 950 953 951 954 951 950 951 953 952 950 952 949 952 955 953 952 953 956 953 955 954 951 954 952 954 957 955 958 955 954 955 957 956 954 956 953 956 959 957 956 957 960 957 959 958 955 958 956 958 961 959 958 959 957 959 961 960 962 960 958 960 963 961 960 961 964 961 963 962 959 962 960 962 965 963 962 963 961 963 965 964 966 964 962 964 967 965 963 965 964 965 967 966 964 966 968 966 969 967 966 967 965 967 969 968 970 968 966 968 971 969 967 969 968 969 971 970 968 970 972 970 973 971 970 971 969 971 973 972 974 972 970 972 975 973 972 973 976 973 975 974 971 974 972 974 977 975 974 975 973 975 977 976 978 976 974 976 979 977 976 977 980 977 979 978 975 978 976 978 981 979 982 979 978 979 981 980 978 980 977 980 983 981 980 981 984 981 983 982 979 982 980 982 985 983 986 983 982 983 985 984 982 984 981 984 987 985 984 985 988 985 987 986 983 986 984 986 989 987 990 987 986 987 989 988 986 988 985 988 991 989 988 989 992 989 991 990 987 990 988 990 993 991 994 991 990 991 993 992 990 992 989 992 995 993 992 993 996 993 995 994 991 994 992 994 997 995 998 995 994 995 997 996 994 996 993 996 999 997 996 997 1000 997 999 998 995 998 996 998 1001 999 1002 999 998 999 1001 1000 998 1000 997 1000 1003 1001 1000 1001 1004 1001 1003 1002 999 1002 1000 1002 1005 1003 1006 1003 1002 1003 1005 1004 1002 1004 1001 1004 1007 1005 1003 1005 1004 1005 1007 1006 1004 1006 1008 1006 1009 1007 1006 1007 1005 1007 1009 1008 1010 1008 1006 1008 1011 1009 1008 1009 1012 1009 1011 1010 1007 1010 1008 1010 1013 1011 1010 1011 1009 1011 1013 1012 1014 1012 1010 1012 1015 1013 1011 1013 1012 1013 1015 1014 1012 1014 1016 1014 1017 1015 1014 1015 1013 1015 1017 1016 1018 1016 1014 1016 1019 1017 1016 1017 1020 1017 1019 1018 1015 1018 1016 1018 1021 1019 1018 1019 1017 1019 1021 1020 1022 1020 1018 1020 1023 1021 1020 1021 1024 1021 1023 1022 1019 1022 1020 1022 1025 1023 1026 1023 1022 1023 1025 1024 1022 1024 1021 1024 1027 1025 1024 1025 1028 1025 1027 1026 1023 1026 1024 1026 1029 1027 1030 1027 1026 1027 1029 1028 1026 1028 1025 1028 1031 1029 1028 1029 1032 1029 1031 1030 1027 1030 1028 1030 1033 1031 1034 1031 1030 1031 1033 1032 1030 1032 1029 1032 1035 1033 1034 1033 1033 1033 1035 1034 1032 1034 1034 1034 1035 1035 1031 1035 1032 1035</p>
        </triangles>
      </mesh>
    </geometry>
  </library_geometries>
  <library_materials>
    <material id="mat_TopSilkscreen_HwOR001_shape001" name="TopSilkscreen_HwOR001_shape001">
      <instance_effect url="#effect_TopSilkscreen_HwOR001_shape001"/>
    </material>
  </library_materials>
  <library_visual_scenes>
    <visual_scene id="myscene">
      <node id="node0" name="node0">
        <instance_geometry url="#geometry0">
          <bind_material>
            <technique_common>
              <instance_material symbol="ref_TopSilkscreen_HwOR001_shape001" target="#mat_TopSilkscreen_HwOR001_shape001"/>
            </technique_common>
          </bind_material>
        </instance_geometry>
      </node>
    </visual_scene>
  </library_visual_scenes>
  <scene>
    <instance_visual_scene url="#myscene"/>
  </scene>
</COLLADA>
